<?xml version="1.0" standalone="no"?><!DOCTYPE svg PUBLIC "-//W3C//DTD SVG 1.1//EN" "http://www.w3.org/Graphics/SVG/1.1/DTD/svg11.dtd"><svg class="icon" width="200px" height="200.00px" viewBox="0 0 1024 1024" version="1.1" xmlns="http://www.w3.org/2000/svg"><path d="M495.223657 940.571429c-36.914286 0-78.285714-3.657143-130.057143-11.542858-63.2-9.6-119.314286-19.085714-166.857143-38.628571C147.452229 869.6 108.252229 837.714286 74.995086 790.171429 28.252229 723.2 0.937943 631.085714 0.023657 537.714286c-0.457143-46.628571 5.714286-90.4 18.171429-130.171429 13.942857-44.342857 34.971429-81.142857 62.742857-109.6 32.914286-33.714286 96.914286-85.714286 177.942857-130.742857 63.542857-35.314286 159.771429-78.285714 257.942857-83.085714 9.028571-0.457143 18.171429-0.685714 27.428572-0.685715 64.685714 0 130.628571 10.514286 190.857142 30.514286 66.742857 22.171429 122.4 54.971429 161.028572 94.971429 27.428571 28.457143 62.857143 88.114286 90.4 152.228571 14.171429 33.142857 24.914286 64.685714 31.085714 91.314286 8.8 38.628571 8.571429 68.8-0.8 92.457143-9.028571 22.742857-24.914286 52.457143-59.885714 56.914285-1.028571 1.828571-2.171429 4.114286-3.428572 6.971429-24.685714 53.257143-60.8 107.2-104.342857 156-39.428571 44.114286-82.971429 82.171429-126.057143 109.942857-70.285714 45.6-140.571429 65.828571-227.885714 65.828572z" fill="#25467A" /><path d="M519.109371 135.771429c122.4-6.057143 268.457143 32.457143 343.885715 110.514285C908.595086 293.714286 994.0808 470.514286 972.595086 524.571429c-21.942857 55.2-31.085714-5.942857-62.171429 61.142857C862.195086 689.942857 773.623657 781.714286 698.309371 830.4c-100.571429 65.142857-195.885714 67.085714-326.4 47.314286-130.4-19.771429-200.685714-35.885714-258.628571-118.742857-83.885714-120.228571-90.4-330.171429 0.8-423.428572 65.942857-67.657143 244-191.771429 405.028571-199.771428z" fill="#FFD600" /><path d="M370.423657 295.2C450.309371 307.428571 561.737943 326.4 627.109371 413.942857c90.057143 120.914286 82.971429 328.8-0.685714 423.428572-57.714286 65.257143-127.428571 60.114286-256.914286 40.342857C240.023657 858.057143 170.309371 841.942857 112.823657 758.971429c-83.314286-120.228571-89.714286-330.171429 0.685714-423.428572 65.6-67.657143 177.028571-52.571429 256.914286-40.342857z" fill="#FBC02D" /><path d="M496.137943 859.885714c-32 0-70.628571-4.914286-122.628572-12.914285-130.171429-19.885714-188.114286-35.085714-237.714285-106.742858-36.342857-52.342857-58.4-128.457143-59.085715-203.428571-0.685714-75.771429 19.885714-140.914286 56.571429-178.742857 27.657143-28.457143 69.371429-42.285714 127.542857-42.285714 35.428571 0 71.657143 5.028571 105.6 10.285714 71.085714 10.857143 178.514286 27.314286 238.4 107.542857 38.057143 51.085714 59.428571 124.571429 58.4 201.6-0.914286 73.485714-22.4 141.028571-57.485714 180.8-27.885714 31.542857-58.628571 43.885714-109.6 43.885714z" fill="#FFF7E7" /><path d="M474.652229 837.828571c-24.914286-1.371429-62.285714-4.914286-105.942858-11.085714-115.314286-16.342857-142.171429-24-168.8-48-23.314286-21.028571-32.114286-48.228571-31.2-77.6 0.8-26.742857 15.428571-45.714286 31.771429-57.6 14.057143-10.171429 43.657143-14.514286 67.314286-13.257143 27.657143 1.485714 57.371429 5.485714 85.371428 9.485715 53.485714 7.542857 146.628571 16.571429 182.971429 47.2 23.542857 19.885714 29.6 52.685714 22.171428 81.257142-8.8 34.171429-50.057143 71.428571-83.657142 69.6z" fill="#F5A816" /><path d="M944.366514 550.742857c-8.8 0.114286-18.742857 2.285714-33.828571 34.971429-37.028571 79.885714-97.714286 152.457143-157.942857 203.885714 41.942857-55.314286 92.228571-140.914286 93.942857-253.257143 1.828571-122.171429-38.742857-199.542857-20.114286-211.085714 20.685714-12.914286 99.771429 53.714286 117.028572 161.828571 3.428571 21.485714 3.428571 42.742857 0.914285 63.657143z" fill="#FBC02D" /><path d="M347.566514 603.2c-34.971429-4.685714-59.657143-36.914286-54.971428-72 0.914286-6.971429 7.314286-11.885714 14.4-10.971429 6.971429 0.914286 11.885714 7.314286 10.971428 14.4-2.857143 21.028571 11.885714 40.342857 32.914286 43.2s40.342857-11.885714 43.2-32.914285c0.914286-6.971429 7.314286-11.885714 14.4-10.971429 6.971429 0.914286 11.885714 7.314286 10.971429 14.4-4.571429 34.971429-36.914286 59.542857-71.885715 54.857143zM204.823657 416.114286c-2.857143 21.028571 11.885714 40.342857 32.914286 43.2s40.342857-11.885714 43.2-32.914286-11.885714-40.342857-32.914286-43.2-40.342857 11.885714-43.2 32.914286zM458.537943 450.171429c-2.857143 21.028571 11.885714 40.342857 32.914286 43.2s40.342857-11.885714 43.2-32.914286-11.885714-40.342857-32.914286-43.2-40.342857 11.885714-43.2 32.914286z" fill="#25467A" /><path d="M183.566514 477.828571l-50.742857-6.857142c-14.057143-1.828571-26.857143 7.885714-28.8 21.942857-1.828571 14.057143 7.885714 26.857143 21.942857 28.8l50.742857 6.857143c14.057143 1.828571 26.857143-7.885714 28.8-21.942858 1.942857-14.057143-7.885714-26.857143-21.942857-28.8z m405.942857 54.514286l-50.742857-6.857143c-14.057143-1.828571-26.857143 7.885714-28.8 21.942857-1.828571 14.057143 7.885714 26.857143 21.942857 28.8l50.742858 6.857143c14.057143 1.828571 26.857143-7.885714 28.8-21.942857 1.942857-14.057143-7.885714-26.857143-21.942858-28.8z" fill="#FFD600" /></svg>