<?xml version="1.0" standalone="no"?><!DOCTYPE svg PUBLIC "-//W3C//DTD SVG 1.1//EN" "http://www.w3.org/Graphics/SVG/1.1/DTD/svg11.dtd"><svg class="icon" width="200px" height="200.00px" viewBox="0 0 1024 1024" version="1.1" xmlns="http://www.w3.org/2000/svg"><path d="M689.622731 983.885714c-27.314286 0-53.257143-5.714286-77.142857-17.028571-15.771429-7.542857-30.171429-17.257143-43.2-29.028572-2.4 0.571429-4.685714 1.028571-6.971428 1.6-117.142857 25.942857-217.714286 31.428571-281.371429 31.428572-44.228571 0-84-2.628571-115.085714-7.542857-16-2.514286-28.8-5.6-39.2-9.257143-24-8.457143-38.4-22.857143-42.742857-42.857143-4.342857-19.885714 2.514286-38.971429 20.457143-56.685714 7.428571-7.314286 17.142857-14.971429 29.6-23.542857-33.714286-18.171429-62.171429-42.628571-84.342858-72.8C19.908446 717.714286 3.451303 670.057143 0.479874 616.342857c-2.742857-49.371429 6.285714-101.714286 26.742857-155.428571 40.342857-106.171429 121.6-208.114286 228.914286-286.971429 58.514286-42.971429 120.914286-76.571429 185.485714-99.657143 63.314286-22.628571 125.371429-34.171429 184.571429-34.171428 108.114286 0 196.571429 39.314286 249.028571 110.742857 24.114286 32.914286 39.657143 70.971429 46.171429 113.257143 4.228571 27.314286 4.457143 56.114286 0.914286 85.714285 25.942857 15.2 47.542857 36.8 64.342857 64.342858 17.714286 29.142857 29.371429 63.657143 34.514286 102.514285 9.942857 75.314286-5.6 160.914286-43.542858 240.914286-9.828571 20.685714-20.914286 40.457143-33.028571 59.2 13.371429 15.428571 18.285714 31.885714 14.514286 49.028571-7.542857 34.742857-44.228571 43.314286-58.057143 46.514286-13.257143 3.085714-30.057143 5.714286-49.142857 7.771429-51.885714 41.257143-109.028571 63.771429-162.285715 63.771428z" fill="#25467A" /><path d="M88.167496 729.511638a300.114286 464.457143 53.678 1 0 748.427082-550.216915 300.114286 464.457143 53.678 1 0-748.427082 550.216915Z" fill="#AFB42B" /><path d="M640.137017 696.228571c-206.628571 151.885714-453.714286 166.857143-552 33.257143-11.542857-15.771429-20.571429-32.914286-27.085714-51.2 116.342857 82.857143 326.742857 54.4 506.514286-77.828571C749.851303 466.628571 839.79416 270.742857 791.108446 134.857143c17.371429 12.342857 32.571429 27.2 45.371428 44.571428 98.285714 133.485714 10.285714 364.914286-196.342857 516.8z" fill="#9E9D24" /><path d="M390.651303 540.571429c-35.314286 0-64-28.685714-64-64 0-7.085714 5.714286-12.8 12.8-12.8s12.8 5.714286 12.8 12.8c0 21.257143 17.142857 38.4 38.4 38.4s38.4-17.142857 38.4-38.4c0-7.085714 5.714286-12.8 12.8-12.8s12.8 5.714286 12.8 12.8c0 35.314286-28.685714 64-64 64zM224.251303 374.171429c0 21.257143 17.142857 38.4 38.4 38.4s38.4-17.142857 38.4-38.4-17.142857-38.4-38.4-38.4c-21.142857 0-38.4 17.142857-38.4 38.4zM480.251303 374.171429c0 21.257143 17.142857 38.4 38.4 38.4s38.4-17.142857 38.4-38.4-17.142857-38.4-38.4-38.4c-21.142857 0-38.4 17.142857-38.4 38.4z" fill="#25467A" /><path d="M211.451303 438.171429h-51.2c-14.171429 0-25.6 11.428571-25.6 25.6s11.428571 25.6 25.6 25.6H211.451303c14.171429 0 25.6-11.428571 25.6-25.6s-11.428571-25.6-25.6-25.6z m409.6 0h-51.2c-14.171429 0-25.6 11.428571-25.6 25.6s11.428571 25.6 25.6 25.6h51.2c14.171429 0 25.6-11.428571 25.6-25.6s-11.428571-25.6-25.6-25.6z" fill="#E6EE9C" /><path d="M790.737818 197.69411a32.914286 13.942857 53.678 1 0 22.467545-16.517339 32.914286 13.942857 53.678 1 0-22.467545 16.517339Z" fill="#8C4C08" /><path d="M130.679101 900.627108a82.971429 413.028571 77.513 1 0 806.516836-178.6085 82.971429 413.028571 77.513 1 0-806.516836 178.6085Z" fill="#558B2F" /><path d="M843.222731 811.085714c-0.571429 0.228571-1.142857 0.342857-1.714285 0.342857-174.857143 8.228571-216.685714 11.542857-406.857143 38.628572-68.571429 9.714286-134.171429 22.285714-197.714286 34.514286-17.028571 3.314286-34.742857 6.628571-52.114286 9.942857-3.085714 0.571429-6.057143-1.485714-6.628571-4.571429s1.485714-6.057143 4.571429-6.628571c17.371429-3.2 34.971429-6.628571 52.114285-9.942857 63.657143-12.228571 129.371429-24.8 198.285715-34.514286 190.628571-27.085714 232.571429-30.4 407.885714-38.742857 3.2-0.114286 5.828571 2.285714 5.942857 5.485714 0.114286 2.4-1.485714 4.571429-3.771429 5.485714z" fill="#E6EE9C" /><path d="M512.458555 849.512388a391.885714 78.742857 12.263 1 0 33.449871-153.892354 391.885714 78.742857 12.263 1 0-33.449871 153.892354Z" fill="#689F38" /><path d="M842.422731 853.942857c-0.571429 0-1.142857-0.114286-1.714285-0.228571-166.971429-52.342857-207.542857-63.657143-395.314286-103.542857-67.771429-14.4-133.714286-25.142857-197.485714-35.542858-17.142857-2.857143-34.971429-5.714286-52.342857-8.571428-3.085714-0.571429-5.257143-3.428571-4.685715-6.628572 0.571429-3.085714 3.428571-5.257143 6.628572-4.685714 17.371429 2.857143 35.2 5.828571 52.342857 8.571429 63.885714 10.4 130.057143 21.257143 198.057143 35.657143 188.342857 40 228.914286 51.314286 396.342857 103.771428 2.971429 0.914286 4.685714 4.114286 3.771428 7.2-0.914286 2.514286-3.085714 4-5.6 4z" fill="#E6EE9C" /><path d="M689.622731 958.742857c-23.542857 0-45.942857-4.914286-66.4-14.628571-27.542857-13.028571-50.171429-33.942857-67.314285-61.942857-15.885714-26.057143-26.4-57.257143-30.971429-92.685715-9.257143-70.628571 5.371429-151.2 41.371429-226.857143C626.422731 436 733.051303 350.857143 831.565589 350.857143c23.542857 0 45.942857 4.914286 66.4 14.628571 27.542857 13.028571 50.171429 33.942857 67.314285 61.942857 15.885714 26.057143 26.4 57.257143 30.971429 92.685715 9.257143 70.628571-5.371429 151.2-41.371429 226.857143-60.114286 126.628571-166.742857 211.771429-265.257143 211.771428z" fill="#25467A" /><path d="M633.055301 923.300418a192.228571 297.371429 25.397 1 0 255.077976-537.26557 192.228571 297.371429 25.397 1 0-255.077976 537.26557Z" fill="#DCE775" /><path d="M831.565589 688.457143c-57.371429 120.914286-161.828571 193.942857-174.971429 185.142857-13.142857-8.8-24.571429-131.771429 32.914286-252.571429s160.8-191.428571 174.971428-185.142857c14.171429 6.285714 24.571429 131.657143-32.914285 252.571429z" fill="#8C4C08" /></svg>