<?xml version="1.0" standalone="no"?><!DOCTYPE svg PUBLIC "-//W3C//DTD SVG 1.1//EN" "http://www.w3.org/Graphics/SVG/1.1/DTD/svg11.dtd"><svg class="icon" width="200px" height="200.00px" viewBox="0 0 1024 1024" version="1.1" xmlns="http://www.w3.org/2000/svg"><path d="M433.650823 1010.4c-159.771429 0-297.371429-57.142857-368-152.914286C26.679394 804.685714 4.165109 735.657143 0.507966 658.057143c-3.2-68.685714 8.8-140.914286 33.714285-203.428572 40.457143-101.142857 95.2-181.257143 243.085715-267.885714 85.6-50.171429 161.6-62.742857 235.2-74.971428 53.371429-8.8 103.885714-17.142857 156.914285-40 9.257143-4 18.4-8 27.2-11.771429 57.028571-24.914286 106.285714-46.4 153.142858-46.4 29.485714 0 56.114286 8.571429 78.971428 25.6 40.114286 29.828571 54.857143 73.142857 62.514286 103.085714 25.142857 99.2 36 195.657143 32 286.514286-3.2 73.485714-16 143.657143-38.057143 208.342857-29.942857 88-72 148.8-93.028571 172.114286-52.342857 64.914286-124.457143 117.485714-208.685715 152.342857-77.257143 31.885714-163.657143 48.8-249.828571 48.8z" fill="#25467A" /><path d="M301.650823 228.114286c138.514286-81.142857 253.028571-54.971429 386.742857-112.228572C782.679394 75.542857 849.19368 39.771429 900.165109 77.714286c27.428571 20.342857 38.171429 51.2 44.571428 76.457143 105.371429 415.2-89.142857 624-89.142857 624C666.450823 1014.514286 241.19368 1014.628571 104.279394 829.028571c-70.971429-96.228571-69.371429-246.857143-25.485714-356.571428 36.571429-91.314286 84.457143-163.2 222.857143-244.342857z" fill="#B58245" /><path d="M855.59368 778.057143C765.536537 890.628571 621.879394 949.714286 481.307966 960.571429c100.114286-19.885714 180.571429-45.6 265.485714-178.285715 82.171429-128.571429 114.514286-348.685714 80.457143-508.228571C792.507966 110.971429 873.19368 57.6 900.165109 77.714286c27.428571 20.342857 38.171429 51.2 44.571428 76.457143 105.371429 415.085714-89.142857 623.885714-89.142857 623.885714z" fill="#A16F35" /><path d="M693.307966 623.885714c44.342857 58.285714 39.771429 156.914286 1.6 218.971429-72.685714 118.285714-243.885714 108.342857-299.428572 106.057143s-196-24.571429-280.685714-130.4C51.022251 738.742857 53.99368 593.142857 68.736537 536.342857c14.742857-56.8 57.828571-161.714286 123.2-186.514286 42.628571-16.228571 75.885714 8.8 160.228572 9.714286 118.742857 1.257143 219.428571-29.142857 257.142857 19.428572s-7.771429 118.285714 6.628571 162.971428c13.828571 42.857143 48.571429 44.114286 77.371429 81.942857z" fill="#FFA41F" /><path d="M694.907966 842.742857c-16.914286 27.542857-39.2 48.114286-64 63.428572 32.571429-45.142857 66.628571-135.542857 36.114285-244.342858-17.371429-62.171429-65.714286-78.057143-85.6-130.514285S598.565109 433.142857 563.479394 404.571429c-23.085714-18.857143-64.571429-11.2-114.514285-7.771429-111.314286 7.771429-170.857143-29.828571-256.342858-15.085714-34.4 5.942857-52.342857 20.685714-78.742857 45.142857 20.457143-34.742857 46.742857-65.142857 78.171429-77.028572 42.628571-16.228571 75.885714 8.8 160.228571 9.714286 118.742857 1.257143 219.428571-29.142857 257.142857 19.428572 37.828571 48.685714-7.771429 118.285714 6.628572 162.971428 13.714286 42.857143 48.457143 44.114286 77.257143 81.942857 44.228571 58.285714 39.771429 156.914286 1.6 218.857143z" fill="#EF6C00" /><path d="M768.39368 499.085714c-7.314286-10.057143 86.4-98.285714 96-90.4 5.028571 4.114286-11.428571 35.657143-32.685714 56.685715-24.342857 24.114286-59.428571 39.2-63.314286 33.714285zM319.822251 295.542857c17.142857 6.4 162.857143-88.457143 149.371429-97.142857-7.085714-4.571429-46.057143 4.457143-81.028571 26.057143-39.771429 24.685714-77.6 67.657143-68.342858 71.085714zM770.565109 599.2c-7.314286-10.057143 86.4-98.285714 96-90.4 5.028571 4.114286-11.428571 35.657143-32.685715 56.685714-24.342857 24-59.428571 39.085714-63.314285 33.714286z" fill="#8A5B24" /><path d="M337.079394 796.114286c-35.314286 0-64-28.685714-64-64 0-7.085714 5.714286-12.8 12.8-12.8s12.8 5.714286 12.8 12.8c0 21.257143 17.142857 38.4 38.4 38.4s38.4-17.142857 38.4-38.4c0-7.085714 5.714286-12.8 12.8-12.8s12.8 5.714286 12.8 12.8c0 35.314286-28.685714 64-64 64zM170.679394 629.714286c0 21.257143 17.142857 38.4 38.4 38.4s38.4-17.142857 38.4-38.4-17.142857-38.4-38.4-38.4c-21.142857 0-38.4 17.142857-38.4 38.4zM426.679394 629.714286c0 21.257143 17.142857 38.4 38.4 38.4s38.4-17.142857 38.4-38.4-17.142857-38.4-38.4-38.4c-21.142857 0-38.4 17.142857-38.4 38.4z" fill="#25467A" /><path d="M157.879394 693.714286H106.679394c-14.171429 0-25.6 11.428571-25.6 25.6s11.428571 25.6 25.6 25.6h51.2c14.171429 0 25.6-11.428571 25.6-25.6s-11.428571-25.6-25.6-25.6z m409.6 0h-51.2c-14.171429 0-25.6 11.428571-25.6 25.6s11.428571 25.6 25.6 25.6h51.2c14.171429 0 25.6-11.428571 25.6-25.6s-11.428571-25.6-25.6-25.6z" fill="#EF6C00" /></svg>