<?xml version="1.0" standalone="no"?><!DOCTYPE svg PUBLIC "-//W3C//DTD SVG 1.1//EN" "http://www.w3.org/Graphics/SVG/1.1/DTD/svg11.dtd"><svg class="icon" width="200px" height="200.00px" viewBox="0 0 1024 1024" version="1.1" xmlns="http://www.w3.org/2000/svg"><path d="M512 1024a157.931429 157.931429 0 0 1-116.491429-51.428571 12.571429 12.571429 0 0 0-9.142857-4.045715 12.194286 12.194286 0 0 0-3.725714 0.582857A157.588571 157.588571 0 0 1 180.845714 852.571429a12.571429 12.571429 0 0 0-9.44-9.44A157.588571 157.588571 0 0 1 54.914286 641.382857a12.571429 12.571429 0 0 0-3.428572-12.891428 157.577143 157.577143 0 0 1 0-232.982858 12.571429 12.571429 0 0 0 3.428572-12.891428A157.588571 157.588571 0 0 1 171.428571 180.845714a12.571429 12.571429 0 0 0 9.44-9.44A157.474286 157.474286 0 0 1 382.617143 54.914286a12.32 12.32 0 0 0 3.737143 0.582857 12.571429 12.571429 0 0 0 9.142857-4.034286 157.577143 157.577143 0 0 1 232.982857 0 12.571429 12.571429 0 0 0 9.142857 4.034286 12.32 12.32 0 0 0 3.737143-0.582857A157.577143 157.577143 0 0 1 843.154286 171.428571a12.571429 12.571429 0 0 0 9.44 9.44A157.588571 157.588571 0 0 1 969.142857 382.617143a12.571429 12.571429 0 0 0 3.428572 12.891428 157.577143 157.577143 0 0 1 0 232.982858 12.571429 12.571429 0 0 0-3.428572 12.891428 157.588571 157.588571 0 0 1-116.571428 201.771429 12.571429 12.571429 0 0 0-9.44 9.44A157.474286 157.474286 0 0 1 641.382857 969.142857a12.32 12.32 0 0 0-3.737143-0.582857 12.571429 12.571429 0 0 0-9.142857 4.045714A157.931429 157.931429 0 0 1 512 1024z" fill="#25467A" /><path d="M512 974.857143a108.628571 108.628571 0 0 1-80.137143-35.428572 61.554286 61.554286 0 0 0-64.171428-17.142857 108.377143 108.377143 0 0 1-138.788572-80.137143 61.714286 61.714286 0 0 0-46.982857-46.982857 108.4 108.4 0 0 1-80.137143-138.857143 61.714286 61.714286 0 0 0-17.142857-64.171428 108.388571 108.388571 0 0 1 0-160.274286 61.714286 61.714286 0 0 0 17.142857-64.171428 108.4 108.4 0 0 1 80.137143-138.788572 61.714286 61.714286 0 0 0 46.982857-46.982857 108.285714 108.285714 0 0 1 138.788572-80.137143 61.554286 61.554286 0 0 0 64.171428-17.142857 108.388571 108.388571 0 0 1 160.274286 0 61.554286 61.554286 0 0 0 64.171428 17.142857 108.377143 108.377143 0 0 1 138.788572 80.137143 61.714286 61.714286 0 0 0 46.982857 46.982857 108.4 108.4 0 0 1 80.137143 138.788572 61.714286 61.714286 0 0 0 17.142857 64.171428 108.388571 108.388571 0 0 1 0 160.274286 61.714286 61.714286 0 0 0-17.142857 64.171428 108.4 108.4 0 0 1-80.137143 138.788572 61.714286 61.714286 0 0 0-46.982857 46.982857 108.285714 108.285714 0 0 1-138.788572 80.137143 61.554286 61.554286 0 0 0-64.171428 17.142857A108.628571 108.628571 0 0 1 512 974.857143z" fill="#F7BE71" /><path d="M837.074286 251.782857a84.994286 84.994286 0 0 1 62.857143 108.8A84.982857 84.982857 0 0 0 923.634286 449.142857a84.971429 84.971429 0 0 1 0 125.622857 84.982857 84.982857 0 0 0-23.737143 88.605715 84.994286 84.994286 0 0 1-62.857143 108.8 84.982857 84.982857 0 0 0-64.857143 64.857142 84.994286 84.994286 0 0 1-108.8 62.857143A84.982857 84.982857 0 0 0 574.857143 923.634286a84.971429 84.971429 0 0 1-125.622857 0 84.982857 84.982857 0 0 0-88.605715-23.737143 84.994286 84.994286 0 0 1-108.8-62.857143 84.982857 84.982857 0 0 0-64.857142-64.857143 84.994286 84.994286 0 0 1-62.857143-108.8A84.982857 84.982857 0 0 0 100.365714 574.857143a84.971429 84.971429 0 0 1 0-125.622857 84.982857 84.982857 0 0 0 23.737143-88.605715 84.994286 84.994286 0 0 1 62.857143-108.8 84.982857 84.982857 0 0 0 64.857143-64.857142 84.982857 84.982857 0 0 1 108.8-62.857143A84.982857 84.982857 0 0 0 449.142857 100.365714a84.971429 84.971429 0 0 1 125.622857 0 84.982857 84.982857 0 0 0 88.605715 23.737143 84.982857 84.982857 0 0 1 108.8 62.857143 84.982857 84.982857 0 0 0 64.902857 64.822857z" fill="#F29312" /><path d="M945.371429 488.571429H791.337143a34.217143 34.217143 0 0 1-34.228572-34.217143v-106.4a34.285714 34.285714 0 0 1 34.228572-34.217143h96a23.417143 23.417143 0 0 0 23.428571-23.451429 23.417143 23.417143 0 0 0-23.417143-23.417143h-96a34.285714 34.285714 0 0 1-34.228571-34.228571v-96A23.417143 23.417143 0 0 0 733.714286 113.234286a23.417143 23.417143 0 0 0-23.428572 23.417143v96a34.285714 34.285714 0 0 1-34.217143 34.228571h-106.4a34.217143 34.217143 0 0 1-34.217142-34.228571V79.188571c0-12.697143-9.885714-23.52-22.571429-24A23.428571 23.428571 0 0 0 488.571429 78.628571v154.034286a34.217143 34.217143 0 0 1-34.217143 34.228572h-106.4a34.285714 34.285714 0 0 1-34.217143-34.228572v-95.44c0-12.708571-9.874286-23.52-22.571429-24a23.428571 23.428571 0 0 0-24.274285 23.405714v96a34.285714 34.285714 0 0 1-34.228572 34.228572H145.142857a23.417143 23.417143 0 0 0-23.382857 23.428571 23.428571 23.428571 0 0 0 23.428571 23.428572h87.474286a34.285714 34.285714 0 0 1 34.228572 34.217143v106.4a34.217143 34.217143 0 0 1-34.228572 34.217142H78.628571A23.428571 23.428571 0 0 0 55.2 512a23.428571 23.428571 0 0 0 23.428571 23.428571h154.034286a34.217143 34.217143 0 0 1 34.228572 34.217143v106.4a34.285714 34.285714 0 0 1-34.228572 34.217143H145.142857a23.428571 23.428571 0 0 0-23.428571 23.428572 23.417143 23.417143 0 0 0 23.428571 23.417142h87.474286a34.285714 34.285714 0 0 1 34.228571 34.228572v86.914286c0 12.708571 9.874286 23.52 22.571429 24A23.428571 23.428571 0 0 0 313.737143 878.857143v-87.52a34.285714 34.285714 0 0 1 34.217143-34.228572h106.4a34.217143 34.217143 0 0 1 34.217143 34.228572v153.474286c0 12.697143 9.885714 23.52 22.571428 24a23.428571 23.428571 0 0 0 24.285714-23.44V791.337143a34.217143 34.217143 0 0 1 34.217143-34.228572h106.4a34.285714 34.285714 0 0 1 34.217143 34.228572V878.857143a23.428571 23.428571 0 0 0 23.428572 23.428571 23.417143 23.417143 0 0 0 23.417142-23.428571v-87.52a34.285714 34.285714 0 0 1 34.228572-34.228572h96a23.417143 23.417143 0 0 0 23.428571-23.394285 23.417143 23.417143 0 0 0-23.417143-23.428572h-96a34.285714 34.285714 0 0 1-34.228571-34.217143v-106.4a34.217143 34.217143 0 0 1 34.228571-34.217142H945.371429A23.428571 23.428571 0 0 0 968.8 512a23.428571 23.428571 0 0 0-23.428571-23.428571z m-235.108572-140.571429v106.285714a34.285714 34.285714 0 0 1-34.285714 34.285715h-106.285714a34.285714 34.285714 0 0 1-34.285715-34.285715v-106.285714a34.285714 34.285714 0 0 1 34.285715-34.285714h106.285714a34.285714 34.285714 0 0 1 34.285714 34.308571z m-362.285714-34.285714h106.285714a34.285714 34.285714 0 0 1 34.285714 34.285714v106.285714a34.285714 34.285714 0 0 1-34.285714 34.285715h-106.285714a34.285714 34.285714 0 0 1-34.285714-34.285715v-106.285714a34.285714 34.285714 0 0 1 34.331428-34.262857z m-34.285714 362.285714v-106.285714a34.285714 34.285714 0 0 1 34.285714-34.285715h106.285714a34.285714 34.285714 0 0 1 34.285714 34.285715v106.285714a34.285714 34.285714 0 0 1-34.285714 34.285714h-106.285714a34.285714 34.285714 0 0 1-34.24-34.308571z m362.285714 34.285714h-106.285714a34.285714 34.285714 0 0 1-34.285715-34.285714v-106.285714a34.285714 34.285714 0 0 1 34.285715-34.285715h106.285714a34.285714 34.285714 0 0 1 34.285714 34.285715v106.285714a34.285714 34.285714 0 0 1-34.285714 34.262857z" fill="#F7BE71" /><path d="M512 590.708571a69.28 69.28 0 0 1-69.188571-69.222857 13.851429 13.851429 0 0 1 27.68-0.834285v0.834285a41.52 41.52 0 0 0 83.028571 0 13.84 13.84 0 1 1 27.668571-0.834285v0.834285A69.268571 69.268571 0 0 1 512 590.708571zM332.068571 410.8a41.52 41.52 0 0 0 83.028572 0.057143v-0.057143a41.52 41.52 0 0 0-83.028572 0zM608.834286 410.8a41.52 41.52 0 0 0 83.028571 0.08v-0.08a41.52 41.52 0 0 0-83.028571 0z" fill="#25467A" /><path d="M318.24 480h-55.291429a27.68 27.68 0 0 0 0 55.348571h55.382858a27.68 27.68 0 1 0 0-55.348571h-0.091429z m442.811429 0h-55.36a27.68 27.68 0 0 0 0 55.348571h55.36A27.68 27.68 0 0 0 761.142857 480z" fill="#FF5252" /></svg>