<?xml version="1.0" standalone="no"?><!DOCTYPE svg PUBLIC "-//W3C//DTD SVG 1.1//EN" "http://www.w3.org/Graphics/SVG/1.1/DTD/svg11.dtd"><svg class="icon" width="200px" height="116.10px" viewBox="0 0 1764 1024" version="1.1" xmlns="http://www.w3.org/2000/svg"><path d="M940.685714 854.857143c-32 0-58.971429-19.885714-90.057143-42.971429-18.285714-13.6-38.742857-28.571429-60.457142-39.657143-7.314286 1.142857-14.857143 1.714286-22.4 1.714286-15.085714 0-30.514286-2.285714-46.057143-6.857143-14.971429-4.457143-35.885714-9.942857-67.542857-14.628571-15.2 3.314286-34.285714 5.942857-57.714286 7.657143C565.828571 780.571429 529.142857 780.571429 512 780.571429s-53.828571 0-84.457143-20.457143c-23.428571-1.828571-42.4-4.342857-57.714286-7.657143-31.771429 4.685714-52.685714 10.285714-67.542857 14.628571-15.542857 4.571429-30.971429 6.857143-46.057143 6.857143-7.542857 0-14.971429-0.571429-22.4-1.714286-21.828571 11.085714-42.171429 26.171429-60.457142 39.657143-31.2 23.085714-58.057143 42.971429-90.171429 42.971429-19.657143 0-37.485714-7.657143-51.428571-22.057143-10.4-10.742857-18.4-25.028571-24.342858-43.657143-9.942857-30.742857-9.828571-76.228571 0.342858-124.8 7.657143-36.457143 24.228571-90.628571 60.571428-147.314286 3.314286-26.285714 12.457143-52.571429 27.2-78.4 20.342857-35.542857 58.971429-85.828571 128.571429-127.2 12.914286-18.971429 30.171429-36 51.428571-50.628571 23.2-16 50.857143-28.8 82.514286-38.285714 13.485714-16.914286 35.657143-34.171429 72.114286-44.114286 22.857143-6.171429 49.6-9.257143 81.828571-9.257143s58.971429 2.971429 81.828571 9.257143c36.457143 9.942857 58.628571 27.085714 72.114286 44.114286 31.542857 9.485714 59.314286 22.285714 82.514286 38.285714 21.257143 14.628571 38.514286 31.657143 51.428571 50.628571 69.6 41.485714 108.228571 91.657143 128.571429 127.2 14.742857 25.714286 23.885714 52 27.2 78.4 36.228571 56.571429 52.914286 110.857143 60.571428 147.314286 10.171429 48.571429 10.285714 94.057143 0.342858 124.8-6.057143 18.628571-14.057143 32.914286-24.342858 43.657143-13.942857 14.4-31.771429 22.057143-51.542857 22.057143 0.114286 0 0.114286 0 0 0z" fill="#25467A" /><path d="M512 350.628571c-416.571429 0-485.714286 340.914286-458.971429 423.657143s83.2-13.714286 174.742858-52.228571 183.771429-62.971429 284.114285-62.971429 192.685714 24.457143 284.114286 62.971429c91.542857 38.514286 148 134.857143 174.742857 52.228571C997.714286 691.542857 928.571429 350.628571 512 350.628571z" fill="#FCAA42" /><path d="M512 350.628571c-380 0-443.085714 289.714286-418.628571 360 24.457143 70.285714 75.885714-11.657143 159.428571-44.342857s167.657143-53.485714 259.2-53.485714 175.657143 20.8 259.2 53.485714 134.971429 114.628571 159.428571 44.342857-38.628571-360-418.628571-360z" fill="#F57C00" /><path d="M886.857143 462.4C845.142857 389.485714 737.371429 289.142857 512 289.142857s-333.142857 100.342857-374.857143 173.257143c-45.257143 79.2-12.457143 138.4 16.342857 190.285714 45.828571 82.4 103.542857 77.714286 135.085715 68.342857 31.542857-9.257143 95.542857-25.6 223.314285-25.6s191.771429 16.342857 223.314286 25.6c31.542857 9.257143 89.257143 14.057143 135.085714-68.342857 29.028571-51.885714 61.828571-111.085714 16.571429-190.285714z" fill="#FCAA42" /><path d="M851.2 450.285714c-37.714286-67.771429-135.314286-161.142857-339.2-161.142857s-301.485714 93.371429-339.2 161.142857c-41.028571 73.6-11.314286 128.685714 14.857143 176.914286 41.485714 76.685714 93.714286 72.228571 122.285714 63.542857 28.571429-8.685714 86.4-23.885714 202.057143-23.885714s173.6 15.2 202.057143 23.885714c28.571429 8.685714 80.8 13.028571 122.285714-63.542857 26.171429-48.228571 55.771429-103.314286 14.857143-176.914286z" fill="#F57C00" /><path d="M777.257143 381.714286c-5.485714-51.085714-68.457143-130.971429-265.257143-130.971429S252.228571 330.628571 246.742857 381.714286s42.285714 272.228571 110.742857 315.885714c23.885714 15.2 113.6 17.485714 154.514286 17.485714s130.742857-2.285714 154.514286-17.485714c68.457143-43.657143 116.228571-264.8 110.742857-315.885714z" fill="#FCAA42" /><path d="M740.571429 372.685714c-4.8-47.657143-58.971429-122.057143-228.571429-122.057143s-223.771429 74.4-228.571429 122.057143 36.342857 253.6 95.428572 294.285715c20.571429 14.171429 97.942857 16.228571 133.142857 16.228571s112.685714-2.057143 133.142857-16.228571c58.971429-40.685714 100.114286-246.628571 95.428572-294.285715z" fill="#F57C00" /><path d="M635.428571 263.657143C616.228571 221.714286 551.314286 217.142857 512 217.142857s-104.228571 4.685714-123.428571 46.514286c-19.2 41.942857 34.857143 425.028571 56.571428 448.8 16.114286 17.6 42.285714 20 66.857143 20s50.628571-2.4 66.857143-20c21.714286-23.771429 75.771429-406.857143 56.571428-448.8z" fill="#FCAA42" /><path d="M610.171429 259.2C594.857143 221.371429 543.2 217.142857 512 217.142857s-82.857143 4.228571-98.171429 42.057143C398.628571 297.142857 441.6 643.657143 458.857143 665.142857c12.8 15.885714 33.6 18.171429 53.142857 18.171429s40.342857-2.171429 53.142857-18.171429c17.257143-21.485714 60.228571-368 45.028572-405.942857z" fill="#F57C00" /><path d="M512 600.914286c-38.171429 0-69.142857-30.971429-69.142857-69.257143-0.228571-7.657143 5.828571-14.057143 13.371428-14.285714s14.057143 5.828571 14.285715 13.371428v0.8c0.342857 22.971429 19.314286 41.257143 42.171428 40.8 22.4-0.342857 40.457143-18.4 40.8-40.8-0.228571-7.657143 5.828571-14.057143 13.371429-14.285714s14.057143 5.828571 14.285714 13.371428v0.8c0 38.514286-30.971429 69.485714-69.142857 69.485715zM332.114286 438.171429c0.342857 22.971429 19.314286 41.257143 42.171428 40.8 22.4-0.342857 40.457143-18.4 40.8-40.8 0.342857-22.971429-17.942857-41.828571-40.8-42.171429s-41.828571 17.942857-42.171428 40.8v1.371429zM608.8 438.171429c0.342857 22.971429 19.2 41.257143 42.171429 40.914285 22.4-0.342857 40.457143-18.4 40.914285-40.8v-0.114285c0.342857-22.971429-17.942857-41.828571-40.8-42.171429-22.971429-0.342857-41.828571 17.942857-42.171428 40.8-0.114286 0.457143-0.114286 0.914286-0.114286 1.371429z" fill="#25467A" /><path d="M318.285714 507.428571h-55.314285c-15.314286 0.342857-27.428571 12.914286-27.085715 28.228572 0.342857 14.857143 12.228571 26.857143 27.085715 27.085714h55.428571c15.314286-0.342857 27.428571-12.914286 27.085714-28.228571-0.342857-14.857143-12.342857-26.742857-27.2-27.085715z m442.742857 0h-55.314285c-15.314286 0.342857-27.428571 12.914286-27.085715 28.228572 0.342857 14.857143 12.228571 26.857143 27.085715 27.085714h55.314285c15.314286-0.342857 27.428571-12.914286 27.085715-28.228571-0.228571-14.857143-12.228571-26.742857-27.085715-27.085715z" fill="#FFCC80" /></svg>