<?xml version="1.0" standalone="no"?><!DOCTYPE svg PUBLIC "-//W3C//DTD SVG 1.1//EN" "http://www.w3.org/Graphics/SVG/1.1/DTD/svg11.dtd"><svg class="icon" width="200px" height="200.00px" viewBox="0 0 1024 1024" version="1.1" xmlns="http://www.w3.org/2000/svg"><path d="M717.6 979.085714c-6.171429-0.228571-12.342857-1.257143-18.4-2.857143L604.571429 950.057143c-20.685714-5.714286-37.942857-19.2-48.571429-37.942857-10.514286-18.742857-13.142857-40.342857-7.314286-60.8l55.085715-199.314286c9.714286-35.542857 43.542857-60.228571 80.457142-58.857143 6.171429 0.228571 12.342857 1.257143 18.4 2.971429l94.742858 26.057143c20.342857 5.6 38.057143 19.428571 48.571428 37.942857 10.514286 18.742857 13.142857 40.342857 7.314286 60.8l-55.085714 199.428571c-4.8 17.485714-15.542857 32.914286-30.171429 43.542857-14.742857 10.514286-32.571429 16-50.4 15.2z" fill="#25467A" /><path d="M773.142857 1024c-26.628571 0-51.314286-13.028571-66.171428-34.742857l-55.771429-81.142857c-25.028571-36.342857-15.885714-86.4 20.571429-111.428572l170.742857-117.6c13.485714-9.257143 29.142857-14.171429 45.485714-14.171428 26.4 0 51.085714 12.914286 66.057143 34.628571l55.885714 81.257143c12.114286 17.6 16.685714 38.857143 12.8 59.885714-3.885714 21.142857-15.657143 39.428571-33.371428 51.542857L818.628571 1009.828571c-13.371429 9.257143-29.142857 14.171429-45.485714 14.171429z" fill="#25467A" /><path d="M427.885714 1024c-109.257143 0-200.914286-10.057143-265.028571-29.028571-30.514286-9.028571-55.085714-20.114286-72.8-33.028572C58.285714 938.971429 51.657143 913.371429 51.657143 896V321.942857c0-28.457143 10.742857-53.942857 31.085714-73.485714 14.4-13.828571 30.857143-22.171429 42.057143-27.771429 0.114286-0.8 0.342857-1.485714 0.457143-2.171428 1.828571-8.685714 4.114286-19.657143 10.057143-30.742857 2.971429-5.6 6.171429-10.057143 9.142857-13.6-2.057143-7.657143-4.342857-18.171429-4.342857-31.885715 0-3.2 0.457143-79.314286 39.428571-111.542857 13.6-11.2 34.971429-19.885714 94.857143-25.257143C314.057143 1.828571 365.714286 0 427.885714 0S541.714286 1.828571 581.485714 5.485714c59.885714 5.485714 81.257143 14.057143 94.857143 25.371429 38.971429 32.228571 39.428571 108.342857 39.428572 111.542857 0 13.714286-2.285714 24.228571-4.342858 31.885714 2.971429 3.542857 6.171429 8 9.142858 13.6 5.942857 11.085714 8.228571 21.942857 10.057142 30.742857 0.114286 0.685714 0.342857 1.371429 0.457143 2.171429 11.2 5.485714 27.657143 13.828571 42.057143 27.771429 20.342857 19.542857 31.085714 45.028571 31.085714 73.485714v574.057143c0 17.371429-6.628571 42.971429-38.4 65.942857-17.828571 12.914286-42.285714 24-72.8 33.028571-64.228571 18.857143-155.885714 28.914286-265.142857 28.914286z" fill="#25467A" /><path d="M692.342857 252.8c-8.914286-12.342857-7.885714-30.742857-14.171428-42.514286s-13.257143-9.371429-16.228572-24.114285c-2.971429-14.857143 5.828571-22.742857 5.828572-43.885715S660.685714 80 645.714286 67.657143C630.857143 55.428571 550.285714 48 427.885714 48s-202.971429 7.428571-217.828571 19.771429c-14.971429 12.342857-22.057143 53.485714-22.057143 74.628571s8.8 29.028571 5.828571 43.885714c-2.971429 14.857143-9.942857 12.342857-16.228571 24.114286s-5.257143 30.171429-14.171429 42.514286c-8.914286 12.342857-63.771429 19.771429-63.771428 69.142857v574.057143c0 34.514286 95.428571 79.885714 328.228571 79.885714s328.228571-45.371429 328.228572-79.885714V322.057143c0-49.371429-54.857143-56.914286-63.771429-69.257143z" fill="#599C1A" /><path d="M670.742857 251.2c-8.228571-12.228571-7.314286-30.514286-13.028571-42.171429s-12.114286-9.257143-14.857143-24 5.371429-22.628571 5.371428-43.542857-6.514286-61.714286-20.228571-74.057143c-13.828571-12.114286-87.771429-19.428571-200.114286-19.428571s-186.285714 7.314286-200 19.542857-20.228571 53.028571-20.228571 74.057143 8.114286 28.8 5.371428 43.542857-9.142857 12.228571-14.857142 24c-5.714286 11.657143-4.8 29.942857-13.028572 42.171429s-58.514286 19.542857-58.514286 68.571428v569.6c0 34.285714 87.657143 79.314286 301.371429 79.314286s301.371429-45.028571 301.371429-79.314286V319.885714c0-49.028571-50.4-56.342857-58.628572-68.685714z" fill="#9ACC47" /><path d="M667.542857 138.285714c-72-4.228571-153.485714-6.628571-239.657143-6.628571s-167.657143 2.4-239.657143 6.628571c1.257143-22.742857 8.342857-58.514286 21.828572-69.942857 14.857143-12.8 95.428571-20.342857 217.828571-20.342857S630.857143 55.542857 645.714286 68.228571c13.6 11.542857 20.685714 47.314286 21.828571 70.057143z" fill="#6AB922" /><path d="M667.542857 138.285714c-8.8-0.571429-17.714286-1.028571-26.742857-1.485714-2.628571-27.2-9.371429-60.114286-20.571429-72.114286-2.628571-2.857143-7.428571-5.485714-14.057142-7.885714 20.685714 3.085714 34.285714 6.971429 39.542857 11.428571 13.6 11.542857 20.685714 47.314286 21.828571 70.057143z" fill="#599C1A" /><path d="M542.857143 131.771429c-34.514286-1.257143-73.6-2.057143-114.971429-2.057143s-80.457143 0.685714-114.971428 2.057143c0.571429-6.971429 4-17.828571 10.514285-21.257143 7.2-3.885714 45.828571-6.171429 104.457143-6.171429s97.371429 2.285714 104.457143 6.171429c6.514286 3.428571 9.942857 14.285714 10.514286 21.257143z" fill="#C0DF78" /><path d="M690.514286 258.971429c0 2.742857-116.914286-9.371429-261.142857-9.371429s-261.142857 12-261.142858 9.371429c0-2.742857 116.914286-19.2 261.142858-19.2s261.142857 16.457143 261.142857 19.2zM661.371429 171.657143c0 1.485714-104.571429-5.142857-233.485715-5.142857s-233.485714 6.742857-233.485714 5.142857c0-1.485714 104.571429-10.628571 233.485714-10.628572s233.485714 9.142857 233.485715 10.628572z" fill="#2F9C1A" /><path d="M693.485714 256.457143c-74.742857-8.8-168.457143-13.6-265.6-13.6s-190.857143 4.8-265.6 13.6c0.457143-0.457143 0.8-0.8 1.142857-1.257143 8.914286-12.342857 7.885714-30.742857 14.171429-42.514286 0.8-1.485714 1.6-2.742857 2.4-3.771428 72-7.428571 157.942857-11.314286 247.885714-11.314286s175.885714 4 247.885715 11.314286c0.8 1.142857 1.6 2.285714 2.4 3.771428 6.285714 11.771429 5.257143 30.171429 14.171428 42.514286 0.342857 0.342857 0.685714 0.8 1.142857 1.257143z" fill="#C0DF78" /><path d="M427.885714 621.942857c-35.314286 0-64-28.685714-64-64 0-7.085714 5.714286-12.8 12.8-12.8s12.8 5.714286 12.8 12.8c0 21.257143 17.142857 38.4 38.4 38.4s38.4-17.142857 38.4-38.4c0-7.085714 5.714286-12.8 12.8-12.8s12.8 5.714286 12.8 12.8c0 35.314286-28.685714 64-64 64zM261.485714 455.542857c0 21.257143 17.142857 38.4 38.4 38.4s38.4-17.142857 38.4-38.4-17.142857-38.4-38.4-38.4c-21.142857 0-38.4 17.142857-38.4 38.4zM517.485714 455.542857c0 21.257143 17.142857 38.4 38.4 38.4s38.4-17.142857 38.4-38.4-17.142857-38.4-38.4-38.4c-21.142857 0-38.4 17.142857-38.4 38.4z" fill="#25467A" /><path d="M248.685714 519.542857h-51.2c-14.171429 0-25.6 11.428571-25.6 25.6s11.428571 25.6 25.6 25.6h51.2c14.171429 0 25.6-11.428571 25.6-25.6s-11.428571-25.6-25.6-25.6z m409.6 0h-51.2c-14.171429 0-25.6 11.428571-25.6 25.6s11.428571 25.6 25.6 25.6H658.285714c14.171429 0 25.6-11.428571 25.6-25.6s-11.428571-25.6-25.6-25.6z" fill="#D4EB76" /><path d="M691.085714 293.028571c0 3.314286-117.828571 0-263.2 0s-263.2 3.314286-263.2 0S282.514286 281.142857 427.885714 281.142857s263.2 8.571429 263.2 11.885714z" fill="#EAFFBA" /><path d="M338.628571 798.857143c10.857143 52.228571-20.685714 102.971429-70.4 113.485714-49.828571 10.4-99.085714-23.428571-109.942857-75.771428-10.857143-52.228571 30.857143-165.485714 58.4-171.314286s110.971429 81.371429 121.942857 133.6z" fill="#22753D" /><path d="M374.4 928c-50.285714 17.714286-103.657143-3.2-119.085714-46.742857-15.428571-43.657143 12.8-93.485714 63.085714-111.314286 50.285714-17.714286 166.285714 3.085714 174.742857 27.085714 8.571429 24-68.457143 113.142857-118.742857 130.971429z" fill="#268244" /><path d="M314.057143 50.857143c-6.057143 16.8-11.2 34.057143-15.428572 51.428571-2.514286 10.4-4.571429 20.8-6.285714 31.314286-15.771429 0.457143-31.428571 1.028571-46.628571 1.714286 2.171429-14.857143 5.028571-29.6 8.457143-44.228572 2.857143-12.228571 6.285714-24.228571 10.057142-36.228571 14.285714-1.485714 30.971429-2.857143 49.828572-4z" fill="#9ACC47" /><path d="M661.371429 139.085714c0 1.485714-104.571429-5.142857-233.485715-5.142857s-233.485714 6.742857-233.485714 5.142857 104.571429-10.628571 233.485714-10.628571 233.485714 9.028571 233.485715 10.628571z" fill="#2F9C1A" /><path d="M718.628571 954.057143c-4.228571-0.114286-8.457143-0.8-12.685714-2.057143l-94.857143-26.171429c-14.171429-3.885714-25.942857-13.142857-33.257143-26.057142-7.2-12.8-9.028571-27.657143-5.028571-41.714286l55.085714-199.542857c6.628571-24.342857 29.828571-41.257143 55.2-40.342857 4.228571 0.114286 8.457143 0.8 12.571429 2.057142l94.857143 26.171429c14.171429 3.885714 25.942857 13.142857 33.257143 26.057143 7.2 12.8 9.028571 27.657143 5.028571 41.714286L773.714286 913.714286c-6.628571 24.342857-29.828571 41.257143-55.085715 40.342857z" fill="#25467A" /><path d="M712.114286 929.942857L617.142857 903.771429c-16.914286-4.571429-27.2-22.628571-22.4-39.542858l55.2-199.657142c4.571429-16.914286 22.628571-27.2 39.542857-22.4l94.971429 26.171428c16.914286 4.571429 27.2 22.628571 22.4 39.542857l-55.2 199.657143c-4.571429 17.028571-22.4 27.314286-39.542857 22.4z" fill="#D4EB76" /><path d="M712.114286 929.942857c16.914286 4.571429 34.857143-5.371429 39.542857-22.4L806.857143 708c4.571429-16.914286-5.371429-34.857143-22.4-39.542857l-72.342857 261.485714z" fill="#9ACC47" /><path d="M672.31834 701.68297a12.114286 23.657143 15.433 1 0 12.590868-45.608241 12.114286 23.657143 15.433 1 0-12.590868 45.608241Z" fill="#FFFFFF" /><path d="M773.142857 998.857143c-18.285714 0-35.2-8.914286-45.371428-23.885714l-55.771429-81.142858c-8.342857-12.114286-11.428571-26.742857-8.8-41.142857 2.628571-14.514286 10.742857-27.085714 22.857143-35.428571l170.742857-117.6c9.257143-6.4 20-9.714286 31.2-9.714286 18.171429 0 35.085714 8.914286 45.371429 23.771429l55.885714 81.257143c8.342857 12.114286 11.428571 26.742857 8.8 41.142857-2.628571 14.514286-10.742857 27.085714-22.857143 35.428571L804.342857 989.142857c-9.142857 6.4-20 9.714286-31.2 9.714286z" fill="#25467A" /><path d="M746.628571 962.171429l-55.771428-81.142858c-10.057143-14.628571-6.4-34.742857 8.228571-44.8L869.714286 718.628571c14.628571-10.057143 34.742857-6.4 44.8 8.228572l55.771428 81.142857c10.057143 14.628571 6.4 34.742857-8.228571 44.8L791.428571 970.4c-14.628571 10.057143-34.971429 6.285714-44.8-8.228571z" fill="#D4EB76" /><path d="M746.628571 962.171429c10.057143 14.628571 30.171429 18.285714 44.8 8.228571l170.742858-117.6c14.628571-10.057143 18.285714-30.171429 8.228571-44.8L746.628571 962.171429z" fill="#9ACC47" /><path d="M862.820355 761.406689a12.114286 23.657143 55.43 1 0 38.960172-26.846726 12.114286 23.657143 55.43 1 0-38.960172 26.846726Z" fill="#FFFFFF" /></svg>