<?xml version="1.0" standalone="no"?><!DOCTYPE svg PUBLIC "-//W3C//DTD SVG 1.1//EN" "http://www.w3.org/Graphics/SVG/1.1/DTD/svg11.dtd"><svg class="icon" width="200px" height="200.00px" viewBox="0 0 1024 1024" version="1.1" xmlns="http://www.w3.org/2000/svg"><path d="M267.68441 1024c-54.279656 0-103.645575-6.056467-142.726928-17.483763-51.308559-15.084031-81.933713-38.852807-90.961276-70.963509-9.598929-34.053342 9.25611-58.507756 22.968865-76.44861 10.513112-13.712755 23.768776-30.853699 36.68162-60.564669 21.59759-49.480192 35.196072-115.987055 41.709631-203.291597 2.171186-28.796786 7.884834-105.245397 34.967526-192.778485 34.053342-109.587769 89.361455-197.577949 164.43879-261.68508 64.678496-55.308113 142.155563-84.561991 224.089276-84.56199 20.797679 0 41.938177 1.94264 62.850128 5.713648 31.767883 2.971097 66.735409 13.941301 105.931035 33.367704 47.88037-44.337909 105.816762-76.220065 169.123981-92.789644 2.628278-0.685638 5.370829-1.257003 8.113381-1.714094 3.771008-0.571365 7.542015-0.799911 11.313023-0.799911 34.73898 0 65.135588 23.54023 73.934605 57.13648 10.627385 40.795447-13.827028 82.733623-54.622475 93.361009-26.739873 6.970651-51.422832 18.055128-73.820333 33.024886 22.854592 20.911952 39.76699 42.280995 51.080014 64.44995 68.906595 88.675817 79.419708 185.236469 34.281888 312.193728-28.796786 81.019529-73.70606 157.011048-133.470818 225.917643-58.850575 67.878139-112.216047 105.816762-132.442361 119.072425-62.850128 40.90972-134.270729 72.106238-212.090615 92.446825C403.326414 1014.858163 333.619908 1024 267.68441 1024z" fill="#25467A" /><path d="M660.669122 563.937061c-0.571365 0.114273-1.028457 0.114273-1.599822 0.228546-7.542015 0.685638-14.969758-1.599821-20.797679-6.399286-5.827921-4.913737-9.484656-11.655842-10.170293-19.312131-2.056913-22.283227-5.713648-81.81944 5.599375-152.325856 15.655396-97.931927 52.679835-178.265819 110.044861-238.944761 45.023546-47.537552 102.160027-81.476621 165.352974-97.931927 1.028457-0.228546 2.056913-0.457092 3.08537-0.571365 14.398393-2.171186 27.996875 6.856378 31.767883 21.026225 3.999554 15.198304-5.142283 30.853699-20.340587 34.73898-53.594019 14.055574-100.103113 41.595358-138.270282 81.933713-114.844325 121.472157-103.645575 310.251088-100.33166 346.932708 1.14273 14.855485-9.484656 28.339694-24.34014 30.625154z" fill="#689F38" /><path d="M365.959156 177.237362C205.748466 314.022096 187.693338 538.45419 183.236692 598.676041c-4.456645 60.336123-14.512666 147.754938-45.594911 218.946992-30.51088 69.820779-63.650039 83.076442-57.479299 104.788305C97.874791 985.147193 415.325075 1021.028903 654.841201 864.932039c58.27921-37.938623 185.807834-149.011941 246.943868-320.878474 55.079567-154.839862 21.026225-254.257337-138.727375-368.758843-140.784287-100.788751-290.481866-89.247182-397.098538 1.94264z" fill="#E53935" /><path d="M924.98248 447.72146c-2.971097 29.939516-10.855931 61.707399-23.197411 96.446378-61.136034 171.75226-188.550385 282.825578-246.943868 320.878474C415.325075 1021.028903 97.874791 985.261466 80.162482 922.525611c-4.570918-15.998214 12.34148-27.425511 33.710523-60.336123 121.700703 25.597143 355.388907 13.369936 544.510658-99.760295C721.119518 724.833389 857.44716 616.045531 924.98248 447.72146z" fill="#D32F2F" /><path d="M751.973217 163.867426c-32.567794-19.654949-108.902131-65.249861-169.581073-52.451289 4.2281 3.542462 8.341926 7.427742 12.341479 11.541569 19.997768 20.911952 31.882156 44.680728 33.024886 62.621582 7.427742 3.199643 15.084031 7.084924 22.854592 11.655842 25.825689 15.541123 44.680728 34.967526 50.965741 50.622922 16.683852-1.828367 42.738087 5.713648 68.563776 21.25477 7.656288 4.570918 14.741212 9.598929 21.026225 14.626939 16.455306-7.427742 42.85236-7.999107 70.734962-0.114273 5.599375 1.599821 10.970204 3.428189 15.998215 5.485102-17.255217-59.650485-93.361009-105.702489-125.928803-125.243164z" fill="#689F38" /><path d="M484.460216 595.704944c-35.310345 0-63.992858-28.682513-63.992857-63.992858 0-7.084924 5.713648-12.798572 12.798571-12.798572s12.798572 5.713648 12.798572 12.798572c0 21.254771 17.140944 38.395715 38.395714 38.395714s38.395715-17.140944 38.395715-38.395714c0-7.084924 5.713648-12.798572 12.798572-12.798572s12.798572 5.713648 12.798571 12.798572c0 35.310345-28.682513 63.992858-63.992858 63.992858zM318.078786 429.323513c0 21.254771 17.140944 38.395715 38.395715 38.395715s38.395715-17.140944 38.395714-38.395715-17.140944-38.395715-38.395714-38.395715c-21.140498 0-38.395715 17.140944-38.395715 38.395715zM574.050218 429.323513c0 21.254771 17.140944 38.395715 38.395714 38.395715s38.395715-17.140944 38.395715-38.395715-17.140944-38.395715-38.395715-38.395715c-21.140498 0-38.395715 17.140944-38.395714 38.395715z" fill="#25467A" /><path d="M305.280214 493.316371h-51.194286c-14.169847 0-25.597143 11.427296-25.597143 25.597143s11.427296 25.597143 25.597143 25.597143h51.194286c14.169847 0 25.597143-11.427296 25.597143-25.597143s-11.427296-25.597143-25.597143-25.597143z m409.554291 0h-51.194286c-14.169847 0-25.597143 11.427296-25.597143 25.597143s11.427296 25.597143 25.597143 25.597143h51.194286c14.169847 0 25.597143-11.427296 25.597143-25.597143s-11.427296-25.597143-25.597143-25.597143z" fill="#FF8A80" /></svg>