<?xml version="1.0" standalone="no"?><!DOCTYPE svg PUBLIC "-//W3C//DTD SVG 1.1//EN" "http://www.w3.org/Graphics/SVG/1.1/DTD/svg11.dtd"><svg class="icon" width="200px" height="188.41px" viewBox="0 0 1087 1024" version="1.1" xmlns="http://www.w3.org/2000/svg"><path d="M166.251874 994.057143c-21.257143 0-42.971429-9.942857-56.457143-25.828572-9.828571-11.542857-15.2-26.057143-15.428571-41.142857-2.4 0.114286-4.8 0.228571-7.2 0.228572-32.114286 0-52.114286-13.942857-63.2-25.6C-0.605269 875.771429-0.262411 841.942857 0.080446 835.428571h0.228571c0.228571-5.257143 1.142857-10.514286 2.514286-15.542857l177.714286-614.857143c-4.685714-11.428571-5.485714-24-2.514286-35.885714l5.485714-21.828571c8.914286-34.971429 33.485714-64 66.628572-78.514286 40.685714-17.714286 106.971429-38.857143 191.771428-38.857143 85.257143 0 170.742857 21.371429 253.828572 63.657143 228.8 116.114286 303.314286 338.285714 321.142857 405.828571 7.542857 19.314286 8.914286 40.457143 4.228571 60.571429-4.914286 22.057143-16.685714 41.942857-33.485714 57.028571-10.057143 8.8-28.342857 25.028571-240.114286 100.8-2.971429 24.342857-2.628571 48.457143-2.285714 70.4 0.228571 17.828571 0.457143 33.257143-1.142857 47.314286-1.028571 9.485714-4.228571 38.514286-28.114286 56.457143-10.514286 8-23.428571 12.228571-36.685714 12.228571-22.514286 0-43.771429-12-57.371429-31.885714-0.114286 6.971429-0.457143 13.485714-1.142857 19.771429-1.028571 9.485714-4.228571 38.514286-28.114286 56.457143-10.514286 8-23.428571 12.228571-36.685714 12.228571-25.6 0-49.371429-15.428571-62.285714-40.228571-15.771429-30.285714-8.8-61.257143-2.057143-91.2 1.828571-8.228571 3.771429-16.571429 5.257143-25.142858-96.114286 32.114286-191.542857 62.971429-265.257143 85.828572 0 4.571429 0 9.257143 0.114286 13.828571 0.228571 12 0.457143 23.428571-1.485715 34.857143-5.485714 30.971429-25.142857 44.342857-36.342857 49.485714-8.342857 3.885714-17.942857 5.942857-27.657143 5.828572z" fill="#25467A" /><path d="M73.223303 855.657143l820.114286-303.314286s-47.2-226.171429-266.514286-348-389.828571-21.371429-389.828572-21.371428l-187.885714 650.285714c-2.857143 9.828571 2.857143 20 12.571429 22.857143 3.771429 1.028571 7.885714 0.914286 11.542857-0.457143z" fill="#FFA726" /><path d="M893.337589 552.228571l-38.628572 14.285715c-20.914286-65.028571-87.2-223.771429-258.4-318.742857-173.942857-96.685714-317.257143-53.371429-369.142857-31.314286l9.714286-33.485714s170.514286-100.457143 389.828571 21.371428 266.628571 347.885714 266.628572 347.885714z" fill="#D98E20" /><path d="M959.623303 533.942857l-72.457143 25.371429c-8.685714 3.085714-18.171429-1.485714-21.257143-10.171429-0.114286-0.228571-0.114286-0.457143-0.228571-0.685714-22.057143-73.714286-89.028571-235.771429-266.857143-325.942857-160.685714-81.485714-293.257143-54.857143-361.257143-29.828572-5.142857 1.828571-10.857143-0.8-12.685714-5.942857-0.685714-1.828571-0.8-3.885714-0.342857-5.828571l5.485714-21.828572c5.257143-20.685714 19.657143-37.714286 39.2-46.285714 63.314286-27.657143 215.885714-72.342857 404.8 23.542857C887.280446 244.571429 955.394731 453.485714 970.823303 512.8c2.514286 8.8-2.4 18.057143-11.2 21.142857z" fill="#FB8C00" /><path d="M48.080446 837.828571s-2.285714 45.714286 45.714285 41.142858 814.4-255.885714 862.285715-298.171429c23.885714-21.028571 27.885714-62.285714 3.428571-81.142857-29.714286-22.857143-65.142857-2.285714-76.571428 16s-9.142857 41.142857-9.142858 41.142857S383.96616 741.828571 80.080446 848c-20.685714 7.2-30.4 1.485714-32-10.171429z" fill="#FFCC80" /><path d="M218.36616 798.971429c-7.771429 7.314286-14.4 15.771429-19.542857 25.142857-5.028571 9.142857-8.8 18.857143-11.085714 29.028571-9.942857 43.2 5.257143 82.514286-13.6 91.314286-8.8 4-21.485714 0-27.542858-7.2-13.485714-15.885714 10.4-41.142857 11.657143-75.2 0.228571-4.685714-0.114286-9.371429-0.8-13.942857-1.371429-8.571429-4.342857-16.8-8.8-24.228572 22.628571-8.114286 45.942857-16.457143 69.714286-24.914285zM626.594731 649.371429c-10.171429 12.571429-25.828571 29.942857-37.714285 64.914285-1.028571 2.971429-1.942857 5.942857-2.857143 9.028572-24.8 83.771429 0.571429 169.828571-21.828572 186.628571-8.8 6.628571-21.485714-0.114286-27.542857-11.771428-15.314286-29.371429 17.371429-77.828571 10.857143-144.914286-0.571429-5.714286-1.371429-10.971429-2.285714-16-4.228571-21.942857-12.114286-37.714286-19.428572-50.4 34.857143-13.028571 68.8-25.6 100.8-37.485714zM737.794731 608c-8.457143 11.428571-17.942857 26.857143-25.828571 49.828571-2.628571 7.885714-4.914286 15.885714-6.742857 24-18.057143 78.742857 3.085714 155.885714-17.828572 171.657143-8.8 6.628571-21.485714-0.114286-27.542857-11.771428-15.2-29.371429 17.371429-77.828571 10.857143-144.914286-0.114286-0.914286-0.228571-1.714286-0.228571-2.628571-1.942857-19.2-7.542857-37.828571-16.571429-54.857143 30.285714-11.314286 58.4-21.942857 83.885714-31.314286z" fill="#FFF59D" /><path d="M540.880446 310.857143m-29.714286 0a29.714286 29.714286 0 1 0 59.428571 0 29.714286 29.714286 0 1 0-59.428571 0Z" fill="#FFCC80" /><path d="M370.594731 305.142857m-29.714285 0a29.714286 29.714286 0 1 0 59.428571 0 29.714286 29.714286 0 1 0-59.428571 0Z" fill="#FFCC80" /><path d="M449.337589 621.028571c-38.171429 0-69.142857-30.971429-69.142858-69.257142-0.228571-7.657143 5.828571-14.057143 13.371429-14.285715s14.057143 5.828571 14.285714 13.371429v0.8c0.342857 22.971429 19.314286 41.257143 42.171429 40.8 22.4-0.342857 40.457143-18.4 40.8-40.8 0-7.657143 6.171429-13.828571 13.828571-13.942857 7.314286 0 13.485714 5.714286 13.828572 13.028571v0.8c0.114286 38.514286-30.857143 69.485714-69.142857 69.485714zM269.451874 441.142857c0.342857 22.971429 19.314286 41.257143 42.171429 40.8 22.4-0.342857 40.457143-18.4 40.8-40.8-0.342857-22.971429-19.314286-41.257143-42.171429-40.8-22.285714 0.342857-40.342857 18.4-40.8 40.8zM546.251874 441.142857c-0.342857 22.971429 17.828571 41.828571 40.8 42.285714 22.971429 0.342857 41.828571-17.828571 42.285715-40.8V441.142857c-0.342857-22.971429-19.314286-41.257143-42.171429-40.8-22.514286 0.342857-40.571429 18.4-40.914286 40.8z" fill="#25467A" /><path d="M255.623303 510.4h-55.314286c-15.314286 0.342857-27.428571 12.914286-27.085714 28.228571 0.342857 14.857143 12.228571 26.857143 27.085714 27.085715h55.428572c15.314286-0.342857 27.428571-12.914286 27.085714-28.228572-0.228571-14.857143-12.228571-26.857143-27.2-27.085714z m442.857143 0h-55.314286c-15.314286 0.342857-27.428571 12.914286-27.085714 28.228571 0.342857 14.857143 12.228571 26.857143 27.085714 27.085715h55.314286c15.314286-0.342857 27.428571-12.914286 27.085714-28.228572-0.342857-14.857143-12.228571-26.857143-27.085714-27.085714z" fill="#FFCC80" /></svg>