<?xml version="1.0" standalone="no"?><!DOCTYPE svg PUBLIC "-//W3C//DTD SVG 1.1//EN" "http://www.w3.org/Graphics/SVG/1.1/DTD/svg11.dtd"><svg class="icon" width="200px" height="200.00px" viewBox="0 0 1024 1024" version="1.1" xmlns="http://www.w3.org/2000/svg"><path d="M54.171429 960.571429c-17.6-2.171429-33.6-11.428571-43.542858-26.057143-11.314286-16.685714-13.6-37.371429-6.4-56l0.342858-0.914286 330.285714-763.428571L636 6.057143c11.542857-4.114286 24.228571 1.485714 28.914286 12.8l357.257143 864c4.914286 12-1.028571 25.6-13.028572 30.171428l-280.228571 106.057143-674.742857-58.514285z" fill="#25467A" /><path d="M925.942857 892.457143l-49.828571 17.942857-4.8 1.942857L526.514286 98.171429 579.314286 78.857143z" fill="#FF7266" /><path d="M871.314286 912.342857l-22.285715 8.114286-38.285714 13.942857-7.657143 2.742857-26.285714 9.6c-3.542857-5.028571-6.742857-10.628571-9.485714-16.8-9.714286-22.285714-11.314286-46.514286-6.057143-66.628571-15.885714-7.2-30.285714-22.628571-38.971429-44.114286-8.685714-21.485714-9.942857-44.457143-4.914285-63.771429-15.885714-7.2-30.285714-22.628571-38.971429-44.114285-8.685714-21.485714-9.942857-44.571429-4.914286-63.771429-15.885714-7.2-30.285714-22.628571-38.971428-44.114286-8.685714-21.485714-9.942857-44.457143-4.914286-63.771428-15.885714-7.2-30.285714-22.628571-38.971429-44.114286-8.685714-21.485714-9.942857-44.571429-4.914285-63.771428-15.885714-7.2-30.285714-22.628571-38.971429-44-8.685714-21.485714-9.942857-44.571429-4.914286-63.771429-15.885714-7.2-30.285714-22.628571-38.971428-44.114286-8.571429-21.257143-9.828571-44-5.028572-63.085714 0-0.228571 0.114286-0.457143 0.114286-0.685714-0.228571-0.114286-0.342857-0.228571-0.571428-0.228572-15.657143-7.314286-29.828571-22.628571-38.4-43.771428-6.285714-15.428571-8.685714-31.771429-7.657143-46.857143l6.628571-2.4 4.457143-1.6L500.8 107.428571l41.028571-14.857142s14.971429 10.057143 18.285715 17.6c7.657143 17.371429 10.285714 36.228571 8.457143 53.142857-0.8 7.657143 2.628571 15.657143 8.114285 19.657143 11.542857 8.342857 21.714286 21.371429 28.457143 37.828571 6.742857 16.571429 9.028571 34.171429 7.314286 50.285714-0.8 7.542857 2.4 15.542857 7.885714 19.542857 11.542857 8.342857 21.828571 21.371429 28.685714 38.057143 6.857143 16.685714 9.028571 34.171429 7.314286 50.285715-0.8 7.542857 2.4 15.542857 7.885714 19.542857 11.542857 8.342857 21.828571 21.371429 28.685715 38.057143 6.857143 16.685714 9.028571 34.171429 7.314285 50.285714-0.8 7.542857 2.4 15.542857 7.885715 19.542857 11.542857 8.342857 21.828571 21.371429 28.685714 38.057143 6.742857 16.571429 9.028571 34.171429 7.314286 50.285714-0.8 7.542857 2.4 15.542857 7.885714 19.542857 11.542857 8.342857 21.828571 21.371429 28.685714 38.057143 6.742857 16.571429 9.028571 34.171429 7.314286 50.285714-0.8 7.542857 2.4 15.542857 7.885714 19.542858 11.542857 8.342857 21.828571 21.371429 28.685715 38.057142 6.742857 16.571429 9.028571 34.171429 7.314285 50.285715-0.8 7.542857 2.4 15.542857 7.885715 19.542857 11.542857 8.342857 21.828571 21.371429 28.685714 38.057143 5.485714 13.828571 2.857143 44.228571 2.857143 44.228571z" fill="#7CB342" /><path d="M816 932.685714l-51.2 18.4-344.8-814.057143 51.085714-18.514285z" fill="#FF7266" /><path d="M861.942857 915.885714l-38.285714 13.942857-7.657143 2.857143-304.914286-720-0.571428-1.142857-39.428572-93.028571 4.457143-1.6 38.285714-13.942857z" fill="#FAD53E" /><path d="M770.971429 949.028571l-48.914286 20.685715-350.971429-816.685715 54.4-17.714285s7.771429 4.8 15.428572 31.657143c7.428571 26.057143 15.428571 55.428571 19.885714 65.485714 73.6 164.8 262.971429 635.885714 284.228571 662.628571 26.171429 32.914286 25.942857 53.942857 25.942858 53.942857zM954.514286 882.057143l-45.828572 17.142857s-9.142857-10.514286-14.742857-28.342857c-4.914286-15.771429-4.914286-31.428571-14.971428-56.685714C803.657143 624 617.6 194.971429 612.342857 182.4c-6.857143-16.228571-24.914286-35.085714-33.371428-56.8-10.857143-27.771429-11.885714-42.171429-11.885715-42.171429l47.2-17.371428c5.942857-2.171429 12.457143 0.685714 14.857143 6.514286L961.142857 866.514286c2.628571 6.171429-0.342857 13.142857-6.628571 15.542857z" fill="#FFE0B2" /><path d="M371.085714 153.028571L49.6 896.114286c-2.742857 7.2 1.942857 15.085714 9.6 16l662.857143 57.6-350.971429-816.685715z" fill="#FFCC80" /><path d="M369.371429 876.571429c-35.2-3.085714-61.257143-34.171429-58.171429-69.371429 0.571429-7.085714 6.857143-12.228571 13.942857-11.657143 7.085714 0.571429 12.228571 6.857143 11.657143 13.942857-1.828571 21.257143 13.714286 39.657143 34.971429 41.6 21.257143 1.828571 39.657143-13.714286 41.6-34.971428 0.571429-7.085714 6.857143-12.228571 13.942857-11.657143 7.085714 0.571429 12.228571 6.857143 11.657143 13.942857-3.428571 35.085714-34.285714 61.257143-69.6 58.171429zM218.057143 696.228571c-1.828571 21.257143 13.714286 39.657143 34.971428 41.6 21.257143 1.828571 39.657143-13.714286 41.6-34.971428s-13.714286-39.657143-34.971428-41.6c-21.142857-1.714286-39.657143 13.828571-41.6 34.971428zM473.028571 718.514286c-1.828571 21.257143 13.714286 39.657143 34.971429 41.6 21.257143 1.828571 39.657143-13.714286 41.6-34.971429 1.828571-21.257143-13.714286-39.657143-34.971429-41.6-21.142857-1.714286-39.657143 13.828571-41.6 34.971429z" fill="#25467A" /><path d="M199.657143 758.857143l-50.971429-4.457143c-14.057143-1.257143-26.514286 9.142857-27.771428 23.314286-1.257143 14.057143 9.142857 26.514286 23.314285 27.771428l50.971429 4.457143c14.057143 1.257143 26.514286-9.142857 27.771429-23.314286 1.257143-14.057143-9.257143-26.514286-23.314286-27.771428z m408.114286 35.771428l-50.971429-4.457142c-14.057143-1.257143-26.514286 9.142857-27.771429 23.314285-1.257143 14.057143 9.142857 26.514286 23.314286 27.771429l50.971429 4.457143c14.057143 1.257143 26.514286-9.142857 27.771428-23.314286 1.142857-14.171429-9.257143-26.514286-23.314285-27.771429z" fill="#FF8A80" /></svg>