<?xml version="1.0" standalone="no"?><!DOCTYPE svg PUBLIC "-//W3C//DTD SVG 1.1//EN" "http://www.w3.org/Graphics/SVG/1.1/DTD/svg11.dtd"><svg class="icon" width="200px" height="200.00px" viewBox="0 0 1024 1024" version="1.1" xmlns="http://www.w3.org/2000/svg"><path d="M512 1022.4c-58.514286 0-112.571429-4.685714-160.914286-13.828571-40-7.657143-67.314286-16.685714-83.2-22.971429-17.6-6.971429-31.885714-20.114286-40.342857-37.142857-12.228571-24.571429-30.628571-70.057143-30.857143-120.914286-76.571429-73.6-138.628571-159.314286-184.571428-255.314286-12.342857-25.714286-7.542857-50.742857-3.428572-68.342857-8-18.514286-10.628571-39.428571-7.2-59.428571 2.628571-15.314286 8.685714-29.828571 17.485715-42.514286-1.828571-15.885714-0.114286-31.885714 5.257142-47.085714 5.142857-14.742857 13.6-27.885714 24.457143-38.742857 0.914286-15.885714 5.371429-31.428571 13.142857-45.485715 7.657143-13.485714 18.057143-25.142857 30.628572-33.828571C96 221.371429 103.085714 206.857143 113.142857 194.4c9.828571-12 22.057143-21.6 35.885714-28 6.171429-14.628571 15.542857-27.657143 27.657143-38.057143 11.657143-10.057143 25.371429-17.257143 40-21.257143 8.571429-13.257143 20.114286-24.457143 33.714286-32.571428 13.142857-7.885714 27.885714-12.571429 42.971429-13.828572 10.742857-11.542857 24-20.457143 38.742857-26.057143 11.314286-4.228571 23.2-6.4 35.2-6.4 3.2 0 6.285714 0.114286 9.485714 0.457143 12.571429-9.485714 27.2-15.885714 42.628571-18.628571 5.942857-1.028571 12-1.6 17.942858-1.6 9.142857 0 18.285714 1.257143 27.085714 3.771428 13.942857-7.085714 29.485714-10.742857 45.142857-10.742857h4.685714c15.771429 0 31.2 3.657143 45.142857 10.742857 8.8-2.514286 17.828571-3.771429 27.085715-3.771428 5.942857 0 12 0.571429 17.942857 1.6 15.542857 2.857143 30.057143 9.257143 42.628571 18.628571 3.2-0.342857 6.285714-0.457143 9.485715-0.457143 12 0 23.885714 2.171429 35.2 6.4 14.857143 5.6 28.114286 14.514286 38.742857 26.057143 15.085714 1.257143 29.828571 5.942857 42.971428 13.828572 13.6 8.114286 25.142857 19.2 33.714286 32.571428 14.742857 3.885714 28.342857 11.2 40 21.257143 12 10.4 21.485714 23.428571 27.657143 38.057143 13.828571 6.4 26.057143 16 35.771428 28 10.057143 12.457143 17.142857 26.857143 20.685715 42.4 12.457143 8.8 22.971429 20.342857 30.514285 33.828571 7.885714 13.942857 12.342857 29.485714 13.142858 45.485715 10.857143 10.857143 19.2 24.114286 24.457142 38.742857 5.371429 15.2 7.085714 31.314286 5.257143 47.085714 8.914286 12.571429 14.857143 27.085714 17.485715 42.514286 3.428571 20 0.914286 40.914286-7.2 59.428571 4.114286 17.6 8.8 42.628571-3.428572 68.342857-45.942857 96-108 181.714286-184.457143 255.314286-0.228571 50.971429-18.628571 96.457143-30.857143 120.914286-8.457143 17.028571-22.742857 30.171429-40.342857 37.142857-15.885714 6.285714-43.2 15.314286-83.2 22.971429-48 9.142857-102.171429 13.828571-160.685714 13.828571z" fill="#25467A" /><path d="M512 671.542857c348.571429 0 265.028571 208.228571 241.485714 255.657143-3.085714 6.285714-8.457143 11.314286-15.085714 13.828571-25.028571 9.942857-98.171429 33.485714-226.514286 33.485715-128.342857 0-201.371429-23.542857-226.514285-33.485715-6.514286-2.628571-11.885714-7.542857-15.085715-13.828571C246.971429 879.771429 163.428571 671.542857 512 671.542857z" fill="#FFFFFF" /><path d="M512 951.542857c-120.685714 0-189.485714-20.457143-215.314286-30.285714-10.742857-21.942857-37.942857-87.2-8-134.628572 28.571429-45.371429 105.828571-69.371429 223.314286-69.371428 117.485714 0 194.628571 24 223.314286 69.485714 29.942857 47.542857 2.742857 112.8-8 134.628572-25.828571 9.714286-94.628571 30.171429-215.314286 30.171428z" fill="#FBE9D3" /><path d="M975.2 452.571429c-1.714286-10.285714-6.171429-19.428571-12.457143-26.742858-5.714286-6.628571-8.114286-15.657143-6.285714-24.228571 2.057143-9.828571 1.6-20.457143-2.057143-30.628571-3.428571-9.828571-9.371429-18.057143-16.685714-24.114286-6.742857-5.6-10.628571-13.942857-10.285715-22.742857 0.342857-10.057143-1.942857-20.457143-7.2-29.828572-5.028571-9.028571-12.228571-16-20.457142-20.685714-7.657143-4.342857-12.914286-11.885714-14.057143-20.571429-1.257143-10.057143-5.257143-19.771429-12.114286-28.114285-6.514286-7.885714-14.628571-13.485714-23.542857-16.685715-8.342857-2.971429-14.857143-9.6-17.485714-17.942857-2.971429-9.6-8.571429-18.4-16.571429-25.371428-7.657143-6.628571-16.571429-10.628571-25.828571-12.228572-8.8-1.485714-16.457143-6.857143-20.571429-14.742857-4.571429-8.8-11.542857-16.457143-20.571429-21.828571-8.571429-5.142857-18.057143-7.542857-27.314285-7.428572-9.028571 0.114286-17.485714-3.885714-22.971429-11.085714-5.942857-7.771429-14.057143-14.057143-23.771428-17.714286-9.371429-3.542857-18.971429-4.114286-28.114286-2.4-8.914286 1.714286-18.057143-0.8-24.685714-6.857143-7.2-6.514286-16.114286-11.2-26.285715-13.028571-9.714286-1.828571-19.428571-0.685714-28 2.628571-8.457143 3.2-17.942857 2.4-25.6-2.4-8.114286-5.142857-17.714286-8.114286-28-8.114285h-4.571428c-10.285714 0-19.885714 2.971429-28 8.114285-7.657143 4.8-17.142857 5.6-25.6 2.4-8.685714-3.314286-18.285714-4.342857-28-2.628571-10.171429 1.828571-19.085714 6.514286-26.285715 13.028571-6.628571 6.057143-15.885714 8.571429-24.685714 6.857143-9.142857-1.714286-18.742857-1.028571-28.114286 2.4-9.714286 3.657143-17.828571 9.942857-23.771428 17.714286-5.485714 7.085714-14.057143 11.085714-22.971429 11.085714-9.257143-0.114286-18.742857 2.285714-27.314285 7.428572-9.028571 5.371429-16 13.028571-20.571429 21.828571-4.114286 7.885714-11.771429 13.257143-20.571429 14.742857-9.257143 1.6-18.171429 5.6-25.828571 12.228572-8 6.971429-13.6 15.771429-16.571429 25.371428-2.628571 8.457143-9.257143 15.085714-17.485714 17.942857-8.914286 3.2-17.028571 8.8-23.542857 16.685715-6.742857 8.342857-10.742857 18.057143-12.114286 28.114285-1.142857 8.685714-6.4 16.228571-14.057143 20.571429-8.228571 4.685714-15.428571 11.657143-20.457142 20.685714-5.257143 9.371429-7.542857 19.771429-7.2 29.828572 0.342857 8.8-3.542857 17.142857-10.285715 22.742857-7.314286 6.057143-13.257143 14.285714-16.685714 24.114286-3.657143 10.171429-4.114286 20.8-2.057143 30.628571 1.828571 8.571429-0.571429 17.485714-6.285714 24.228571-6.285714 7.314286-10.742857 16.457143-12.457143 26.742858-2.171429 12.685714 0 25.142857 5.6 35.657142 3.2 6.057143 4.228571 13.028571 2.628571 19.771429-3.428571 14.857143-7.885714 30.285714-1.6 43.542857 139.542857 291.314286 393.828571 397.371429 446.742858 416.8 6.4 2.285714 13.257143 2.285714 19.657142 0 52.914286-19.428571 307.2-125.485714 446.742858-416.8 6.285714-13.142857 1.828571-28.685714-1.6-43.542857-1.6-6.742857-0.571429-13.714286 2.628571-19.771429 5.485714-10.514286 7.771429-22.971429 5.6-35.657142z" fill="#FBF7F3" /><path d="M969.6 488.228571c-1.371429 2.742857-2.4 5.6-2.857143 8.571429-31.2 71.428571-67.542857 138.4-108.685714 200.457143-28.914286 43.542857-60 84.457143-93.142857 122.4-41.714286 36.457143-82.742857 65.257143-119.2 87.428571-18.742857 11.428571-36.228571 21.028571-52.114286 29.142857-6.4 3.314286-12.457143 6.285714-18.171429 9.028572-4.457143 2.171429-8.685714 4.114286-12.8 5.942857l-0.228571-0.228571c0 0.114286-0.114286 0.228571-0.228571 0.457142-3.885714 1.714286-7.542857 3.428571-10.971429 4.914286-2.971429 1.257143-5.714286 2.514286-8.342857 3.542857-8.685714 3.657143-15.771429 6.4-21.028572 8.228572-6.4 2.285714-13.257143 2.285714-19.657142 0-5.257143-1.942857-12.571429-4.685714-21.485715-8.457143-0.228571-0.114286-0.457143-0.228571-0.685714-0.228572v-0.114285h-0.114286c-2.742857-1.142857-5.6-2.4-8.571428-3.657143-3.657143-1.6-7.542857-3.314286-11.542857-5.142857-0.342857-0.114286-0.685714-0.228571-0.914286-0.457143-3.771429-1.828571-7.771429-3.657143-12-5.714286-6.4-3.085714-13.142857-6.514286-20.228572-10.171428-16.228571-8.457143-34.285714-18.514286-53.485714-30.4-38.285714-23.657143-81.371429-54.514286-124.685714-93.714286C218.285714 774.857143 189.942857 737.142857 163.428571 697.142857c-39.885714-60.114286-75.2-124.914286-105.714285-193.828571 0.342857-5.257143-0.914286-10.4-3.314286-15.085715-5.485714-10.514286-7.771429-22.971429-5.6-35.657142 1.714286-10.285714 6.171429-19.428571 12.457143-26.857143 4.228571-5.028571 6.628571-11.314286 6.857143-17.714286 35.885714 95.771429 80.571429 184.114286 133.371428 263.885714 25.828571 38.971429 53.6 75.771429 82.971429 110.057143-17.257143-27.657143-33.714286-56.685714-49.371429-86.971428-58.628571-113.6-104.571429-243.771429-136.685714-387.542858 1.142857-4.571429 2.971429-9.028571 5.371429-13.371428 5.028571-9.028571 12.228571-16 20.457142-20.685714 4.8-2.742857 8.571429-6.742857 11.085715-11.428572 0.457143 2.285714 0.914286 4.685714 1.371428 6.971429 31.542857 151.314286 78.285714 287.542857 138.971429 405.142857 23.771429 46.057143 49.485714 89.028571 77.028571 128.571428-16.228571-34.514286-31.542857-71.314286-45.942857-110.171428-44.571429-120.8-78.742857-260.571429-101.828571-415.428572-4.457143-30.057143-8.457143-60.457143-12.114286-91.2 3.2-7.885714 8.228571-15.2 15.085714-21.028571 7.657143-6.628571 16.571429-10.628571 25.828572-12.228571 0.457143-0.114286 0.914286-0.228571 1.371428-0.228572 4.228571 39.885714 9.257143 79.314286 15.085715 118.057143C272.8 422.171429 306.285714 558.857143 349.714286 676.8c19.2 52.114286 40.114286 100.114286 62.742857 143.771429-12-40.457143-23.2-84.114286-33.6-130.971429-42.857143-194.857143-63.314286-407.085714-72.685714-581.371429 7.542857-0.914286 14.4-4.685714 19.085714-10.857142 5.942857-7.771429 14.057143-14.057143 23.771428-17.714286 0.457143-0.228571 1.028571-0.342857 1.485715-0.571429 8.685714 177.028571 28.571429 398.514286 73.257143 600.342857 12.342857 55.885714 25.942857 107.2 40.685714 153.485715-4.571429-44.685714-8.914286-93.714286-12.8-146.857143-15.657143-212.685714-22.285714-446.628571-25.028572-628.457143 0.571429-0.114286 1.028571-0.228571 1.6-0.342857 9.828571-1.714286 19.428571-0.685714 28 2.628571 5.257143 2.057143 10.857143 2.514286 16.114286 1.371429 2.742857 180.571429 9.371429 411.428571 24.8 621.485714 4.114286 56.342857 8.685714 108.114286 13.714286 154.742857 4.914286-46.742857 9.485714-98.4 13.714286-154.742857 15.428571-210.171429 22.057143-441.485714 24.8-622.057143 6.057143 1.828571 12.571429 1.6 18.628571-0.8 8.342857-3.2 17.6-4.342857 27.085714-2.742857-2.742857 181.942857-9.371429 416-25.028571 628.914286-3.885714 53.028571-8.228571 102.171429-12.8 146.857143 14.742857-46.285714 28.228571-97.485714 40.685714-153.485715 44.685714-202.171429 64.571429-424 73.257143-601.142857 1.257143 0.342857 2.628571 0.8 3.885714 1.257143 9.714286 3.657143 17.828571 9.942857 23.771429 17.714286 4.114286 5.371429 10.057143 9.028571 16.571428 10.4-9.371429 174.285714-29.828571 386.742857-72.914285 581.6-10.4 46.857143-21.6 90.514286-33.6 130.971428 22.628571-43.657143 43.542857-91.657143 62.742857-143.771428 43.428571-117.942857 76.914286-254.628571 99.542857-406.4 5.828571-38.857143 10.857143-78.514286 15.085714-118.742857 1.257143 0.342857 2.514286 0.685714 3.885715 0.914285 9.142857 1.485714 18.171429 5.6 25.828571 12.228572 5.485714 4.8 9.942857 10.4 13.028571 16.685714-3.657143 32.228571-7.885714 64.228571-12.571428 95.657143-23.085714 154.857143-57.371429 294.628571-101.828572 415.428571-14.285714 38.857143-29.6 75.657143-45.828571 110.171429 27.542857-39.542857 53.257143-82.4 77.028571-128.571429 60.571429-117.6 107.314286-253.828571 138.971429-405.142857 0.8-3.657143 1.485714-7.2 2.285714-10.857143 2.171429 6.4 6.742857 11.885714 12.8 15.314286 8.228571 4.685714 15.428571 11.657143 20.457143 20.685714 1.6 2.857143 2.857143 5.714286 3.885714 8.685715-32.228571 145.6-78.514286 277.371429-137.714285 392.228571-15.657143 30.285714-32.114286 59.314286-49.371429 86.971429a1123.428571 1123.428571 0 0 0 82.971429-110.171429c54.742857-82.514286 100.571429-174.285714 137.142857-273.942857-0.114286 1.142857-0.342857 2.4-0.571429 3.542857-1.828571 8.571429 0.571429 17.485714 6.285715 24.228572 6.285714 7.314286 10.742857 16.457143 12.457142 26.857142 1.942857 13.028571-0.342857 25.485714-5.828571 36z" fill="#FFFFFF" /><path d="M459.657143 950.514286l-0.571429 0.571428c-0.114286-0.342857-0.228571-0.685714-0.457143-1.028571 0.457143 0.228571 0.685714 0.342857 1.028572 0.457143z" fill="#FFFFFF" /><path d="M459.657143 950.514286l-0.571429 0.571428c-0.114286-0.342857-0.228571-0.685714-0.457143-1.028571 0.457143 0.228571 0.685714 0.342857 1.028572 0.457143z" fill="#FFFFFF" /><path d="M459.657143 950.514286l-0.571429 0.571428c-0.114286-0.342857-0.228571-0.685714-0.457143-1.028571 0.457143 0.228571 0.685714 0.342857 1.028572 0.457143zM480.685714 959.771429l-0.571428 0.114285v-0.342857c0.114286 0 0.342857 0.114286 0.571428 0.228572zM562.628571 951.314286c-0.114286 0.114286-0.228571 0.114286-0.457142 0.228571 0.114286-0.114286 0.114286-0.228571 0.228571-0.457143l0.228571 0.228572z" fill="#FFFFFF" /><path d="M480 959.428571h-0.114286 0.114286zM562.628571 951.314286c-0.114286 0.114286-0.228571 0.114286-0.457142 0.228571 0.114286-0.114286 0.114286-0.228571 0.228571-0.457143l0.228571 0.228572z" fill="#FBFBFB" /><path d="M875.428571 533.485714c4.342857-7.542857 6.171429-16.457143 4.457143-25.485714-1.371429-7.428571-4.914286-13.942857-9.942857-19.2-4.457143-4.8-6.4-11.2-4.914286-17.257143 1.714286-7.085714 1.257143-14.628571-1.6-21.942857-2.742857-6.971429-7.428571-12.914286-13.257142-17.257143-5.371429-4-8.457143-10.057143-8.228572-16.228571 0.342857-7.2-1.485714-14.628571-5.714286-21.371429-4-6.4-9.714286-11.428571-16.228571-14.857143-6.057143-3.085714-10.285714-8.571429-11.2-14.742857-1.028571-7.2-4.228571-14.171429-9.6-20.114286-5.142857-5.714286-11.657143-9.714286-18.628571-11.885714-6.628571-2.171429-11.885714-6.857143-13.942858-12.914286-2.4-6.857143-6.742857-13.142857-13.142857-18.171428-6.057143-4.685714-13.142857-7.657143-20.457143-8.685714-6.971429-1.028571-13.028571-4.914286-16.342857-10.514286-3.657143-6.285714-9.142857-11.771429-16.342857-15.657143-6.857143-3.657143-14.285714-5.371429-21.714286-5.257143-7.085714 0.114286-13.942857-2.742857-18.285714-7.885714-4.685714-5.6-11.2-10.057143-18.857143-12.685714-7.428571-2.514286-15.085714-2.971429-22.285714-1.714286-7.085714 1.257143-14.285714-0.571429-19.657143-4.914286-5.714286-4.685714-12.8-8-20.914286-9.371428-7.771429-1.257143-15.428571-0.457143-22.285714 1.828571-6.742857 2.285714-14.285714 1.714286-20.342857-1.714286-6.514286-3.657143-14.057143-5.828571-22.171429-5.828571h-3.657142c-8.114286 0-15.771429 2.171429-22.171429 5.828571-6.057143 3.428571-13.6 4-20.342857 1.714286-6.857143-2.4-14.514286-3.085714-22.285714-1.828571-8 1.257143-15.2 4.685714-20.914286 9.371428-5.257143 4.342857-12.571429 6.057143-19.657143 4.914286-7.2-1.257143-14.857143-0.8-22.285714 1.714286-7.771429 2.628571-14.171429 7.085714-18.857143 12.685714-4.342857 5.142857-11.085714 8-18.285714 7.885714-7.314286-0.114286-14.857143 1.6-21.714286 5.257143-7.2 3.885714-12.685714 9.257143-16.342857 15.657143-3.2 5.6-9.371429 9.485714-16.342857 10.514286-7.314286 1.142857-14.4 4-20.457143 8.685714-6.4 4.914286-10.742857 11.314286-13.142857 18.171428-2.057143 6.057143-7.314286 10.742857-13.942858 12.914286-7.085714 2.285714-13.485714 6.285714-18.628571 11.885714-5.371429 5.942857-8.571429 12.914286-9.6 20.114286-0.914286 6.171429-5.142857 11.657143-11.2 14.742857-6.514286 3.314286-12.228571 8.342857-16.228571 14.857143-4.228571 6.742857-6.057143 14.171429-5.714286 21.371429 0.228571 6.285714-2.857143 12.228571-8.228572 16.228571-5.828571 4.342857-10.514286 10.171429-13.257142 17.257143-2.857143 7.314286-3.314286 14.857143-1.6 21.942857 1.485714 6.171429-0.457143 12.571429-4.914286 17.257143-4.914286 5.257143-8.457143 11.771429-9.942857 19.2-1.714286 9.028571 0 17.942857 4.457143 25.485714 2.514286 4.342857 3.314286 9.371429 2.057142 14.171429-2.742857 10.628571-6.285714 21.714286-1.257142 31.085714 8.8 196.914286 205.485714 330.628571 362.514285 330.628572s353.828571-133.6 362.514286-330.628572c5.028571-9.371429 1.485714-20.457143-1.257143-31.085714-1.028571-4.8-0.228571-9.828571 2.285714-14.171429z" fill="#FAAD96" /><path d="M214.4 607.085714a297.6 292 0 1 0 595.2 0 297.6 292 0 1 0-595.2 0Z" fill="#FBDAB0" /><path d="M512 619.314286m-279.657143 0a279.657143 279.657143 0 1 0 559.314286 0 279.657143 279.657143 0 1 0-559.314286 0Z" fill="#FBF0E2" /><path d="M512 721.6c-35.314286 0-64-28.685714-64-64 0-7.085714 5.714286-12.8 12.8-12.8s12.8 5.714286 12.8 12.8c0 21.257143 17.142857 38.4 38.4 38.4s38.4-17.142857 38.4-38.4c0-7.085714 5.714286-12.8 12.8-12.8 7.085714 0 12.8 5.714286 12.8 12.8 0 35.314286-28.685714 64-64 64zM345.6 555.2c0 21.257143 17.142857 38.4 38.4 38.4s38.4-17.142857 38.4-38.4-17.142857-38.4-38.4-38.4c-21.142857 0-38.4 17.142857-38.4 38.4zM601.6 555.2c0 21.257143 17.142857 38.4 38.4 38.4s38.4-17.142857 38.4-38.4-17.142857-38.4-38.4-38.4c-21.142857 0-38.4 17.142857-38.4 38.4z" fill="#25467A" /><path d="M332.8 619.2h-51.2c-14.171429 0-25.6 11.428571-25.6 25.6s11.428571 25.6 25.6 25.6h51.2c14.171429 0 25.6-11.428571 25.6-25.6s-11.428571-25.6-25.6-25.6z m409.6 0h-51.2c-14.171429 0-25.6 11.428571-25.6 25.6s11.428571 25.6 25.6 25.6h51.2c14.171429 0 25.6-11.428571 25.6-25.6s-11.428571-25.6-25.6-25.6z" fill="#FAAD96" /></svg>