<?xml version="1.0" standalone="no"?><!DOCTYPE svg PUBLIC "-//W3C//DTD SVG 1.1//EN" "http://www.w3.org/Graphics/SVG/1.1/DTD/svg11.dtd"><svg class="icon" width="200px" height="200.00px" viewBox="0 0 1024 1024" version="1.1" xmlns="http://www.w3.org/2000/svg"><path d="M444.547072 1024c-44.032 0-85.504-7.168-123.392-20.48-39.936-14.848-74.752-36.352-103.424-65.024-19.456-19.456-35.84-41.472-48.128-66.048-26.624-13.824-50.688-31.744-71.68-52.736l-3.072-3.072c-1.536-1.536-3.072-2.56-4.096-4.096C19.587072 740.864-12.156928 629.76 4.227072 507.392c7.68-58.88 26.112-117.248 54.272-173.056C88.195072 275.456 127.107072 221.696 174.211072 174.08 230.531072 118.272 294.531072 74.24 365.699072 44.032 432.771072 15.36 503.427072 0 570.499072 0c97.28 0 183.296 32.256 241.664 90.624l4.096 4.096 3.072 3.072c20.992 20.992 38.4 45.056 52.736 71.68 24.576 12.288 46.592 28.672 66.048 48.128 36.352 36.352 61.44 81.92 75.264 136.192 12.8 50.176 14.336 105.472 4.608 163.328-18.944 117.248-80.896 233.472-174.592 326.656-56.832 56.832-123.904 102.912-193.536 134.144-68.096 30.208-138.752 46.08-205.312 46.08z" fill="#25467A" /><path d="M809.603072 809.472c-180.224 180.224-435.2 217.6-558.08 94.72S188.035072 548.352 368.259072 368.128s413.184-239.616 536.064-116.224 85.504 377.344-94.72 557.568z" fill="#F28933" /><path d="M781.955072 781.824c-174.08 174.08-423.936 206.848-538.624 91.648s-51.712-333.824 122.368-507.904 393.216-237.056 507.904-122.368 82.432 364.544-91.648 538.624z" fill="#FFBE5F" /><path d="M280.464903 855.26324a235.008 406.528 44.999 1 0 574.907377-574.927446 235.008 406.528 44.999 1 0-574.907377 574.927446Z" fill="#5D4037" /><path d="M131.924048 785.726465a333.824 462.336 44.999 1 0 653.83043-653.853253 333.824 462.336 44.999 1 0-653.83043 653.853253Z" fill="#FFCC80" /><path d="M661.123072 660.992C480.387072 841.216 249.987072 903.168 124.547072 778.24S27.779072 388.608 208.515072 208.384 653.443072-0.512 778.371072 124.416s62.976 355.84-117.248 536.576z" fill="#F28933" /><path d="M384.131072 515.584c-38.4 0-69.12-31.232-69.12-69.12 0-7.68 5.632-13.824 13.312-14.336 7.68 0 13.824 5.632 14.336 13.312v1.024c0 23.04 18.432 41.472 41.472 41.472s41.472-18.432 41.472-41.472c0-7.68 5.632-13.824 13.312-14.336 7.68 0 13.824 5.632 14.336 13.312v1.024c0 37.888-30.72 69.12-69.12 69.12zM204.419072 335.872c0 23.04 18.432 41.472 41.472 41.472s41.472-18.432 41.472-41.472-18.432-41.472-41.472-41.472-41.472 18.432-41.472 41.472zM481.411072 335.872c0 23.04 18.432 41.472 41.472 41.472s41.472-18.432 41.472-41.472-18.432-41.472-41.472-41.472c-23.04-0.512-41.472 18.432-41.472 41.472z" fill="#25467A" /><path d="M190.595072 404.992H135.299072c-15.36 0-27.648 12.288-27.648 27.648 0 15.36 12.288 27.648 27.648 27.648h55.296c15.36 0 27.648-12.288 27.648-27.648s-12.288-27.648-27.648-27.648z m442.88 0h-55.296c-15.36 0-27.648 12.288-27.648 27.648 0 15.36 12.288 27.648 27.648 27.648h55.296c15.36 0 27.648-12.288 27.648-27.648 0-15.36-12.288-27.648-27.648-27.648z" fill="#FFE0B2" /></svg>