<?xml version="1.0" standalone="no"?><!DOCTYPE svg PUBLIC "-//W3C//DTD SVG 1.1//EN" "http://www.w3.org/Graphics/SVG/1.1/DTD/svg11.dtd"><svg class="icon" width="200px" height="200.00px" viewBox="0 0 1024 1024" version="1.1" xmlns="http://www.w3.org/2000/svg"><path d="M445.055383 1024c-79.314286 0-189.257143-60.685714-286.857143-158.171429-61.485714-61.6-109.828571-129.942857-136.228571-192.457142C7.912526 640 0.59824 609.257143 0.026811 582.057143c-0.8-44.228571 16.457143-70.971429 31.2-85.6l322.057143-322.057143c66.285714-66.285714 154.4-102.857143 248.228572-102.857143 37.942857 0 76.114286 6.285714 112.114285 18.4l46.514286-66.057143c10.514286-14.857143 27.542857-23.771429 45.714286-23.771428 26.514286 0 49.028571 18.742857 54.514286 44l7.771428 0.457143c27.771429 1.828571 50.057143 24.114286 51.885714 51.885714l0.457143 7.085714 7.085715 0.457143c27.771429 1.828571 50.057143 24.114286 51.885714 51.885714l0.457143 7.771429c19.885714 4.228571 36.228571 19.314286 41.828571 39.314286 6.4 22.742857-2.285714 47.2-21.714286 60.914285l-65.942857 46.514286c18.4 54.285714 23.085714 112.228571 13.6 169.6-12 72.571429-45.942857 138.514286-98.057143 190.742857L527.683954 992.8c-14.285714 14.285714-40.114286 31.2-82.628571 31.2z" fill="#25467A" /><path d="M934.426811 201.485714l-2.742857-42.514285c-0.228571-3.885714-3.314286-6.857143-7.085714-7.085715l-42.514286-2.742857c-3.885714-0.228571-6.857143-3.314286-7.085714-7.085714l-2.742857-42.514286c-0.228571-3.885714-3.314286-6.857143-7.085714-7.085714l-42.514286-2.742857c-3.885714-0.228571-6.857143-3.314286-7.085714-7.085715L813.741097 55.314286c-0.457143-7.314286-9.942857-9.828571-14.171428-3.657143l-74.514286 105.6 70.971428 70.971428 70.971429 70.971429 105.6-74.514286c6.057143-4.342857 3.657143-13.714286-3.657143-14.171428l-27.314286-1.828572c-3.885714-0.342857-6.971429-3.314286-7.2-7.2z" fill="#C95050" /><path d="M815.912526 636.685714L493.741097 958.857143 65.169669 530.285714l322.057142-322.057143c118.4-118.4 310.171429-118.4 428.571429 0 118.4 118.285714 118.4 310.171429 0.114286 428.457143z" fill="#E35E5B" /><path d="M811.226811 203.657143c-98.057143-93.142857-253.142857-91.657143-349.257142 4.571428L102.541097 567.657143 65.169669 530.285714l322.171428-322.171428C504.141097 91.314286 692.59824 89.828571 811.226811 203.657143z" fill="#FF6966" /><path d="M820.369669 212.8c56.114286 58.514286 84.228571 134.057143 84.228571 209.6 0 77.6-29.6 155.085714-88.8 214.285714L493.741097 958.857143l-37.257143-37.257143 359.428572-359.428571C864.712526 513.257143 889.169669 449.142857 889.169669 385.142857c0-62.057143-22.971429-124.114286-68.8-172.342857z" fill="#C95050" /><path d="M192.174877 831.85214a303.085714 123.428571 44.999 1 0 174.551314-174.557406 303.085714 123.428571 44.999 1 0-174.551314 174.557406Z" fill="#FFA4A4" /><path d="M191.953475 670.003458a87.428571 43.771429 44.999 1 0 61.901068-61.903229 87.428571 43.771429 44.999 1 0-61.901068 61.903229Z" fill="#E57373" /><path d="M177.235192 782.994932a59.314286 29.6 44.999 1 0 41.859991-41.861452 59.314286 29.6 44.999 1 0-41.859991 41.861452Z" fill="#E57373" /><path d="M382.249379 856.016207a59.314286 29.6 44.999 1 0 41.859991-41.861452 59.314286 29.6 44.999 1 0-41.859991 41.861452Z" fill="#E57373" /><path d="M516.369669 544.914286c-35.314286 0-64-28.685714-64-64 0-7.085714 5.714286-12.8 12.8-12.8 7.085714 0 12.8 5.714286 12.8 12.8 0 21.257143 17.142857 38.4 38.4 38.4s38.4-17.142857 38.4-38.4c0-7.085714 5.714286-12.8 12.8-12.8s12.8 5.714286 12.8 12.8c0 35.314286-28.685714 64-64 64zM349.969669 378.514286c0 21.257143 17.142857 38.4 38.4 38.4s38.4-17.142857 38.4-38.4-17.142857-38.4-38.4-38.4c-21.142857 0-38.4 17.142857-38.4 38.4zM605.969669 378.514286c0 21.257143 17.142857 38.4 38.4 38.4s38.4-17.142857 38.4-38.4-17.142857-38.4-38.4-38.4c-21.142857 0-38.4 17.142857-38.4 38.4z" fill="#25467A" /><path d="M337.169669 442.514286h-51.2c-14.171429 0-25.6 11.428571-25.6 25.6 0 14.171429 11.428571 25.6 25.6 25.6H337.169669c14.171429 0 25.6-11.428571 25.6-25.6 0-14.171429-11.428571-25.6-25.6-25.6z m409.6 0h-51.2c-14.171429 0-25.6 11.428571-25.6 25.6 0 14.171429 11.428571 25.6 25.6 25.6h51.2c14.171429 0 25.6-11.428571 25.6-25.6 0-14.171429-11.428571-25.6-25.6-25.6z" fill="#FFCDD2" /></svg>