<?xml version="1.0" standalone="no"?><!DOCTYPE svg PUBLIC "-//W3C//DTD SVG 1.1//EN" "http://www.w3.org/Graphics/SVG/1.1/DTD/svg11.dtd"><svg class="icon" width="200px" height="200.00px" viewBox="0 0 1024 1024" version="1.1" xmlns="http://www.w3.org/2000/svg"><path d="M512 1024c-159.885714 0-279.085714-16.914286-354.285714-50.285714-27.885714-12.342857-49.714286-27.085714-64.914286-43.657143C78.4 914.285714 73.371429 900.571429 71.657143 893.714286l-1.485714-6.057143V359.085714c0-9.828571 2.057143-19.657143 5.828571-28.914285 0.228571-41.828571 18.628571-80.914286 49.371429-107.657143 6.971429-69.714286 64-125.028571 134.514285-129.371429C280.571429 38.742857 333.257143 0 394.742857 0c22.514286 0 44.457143 5.257143 64.342857 15.085714 18.057143-7.885714 37.714286-12 57.6-12 18.285714 0 36.114286 3.428571 52.8 9.942857C588 4.571429 608.571429 0 629.257143 0c61.485714 0 114.171429 38.742857 134.857143 93.142857 70.514286 4.342857 127.542857 59.542857 134.628571 129.371429 30.857143 26.857143 49.257143 66.057143 49.371429 108 3.771429 9.257143 5.714286 18.971429 5.714285 28.685714v528.685714l-1.485714 6.057143c-3.542857 14.171429-18.971429 50.171429-86.057143 80-75.2 33.142857-194.4 50.057143-354.285714 50.057143z" fill="#25467A" /><path d="M512 259.085714c216.114286 0 391.2 48.342857 391.2 100S728.114286 446.171429 512 446.171429s-391.2-35.428571-391.2-87.085715 175.085714-100 391.2-100z" fill="#0A240D" /><path d="M394.742857 144.228571m-93.6 0a93.6 93.6 0 1 0 187.2 0 93.6 93.6 0 1 0-187.2 0Z" fill="#E65100" /><path d="M387.085714 137.142857m-79.542857 0a79.542857 79.542857 0 1 0 159.085714 0 79.542857 79.542857 0 1 0-159.085714 0Z" fill="#FF6D00" /><path d="M369.942857 113.028571m-36.685714 0a36.685714 36.685714 0 1 0 73.371428 0 36.685714 36.685714 0 1 0-73.371428 0Z" fill="#FFE0B2" /><path d="M629.257143 144.228571m-93.6 0a93.6 93.6 0 1 0 187.2 0 93.6 93.6 0 1 0-187.2 0Z" fill="#E65100" /><path d="M565.320894 193.359992a79.542857 79.542857 0 1 0 112.488624-112.49255 79.542857 79.542857 0 1 0-112.488624 112.49255Z" fill="#FF6D00" /><path d="M598.090456 149.101401a36.685714 36.685714 0 1 0 12.730726-72.25853 36.685714 36.685714 0 1 0-12.730726 72.25853Z" fill="#FFE0B2" /><path d="M268.914286 237.028571m-93.6 0a93.6 93.6 0 1 0 187.2 0 93.6 93.6 0 1 0-187.2 0Z" fill="#E65100" /><path d="M261.028571 230.057143m-79.542857 0a79.542857 79.542857 0 1 0 159.085715 0 79.542857 79.542857 0 1 0-159.085715 0Z" fill="#FF6D00" /><path d="M243.885714 205.828571m-36.685714 0a36.685714 36.685714 0 1 0 73.371429 0 36.685714 36.685714 0 1 0-73.371429 0Z" fill="#FFE0B2" /><path d="M755.2 237.028571m-93.6 0a93.6 93.6 0 1 0 187.2 0 93.6 93.6 0 1 0-187.2 0Z" fill="#E65100" /><path d="M747.428571 230.057143m-79.542857 0a79.542857 79.542857 0 1 0 159.085715 0 79.542857 79.542857 0 1 0-159.085715 0Z" fill="#FF6D00" /><path d="M730.285714 205.828571m-36.685714 0a36.685714 36.685714 0 1 0 73.371429 0 36.685714 36.685714 0 1 0-73.371429 0Z" fill="#FFE0B2" /><path d="M374.514286 253.257143m-93.6 0a93.6 93.6 0 1 0 187.2 0 93.6 93.6 0 1 0-187.2 0Z" fill="#E65100" /><path d="M366.742857 246.285714m-79.542857 0a79.542857 79.542857 0 1 0 159.085714 0 79.542857 79.542857 0 1 0-159.085714 0Z" fill="#FF6D00" /><path d="M349.6 222.057143m-36.685714 0a36.685714 36.685714 0 1 0 73.371428 0 36.685714 36.685714 0 1 0-73.371428 0Z" fill="#FFE0B2" /><path d="M649.485714 253.257143m-93.6 0a93.6 93.6 0 1 0 187.2 0 93.6 93.6 0 1 0-187.2 0Z" fill="#E65100" /><path d="M585.596233 302.501466a79.542857 79.542857 0 1 0 112.488624-112.49255 79.542857 79.542857 0 1 0-112.488624 112.49255Z" fill="#FF6D00" /><path d="M618.768563 258.254229a36.685714 36.685714 0 1 0 11.754728-72.423704 36.685714 36.685714 0 1 0-11.754728 72.423704Z" fill="#FFE0B2" /><path d="M220.228571 331.2m-93.6 0a93.6 93.6 0 1 0 187.2 0 93.6 93.6 0 1 0-187.2 0Z" fill="#E65100" /><path d="M212.342857 324.114286m-79.542857 0a79.542857 79.542857 0 1 0 159.085714 0 79.542857 79.542857 0 1 0-159.085714 0Z" fill="#FF6D00" /><path d="M195.2 300m-36.685714 0a36.685714 36.685714 0 1 0 73.371428 0 36.685714 36.685714 0 1 0-73.371428 0Z" fill="#FFE0B2" /><path d="M803.885714 331.2m-93.6 0a93.6 93.6 0 1 0 187.2 0 93.6 93.6 0 1 0-187.2 0Z" fill="#E65100" /><path d="M796.114286 324.114286m-79.542857 0a79.542857 79.542857 0 1 0 159.085714 0 79.542857 79.542857 0 1 0-159.085714 0Z" fill="#FF6D00" /><path d="M778.971429 300m-36.685715 0a36.685714 36.685714 0 1 0 73.371429 0 36.685714 36.685714 0 1 0-73.371429 0Z" fill="#FFE0B2" /><path d="M360.457143 353.028571m-93.6 0a93.6 93.6 0 1 0 187.2 0 93.6 93.6 0 1 0-187.2 0Z" fill="#E65100" /><path d="M352.8 346.057143m-79.542857 0a79.542857 79.542857 0 1 0 159.085714 0 79.542857 79.542857 0 1 0-159.085714 0Z" fill="#FF6D00" /><path d="M335.542857 321.828571m-36.685714 0a36.685714 36.685714 0 1 0 73.371428 0 36.685714 36.685714 0 1 0-73.371428 0Z" fill="#FFE0B2" /><path d="M663.542857 353.028571m-93.6 0a93.6 93.6 0 1 0 187.2 0 93.6 93.6 0 1 0-187.2 0Z" fill="#E65100" /><path d="M599.650917 402.257818a79.542857 79.542857 0 1 0 112.488624-112.492551 79.542857 79.542857 0 1 0-112.488624 112.492551Z" fill="#FF6D00" /><path d="M638.742857 321.828571m-36.685714 0a36.685714 36.685714 0 1 0 73.371428 0 36.685714 36.685714 0 1 0-73.371428 0Z" fill="#FFE0B2" /><path d="M516.571429 147.314286m-93.6 0a93.6 93.6 0 1 0 187.2 0 93.6 93.6 0 1 0-187.2 0Z" fill="#E65100" /><path d="M508.8 140.228571m-79.542857 0a79.542857 79.542857 0 1 0 159.085714 0 79.542857 79.542857 0 1 0-159.085714 0Z" fill="#FF6D00" /><path d="M491.657143 116.114286m-36.685714 0a36.685714 36.685714 0 1 0 73.371428 0 36.685714 36.685714 0 1 0-73.371428 0Z" fill="#FFE0B2" /><path d="M516.571429 259.428571m-93.6 0a93.6 93.6 0 1 0 187.2 0 93.6 93.6 0 1 0-187.2 0Z" fill="#E65100" /><path d="M508.8 252.457143m-79.542857 0a79.542857 79.542857 0 1 0 159.085714 0 79.542857 79.542857 0 1 0-159.085714 0Z" fill="#FF6D00" /><path d="M491.657143 228.342857m-36.685714 0a36.685714 36.685714 0 1 0 73.371428 0 36.685714 36.685714 0 1 0-73.371428 0Z" fill="#FFE0B2" /><path d="M516.571429 371.657143m-93.6 0a93.6 93.6 0 1 0 187.2 0 93.6 93.6 0 1 0-187.2 0Z" fill="#E65100" /><path d="M508.8 364.685714m-79.542857 0a79.542857 79.542857 0 1 0 159.085714 0 79.542857 79.542857 0 1 0-159.085714 0Z" fill="#FF6D00" /><path d="M491.657143 340.571429m-36.685714 0a36.685714 36.685714 0 1 0 73.371428 0 36.685714 36.685714 0 1 0-73.371428 0Z" fill="#FFE0B2" /><path d="M503.428571 411.2c-322.4 0-382.628571-52.114286-382.628571-52.114286v522.4s22.857143 91.771429 391.2 91.771429 391.2-91.771429 391.2-91.771429V359.085714s-77.371429 52.114286-399.771429 52.114286z" fill="#09210C" /><path d="M512 777.6c-35.314286 0-64-28.685714-64-64 0-7.085714 5.714286-12.8 12.8-12.8s12.8 5.714286 12.8 12.8c0 21.257143 17.257143 38.4 38.4 38.4s38.4-17.142857 38.4-38.4c0-7.085714 5.714286-12.8 12.8-12.8s12.8 5.714286 12.8 12.8c0 35.428571-28.685714 64-64 64z" fill="#25467A" /><path d="M384 683.885714c-40.114286 0-72.685714-32.571429-72.685714-72.685714s32.571429-72.685714 72.685714-72.685714 72.685714 32.571429 72.685714 72.685714-32.571429 72.685714-72.685714 72.685714z" fill="#FFFFFF" /><path d="M384 611.2m-38.4 0a38.4 38.4 0 1 0 76.8 0 38.4 38.4 0 1 0-76.8 0Z" fill="#25467A" /><path d="M640 683.885714c-40.114286 0-72.685714-32.571429-72.685714-72.685714s32.571429-72.685714 72.685714-72.685714 72.685714 32.571429 72.685714 72.685714-32.571429 72.685714-72.685714 72.685714z" fill="#FFFFFF" /><path d="M640 611.2m-38.4 0a38.4 38.4 0 1 0 76.8 0 38.4 38.4 0 1 0-76.8 0Z" fill="#25467A" /><path d="M332.8 675.2h-51.2c-14.171429 0-25.6 11.428571-25.6 25.6s11.428571 25.6 25.6 25.6h51.2c14.171429 0 25.6-11.428571 25.6-25.6 0-14.057143-11.428571-25.485714-25.6-25.6zM742.4 675.2h-51.2c-14.171429 0-25.6 11.428571-25.6 25.6s11.428571 25.6 25.6 25.6h51.2c14.171429 0 25.6-11.428571 25.6-25.6 0-14.057143-11.428571-25.485714-25.6-25.6z" fill="#124017" /></svg>