<?xml version="1.0" standalone="no"?><!DOCTYPE svg PUBLIC "-//W3C//DTD SVG 1.1//EN" "http://www.w3.org/Graphics/SVG/1.1/DTD/svg11.dtd"><svg class="icon" width="200px" height="200.00px" viewBox="0 0 1024 1024" version="1.1" xmlns="http://www.w3.org/2000/svg"><path d="M59.657143 989.142857C26.857143 989.142857 0 962.4 0 929.485714v-22.285714c0-20.571429 10.4-38.742857 26.285714-49.371429v-96c-15.885714-10.742857-26.285714-28.914286-26.285714-49.371428v-22.285714c0-20.571429 10.4-38.742857 26.285714-49.371429V546.285714c-15.885714-10.742857-26.285714-28.914286-26.285714-49.371428v-22.285715c0-32.914286 26.742857-59.657143 59.657143-59.657142h33.828571c1.257143-44.8 23.428571-85.485714 58.628572-110.742858-0.114286-2.285714-0.114286-4.685714-0.114286-6.971428 0-35.885714 13.485714-70.057143 37.828571-96.342857 12.8-13.714286 27.885714-24.571429 44.571429-32.228572 4.228571-74.285714 66.057143-133.485714 141.371429-133.485714 24 0 47.428571 6.171429 68.114285 17.6 20.685714-11.428571 44.228571-17.6 68.114286-17.6 24 0 47.428571 6.171429 68.114286 17.6 20.685714-11.428571 44.228571-17.6 68.114285-17.6 75.314286 0 137.142857 59.2 141.371429 133.485714 16.685714 7.657143 31.771429 18.514286 44.571429 32.228572 24.457143 26.285714 37.828571 60.457143 37.828571 96.342857 0 2.285714 0 4.685714-0.114286 6.971428 35.2 25.371429 57.371429 65.942857 58.628572 110.742858h33.714285c32.914286 0 59.657143 26.742857 59.657143 59.657142v22.285715c0 20.571429-10.4 38.742857-26.285714 49.371428v94.514286c15.885714 10.742857 26.285714 28.914286 26.285714 49.371429v22.285714c0 20.571429-10.4 38.742857-26.285714 49.371428v96c15.885714 10.742857 26.285714 28.914286 26.285714 49.371429v22.285714c0 32.914286-26.742857 59.657143-59.657143 59.657143H59.657143z" fill="#25467A" /><path d="M554.742857 176.457143c0 51.657143 41.942857 93.6 93.6 93.6s93.6-41.942857 93.6-93.6-41.942857-93.6-93.6-93.6-93.6 41.942857-93.6 93.6z" fill="#1F2600" /><path d="M584.457143 225.714286c31.085714 31.085714 81.371429 31.085714 112.457143 0s31.085714-81.371429 0-112.457143c-31.085714-31.085714-81.371429-31.085714-112.457143 0-31.085714 30.971429-31.085714 81.371429 0 112.457143z" fill="#3E4D00" /><path d="M586.857143 145.257143c0 20.228571 16.457143 36.685714 36.685714 36.685714 20.228571 0 36.685714-16.457143 36.685714-36.685714S643.771429 108.571429 623.542857 108.571429c-20.228571 0-36.685714 16.457143-36.685714 36.685714z" fill="#748F00" /><path d="M282.171429 176.457143c0 51.657143 41.942857 93.6 93.6 93.6s93.6-41.942857 93.6-93.6-41.942857-93.6-93.6-93.6-93.6 41.942857-93.6 93.6z" fill="#1F2600" /><path d="M311.885714 225.714286c31.085714 31.085714 81.371429 31.085714 112.457143 0 31.085714-31.085714 31.085714-81.371429 0-112.457143-31.085714-31.085714-81.371429-31.085714-112.457143 0-31.085714 30.971429-31.085714 81.371429 0 112.457143z" fill="#3E4D00" /><path d="M314.285714 145.257143c0 20.228571 16.457143 36.685714 36.685715 36.685714s36.685714-16.457143 36.685714-36.685714S371.2 108.571429 350.971429 108.571429 314.285714 125.028571 314.285714 145.257143z" fill="#748F00" /><path d="M418.4 176.457143c0 51.657143 41.942857 93.6 93.6 93.6s93.6-41.942857 93.6-93.6-41.828571-93.6-93.6-93.6c-51.657143 0-93.6 41.942857-93.6 93.6z" fill="#1F2600" /><path d="M448.114286 225.714286c31.085714 31.085714 81.371429 31.085714 112.457143 0s31.085714-81.371429 0-112.457143c-31.085714-31.085714-81.371429-31.085714-112.457143 0-30.971429 30.971429-30.971429 81.371429 0 112.457143z" fill="#3E4D00" /><path d="M450.514286 145.257143c0 20.228571 16.457143 36.685714 36.685714 36.685714s36.685714-16.457143 36.685714-36.685714S507.542857 108.571429 487.2 108.571429s-36.685714 16.457143-36.685714 36.685714z" fill="#748F00" /><path d="M636.914286 297.028571c0 51.657143 41.942857 93.6 93.6 93.6s93.6-41.942857 93.6-93.6-41.942857-93.6-93.6-93.6-93.6 41.942857-93.6 93.6z" fill="#1F2600" /><path d="M666.628571 346.285714c31.085714 31.085714 81.371429 31.085714 112.457143 0 31.085714-31.085714 31.085714-81.371429 0-112.457143-31.085714-31.085714-81.371429-31.085714-112.457143 0-31.085714 30.971429-31.085714 81.371429 0 112.457143z" fill="#3E4D00" /><path d="M669.028571 265.828571c0 20.228571 16.457143 36.685714 36.685715 36.685715 20.228571 0 36.685714-16.457143 36.685714-36.685715s-16.457143-36.685714-36.685714-36.685714c-20.228571 0-36.685714 16.457143-36.685715 36.685714z" fill="#748F00" /><path d="M200 297.028571c0 51.657143 41.942857 93.6 93.6 93.6s93.6-41.942857 93.6-93.6-41.942857-93.6-93.6-93.6-93.6 41.942857-93.6 93.6z" fill="#1F2600" /><path d="M229.714286 346.285714c31.085714 31.085714 81.371429 31.085714 112.457143 0 31.085714-31.085714 31.085714-81.371429 0-112.457143-31.085714-31.085714-81.371429-31.085714-112.457143 0s-31.085714 81.371429 0 112.457143z" fill="#3E4D00" /><path d="M232.114286 265.828571c0 20.228571 16.457143 36.685714 36.685714 36.685715s36.685714-16.457143 36.685714-36.685715-16.457143-36.685714-36.685714-36.685714-36.685714 16.457143-36.685714 36.685714z" fill="#748F00" /><path d="M695.428571 418.857143c0 51.657143 41.942857 93.6 93.6 93.6s93.6-41.942857 93.6-93.6-41.942857-93.6-93.6-93.6-93.6 41.828571-93.6 93.6z" fill="#1F2600" /><path d="M725.142857 468c31.085714 31.085714 81.371429 31.085714 112.457143 0 31.085714-31.085714 31.085714-81.371429 0-112.457143-31.085714-31.085714-81.371429-31.085714-112.457143 0s-31.085714 81.485714 0 112.457143z" fill="#3E4D00" /><path d="M727.542857 387.657143c0 20.228571 16.457143 36.685714 36.685714 36.685714 20.228571 0 36.685714-16.457143 36.685715-36.685714s-16.457143-36.685714-36.685715-36.685714c-20.342857 0-36.685714 16.342857-36.685714 36.685714z" fill="#748F00" /><path d="M141.485714 418.857143c0 51.657143 41.942857 93.6 93.6 93.6s93.6-41.942857 93.6-93.6-41.942857-93.6-93.6-93.6-93.6 41.828571-93.6 93.6z" fill="#1F2600" /><path d="M171.2 468c31.085714 31.085714 81.371429 31.085714 112.457143 0s31.085714-81.371429 0-112.457143c-31.085714-31.085714-81.371429-31.085714-112.457143 0s-31.085714 81.485714 0 112.457143z" fill="#3E4D00" /><path d="M173.6 387.657143c0 20.228571 16.457143 36.685714 36.685714 36.685714s36.685714-16.457143 36.685715-36.685714-16.457143-36.685714-36.685715-36.685714-36.685714 16.342857-36.685714 36.685714z" fill="#748F00" /><path d="M490.628571 297.028571c0 51.657143 41.942857 93.6 93.6 93.6s93.6-41.942857 93.6-93.6-41.942857-93.6-93.6-93.6-93.6 41.942857-93.6 93.6z" fill="#1F2600" /><path d="M520.342857 346.285714c31.085714 31.085714 81.371429 31.085714 112.457143 0 31.085714-31.085714 31.085714-81.371429 0-112.457143-31.085714-31.085714-81.371429-31.085714-112.457143 0-31.085714 30.971429-31.085714 81.371429 0 112.457143z" fill="#3E4D00" /><path d="M522.742857 265.828571c0 20.228571 16.457143 36.685714 36.685714 36.685715s36.685714-16.457143 36.685715-36.685715-16.457143-36.685714-36.685715-36.685714-36.685714 16.457143-36.685714 36.685714z" fill="#748F00" /><path d="M346.285714 297.028571c0 51.657143 41.942857 93.6 93.6 93.6s93.6-41.942857 93.6-93.6-41.942857-93.6-93.6-93.6-93.6 41.942857-93.6 93.6z" fill="#1F2600" /><path d="M376 346.285714c31.085714 31.085714 81.371429 31.085714 112.457143 0 31.085714-31.085714 31.085714-81.371429 0-112.457143-31.085714-31.085714-81.371429-31.085714-112.457143 0-31.085714 30.971429-31.085714 81.371429 0 112.457143z" fill="#3E4D00" /><path d="M378.4 265.828571c0 20.228571 16.457143 36.685714 36.685714 36.685715s36.685714-16.457143 36.685715-36.685715-16.457143-36.685714-36.685715-36.685714-36.685714 16.457143-36.685714 36.685714z" fill="#748F00" /><path d="M554.742857 418.857143c0 51.657143 41.942857 93.6 93.6 93.6s93.6-41.942857 93.6-93.6-41.942857-93.6-93.6-93.6-93.6 41.828571-93.6 93.6z" fill="#1F2600" /><path d="M584.457143 468c31.085714 31.085714 81.371429 31.085714 112.457143 0s31.085714-81.371429 0-112.457143c-31.085714-31.085714-81.371429-31.085714-112.457143 0-31.085714 31.085714-31.085714 81.485714 0 112.457143z" fill="#3E4D00" /><path d="M586.857143 387.657143c0 20.228571 16.457143 36.685714 36.685714 36.685714 20.228571 0 36.685714-16.457143 36.685714-36.685714s-16.457143-36.685714-36.685714-36.685714c-20.228571 0-36.685714 16.342857-36.685714 36.685714z" fill="#748F00" /><path d="M282.171429 418.857143c0 51.657143 41.942857 93.6 93.6 93.6s93.6-41.942857 93.6-93.6-41.942857-93.6-93.6-93.6-93.6 41.828571-93.6 93.6z" fill="#1F2600" /><path d="M311.885714 468c31.085714 31.085714 81.371429 31.085714 112.457143 0 31.085714-31.085714 31.085714-81.371429 0-112.457143-31.085714-31.085714-81.371429-31.085714-112.457143 0-31.085714 31.085714-31.085714 81.485714 0 112.457143z" fill="#3E4D00" /><path d="M314.285714 387.657143c0 20.228571 16.457143 36.685714 36.685715 36.685714s36.685714-16.457143 36.685714-36.685714-16.457143-36.685714-36.685714-36.685714-36.685714 16.342857-36.685715 36.685714z" fill="#748F00" /><path d="M418.4 418.857143c0 51.657143 41.942857 93.6 93.6 93.6s93.6-41.942857 93.6-93.6-41.942857-93.6-93.6-93.6-93.6 41.828571-93.6 93.6z" fill="#1F2600" /><path d="M448.114286 468c31.085714 31.085714 81.371429 31.085714 112.457143 0s31.085714-81.371429 0-112.457143c-31.085714-31.085714-81.371429-31.085714-112.457143 0-30.971429 31.085714-30.971429 81.485714 0 112.457143z" fill="#3E4D00" /><path d="M450.514286 387.657143c0 20.228571 16.457143 36.685714 36.685714 36.685714s36.685714-16.457143 36.685714-36.685714-16.457143-36.685714-36.685714-36.685714-36.685714 16.342857-36.685714 36.685714z" fill="#748F00" /><path d="M998.857143 474.4v22.285714c0 19.085714-15.428571 34.514286-34.514286 34.514286H59.657143c-19.085714 0-34.514286-15.428571-34.514286-34.514286v-22.285714c0-19.085714 15.428571-34.514286 34.514286-34.514286h904.571428c19.2 0 34.628571 15.428571 34.628572 34.514286z" fill="#25467A" /><path d="M964.228571 678.4h-14.628571v-204.571429H74.285714v204.571429H59.657143c-6.4 0-11.657143 5.257143-11.657143 11.657143v22.285714c0 6.4 5.142857 11.657143 11.657143 11.657143H74.285714v204.571429h875.314286v-204.571429h14.628571c6.4 0 11.657143-5.142857 11.657143-11.657143v-22.285714c0-6.4-5.142857-11.657143-11.657143-11.657143z" fill="#ADA779" /><path d="M838.857143 473.828571h74.285714v454.742858h-74.285714z" fill="#7A7656" /><path d="M110.971429 473.828571h74.285714v454.742858h-74.285714z" fill="#C7C08B" /><path d="M59.657143 462.742857h904.571428c6.514286 0 11.657143 5.257143 11.657143 11.657143v22.285714c0 6.514286-5.257143 11.657143-11.657143 11.657143H59.657143c-6.514286 0-11.657143-5.257143-11.657143-11.657143v-22.285714c0-6.4 5.257143-11.657143 11.657143-11.657143zM59.657143 895.542857h904.571428c6.514286 0 11.657143 5.257143 11.657143 11.657143v22.285714c0 6.514286-5.257143 11.657143-11.657143 11.657143H59.657143c-6.514286 0-11.657143-5.257143-11.657143-11.657143v-22.285714c0-6.4 5.257143-11.657143 11.657143-11.657143z" fill="#E0D89D" /><path d="M512 804.457143c-35.314286 0-64-28.685714-64-64 0-7.085714 5.714286-12.8 12.8-12.8s12.8 5.714286 12.8 12.8c0 21.257143 17.142857 38.4 38.4 38.4s38.4-17.142857 38.4-38.4c0-7.085714 5.714286-12.8 12.8-12.8 7.085714 0 12.8 5.714286 12.8 12.8 0 35.314286-28.571429 64-64 64zM345.6 638.057143c0 21.257143 17.142857 38.4 38.4 38.4s38.4-17.142857 38.4-38.4-17.142857-38.4-38.4-38.4c-21.142857 0-38.285714 17.142857-38.4 38.4zM601.6 638.057143c0 21.257143 17.142857 38.4 38.4 38.4s38.4-17.142857 38.4-38.4-17.142857-38.4-38.4-38.4-38.285714 17.142857-38.4 38.4z" fill="#25467A" /><path d="M332.8 702.057143h-51.2c-14.171429 0-25.6 11.428571-25.6 25.6 0 14.171429 11.428571 25.6 25.6 25.6h51.2c14.171429 0 25.6-11.428571 25.6-25.6 0-14.171429-11.428571-25.6-25.6-25.6z m409.6 0h-51.2c-14.171429 0-25.6 11.428571-25.6 25.6 0 14.171429 11.428571 25.6 25.6 25.6h51.2c14.171429 0 25.6-11.428571 25.6-25.6 0-14.171429-11.428571-25.6-25.6-25.6z" fill="#D9D198" /></svg>