<?xml version="1.0" standalone="no"?><!DOCTYPE svg PUBLIC "-//W3C//DTD SVG 1.1//EN" "http://www.w3.org/Graphics/SVG/1.1/DTD/svg11.dtd"><svg class="icon" width="200px" height="200.00px" viewBox="0 0 1024 1024" version="1.1" xmlns="http://www.w3.org/2000/svg"><path d="M451.2 988.342857c-41.714286-13.028571-77.828571-38.4-104.342857-73.485714-27.2-35.885714-41.714286-78.514286-42.171429-123.428572l-0.571428-65.828571c-0.571429-55.428571 20.685714-107.885714 59.771428-147.657143s91.085714-61.942857 146.514286-62.514286l302.971429-2.857142c21.6-0.228571 43.085714 2.971429 63.657142 9.371428 41.714286 13.028571 77.828571 38.4 104.342858 73.485714 27.2 35.885714 41.714286 78.514286 42.171428 123.428572l0.571429 65.828571c0.571429 55.428571-20.685714 107.885714-59.771429 147.657143s-91.085714 61.942857-146.514286 62.514286L514.742857 997.714286c-21.6 0.228571-42.971429-2.971429-63.542857-9.371429z" fill="#25467A" /><path d="M382.971429 1024c-14.4 0-28-5.6-38.171429-15.771429L15.771429 679.2c-21.028571-21.028571-21.028571-55.2 0-76.228571l5.714285-5.714286c0.114286-2.057143 0.342857-4.114286 0.8-6.285714 2.057143-11.771429 7.771429-22.628571 16.571429-31.314286L51.085714 547.428571c10.171429-10.171429 23.657143-16.342857 37.485715-17.257142L530.057143 88.685714c0.114286-2.057143 0.342857-4.114286 0.8-6.285714 2.057143-11.771429 7.771429-22.628571 16.571428-31.314286L559.542857 38.857143c10.171429-10.171429 23.657143-16.342857 37.485714-17.257143l5.714286-5.714286c10.285714-10.285714 23.885714-15.885714 38.285714-15.885714 14.4 0 28 5.6 38.171429 15.771429l329.028571 329.028571c21.028571 21.028571 21.028571 55.2 0 76.228571l-5.714285 5.714286c-0.114286 2.057143-0.342857 4.114286-0.8 6.285714-2.057143 11.771429-7.771429 22.628571-16.571429 31.314286L972.914286 476.571429c-10.171429 10.171429-23.657143 16.342857-37.6 17.257142L493.828571 935.314286c-0.114286 2.057143-0.342857 4.114286-0.8 6.285714-2.057143 11.771429-7.771429 22.628571-16.571428 31.314286L464.342857 985.142857c-10.171429 10.171429-23.657143 16.342857-37.6 17.257143l-5.714286 5.714286c-10.171429 10.285714-23.657143 15.885714-38.057142 15.885714z" fill="#25467A" /><path d="M974.171429 378.742857L645.142857 49.714286c-2.285714-2.285714-6.057143-2.285714-8.342857 0L49.714286 636.8c-2.285714 2.285714-2.285714 6.057143 0 8.342857l329.028571 329.028572c2.285714 2.285714 6.057143 2.285714 8.342857 0l587.085715-587.085715c2.285714-2.285714 2.285714-6.057143 0-8.342857z" fill="#AFB42B" /><path d="M950.628571 355.2l-52.228571-52.228571-595.428571 595.428571 52.228571 52.228571 595.428571-595.428571z" fill="#9A9E26" /><path d="M604.457143 70.857143L953.142857 419.542857c2.514286 2.514286 1.6 7.428571-1.942857 10.857143l-12.228571 12.228571c-3.542857 3.542857-8.457143 4.342857-10.857143 1.942858L579.314286 96c-2.514286-2.514286-1.6-7.428571 1.942857-10.857143l12.228571-12.228571c3.542857-3.657143 8.457143-4.571429 10.971429-2.057143zM95.885714 579.428571L444.571429 928c2.514286 2.514286 1.6 7.428571-1.942858 10.857143l-12.228571 12.228571c-3.542857 3.542857-8.457143 4.342857-10.857143 1.942857L70.857143 604.457143c-2.514286-2.514286-1.6-7.428571 1.942857-10.857143l12.228571-12.228571c3.428571-3.542857 8.457143-4.457143 10.857143-1.942858z" fill="#D4E157" /><path d="M291.771429 732.685714l-46.514286-46.514285c-62.285714-62.285714-62.285714-164.342857 0-226.628572l214.285714-214.285714c62.285714-62.285714 164.342857-62.285714 226.628572 0l46.514285 46.514286c62.285714 62.285714 62.285714 164.342857 0 226.628571L518.4 732.685714c-62.285714 62.4-164.228571 62.4-226.628571 0z" fill="#FFB74D" /><path d="M414.057143 747.771429c-34.742857 3.2-66.057143-7.314286-88.114286-29.371429l-66.285714-66.285714c-22.171429-22.171429-32.571429-53.371429-29.371429-88.114286 3.2-34.742857 19.542857-68.457143 46.057143-94.971429l192.685714-192.685714c26.514286-26.514286 60.228571-42.857143 94.971429-46.057143 34.742857-3.2 66.057143 7.314286 88.114286 29.371429l66.285714 66.285714c22.171429 22.171429 32.571429 53.371429 29.371429 88.114286s-19.542857 68.457143-46.057143 94.971428L509.028571 701.714286c-26.514286 26.514286-60.228571 42.857143-94.971428 46.057143z" fill="#FFF3E0" /><path d="M557.6 296.228571m-26.057143 0a26.057143 26.057143 0 1 0 52.114286 0 26.057143 26.057143 0 1 0-52.114286 0Z" fill="#7CB342" /><path d="M582.514286 430.857143m-26.057143 0a26.057143 26.057143 0 1 0 52.114286 0 26.057143 26.057143 0 1 0-52.114286 0Z" fill="#7CB342" /><path d="M442.057143 430.057143m-26.057143 0a26.057143 26.057143 0 1 0 52.114286 0 26.057143 26.057143 0 1 0-52.114286 0Z" fill="#7CB342" /><path d="M519.314286 531.2m-26.057143 0a26.057143 26.057143 0 1 0 52.114286 0 26.057143 26.057143 0 1 0-52.114286 0Z" fill="#7CB342" /><path d="M391.885714 520.914286m-26.057143 0a26.057143 26.057143 0 1 0 52.114286 0 26.057143 26.057143 0 1 0-52.114286 0Z" fill="#EF5350" /><path d="M678.514286 417.028571m-26.057143 0a26.057143 26.057143 0 1 0 52.114286 0 26.057143 26.057143 0 1 0-52.114286 0Z" fill="#EF5350" /><path d="M291.700307 587.198743a26.056361 26.056361 0 1 0 5.135094-51.859103 26.056361 26.056361 0 1 0-5.135094 51.859103Z" fill="#EF5350" /><path d="M458.628571 964.342857c-36.228571-11.314286-68.8-34.285714-91.885714-64.685714-23.885714-31.542857-36.685714-69.028571-37.028571-108.457143l-0.571429-65.828571c-0.457143-48.685714 18.171429-94.857143 52.571429-129.828572 34.285714-34.971429 80.114286-54.514286 128.8-54.971428l302.971428-2.857143c18.971429-0.228571 37.828571 2.628571 55.885715 8.228571 36.228571 11.314286 68.8 34.285714 91.885714 64.685714 23.885714 31.542857 36.685714 69.028571 37.028571 108.457143l0.571429 65.828572c0.457143 48.685714-18.171429 94.857143-52.571429 129.828571-34.285714 34.971429-80.114286 54.514286-128.8 54.971429L514.514286 972.571429c-18.971429 0.228571-37.828571-2.628571-55.885715-8.228572z" fill="#25467A" /><path d="M352.571429 790.971429l-0.571429-65.828572c-0.8-88.114286 70.628571-160.914286 158.742857-161.714286l302.971429-2.857142c88.114286-0.8 160.914286 70.628571 161.714285 158.742857l0.571429 65.828571c0.8 88.114286-70.628571 160.914286-158.742857 161.714286L514.285714 949.714286c-88.114286 0.8-160.914286-70.514286-161.714285-158.742857z" fill="#AFB42B" /><path d="M817.257143 946.857143L514.285714 949.714286c-76.685714 0.685714-141.714286-53.257143-157.942857-125.257143 30.742857 42.857143 81.142857 70.628571 137.6 70.057143l342.628572-3.314286c56.457143-0.571429 106.285714-29.257143 136.228571-72.685714-14.857143 72.457143-78.857143 127.542857-155.542857 128.342857z" fill="#9A9E26" /><path d="M627.085714 844.685714c-35.314286 0-64-28.685714-64-64 0-7.085714 5.714286-12.8 12.8-12.8s12.8 5.714286 12.8 12.8c0 21.257143 17.142857 38.4 38.4 38.4s38.4-17.142857 38.4-38.4c0-7.085714 5.714286-12.8 12.8-12.8s12.8 5.714286 12.8 12.8c0 35.314286-28.571429 64-64 64zM460.685714 678.285714c0 21.257143 17.142857 38.4 38.4 38.4s38.4-17.142857 38.4-38.4-17.142857-38.4-38.4-38.4c-21.142857 0-38.285714 17.142857-38.4 38.4zM716.685714 678.285714c0 21.257143 17.142857 38.4 38.4 38.4s38.4-17.142857 38.4-38.4-17.142857-38.4-38.4-38.4-38.285714 17.142857-38.4 38.4z" fill="#25467A" /><path d="M447.885714 742.285714h-51.2c-14.171429 0-25.6 11.428571-25.6 25.6s11.428571 25.6 25.6 25.6h51.2c14.171429 0 25.6-11.428571 25.6-25.6s-11.428571-25.6-25.6-25.6z m409.6 0h-51.2c-14.171429 0-25.6 11.428571-25.6 25.6s11.428571 25.6 25.6 25.6h51.2c14.171429 0 25.6-11.428571 25.6-25.6s-11.428571-25.6-25.6-25.6z" fill="#D4E157" /></svg>