<?xml version="1.0" standalone="no"?><!DOCTYPE svg PUBLIC "-//W3C//DTD SVG 1.1//EN" "http://www.w3.org/Graphics/SVG/1.1/DTD/svg11.dtd"><svg class="icon" width="200px" height="200.00px" viewBox="0 0 1024 1024" version="1.1" xmlns="http://www.w3.org/2000/svg"><path d="M518.4 512m-414 0a414 414 0 1 0 828 0 414 414 0 1 0-828 0Z" fill="#F0C48A" /><path d="M512 512m-414 0a414 414 0 1 0 828 0 414 414 0 1 0-828 0Z" fill="#F0C48A" /><path d="M680 145.8c-3 0-6-1.2-8.2-3.4-42.6-42.6-99.4-66.2-159.6-66.2s-117 23.4-159.6 66.2c-4.6 4.6-12 4.6-16.6 0-4.6-4.6-4.6-12 0-16.6 47-47 109.6-73 176.2-73s129.2 26 176.2 73c4.6 4.6 4.6 12 0 16.6-2.4 2.2-5.4 3.4-8.4 3.4z" fill="#4C4372" /><path d="M626.6 199c-3 0-6-1.2-8.2-3.4-28.4-28.4-66.2-44-106.4-44s-78 15.6-106.4 44c-4.6 4.6-12 4.6-16.6 0-4.6-4.6-4.6-12 0-16.6C421.8 146.2 465.6 128 512 128c46.4 0 90.2 18 123 51 4.6 4.6 4.6 12 0 16.6-2.4 2.4-5.4 3.4-8.4 3.4zM571 254.6c-3 0-6-1.2-8.2-3.4-13.6-13.6-31.6-21-50.8-21-19.2 0-37.2 7.4-50.8 21-4.6 4.6-12 4.6-16.6 0-4.6-4.6-4.6-12 0-16.6 18-18 42-28 67.4-28 25.4 0 49.4 10 67.4 28 4.6 4.6 4.6 12 0 16.6-2.4 2.4-5.4 3.4-8.4 3.4zM536.4 277.6c13.4 13.4 13.4 35.2 0 48.6-13.4 13.4-35.2 13.4-48.6 0-13.4-13.4-13.4-35.2 0-48.6 13.4-13.4 35-13.4 48.6 0z" fill="#4C4372" /><path d="M773 288.2c-26.4 0-47.6-21.4-47.6-47.6 0-26.4 21.4-47.6 47.6-47.6 7.6 0 14.8 1.8 21 5 13-17.2 33.6-28.4 56.8-28.4 35.4 0 64.8 26 70.2 59.8 1.6-0.4 3.4-0.4 5.2-0.4 16.4 0 29.6 13.2 29.6 29.6s-13.2 29.6-29.6 29.6h-153.2z" fill="#FD919E" /><path d="M926.4 299.8h-153.4c-32.8 0-59.4-26.6-59.4-59.4s26.6-59.4 59.4-59.4c6 0 11.8 0.8 17.6 2.6 15.6-16.8 37.2-26.2 60.4-26.2 37.4 0 69.4 24.6 79.6 59.6 21 2 37.4 19.8 37.4 41.2-0.2 23-18.8 41.6-41.6 41.6z m-153.4-95.2c-19.8 0-35.8 16.2-35.8 35.8s16.2 35.8 35.8 35.8h153.4c10 0 18-8 18-18 0-11-9.8-19.6-21.2-17.6-3 0.6-6.2-0.2-8.8-2-2.6-1.8-4.2-4.6-4.8-7.8-4.6-29-29.2-50-58.6-50-18.8 0-36.2 8.6-47.6 23.8-3.4 4.6-9.6 6-14.6 3.4-4.8-2.2-10.2-3.4-15.8-3.4z" fill="#4C4372" /><path d="M115.4 288.2c-26.4 0-47.6-21.4-47.6-47.6 0-26.4 21.4-47.6 47.6-47.6 7.6 0 14.8 1.8 21 5 13-17.2 33.6-28.4 56.8-28.4 35.4 0 64.8 26 70.2 59.8 1.6-0.4 3.4-0.4 5.2-0.4 16.4 0 29.6 13.2 29.6 29.6s-13.2 29.6-29.6 29.6H115.4z" fill="#FD919E" /><path d="M268.8 299.8H115.4c-32.8 0-59.4-26.6-59.4-59.4s26.6-59.4 59.4-59.4c6 0 11.8 0.8 17.6 2.6 15.6-16.8 37.2-26.2 60.4-26.2 37.4 0 69.4 24.6 79.6 59.6 21 2 37.4 19.8 37.4 41.2-0.2 23-18.6 41.6-41.6 41.6z m-153.4-95.2c-19.8 0-35.8 16.2-35.8 35.8s16.2 35.8 35.8 35.8h153.4c10 0 18-8 18-18 0-11-9.8-19.6-21.2-17.6-3 0.6-6.2-0.2-8.8-2-2.6-1.8-4.2-4.6-4.8-7.8-4.6-29-29.2-50-58.6-50-18.8 0-36.2 8.6-47.6 23.8-3.4 4.6-9.6 6-14.6 3.4-4.8-2.2-10.2-3.4-15.8-3.4z" fill="#4C4372" /><path d="M950.6 756.2c0-88-71.4-159.2-159.2-159.2h-55.6l-149.2-149.2c-12.6-12.6-29.8-19.8-47.6-19.8H159.6c-27.8 0-41.6 33.6-22 53.2 14.8 14.8 14.8 38.6 0 53.2l-40.4 40.4c-15.2 15.2-23.8 35.8-23.8 57.4v124H58c-25.6 0-46.2 20.6-46.2 46.2s20.6 46.2 46.2 46.2h908c25.6 0 46.2-20.6 46.2-46.2s-20.6-46.2-46.2-46.2h-15.4z" fill="#D3E6F8" /><path d="M280.4 539.2l36.6 52h418.8l-101.4-84H308s-37 18.8-27.6 32z" fill="#FFFFFF" /><path d="M385.8 511.4h51.6v81.2h-51.6z" fill="#D3E6F8" /><path d="M385.8 597.6h51.6V756h-51.6zM684.2 597.6h51.6V756h-51.6zM492.6 428l81.6 79.2h60.2L554.8 428z" fill="#A4CFF2" /><path d="M574.2 507.2l85.6 89.6h63s-81.4-89.6-106.6-89.6h-42z" fill="#D3E6F8" /><path d="M832.4 621.4s-17.4 76.2 45 76.2 59.2-11.8 49-26.2c-10.2-14.2-94-81.2-94-50z" fill="#FFFFFF" /><path d="M886 707.2v-77.4s93 69.4 0 77.4z" fill="#D3E6F8" /><path d="M886 707.2v41.2s68.4 14.2 63.6-10.2-0.4-43.6-63.6-31z" fill="#A4CFF2" /><path d="M964.6 851.6H59.4c-26.4 0-47.8-21.4-47.8-47.8S33 756 59.4 756h905.2c26.4 0 47.8 21.4 47.8 47.8-0.2 26.4-21.4 47.8-47.8 47.8z" fill="#7BABF1" /><path d="M966 860.2H58c-32 0-58-26-58-58s26-58 58-58h3.6V632c0-24.8 9.6-48 27.2-65.6L129.2 526c4.8-4.8 7.6-11.4 7.6-18.4 0-7-2.6-13.4-7.6-18.4-12.6-12.6-16-30.4-9.4-46.8 6.8-16.4 22-26.4 39.6-26.4h379.4c21.2 0 41 8.2 56 23.2l145.8 145.8h50.6c90.4 0 164.6 70.4 170.6 159.2h4c32 0 58 26 58 58 0.2 32.2-25.8 58-57.8 58zM58 767.8c-19 0-34.4 15.4-34.4 34.4s15.4 34.4 34.4 34.4h908c19 0 34.4-15.4 34.4-34.4s-15.4-34.4-34.4-34.4h-15.4c-6.4 0-11.8-5.2-11.8-11.8 0-81.4-66.2-147.6-147.6-147.6h-55.6c-3.2 0-6-1.2-8.2-3.4L578.4 456c-10.6-10.6-24.6-16.4-39.4-16.4H159.6c-8.2 0-14.8 4.4-18 12-3.2 7.6-1.6 15.4 4.2 21.2 9.4 9.4 14.4 21.8 14.4 35s-5.2 25.6-14.4 35l-40.4 40.4c-13.2 13.2-20.4 30.6-20.4 49v124c0 6.4-5.2 11.8-11.8 11.8H58z m904.4-11.6z" fill="#4C4372" /><path d="M735.8 764.2c-6.4 0-11.8-5.2-11.8-11.8v-143.8H339.6c-16 0-30.8-6.2-42.2-17.4l-20.6-20.6c-12.8-12.8-16.4-31.2-9.6-47.8 7-16.8 22.4-27.2 40.6-27.2H646c6.4 0 11.8 5.2 11.8 11.8 0 6.4-5.2 11.8-11.8 11.8H308c-8.6 0-15.6 4.8-19 12.6-3.2 8-1.6 16.2 4.4 22.4l20.6 20.6c6.8 6.8 16 10.6 25.6 10.6h396.2c6.4 0 11.8 5.2 11.8 11.8v155.6c0 6.2-5.2 11.4-11.8 11.4z" fill="#4C4372" /><path d="M437.2 860.2c-6.4 0-11.8-5.2-11.8-11.8V507.2c0-6.4 5.2-11.8 11.8-11.8s11.8 5.2 11.8 11.8v341.4c0 6.4-5.2 11.6-11.8 11.6z" fill="#4C4372" /><path d="M950.6 767.8H73.4c-6.4 0-11.8-5.2-11.8-11.8 0-6.4 5.2-11.8 11.8-11.8h877.4c6.4 0 11.8 5.2 11.8 11.8-0.2 6.6-5.4 11.8-12 11.8zM171.4 696.6c-27.2 0-49.4-22.2-49.4-49.4S144.2 598 171.4 598s49.4 22.2 49.4 49.4-22.2 49.2-49.4 49.2z m0-75.2c-14.2 0-25.8 11.6-25.8 25.8s11.6 25.8 25.8 25.8c14.2 0 25.8-11.6 25.8-25.8s-11.6-25.8-25.8-25.8zM939.6 709.4h-62.2c-31.2 0-56.6-25.4-56.6-56.6v-43c0-6.4 5.2-11.8 11.8-11.8 6.4 0 11.8 5.2 11.8 11.8v43c0 18.4 15 33.2 33.2 33.2h62.2c6.4 0 11.8 5.2 11.8 11.8-0.2 6.4-5.6 11.6-12 11.6z" fill="#4C4372" /><path d="M218.965576 956.618032a110.6 110.6 0 1 0 50.8344-215.279594 110.6 110.6 0 1 0-50.8344 215.279594Z" fill="#7BABF1" /><path d="M764.727234 956.537583a110.6 110.6 0 1 0 50.834401-215.279594 110.6 110.6 0 1 0-50.834401 215.279594Z" fill="#7BABF1" /><path d="M244.4 971.2c-67.4 0-122.4-55-122.4-122.4s55-122.4 122.4-122.4 122.4 55 122.4 122.4-54.8 122.4-122.4 122.4z m0-221.2c-54.6 0-99 44.4-99 99S189.8 948 244.4 948s99-44.4 99-99c0-54.8-44.4-99-99-99zM790.2 971.2c-67.4 0-122.4-55-122.4-122.4s55-122.4 122.4-122.4 122.4 55 122.4 122.4-55 122.4-122.4 122.4z m0-221.2c-54.6 0-99 44.4-99 99s44.4 99 99 99 99-44.4 99-99c-0.2-54.8-44.4-99-99-99z" fill="#4C4372" /><path d="M790.2 848.8m-60 0a60 60 0 1 0 120 0 60 60 0 1 0-120 0Z" fill="#A4CFF2" /><path d="M244.4 848.8m-60 0a60 60 0 1 0 120 0 60 60 0 1 0-120 0Z" fill="#A4CFF2" /><path d="M790.2 920.6c-39.6 0-71.6-32.2-71.6-71.6 0-39.6 32.2-71.6 71.6-71.6 39.6 0 71.6 32.2 71.6 71.6 0 39.4-32.2 71.6-71.6 71.6z m0-120c-26.6 0-48.2 21.6-48.2 48.2s21.6 48.2 48.2 48.2 48.2-21.6 48.2-48.2-21.6-48.2-48.2-48.2zM244.4 920.6c-39.6 0-71.6-32.2-71.6-71.6 0-39.6 32.2-71.6 71.6-71.6 39.6 0 71.6 32.2 71.6 71.6 0.2 39.4-32 71.6-71.6 71.6z m0-120c-26.6 0-48.2 21.6-48.2 48.2s21.6 48.2 48.2 48.2 48.2-21.6 48.2-48.2-21.6-48.2-48.2-48.2z" fill="#4C4372" /></svg>