<?xml version="1.0" standalone="no"?><!DOCTYPE svg PUBLIC "-//W3C//DTD SVG 1.1//EN" "http://www.w3.org/Graphics/SVG/1.1/DTD/svg11.dtd"><svg class="icon" width="200px" height="200.00px" viewBox="0 0 1024 1024" version="1.1" xmlns="http://www.w3.org/2000/svg"><path d="M512 512m-414 0a414 414 0 1 0 828 0 414 414 0 1 0-828 0Z" fill="#F0C48A" /><path d="M770.2 275H183.8V76h694z" fill="#FD919E" /><path d="M770.2 275.2H183.8v-72.8h622.8z" fill="#E8677D" /><path d="M526.704 876.668v-83.4h380.6v83.4z" fill="#FFFFFF" /><path d="M907.352 839.046v35h-352.2v-35z" fill="#D3E6F8" /><path d="M448.4 474.6h83.4v301.2h-83.4z" fill="#FFFFFF" /><path d="M490 487.2h35v274H490zM691.4 474.2H262.6c-43.4 0-78.8-35.2-78.8-78.8v-120.4h586.4v120.4c0 43.4-35.2 78.8-78.8 78.8zM11.8 397.4h40.8c32.4 0 58.8-26.2 58.8-58.8v-127.4c0-32.4-26.2-58.8-58.8-58.8H11.8v245z" fill="#D3E6F8" /><path d="M66.4 397.4H18.6v-72.6h85.8v34.8c0 20.8-17 37.8-38 37.8zM697.6 474.6H256.4c-40 0-72.6-32.4-72.6-72.6v-0.2h586.4c0 40.2-32.6 72.8-72.6 72.8z" fill="#A4CFF2" /><path d="M1012.2 948h-47.4c-31.8 0-57.4-25.8-57.4-57.4v-103c0-31.8 25.8-57.4 57.4-57.4h47.4V948z" fill="#7BABF1" /><path d="M531.8 787.6h-83.4c-6.4 0-11.8-5.2-11.8-11.8V474.6c0-6.4 5.2-11.8 11.8-11.8h83.4c6.4 0 11.8 5.2 11.8 11.8v301.2c-0.2 6.4-5.4 11.8-11.8 11.8zM460 764h60V486.2h-60V764z" fill="#4C4372" /><path d="M907.4 888.4H526.8c-6.4 0-11.8-5.2-11.8-11.8v-83.4c0-6.4 5.2-11.8 11.8-11.8h380.6c6.4 0 11.8 5.2 11.8 11.8v83.4c0 6.6-5.4 11.8-11.8 11.8z m-368.8-23.4h357.2v-60H538.6v60z" fill="#4C4372" /><path d="M111.2 202.4h72.6v145.2H111.2z" fill="#7BABF1" /><path d="M691.4 485.8H262.6c-49.8 0-90.4-40.6-90.4-90.4v-120.4c0-6.4 5.2-11.8 11.8-11.8h586.4c6.4 0 11.8 5.2 11.8 11.8v120.4c-0.2 49.8-40.8 90.4-90.8 90.4zM195.6 286.8v108.6c0 37 30 67 67 67h428.8c37 0 67-30 67-67v-108.6H195.6z" fill="#4C4372" /><path d="M770.2 286.8H183.8c-6.4 0-11.8-5.2-11.8-11.8V76c0-6.4 5.2-11.8 11.8-11.8h694c4.2 0 8 2.2 10 5.8 2.2 3.6 2.2 8 0.2 11.6l-107.6 199c-2 3.8-5.8 6.2-10.2 6.2zM195.6 263.4h567.6l95-175.6H195.6v175.6z" fill="#4C4372" /><path d="M183.8 359.4H111.2c-6.4 0-11.8-5.2-11.8-11.8v-145.2c0-6.4 5.2-11.8 11.8-11.8h72.6c6.4 0 11.8 5.2 11.8 11.8v145.2c0 6.6-5.2 11.8-11.8 11.8zM123 336h49.2v-121.8H123V336z" fill="#4C4372" /><path d="M52.6 409.2H11.8c-6.4 0-11.8-5.2-11.8-11.8V152.8c0-6.4 5.2-11.8 11.8-11.8h40.8c38.8 0 70.4 31.6 70.4 70.4v127.4c0 38.8-31.6 70.4-70.4 70.4z m-29.2-23.4h29c26 0 47-21 47-47v-127.4c0-26-21-47-47-47H23.4v221.4zM1012.2 959.6h-47.4c-38.2 0-69.2-31-69.2-69.2v-103c0-38.2 31-69.2 69.2-69.2h47.4c6.4 0 11.8 5.2 11.8 11.8v218c0 6.4-5.2 11.6-11.8 11.6z m-47.4-217.8c-25.2 0-45.8 20.6-45.8 45.8v103c0 25.2 20.6 45.8 45.8 45.8h35.8V742h-35.8z" fill="#4C4372" /><path d="M464.411451 917.069589a86 86 0 1 0 51.323285-164.164309 86 86 0 1 0-51.323285 164.164309Z" fill="#E8677D" /><path d="M490 932.8h-0.6c-26.2-0.2-50.6-10.6-69-29.2s-28.4-43.2-28.2-69.4c0.2-26.2 10.6-50.6 29.2-69s43.2-28.4 69.4-28.2c54 0.4 97.4 44.6 97.2 98.4-0.6 54-44.4 97.4-98 97.4z m0-172.2c-19.6 0-38.2 7.6-52.2 21.4-14.2 14-22 32.6-22.2 52.4-0.2 19.8 7.4 38.6 21.4 52.8 14 14.2 32.6 22 52.4 22.2h0.6c40.8 0 74-33 74.4-73.8 0.2-41-32.8-74.6-73.8-74.8-0.2-0.2-0.4-0.2-0.6-0.2z m86.2 75z" fill="#4C4372" /><path d="MNaN NaNaNaN NaN NaN 1 0 NaN NaN NaN NaN NaN 1 0 NaN NaNZ" fill="#FD919E" /><path d="M490 881.6h-0.4c-25.8-0.2-46.6-21.2-46.4-47 0-12.4 5-24.2 13.8-33s20.6-13.6 33.2-13.4c25.8 0.2 46.6 21.2 46.4 47 0 25.8-21 46.4-46.6 46.4z m0-69.8c-6.2 0-12 2.4-16.4 6.6-4.4 4.4-6.8 10.2-7 16.4 0 12.8 10.2 23.4 23 23.4h0.2c12.8 0 23.2-10.4 23.2-23 0.4-12.8-10-23.4-23-23.4 0.2 0 0 0 0 0z m35 23.4z" fill="#4C4372" /></svg>