<?xml version="1.0" standalone="no"?><!DOCTYPE svg PUBLIC "-//W3C//DTD SVG 1.1//EN" "http://www.w3.org/Graphics/SVG/1.1/DTD/svg11.dtd"><svg class="icon" width="200px" height="200.00px" viewBox="0 0 1024 1024" version="1.1" xmlns="http://www.w3.org/2000/svg"><path d="M512 512m-414 0a414 414 0 1 0 828 0 414 414 0 1 0-828 0Z" fill="#F0C48A" /><path d="M512 106.4c-180.4 0-326.6 146.2-326.6 326.6S331.6 759.8 512 759.8s326.6-146.2 326.6-326.6S692.4 106.4 512 106.4z m0 401.4c-41.2 0-74.6-33.4-74.6-74.6s33.4-74.6 74.6-74.6 74.6 33.4 74.6 74.6-33.4 74.6-74.6 74.6z" fill="#D3E6F8" /><path d="M802.4 390c0-69.8-22-134.4-59.2-187.6-59.2-59.2-140.8-96-231.2-96-180.4 0-326.6 146.2-326.6 326.6 0 69.8 22 134.4 59.2 187.6 59.2 59.2 140.8 96 231.2 96 180.4 0 326.6-146.2 326.6-326.6z m-401.4 0c0-41.2 33.4-74.6 74.6-74.6 33.2 0 61.4 21.8 71.2 51.8 23.6 12.6 39.8 37.4 39.8 66 0 41.2-33.4 74.6-74.6 74.6-33.2 0-61.4-21.8-71.2-51.8-23.6-12.4-39.8-37.4-39.8-66z" fill="#FFFFFF" /><path d="M512 285c-81.8 0-148.2 66.4-148.2 148s66.4 148.2 148.2 148.2 148.2-66.4 148.2-148.2-66.4-148-148.2-148z m0 222.8c-41.2 0-74.6-33.4-74.6-74.6s33.4-74.6 74.6-74.6 74.6 33.4 74.6 74.6-33.4 74.6-74.6 74.6z" fill="#D3E6F8" /><path d="M512 593c-88.2 0-159.8-71.6-159.8-159.8s71.6-159.8 159.8-159.8 159.8 71.6 159.8 159.8-71.6 159.8-159.8 159.8z m0-296.2c-75.2 0-136.4 61.2-136.4 136.4s61.2 136.4 136.4 136.4 136.4-61.2 136.4-136.4-61.2-136.4-136.4-136.4z" fill="#4C4372" /><path d="M512 771.6c-186.6 0-338.4-151.8-338.4-338.4S325.4 94.8 512 94.8s338.4 151.8 338.4 338.4S698.6 771.6 512 771.6z m0-653.4c-173.6 0-315 141.2-315 315S338.4 748.2 512 748.2s315-141.2 315-315S685.6 118.2 512 118.2z m0 401.4c-47.6 0-86.4-38.8-86.4-86.4s38.8-86.4 86.4-86.4 86.4 38.8 86.4 86.4-38.8 86.4-86.4 86.4z m0-149.4c-34.8 0-63 28.2-63 63s28.2 63 63 63 63-28.2 63-63-28.2-63-63-63z" fill="#4C4372" /><path d="M65.2 917.6h893.6c29.6 0 53.4-24 53.4-53.4v-143.6c0-29.6-24-53.4-53.4-53.4H65.2c-29.6 0-53.4 24-53.4 53.4V864c0 29.6 23.8 53.6 53.4 53.6z" fill="#A4CFF2" /><path d="M101.6 749h482.6v86.4H101.6z" fill="#FD919E" /><path d="M491 749H584v86.4h-93z" fill="#E8677D" /><path d="M922.4 917.6H962c25.8 0 46.6-20.8 46.6-46.6v-157.2c0-25.8-20.8-46.6-46.6-46.6h-39.6v250.4z" fill="#7BABF1" /><path d="M727.6 792.2m-43.2 0a43.2 43.2 0 1 0 86.4 0 43.2 43.2 0 1 0-86.4 0Z" fill="#FD919E" /><path d="M879.4 792.2m-43.2 0a43.2 43.2 0 1 0 86.4 0 43.2 43.2 0 1 0-86.4 0Z" fill="#FD919E" /><path d="M958.8 929.2H65.2C29.2 929.2 0 900 0 864v-143.6c0-36 29.2-65.2 65.2-65.2h893.6c36 0 65.2 29.2 65.2 65.2V864c0 36-29.2 65.2-65.2 65.2zM65.2 678.6c-23 0-41.8 18.8-41.8 41.8V864c0 23 18.8 41.8 41.8 41.8h893.6c23 0 41.8-18.8 41.8-41.8v-143.6c0-23-18.8-41.8-41.8-41.8H65.2z" fill="#4C4372" /><path d="M584.2 847.2H101.6c-6.4 0-11.8-5.2-11.8-11.8v-86.4c0-6.4 5.2-11.8 11.8-11.8h482.6c6.4 0 11.8 5.2 11.8 11.8v86.4c-0.2 6.4-5.4 11.8-11.8 11.8zM113.2 823.6h459.2v-62.8H113.2v62.8zM727.6 847.2c-30.2 0-54.8-24.6-54.8-54.8 0-30.2 24.6-54.8 54.8-54.8 30.2 0 54.8 24.6 54.8 54.8 0.2 30-24.4 54.8-54.8 54.8z m0-86.4c-17.4 0-31.4 14-31.4 31.4s14 31.4 31.4 31.4 31.4-14 31.4-31.4-14-31.4-31.4-31.4zM879.4 847.2c-30.2 0-54.8-24.6-54.8-54.8 0-30.2 24.6-54.8 54.8-54.8 30.2 0 54.8 24.6 54.8 54.8 0 30-24.6 54.8-54.8 54.8z m0-86.4c-17.4 0-31.4 14-31.4 31.4s14 31.4 31.4 31.4 31.4-14 31.4-31.4-14.2-31.4-31.4-31.4z" fill="#4C4372" /></svg>