<?xml version="1.0" standalone="no"?><!DOCTYPE svg PUBLIC "-//W3C//DTD SVG 1.1//EN" "http://www.w3.org/Graphics/SVG/1.1/DTD/svg11.dtd"><svg class="icon" width="200px" height="200.00px" viewBox="0 0 1024 1024" version="1.1" xmlns="http://www.w3.org/2000/svg"><path d="M512 512m-414 0a414 414 0 1 0 828 0 414 414 0 1 0-828 0Z" fill="#F0C48A" /><path d="M950.6 775.8c0-88-71.4-159.2-159.2-159.2h-55.6l-149.2-149.2c-12.6-12.6-29.8-19.8-47.6-19.8H159.6c-27.8 0-41.6 33.6-22 53.2 14.8 14.8 14.8 38.6 0 53.2l-40.4 40.4c-15.2 15.2-23.8 35.8-23.8 57.4v124H58c-25.6 0-46.2 20.6-46.2 46.2s20.6 46.2 46.2 46.2h908c25.6 0 46.2-20.6 46.2-46.2s-20.6-46.2-46.2-46.2h-15.4z" fill="#D3E6F8" /><path d="M280.4 559l36.6 52h418.8l-101.4-84H308s-37 18.8-27.6 32z" fill="#FFFFFF" /><path d="M385.8 531.2h51.6v81.2h-51.6z" fill="#D3E6F8" /><path d="M385.8 617.4h51.6v158.4h-51.6zM684.2 617.4h51.6v158.4h-51.6zM492.6 447.6l81.6 79.4h60.2l-79.6-79.4z" fill="#A4CFF2" /><path d="M574.2 527l85.6 89.6h63s-81.4-89.6-106.6-89.6h-42z" fill="#D3E6F8" /><path d="M832.4 641.2s-17.4 76.2 45 76.2 59.2-11.8 49-26.2c-10.2-14.2-94-81.2-94-50z" fill="#FFFFFF" /><path d="M886 726.8v-77.4c0 0.2 93 69.4 0 77.4z" fill="#D3E6F8" /><path d="M886 726.8V768s68.4 14.2 63.6-10.2-0.4-43.6-63.6-31z" fill="#A4CFF2" /><path d="M964.6 871.4H59.4c-26.4 0-47.8-21.4-47.8-47.8s21.4-47.8 47.8-47.8h905.2c26.4 0 47.8 21.4 47.8 47.8-0.2 26.4-21.4 47.8-47.8 47.8z" fill="#7BABF1" /><path d="M966 880H58c-32 0-58-26-58-58s26-58 58-58h3.6v-112c0-24.8 9.6-48 27.2-65.6L129.2 546c10.2-10.2 10.2-26.6 0-36.6-12.6-12.6-16-30.4-9.2-46.8 6.8-16.4 22-26.4 39.6-26.4h379.4c21.2 0 41 8.2 56 23.2l145.8 145.8h50.6c90.4 0 164.6 70.4 170.6 159.2h4c32 0 58 26 58 58 0 31.6-26 57.6-58 57.6zM58 787.6c-19 0-34.4 15.4-34.4 34.4s15.4 34.4 34.4 34.4h908c19 0 34.4-15.4 34.4-34.4s-15.4-34.4-34.4-34.4h-15.4c-6.4 0-11.8-5.2-11.8-11.8 0-81.4-66.2-147.6-147.6-147.6h-55.6c-3.2 0-6-1.2-8.2-3.4l-149.2-149.2c-10.6-10.6-24.6-16.4-39.4-16.4H159.6c-8.2 0-14.8 4.4-18 12-3.2 7.6-1.6 15.4 4.2 21.2 19.2 19.2 19.2 50.6 0 69.8l-40.4 40.4c-13 13.2-20.4 30.6-20.4 49v124c0 6.4-5.2 11.8-11.8 11.8H58z m904.4-11.8z" fill="#4C4372" /><path d="M735.8 783.8c-6.4 0-11.8-5.2-11.8-11.8v-143.8H339.6c-16 0-30.8-6.2-42.2-17.4l-20.6-20.6c-12.8-12.8-16.4-31.2-9.6-47.8 7-16.8 22.4-27.2 40.6-27.2H646c6.4 0 11.8 5.2 11.8 11.8 0 6.4-5.2 11.8-11.8 11.8H308c-8.6 0-15.6 4.8-19 12.6-3.2 8-1.6 16.2 4.4 22.4l20.6 20.6c6.8 6.8 16 10.6 25.6 10.6h396.2c6.4 0 11.8 5.2 11.8 11.8v155.6c0 6.2-5.2 11.4-11.8 11.4z" fill="#4C4372" /><path d="M437.2 880c-6.4 0-11.8-5.2-11.8-11.8V527c0-6.4 5.2-11.8 11.8-11.8s11.8 5.2 11.8 11.8v341.4c0 6.4-5.2 11.6-11.8 11.6z" fill="#4C4372" /><path d="M950.6 787.6H73.4c-6.4 0-11.8-5.2-11.8-11.8 0-6.4 5.2-11.8 11.8-11.8h877.4c6.4 0 11.8 5.2 11.8 11.8-0.2 6.6-5.4 11.8-12 11.8zM171.4 716.4c-27.2 0-49.4-22.2-49.4-49.4s22.2-49.4 49.4-49.4 49.4 22.2 49.4 49.4-22.2 49.4-49.4 49.4z m0-75.2c-14.2 0-25.8 11.6-25.8 25.8s11.6 25.8 25.8 25.8c14.2 0 25.8-11.6 25.8-25.8s-11.6-25.8-25.8-25.8zM939.6 729.2h-62.2c-31.2 0-56.6-25.4-56.6-56.6v-43c0-6.4 5.2-11.8 11.8-11.8 6.4 0 11.8 5.2 11.8 11.8v43c0 18.4 15 33.2 33.2 33.2h62.2c6.4 0 11.8 5.2 11.8 11.8s-5.6 11.6-12 11.6z" fill="#4C4372" /><path d="M219.037595 976.361038a110.6 110.6 0 1 0 50.834401-215.279594 110.6 110.6 0 1 0-50.834401 215.279594Z" fill="#7BABF1" /><path d="M764.799254 976.280589a110.6 110.6 0 1 0 50.8344-215.279594 110.6 110.6 0 1 0-50.8344 215.279594Z" fill="#7BABF1" /><path d="M244.4 991C177 991 122 936 122 868.6s55-122.4 122.4-122.4 122.4 55 122.4 122.4-54.8 122.4-122.4 122.4z m0-221.4c-54.6 0-99 44.4-99 99s44.4 99 99 99 99-44.4 99-99-44.4-99-99-99zM790.2 991c-67.4 0-122.4-55-122.4-122.4s55-122.4 122.4-122.4 122.4 55 122.4 122.4-55 122.4-122.4 122.4z m0-221.4c-54.6 0-99 44.4-99 99s44.4 99 99 99 99-44.4 99-99c-0.2-54.6-44.4-99-99-99z" fill="#4C4372" /><path d="M790.2 868.6m-60 0a60 60 0 1 0 120 0 60 60 0 1 0-120 0Z" fill="#A4CFF2" /><path d="M244.4 868.6m-60 0a60 60 0 1 0 120 0 60 60 0 1 0-120 0Z" fill="#A4CFF2" /><path d="M790.2 940.2c-39.6 0-71.6-32.2-71.6-71.6 0-39.6 32.2-71.6 71.6-71.6 39.6 0 71.6 32.2 71.6 71.6 0 39.4-32.2 71.6-71.6 71.6z m0-119.8c-26.6 0-48.2 21.6-48.2 48.2s21.6 48.2 48.2 48.2 48.2-21.6 48.2-48.2-21.6-48.2-48.2-48.2zM244.4 940.2c-39.6 0-71.6-32.2-71.6-71.6 0-39.6 32.2-71.6 71.6-71.6s71.6 32.2 71.6 71.6c0.2 39.4-32 71.6-71.6 71.6z m0-119.8c-26.6 0-48.2 21.6-48.2 48.2s21.6 48.2 48.2 48.2 48.2-21.6 48.2-48.2-21.6-48.2-48.2-48.2z" fill="#4C4372" /><path d="M220.763039 377.762005a147.4 147.4 0 1 0 67.74856-286.909695 147.4 147.4 0 1 0-67.74856 286.909695Z" fill="#FD919E" /><path d="M245.981267 287.572725a54 54 0 1 0 17.302521-106.604985 54 54 0 1 0-17.302521 106.604985Z" fill="#FFFFFF" /><path d="M254.6 381.6c31 0 59.6-9.6 83.2-25.8-8.2-38.6-42.4-67.4-83.2-67.4-41 0-75.2 29-83.2 67.4 23.6 16.2 52.2 25.8 83.2 25.8z" fill="#FFFFFF" /><path d="M254.6 300c-36.2 0-65.8-29.6-65.8-65.8s29.6-65.8 65.8-65.8 65.8 29.6 65.8 65.8-29.6 65.8-65.8 65.8z m0-108c-23.4 0-42.4 19-42.4 42.4s19 42.4 42.4 42.4 42.4-19 42.4-42.4S277.8 192 254.6 192z" fill="#4C4372" /><path d="M254.6 393.4c-32.2 0-63.4-9.6-89.8-27.8-4-2.6-5.8-7.4-4.8-12 9.4-44.4 49.2-76.8 94.8-76.8s85.4 32.2 94.8 76.8c1 4.6-1 9.4-4.8 12-27 18.2-58 27.8-90.2 27.8z m-69.8-42.8c21 12.6 45 19.2 69.8 19.2s48.6-6.6 69.8-19.2c-9.8-29.6-38-50.6-69.8-50.6s-60 21-69.8 50.6z" fill="#4C4372" /><path d="M254.6 393.4c-87.6 0-159-71.4-159-159s71.4-159 159-159 159 71.4 159 159-71.4 159-159 159z m0-294.6c-74.8 0-135.6 60.8-135.6 135.6S179.8 370 254.6 370s135.6-60.8 135.6-135.6-61-135.6-135.6-135.6z" fill="#4C4372" /><path d="M725 110.8V71.8c0-14.8 12.2-27 27-27h137c14.8 0 27 12.2 27 27V394c0 14.8-12.2 27-27 27H752c-14.8 0-27-12.2-27-27V110.8z" fill="#FD919E" /><path d="M887.4 348v75.8c11-3.4 19.2-13.6 19.2-25.8v-50h-19.2zM887.4 46v51.8h19.2v-26c-0.2-12.2-8.2-22.4-19.2-25.8z" fill="#E8677D" /><path d="M725 97.6h191.8v245h-191.8z" fill="#FFFFFF" /><path d="M820.6 382.2m-19.6 0a19.6 19.6 0 1 0 39.2 0 19.6 19.6 0 1 0-39.2 0Z" fill="#4C4372" /><path d="M912.4 109.4h-184c-6.4 0-11.8-5.2-11.8-11.8s5.2-11.8 11.8-11.8h184c6.4 0 11.8 5.2 11.8 11.8s-5.2 11.8-11.8 11.8zM912.4 354.4h-184c-6.4 0-11.8-5.2-11.8-11.8 0-6.4 5.2-11.8 11.8-11.8h184c6.4 0 11.8 5.2 11.8 11.8 0 6.4-5.2 11.8-11.8 11.8z" fill="#4C4372" /><path d="M889 432.6H752c-21.4 0-38.8-17.4-38.8-38.8v-322c0-21.4 17.4-38.8 38.8-38.8h137c21.4 0 38.8 17.4 38.8 38.8V394c0 21.4-17.4 38.6-38.8 38.6zM752 56.4c-8.4 0-15.2 6.8-15.2 15.2V394c0 8.4 6.8 15.2 15.2 15.2h137c8.4 0 15.2-6.8 15.2-15.2V71.8c0-8.4-6.8-15.2-15.2-15.2H752z" fill="#4C4372" /><path d="M602.2 148.2l-40.8-23.6V158l-98.6-3v33.8h98.6v30.4l40.8-23.6 41-23.8z" fill="#D3E6F8" /><path d="M561.4 231c-2 0-4-0.6-5.8-1.6-3.6-2-5.8-6-5.8-10.2v-18.6h-86.8c-6.4 0-11.8-5.2-11.8-11.8v-34c0-6.4 5.2-11.8 11.8-11.8h86.8v-18.6c0-4.2 2.2-8 5.8-10.2 3.6-2 8-2 11.8 0L608.2 138l41 23.6c3.6 2 5.8 6 5.8 10.2 0 4.2-2.2 8-5.8 10.2l-82 47.2c-1.8 1.2-3.8 1.8-5.8 1.8z m-86.8-53.8h86.8c6.4 0 11.8 5.2 11.8 11.8v10L620 172l-46.8-27v10c0 6.4-5.2 11.8-11.8 11.8h-86.8v10.4z" fill="#4C4372" /><path d="M503.8 274.4l41-23.8V284l98.4-3v34h-98.4v30.2l-41-23.6-41-23.6z" fill="#D3E6F8" /><path d="M544.8 357c-2 0-4-0.6-5.8-1.6l-82-47.2c-3.6-2-5.8-6-5.8-10.2s2.2-8 5.8-10.2l82-47.2c3.6-2 8-2 11.8 0 3.6 2 5.8 6 5.8 10.2v18.6h86.8c6.4 0 11.8 5.2 11.8 11.8v34c0 6.4-5.2 11.8-11.8 11.8h-86.8v18.6c0 4.2-2.2 8-5.8 10.2-2 0.6-4 1.2-6 1.2zM486.2 298l46.8 27v-10c0-6.4 5.2-11.8 11.8-11.8h86.8v-10.4h-86.8c-6.4 0-11.8-5.2-11.8-11.8v-10l-23.4 13.4-23.4 13.6z m17.6-23.6z" fill="#4C4372" /></svg>