<?xml version="1.0" standalone="no"?><!DOCTYPE svg PUBLIC "-//W3C//DTD SVG 1.1//EN" "http://www.w3.org/Graphics/SVG/1.1/DTD/svg11.dtd"><svg class="icon" width="200px" height="200.00px" viewBox="0 0 1024 1024" version="1.1" xmlns="http://www.w3.org/2000/svg"><path d="M512 512m-414 0a414 414 0 1 0 828 0 414 414 0 1 0-828 0Z" fill="#F0C48A" /><path d="M683 230.8h-342l22.8-90.4c4.6-18.4 21.2-31.4 40.2-31.4h216c19 0 35.6 13 40.2 31.4l22.8 90.4z" fill="#A4CFF2" /><path d="M677.2 232.4h-78.4V113h6.4c39.8 0 72.2 32.2 72.2 72.2v47.2z" fill="#7BABF1" /><path d="M906.8 915H117.2c-58.2 0-105.4-47.2-105.4-105.4V336.2c0-58.2 47.2-105.4 105.4-105.4h789.8c58.2 0 105.4 47.2 105.4 105.4v473.6c-0.2 58-47.4 105.2-105.6 105.2z" fill="#FFFFFF" /><path d="M11.8 448.4v361.2c0 58.2 47.2 105.4 105.4 105.4h789.8c58.2 0 105.4-47.2 105.4-105.4V448.4H11.8z" fill="#FD919E" /><path d="M917.8 915h-25V448.6h119.4v372c0 52.2-42.2 94.4-94.4 94.4z" fill="#E8677D" /><path d="M1012.2 448.6h-119.4V230.8h16.8c56.6 0 102.6 46 102.6 102.6v115.2z" fill="#D3E6F8" /><path d="M908.2 379.2h-123.4c-11.8 0-21.2-9.6-21.2-21.2v-32.8c0-11.8 9.6-21.2 21.2-21.2h123.4c11.8 0 21.2 9.6 21.2 21.2V358c0.2 11.8-9.4 21.2-21.2 21.2z" fill="#7BABF1" /><path d="M906.8 926.8H117.2C52.6 926.8 0 874.2 0 809.6V336.2c0-64.6 52.6-117.2 117.2-117.2h789.8c64.6 0 117.2 52.6 117.2 117.2v473.6c-0.2 64.4-52.8 117-117.4 117zM117.2 242.4c-51.6 0-93.6 42-93.6 93.6v473.6c0 51.6 42 93.6 93.6 93.6h789.8c51.6 0 93.6-42 93.6-93.6V336.2c0-51.6-42-93.6-93.6-93.6H117.2z" fill="#4C4372" /><path d="M683 242.4h-342c-3.6 0-7-1.6-9.2-4.6-2.2-2.8-3-6.6-2.2-10l22.8-90.4c6-23.8 27.2-40.2 51.6-40.2h216c24.4 0 45.8 16.6 51.6 40.2l22.8 90.4c0.8 3.6 0 7.2-2.2 10-2.2 3-5.6 4.6-9.2 4.6zM356 219h312l-19-75.8c-3.4-13.2-15.2-22.6-29-22.6H404c-13.6 0-25.6 9.2-29 22.6l-19 75.8zM993.4 460.2H11.8c-6.4 0-11.8-5.2-11.8-11.8 0-6.4 5.2-11.8 11.8-11.8h981.8c6.4 0 11.8 5.2 11.8 11.8-0.2 6.6-5.4 11.8-12 11.8zM908.2 391h-123.4c-18.2 0-33-14.8-33-33v-32.8c0-18.2 14.8-33 33-33h123.4c18.2 0 33 14.8 33 33V358c0 18.2-14.8 33-33 33z m-123.2-75.2c-5.2 0-9.6 4.2-9.6 9.6V358c0 5.2 4.2 9.6 9.6 9.6h123.4c5.2 0 9.6-4.2 9.6-9.6v-32.8c0-5.2-4.2-9.6-9.6-9.6h-123.4z" fill="#4C4372" /><path d="M591.4 181.6h-159c-6.4 0-11.8-5.2-11.8-11.8 0-6.4 5.2-11.8 11.8-11.8h159c6.4 0 11.8 5.2 11.8 11.8 0 6.6-5.2 11.8-11.8 11.8z" fill="#4C4372" /><path d="M512 572.8m-216 0a216 216 0 1 0 432 0 216 216 0 1 0-432 0Z" fill="#A4CFF2" /><path d="M512 572.8m-155.6 0a155.6 155.6 0 1 0 311.2 0 155.6 155.6 0 1 0-311.2 0Z" fill="#7BABF1" /><path d="M512 740.2c-92.2 0-167.4-75-167.4-167.4s75-167.4 167.4-167.4 167.4 75 167.4 167.4-75.2 167.4-167.4 167.4z m0-311.2c-79.4 0-144 64.6-144 144s64.6 144 144 144 144-64.6 144-144-64.6-144-144-144z" fill="#4C4372" /><path d="M512 800.8c-125.6 0-227.8-102.2-227.8-227.8 0-125.6 102.2-227.8 227.8-227.8 125.6 0 227.8 102.2 227.8 227.8 0 125.6-102.2 227.8-227.8 227.8z m0-432.2c-112.6 0-204.4 91.6-204.4 204.4S399.4 777.2 512 777.2s204.4-91.6 204.4-204.4S624.6 368.6 512 368.6z" fill="#4C4372" /></svg>