<?xml version="1.0" standalone="no"?><!DOCTYPE svg PUBLIC "-//W3C//DTD SVG 1.1//EN" "http://www.w3.org/Graphics/SVG/1.1/DTD/svg11.dtd"><svg class="icon" width="200px" height="200.00px" viewBox="0 0 1024 1024" version="1.1" xmlns="http://www.w3.org/2000/svg"><path d="M512 512m-414 0a414 414 0 1 0 828 0 414 414 0 1 0-828 0Z" fill="#F0C48A" /><path d="M11.8 782.6h1000.6v197.6H11.8z" fill="#7BABF1" /><path d="M645.2 782.6l-74.8 72.4h74.8L620 927.4l139.2-74.6h-70.6l70.2-70.2zM176.8 298.2h294.2v484.4H176.8z" fill="#FD919E" /><path d="M416.6 298.2h53.2v484.4h-53.2z" fill="#E8677D" /><path d="M399.8 413.4h-152c-19.8 0-35.8-16-35.8-35.8 0-19.8 16-35.8 35.8-35.8h152c19.8 0 35.8 16 35.8 35.8 0 19.8-16 35.8-35.8 35.8zM399.8 519.4h-152c-19.8 0-35.8-16-35.8-35.8 0-19.8 16-35.8 35.8-35.8h152c19.8 0 35.8 16 35.8 35.8 0 19.8-16 35.8-35.8 35.8zM399.8 625.4h-152c-19.8 0-35.8-16-35.8-35.8 0-19.8 16-35.8 35.8-35.8h152c19.8 0 35.8 16 35.8 35.8 0 19.8-16 35.8-35.8 35.8z" fill="#FFFFFF" /><path d="M855.4 100.6c-6.4 0-11.8-5.2-11.8-11.8V52.4c0-6.4 5.2-11.8 11.8-11.8 6.4 0 11.8 5.2 11.8 11.8v36.6c0 6.4-5.2 11.6-11.8 11.6zM855.4 245.8c-6.4 0-11.8-5.2-11.8-11.8V197.6c0-6.4 5.2-11.8 11.8-11.8 6.4 0 11.8 5.2 11.8 11.8V234c0 6.6-5.2 11.8-11.8 11.8zM893.8 116.6c-3 0-6-1.2-8.2-3.4-4.6-4.6-4.6-12 0-16.6l25.8-25.8c4.6-4.6 12-4.6 16.6 0 4.6 4.6 4.6 12 0 16.6l-25.8 25.8c-2.4 2.2-5.4 3.4-8.4 3.4zM791.2 219.2c-3 0-6-1.2-8.2-3.4-4.6-4.6-4.6-12 0-16.6l25.8-25.8c4.6-4.6 12-4.6 16.6 0 4.6 4.6 4.6 12 0 16.6l-25.8 25.8c-2.4 2.2-5.4 3.4-8.4 3.4zM946.2 155h-36.6c-6.4 0-11.8-5.2-11.8-11.8s5.2-11.8 11.8-11.8h36.6c6.4 0 11.8 5.2 11.8 11.8s-5.2 11.8-11.8 11.8zM801.2 155h-36.6c-6.4 0-11.8-5.2-11.8-11.8s5.2-11.8 11.8-11.8h36.6c6.4 0 11.8 5.2 11.8 11.8s-5.4 11.8-11.8 11.8zM919.6 219.2c-3 0-6-1.2-8.2-3.4L885.6 190c-4.6-4.6-4.6-12 0-16.6 4.6-4.6 12-4.6 16.6 0L928 199.2c4.6 4.6 4.6 12 0 16.6-2.4 2.2-5.4 3.4-8.4 3.4zM817 116.6c-3 0-6-1.2-8.2-3.4l-25.8-25.8c-4.6-4.6-4.6-12 0-16.6 4.6-4.6 12-4.6 16.6 0l25.8 25.8c4.6 4.6 4.6 12 0 16.6-2.4 2.2-5.4 3.4-8.4 3.4z" fill="#4C4372" /><path d="M855.4 139.4m-64.8 0a64.8 64.8 0 1 0 129.6 0 64.8 64.8 0 1 0-129.6 0Z" fill="#FD919E" /><path d="M252.6 162.6c-26.4 0-47.6-21.4-47.6-47.6 0-26.4 21.4-47.6 47.6-47.6 7.6 0 14.8 1.8 21 5 13-17.2 33.6-28.4 56.8-28.4 35.4 0 64.8 26 70.2 59.8 1.6-0.4 3.4-0.4 5.2-0.4 16.4 0 29.6 13.2 29.6 29.6 0 16.4-13.2 29.6-29.6 29.6h-153.2z" fill="#FFFFFF" /><path d="M406 174.4h-153.4c-32.8 0-59.4-26.6-59.4-59.4s26.6-59.4 59.4-59.4c6 0 11.8 0.8 17.6 2.6 15.6-16.8 37.2-26.2 60.4-26.2 37.4 0 69.4 24.6 79.6 59.6 21 2 37.4 19.8 37.4 41.2-0.2 23-18.8 41.6-41.6 41.6z m-153.4-95.4c-19.8 0-35.8 16.2-35.8 35.8s16.2 35.8 35.8 35.8H406c10 0 18-8 18-18 0-11-9.8-19.8-21.2-17.6-3 0.6-6.2-0.2-8.8-2-2.6-1.8-4.2-4.6-4.8-7.8-4.6-29-29.2-50-58.6-50-18.8 0-36.2 8.6-47.6 23.8-3.4 4.6-9.6 6-14.6 3.4-4.8-2-10.2-3.4-15.8-3.4z" fill="#4C4372" /><path d="M553 363.4h294.2v419.2H553z" fill="#A4CFF2" /><path d="M643 669h113.6v113.6h-113.6zM792.8 363.4H846v419.2h-53.2z" fill="#7BABF1" /><path d="M607.4 558.4h71.6V630h-71.6zM721.2 558.4h71.6V630h-71.6zM607.4 436.8h71.6v71.6h-71.6zM721.2 436.8h71.6v71.6h-71.6z" fill="#FFFFFF" /><path d="M847.2 794.4H553c-6.4 0-11.8-5.2-11.8-11.8V363.4c0-6.4 5.2-11.8 11.8-11.8h294.2c6.4 0 11.8 5.2 11.8 11.8v419.2c-0.2 6.4-5.4 11.8-11.8 11.8z m-282.6-23.6h270.8V375.2H564.6v395.6z" fill="#4C4372" /><path d="M678.8 641.6h-71.6c-6.4 0-11.8-5.2-11.8-11.8v-71.6c0-6.4 5.2-11.8 11.8-11.8h71.6c6.4 0 11.8 5.2 11.8 11.8v71.6c0 6.6-5.2 11.8-11.8 11.8z m-59.8-23.4h48v-48h-48v48zM792.8 641.6h-71.6c-6.4 0-11.8-5.2-11.8-11.8v-71.6c0-6.4 5.2-11.8 11.8-11.8h71.6c6.4 0 11.8 5.2 11.8 11.8v71.6c-0.2 6.6-5.4 11.8-11.8 11.8z m-59.8-23.4h48v-48h-48v48zM756.6 794.4h-113.6c-6.4 0-11.8-5.2-11.8-11.8v-113.6c0-6.4 5.2-11.8 11.8-11.8h113.6c6.4 0 11.8 5.2 11.8 11.8v113.6c0 6.4-5.2 11.8-11.8 11.8z m-101.8-23.6h90.2v-90.2h-90.2v90.2z" fill="#4C4372" /><path d="M678.8 520h-71.6c-6.4 0-11.8-5.2-11.8-11.8v-71.6c0-6.4 5.2-11.8 11.8-11.8h71.6c6.4 0 11.8 5.2 11.8 11.8v71.6c0 6.6-5.2 11.8-11.8 11.8z m-59.8-23.4h48v-48h-48v48zM792.8 520h-71.6c-6.4 0-11.8-5.2-11.8-11.8v-71.6c0-6.4 5.2-11.8 11.8-11.8h71.6c6.4 0 11.8 5.2 11.8 11.8v71.6c-0.2 6.6-5.4 11.8-11.8 11.8z m-59.8-23.4h48v-48h-48v48z" fill="#4C4372" /><path d="M784.2 302.6h-168.4c-15.2 0-27.6 12.4-27.6 27.6v33.4h223.6v-33.4c0-15.2-12.4-27.6-27.6-27.6z" fill="#D3E6F8" /><path d="M758.4 359.2h53.2v-33.4c0-15.2-12.4-27.6-27.6-27.6h-25.8v61z" fill="#A4CFF2" /><path d="M811.8 375.2H588.2c-6.4 0-11.8-5.2-11.8-11.8V330c0-21.6 17.6-39.2 39.2-39.2H784c21.6 0 39.2 17.6 39.2 39.2v33.4c0.4 6.6-5 11.8-11.4 11.8zM600 351.8h200v-21.6c0-8.8-7-15.8-15.8-15.8h-168.4c-8.8 0-15.8 7-15.8 15.8v21.6z" fill="#4C4372" /><path d="M267 669h113.6v113.6h-113.6z" fill="#E8677D" /><path d="M471 794.4H176.8c-6.4 0-11.8-5.2-11.8-11.8V298.2c0-6.4 5.2-11.8 11.8-11.8h294.2c6.4 0 11.8 5.2 11.8 11.8v484.4c0 6.4-5.2 11.8-11.8 11.8zM188.6 770.8h270.8V310H188.6v460.8z" fill="#4C4372" /><path d="M380.6 794.4h-113.6c-6.4 0-11.8-5.2-11.8-11.8v-113.6c0-6.4 5.2-11.8 11.8-11.8h113.6c6.4 0 11.8 5.2 11.8 11.8v113.6c0 6.4-5.4 11.8-11.8 11.8z m-101.8-23.6h90.2v-90.2h-90.2v90.2z" fill="#4C4372" /><path d="M408.2 237.4h-168.4c-15.2 0-27.6 12.4-27.6 27.6v33.4h223.6v-33.4c0-15.2-12.4-27.6-27.6-27.6z" fill="#FD919E" /><path d="M382.4 294h53.2v-33.4c0-15.2-12.4-27.6-27.6-27.6h-25.8V294z" fill="#E8677D" /><path d="M435.8 310H212.2c-6.4 0-11.8-5.2-11.8-11.8v-33.4c0-21.6 17.6-39.2 39.2-39.2H408c21.6 0 39.2 17.6 39.2 39.2v33.4c0.2 6.6-5 11.8-11.4 11.8z m-212-23.4H424v-21.6c0-8.8-7-15.8-15.8-15.8h-168.4c-8.8 0-15.8 7-15.8 15.8v21.6z" fill="#4C4372" /><path d="M1012.2 991.8H11.8c-6.4 0-11.8-5.2-11.8-11.8v-197.6c0-6.4 5.2-11.8 11.8-11.8h633.6c4.8 0 9 2.8 10.8 7.4s0.8 9.6-2.8 12.8l-54 52.2h45.8c3.8 0 7.4 1.8 9.6 5 2.2 3 2.8 7 1.6 10.6l-15.4 44 71.4-38.2h-23.8c-4.8 0-9-2.8-10.8-7.2-1.8-4.4-0.8-9.4 2.6-12.8l70.2-70.2c2.2-2.2 5.2-3.4 8.2-3.4h253.4c6.4 0 11.8 5.2 11.8 11.8v197.6c0 6.4-5.2 11.6-11.8 11.6zM23.4 968.4h977v-174.2H763.8l-46.8 46.8h42.2c5.4 0 10 3.6 11.4 8.8 1.4 5.2-1 10.6-5.8 13.2l-139.2 74.6c-4.2 2.2-9.4 1.8-13.2-1.4-3.6-3.2-5-8.2-3.4-12.8l19.8-56.8h-58.4c-4.8 0-9-2.8-10.8-7.4s-0.8-9.6 2.8-12.8l54-52.2H23.4v174.2z" fill="#4C4372" /><path d="M873.2 919.6c-6.4 0-11.8-5.2-11.8-11.8 0-8.2-6.6-14.8-14.8-14.8-8.2 0-14.8 6.6-14.8 14.8 0 6.4-5.2 11.8-11.8 11.8-6.4 0-11.8-5.2-11.8-11.8 0-21.2 17.2-38.2 38.2-38.2 21.2 0 38.2 17.2 38.2 38.2 0.2 6.4-5 11.8-11.4 11.8zM939 919.6h-34c-6.4 0-11.8-5.2-11.8-11.8 0-6.4 5.2-11.8 11.8-11.8h34c6.4 0 11.8 5.2 11.8 11.8 0 6.4-5.2 11.8-11.8 11.8z" fill="#4C4372" /><path d="M374 880c-6.4 0-11.8-5.2-11.8-11.8 0-8.2-6.6-14.8-14.8-14.8-8.2 0-14.8 6.6-14.8 14.8 0 6.4-5.2 11.8-11.8 11.8s-11.8-5.2-11.8-11.8c0-21.2 17.2-38.2 38.2-38.2s38.2 17.2 38.2 38.2c0.4 6.6-5 11.8-11.4 11.8zM289 880h-34c-6.4 0-11.8-5.2-11.8-11.8 0-6.4 5.2-11.8 11.8-11.8h34c6.4 0 11.8 5.2 11.8 11.8 0 6.6-5.4 11.8-11.8 11.8z" fill="#4C4372" /><path d="M855.4 216c-42.2 0-76.6-34.4-76.6-76.6s34.4-76.6 76.6-76.6S932 97.2 932 139.4 897.6 216 855.4 216z m0-129.6c-29.2 0-53.2 23.8-53.2 53.2s23.8 53.2 53.2 53.2c29.2 0 53.2-23.8 53.2-53.2s-23.8-53.2-53.2-53.2z" fill="#4C4372" /><path d="M403.2 417.2h-21.8V342h21.8c18.4 0 33.4 15 33.4 33.4v8.4c0 18.4-15 33.4-33.4 33.4z" fill="#D3E6F8" /><path d="M403.2 521.2h-21.8V446h21.8c18.4 0 33.4 15 33.4 33.4v8.4c0 18.4-15 33.4-33.4 33.4z" fill="#D3E6F8" /><path d="M403.2 625.4h-21.8V550h21.8c18.4 0 33.4 15 33.4 33.4v8.4c0 18.6-15 33.6-33.4 33.6z" fill="#D3E6F8" /><path d="M399.8 425.2h-152c-26.2 0-47.4-21.2-47.4-47.4s21.2-47.4 47.4-47.4h152c26.2 0 47.4 21.2 47.4 47.4 0.2 26.2-21.2 47.4-47.4 47.4zM248 353.8c-13.2 0-24 10.8-24 24s10.8 24 24 24h152c13.2 0 24-10.8 24-24s-10.8-24-24-24h-152z" fill="#4C4372" /><path d="M399.8 531.2h-152c-26.2 0-47.4-21.2-47.4-47.4s21.2-47.4 47.4-47.4h152c26.2 0 47.4 21.2 47.4 47.4 0.2 26-21.2 47.4-47.4 47.4zM248 459.6c-13.2 0-24 10.8-24 24s10.8 24 24 24h152c13.2 0 24-10.8 24-24s-10.8-24-24-24h-152z" fill="#4C4372" /><path d="M399.8 637h-152c-26.2 0-47.4-21.2-47.4-47.4s21.2-47.4 47.4-47.4h152c26.2 0 47.4 21.2 47.4 47.4 0.2 26.2-21.2 47.4-47.4 47.4zM248 565.6c-13.2 0-24 10.8-24 24s10.8 24 24 24h152c13.2 0 24-10.8 24-24s-10.8-24-24-24h-152z" fill="#4C4372" /></svg>