<?xml version="1.0" standalone="no"?><!DOCTYPE svg PUBLIC "-//W3C//DTD SVG 1.1//EN" "http://www.w3.org/Graphics/SVG/1.1/DTD/svg11.dtd"><svg class="icon" width="200px" height="200.00px" viewBox="0 0 1024 1024" version="1.1" xmlns="http://www.w3.org/2000/svg"><path d="M512 512m-414 0a414 414 0 1 0 828 0 414 414 0 1 0-828 0Z" fill="#F0C48A" /><path d="M406.4 629.4h211.2v211.2H406.4z" fill="#FD919E" /><path d="M563.4 622h54.2v218.6h-54.2z" fill="#E8677D" /><path d="M617.6 593.8H370.8v141.2h35.6v-105.6h211.2v105.6h35.6v-141.2z" fill="#D3E6F8" /><path d="M617.6 589.4h35.4v142.4h-35.4z" fill="#A4CFF2" /><path d="M205.2 231.6H11.8c-6.4 0-11.8-5.2-11.8-11.8 0-6.4 5.2-11.8 11.8-11.8h193.4c6.4 0 11.8 5.2 11.8 11.8 0 6.4-5.4 11.8-11.8 11.8zM1012.2 231.6h-193.4c-6.4 0-11.8-5.2-11.8-11.8 0-6.4 5.2-11.8 11.8-11.8h193.4c6.4 0 11.8 5.2 11.8 11.8 0 6.4-5.2 11.8-11.8 11.8z" fill="#4C4372" /><path d="M494.2 522.6h35.6v71.2h-35.6z" fill="#FFFFFF" /><path d="M512 522.6h18.2V596H512zM566.4 486.6h-108.8c-28.4 0-51.2-23-51.2-51.2V240c0-28.4 23-51.2 51.2-51.2h108.8c28.4 0 51.2 23 51.2 51.2v195.2c0 28.4-22.8 51.4-51.2 51.4z" fill="#D3E6F8" /><path d="M617.6 438.2V237.2c-1.2-21.2-15.2-39-34.4-45.6h-18.8v295h2.2c27.2 0 49.4-21.4 51-48.4z" fill="#A4CFF2" /><path d="M457.6 188.8h108.8V310c0 19.8-16.2 36-36 36h-36.8c-19.8 0-36-16.2-36-36V188.8z" fill="#FD919E" /><path d="M493.6 346h0.2V191.6h-36.2V310c0 19.8 16.2 36 36 36z" fill="#E8677D" /><path d="M106.6 183.4c14.4 0 26 11.6 26 26v48.2h-52v-48.2c0-14.4 11.8-26 26-26z" fill="#A4CFF2" /><path d="M117 254.4h16v-45c0-10-5.6-18.8-14-23h-2v68z" fill="#7BABF1" /><path d="M132.8 269.2H80.6c-6.4 0-11.8-5.2-11.8-11.8v-48.2c0-20.8 17-37.8 37.8-37.8s37.8 17 37.8 37.8v48.2c0 6.6-5.2 11.8-11.6 11.8z m-40.4-23.4h28.6v-36.4c0-7.8-6.4-14.4-14.4-14.4s-14.4 6.4-14.4 14.4v36.4z" fill="#4C4372" /><path d="M917.4 183.4c-14.4 0-26 11.6-26 26v48.2h52.2v-48.2c-0.2-14.4-12-26-26.2-26z" fill="#A4CFF2" /><path d="M927.4 254.4h16v-45c0-10-5.6-18.8-14-23h-2v68z" fill="#7BABF1" /><path d="M917.4 394.6c-26 0-47-21-47-47v-90.2h94v90.2c0 26-21.2 47-47 47zM106.6 394.6c26 0 47-21 47-47v-90.2h-94v90.2c0 26 21.2 47 47 47z" fill="#D3E6F8" /><path d="M150.4 257.4H115v133.4h10c11.6-5 20.8-14.4 25.4-26.2v-107.2zM961 257.4h-35.4v133.4h10c11.6-5 20.8-14.4 25.4-26.2v-107.2z" fill="#A4CFF2" /><path d="M106.6 394.6c-6.4 0-12.6-1.4-18.4-3.6v74.6c0 10.2 8.2 18.4 18.4 18.4s18.4-8.2 18.4-18.4v-74.6c-5.6 2.4-11.8 3.6-18.4 3.6zM917.4 394.6c6.4 0 12.6-1.4 18.4-3.6v74.6c0 10.2-8.2 18.4-18.4 18.4s-18.4-8.2-18.4-18.4v-74.6c5.6 2.4 11.8 3.6 18.4 3.6z" fill="#7BABF1" /><path d="M459.8 418.4m-18.6 0a18.6 18.6 0 1 0 37.2 0 18.6 18.6 0 1 0-37.2 0Z" fill="#FFFFFF" /><path d="M564.2 418.4m-18.6 0a18.6 18.6 0 1 0 37.2 0 18.6 18.6 0 1 0-37.2 0Z" fill="#FFFFFF" /><path d="M467.6 486.6h88.8v36h-88.8z" fill="#7BABF1" /><path d="M153.8 288.8h252.6v71.4H153.8zM870.35 360.288h-252.6v-71.4h252.6z" fill="#A4CFF2" /><path d="M566.4 498.4h-108.8c-34.8 0-63-28.2-63-63V240c0-34.8 28.2-63 63-63h108.8c34.8 0 63 28.2 63 63v195.2c0 35-28.2 63.2-63 63.2z m-108.8-297.8c-21.8 0-39.6 17.8-39.6 39.6v195.2c0 21.8 17.8 39.6 39.6 39.6h108.8c21.8 0 39.6-17.8 39.6-39.6V240c0-21.8-17.8-39.6-39.6-39.6h-108.8z" fill="#4C4372" /><path d="M406.4 372H153.8c-6.4 0-11.8-5.2-11.8-11.8v-71.4c0-6.4 5.2-11.8 11.8-11.8h252.6c6.4 0 11.8 5.2 11.8 11.8v71.4c-0.2 6.6-5.4 11.8-11.8 11.8zM165.4 348.6h229.2v-48H165.4v48z" fill="#4C4372" /><path d="M406.4 337.8H153.8c-6.4 0-11.8-5.2-11.8-11.8s5.2-11.8 11.8-11.8h252.6c6.4 0 11.8 5.2 11.8 11.8s-5.4 11.8-11.8 11.8zM530.4 357.8h-36.8c-26.4 0-47.8-21.4-47.8-47.8V188.8c0-6.4 5.2-11.8 11.8-11.8h108.8c6.4 0 11.8 5.2 11.8 11.8V310c0 26.4-21.6 47.8-47.8 47.8z m-61-157.2V310c0 13.4 11 24.4 24.4 24.4h36.8c13.4 0 24.4-11 24.4-24.4v-109.4h-85.6zM106.6 495.6c-16.6 0-30-13.4-30-30v-74.6c0-4 2-7.6 5.2-9.8 3.2-2.2 7.4-2.6 11-1 8.6 3.6 18.8 3.6 27.4 0 3.6-1.6 7.8-1.2 11 1s5.2 5.8 5.2 9.8v74.6c0.4 16.6-13.2 30-29.8 30zM100.2 406v59.6c0 3.6 3 6.6 6.6 6.6s6.6-3 6.6-6.6V406c-4.4 0.4-9 0.4-13.2 0z" fill="#4C4372" /><path d="M106.6 406.4C74.2 406.4 48 380 48 347.6v-90.2c0-6.4 5.2-11.8 11.8-11.8h94c6.4 0 11.8 5.2 11.8 11.8v90.2c-0.2 32.4-26.6 58.8-59 58.8z m-35.2-137.2v78.4c0 19.4 15.8 35.4 35.4 35.4s35.2-16 35.2-35.4v-78.4H71.4zM870.2 372H617.6c-6.4 0-11.8-5.2-11.8-11.8v-71.4c0-6.4 5.2-11.8 11.8-11.8h252.6c6.4 0 11.8 5.2 11.8 11.8v71.4c0 6.6-5.2 11.8-11.8 11.8z m-240.8-23.4h229.2v-48H629.4v48zM943.4 269.2h-52.2c-6.4 0-11.8-5.2-11.8-11.8v-48.2c0-20.8 17-37.8 37.8-37.8s37.8 17 37.8 37.8v48.2c0 6.6-5.2 11.8-11.6 11.8z m-40.4-23.4h28.6v-36.4c0-7.8-6.4-14.4-14.4-14.4s-14.4 6.4-14.4 14.4v36.4z" fill="#4C4372" /><path d="M870.2 337.8H617.6c-6.4 0-11.8-5.2-11.8-11.8s5.2-11.8 11.8-11.8h252.6c6.4 0 11.8 5.2 11.8 11.8s-5.2 11.8-11.8 11.8zM917.4 495.6c-16.6 0-30-13.4-30-30v-74.6c0-4 2-7.6 5.2-9.8 3.2-2.2 7.4-2.6 11-1 8.6 3.6 18.8 3.6 27.4 0 3.6-1.6 7.8-1.2 11 1s5.2 5.8 5.2 9.8v74.6c0.2 16.6-13.4 30-29.8 30z m-6.6-89.6v59.6c0 3.6 3 6.6 6.6 6.6 3.6 0 6.6-3 6.6-6.6V406c-4.4 0.4-9 0.4-13.2 0z" fill="#4C4372" /><path d="M917.4 406.4c-32.4 0-58.8-26.4-58.8-58.8v-90.2c0-6.4 5.2-11.8 11.8-11.8h94c6.4 0 11.8 5.2 11.8 11.8v90.2c-0.2 32.4-26.4 58.8-58.8 58.8zM882 269.2v78.4c0 19.4 15.8 35.4 35.4 35.4 19.4 0 35.4-15.8 35.4-35.4v-78.4H882zM556.4 534.4h-88.8c-6.4 0-11.8-5.2-11.8-11.8v-36c0-6.4 5.2-11.8 11.8-11.8h88.8c6.4 0 11.8 5.2 11.8 11.8v36c0 6.6-5.4 11.8-11.8 11.8z m-77-23.4h65.4v-12.6h-65.4v12.6z" fill="#4C4372" /><path d="M529.8 605.6h-35.6c-6.4 0-11.8-5.2-11.8-11.8v-71.2c0-6.4 5.2-11.8 11.8-11.8h35.6c6.4 0 11.8 5.2 11.8 11.8v71.2c-0.2 6.6-5.4 11.8-11.8 11.8zM506 582.2h12v-47.8h-12v47.8z" fill="#4C4372" /><path d="M653.2 746.8h-35.6c-6.4 0-11.8-5.2-11.8-11.8v-94H418v94c0 6.4-5.2 11.8-11.8 11.8h-35.6c-6.4 0-11.8-5.2-11.8-11.8v-141.2c0-6.4 5.2-11.8 11.8-11.8h282.4c6.4 0 11.8 5.2 11.8 11.8v141.2c0 6.6-5.2 11.8-11.6 11.8z m-23.8-23.4h12v-117.8H382.6v117.8h12v-94c0-6.4 5.2-11.8 11.8-11.8h211.2c6.4 0 11.8 5.2 11.8 11.8v94zM459.8 448.8c-16.8 0-30.4-13.6-30.4-30.4 0-16.8 13.6-30.4 30.4-30.4 16.8 0 30.4 13.6 30.4 30.4-0.2 16.6-13.8 30.4-30.4 30.4z m0-37.4c-3.8 0-6.8 3-6.8 6.8s3 6.8 6.8 6.8 6.8-3 6.8-6.8c0-3.6-3-6.8-6.8-6.8zM564.2 448.8c-16.8 0-30.4-13.6-30.4-30.4 0-16.8 13.6-30.4 30.4-30.4 16.8 0 30.4 13.6 30.4 30.4 0 16.6-13.6 30.4-30.4 30.4z m0-37.4c-3.8 0-6.8 3-6.8 6.8s3 6.8 6.8 6.8 6.8-3 6.8-6.8c0.2-3.6-3-6.8-6.8-6.8z" fill="#4C4372" /><path d="M617.6 852.4H406.4c-6.4 0-11.8-5.2-11.8-11.8V629.4c0-6.4 5.2-11.8 11.8-11.8h211.2c6.4 0 11.8 5.2 11.8 11.8v211.2c0 6.6-5.4 11.8-11.8 11.8zM418 829h187.8v-187.8H418v187.8z" fill="#4C4372" /><path d="M493.8 724c-3.6 0-7-1.6-9.4-4.6l-15-19.6-15.2 19.4c-4 5.2-11.4 6-16.4 2-5.2-4-6-11.4-2-16.4l24.6-31.4c2.2-2.8 5.6-4.6 9.2-4.6 3.6 0 7 1.8 9.2 4.6l24.2 31.6c4 5.2 3 12.4-2.2 16.4-2 1.8-4.4 2.6-7 2.6z" fill="#4C4372" /><path d="M469.6 766c-6.4 0-11.8-5.2-11.8-11.8v-73.6c0-6.4 5.2-11.8 11.8-11.8s11.8 5.2 11.8 11.8v73.6c-0.2 6.6-5.4 11.8-11.8 11.8zM579 724c-3.6 0-7-1.6-9.4-4.6l-15-19.6-15.2 19.4c-4 5.2-11.4 6-16.4 2-5.2-4-6-11.4-2-16.4l24.6-31.4c2.2-2.8 5.6-4.6 9.2-4.6 3.6 0 7 1.8 9.2 4.6l24.2 31.6c4 5.2 3 12.4-2.2 16.4-2 1.8-4.4 2.6-7 2.6z" fill="#4C4372" /><path d="M554.8 766c-6.4 0-11.8-5.2-11.8-11.8v-73.6c0-6.4 5.2-11.8 11.8-11.8 6.4 0 11.8 5.2 11.8 11.8v73.6c-0.2 6.6-5.4 11.8-11.8 11.8z" fill="#4C4372" /><path d="M579 808.6h-134c-6.4 0-11.8-5.2-11.8-11.8 0-6.4 5.2-11.8 11.8-11.8h134c6.4 0 11.8 5.2 11.8 11.8 0 6.6-5.2 11.8-11.8 11.8z" fill="#4C4372" /></svg>