<?xml version="1.0" standalone="no"?><!DOCTYPE svg PUBLIC "-//W3C//DTD SVG 1.1//EN" "http://www.w3.org/Graphics/SVG/1.1/DTD/svg11.dtd"><svg class="icon" width="200px" height="200.00px" viewBox="0 0 1024 1024" version="1.1" xmlns="http://www.w3.org/2000/svg"><path d="M512 512m-414 0a414 414 0 1 0 828 0 414 414 0 1 0-828 0Z" fill="#F0C48A" /><path d="M595.2 660.4h-166.4c-12.4 0-22.4-10-22.4-22.4 0-12.4 10-22.4 22.4-22.4h166.4c12.4 0 22.4 10 22.4 22.4 0 12.4-10 22.4-22.4 22.4z" fill="#FFFFFF" /><path d="M555.4 622h55v32h-55z" fill="#D3E6F8" /><path d="M512 819.2c-43.8 0-79.4-35.6-79.4-79.4v-79.4h158.8v79.4c0 43.8-35.6 79.4-79.4 79.4z" fill="#FD919E" /><path d="M538.8 814.6c30.6-11 52.6-40.4 52.6-74.8v-79.4h-52.6v154.2z" fill="#E8677D" /><path d="M512 774.6c-19.2 0-34.8-15.6-34.8-34.8 0-19.2 15.6-34.8 34.8-34.8 19.2 0 34.8 15.6 34.8 34.8 0 19.2-15.6 34.8-34.8 34.8z" fill="#FFFFFF" /><path d="M205.2 253H11.8c-6.4 0-11.8-5.2-11.8-11.8 0-6.4 5.2-11.8 11.8-11.8h193.4c6.4 0 11.8 5.2 11.8 11.8 0 6.6-5.4 11.8-11.8 11.8zM1012.2 253h-193.4c-6.4 0-11.8-5.2-11.8-11.8 0-6.4 5.2-11.8 11.8-11.8h193.4c6.4 0 11.8 5.2 11.8 11.8 0 6.6-5.2 11.8-11.8 11.8z" fill="#4C4372" /><path d="M494.2 544.2h35.6v71.2h-35.6z" fill="#FFFFFF" /><path d="M512 544.2h18.2v73.4H512zM566.4 508.2h-108.8c-28.4 0-51.2-23-51.2-51.2v-195.2c0-28.4 23-51.2 51.2-51.2h108.8c28.4 0 51.2 23 51.2 51.2v195.2c0 28.2-22.8 51.2-51.2 51.2z" fill="#D3E6F8" /><path d="M617.6 459.8V258.6c-1.2-21.2-15.2-39-34.4-45.6h-18.8V508h2.2c27.2 0.2 49.4-21.2 51-48.2z" fill="#A4CFF2" /><path d="M457.6 210.4h108.8v121.2c0 19.8-16.2 36-36 36h-36.8c-19.8 0-36-16.2-36-36v-121.2z" fill="#FD919E" /><path d="M493.6 367.6h0.2v-154.4h-36.2v118.4c0 19.8 16.2 36 36 36z" fill="#E8677D" /><path d="M106.6 204.8c14.4 0 26 11.6 26 26v48.2h-52v-48.2c0-14.4 11.8-26 26-26z" fill="#A4CFF2" /><path d="M117 275.8h16v-45c0-10-5.6-18.8-14-23h-2v68z" fill="#7BABF1" /><path d="M132.8 290.8H80.6c-6.4 0-11.8-5.2-11.8-11.8v-48.2c0-20.8 17-37.8 37.8-37.8s37.8 17 37.8 37.8v48.2c0 6.4-5.2 11.8-11.6 11.8z m-40.4-23.6h28.6v-36.4c0-7.8-6.4-14.4-14.4-14.4s-14.4 6.4-14.4 14.4v36.4z" fill="#4C4372" /><path d="M917.4 204.8c-14.4 0-26 11.6-26 26v48.2h52.2v-48.2c-0.2-14.4-12-26-26.2-26z" fill="#A4CFF2" /><path d="M927.4 275.8h16v-45c0-10-5.6-18.8-14-23h-2v68z" fill="#7BABF1" /><path d="M917.4 416.2c-26 0-47-21-47-47v-90.2h94v90.2c0 25.8-21.2 47-47 47zM106.6 416.2c26 0 47-21 47-47v-90.2h-94v90.2c0 25.8 21.2 47 47 47z" fill="#D3E6F8" /><path d="M150.4 279H115v133.4h10c11.6-5 20.8-14.4 25.4-26.2v-107.2zM961 279h-35.4v133.4h10c11.6-5 20.8-14.4 25.4-26.2v-107.2z" fill="#A4CFF2" /><path d="M106.6 416.2c-6.4 0-12.6-1.4-18.4-3.6v74.6c0 10.2 8.2 18.4 18.4 18.4s18.4-8.2 18.4-18.4v-74.6c-5.6 2.2-11.8 3.6-18.4 3.6zM917.4 416.2c6.4 0 12.6-1.4 18.4-3.6v74.6c0 10.2-8.2 18.4-18.4 18.4s-18.4-8.2-18.4-18.4v-74.6c5.6 2.2 11.8 3.6 18.4 3.6z" fill="#7BABF1" /><path d="M459.8 439.8m-18.6 0a18.6 18.6 0 1 0 37.2 0 18.6 18.6 0 1 0-37.2 0Z" fill="#FFFFFF" /><path d="M564.2 439.8m-18.6 0a18.6 18.6 0 1 0 37.2 0 18.6 18.6 0 1 0-37.2 0Z" fill="#FFFFFF" /><path d="M467.6 508.2h88.8v36h-88.8z" fill="#7BABF1" /><path d="M153.8 310.4h252.6v71.4H153.8zM870.35 381.69h-252.6v-71.4h252.6z" fill="#A4CFF2" /><path d="M566.4 519.8h-108.8c-34.8 0-63-28.2-63-63v-195.2c0-34.8 28.2-63 63-63h108.8c34.8 0 63 28.2 63 63v195.2c0 34.8-28.2 63-63 63zM457.6 222c-21.8 0-39.6 17.8-39.6 39.6v195.2c0 21.8 17.8 39.6 39.6 39.6h108.8c21.8 0 39.6-17.8 39.6-39.6v-195.2c0-21.8-17.8-39.6-39.6-39.6h-108.8z" fill="#4C4372" /><path d="M406.4 393.4H153.8c-6.4 0-11.8-5.2-11.8-11.8v-71.4c0-6.4 5.2-11.8 11.8-11.8h252.6c6.4 0 11.8 5.2 11.8 11.8v71.4c-0.2 6.6-5.4 11.8-11.8 11.8zM165.4 370h229.2v-48H165.4v48z" fill="#4C4372" /><path d="M406.4 359.2H153.8c-6.4 0-11.8-5.2-11.8-11.8s5.2-11.8 11.8-11.8h252.6c6.4 0 11.8 5.2 11.8 11.8s-5.4 11.8-11.8 11.8zM530.4 379.2h-36.8c-26.4 0-47.8-21.4-47.8-47.8v-121.2c0-6.4 5.2-11.8 11.8-11.8h108.8c6.4 0 11.8 5.2 11.8 11.8v121.2c0 26.4-21.6 47.8-47.8 47.8zM469.4 222v109.4c0 13.4 11 24.4 24.4 24.4h36.8c13.4 0 24.4-11 24.4-24.4V222h-85.6zM106.6 517.2c-16.6 0-30-13.4-30-30v-74.6c0-4 2-7.6 5.2-9.8 3.2-2.2 7.4-2.6 11-1 8.6 3.6 18.8 3.6 27.4 0 3.6-1.6 7.8-1.2 11 1s5.2 5.8 5.2 9.8v74.6c0.4 16.4-13.2 30-29.8 30z m-6.4-89.8v59.6c0 3.6 3 6.6 6.6 6.6s6.6-3 6.6-6.6v-59.6c-4.4 0.6-9 0.6-13.2 0z" fill="#4C4372" /><path d="M106.6 427.8c-32.4 0-58.8-26.4-58.8-58.8v-90.2c0-6.4 5.2-11.8 11.8-11.8h94c6.4 0 11.8 5.2 11.8 11.8v90.2c0 32.4-26.4 58.8-58.8 58.8z m-35.2-137v78.4c0 19.4 15.8 35.4 35.4 35.4s35.2-16 35.2-35.6v-78.4H71.4zM870.2 393.4H617.6c-6.4 0-11.8-5.2-11.8-11.8v-71.4c0-6.4 5.2-11.8 11.8-11.8h252.6c6.4 0 11.8 5.2 11.8 11.8v71.4c0 6.6-5.2 11.8-11.8 11.8zM629.4 370h229.2v-48H629.4v48zM943.4 290.8h-52.2c-6.4 0-11.8-5.2-11.8-11.8v-48.2c0-20.8 17-37.8 37.8-37.8s37.8 17 37.8 37.8v48.2c0 6.4-5.2 11.8-11.6 11.8z m-40.4-23.6h28.6v-36.4c0-7.8-6.4-14.4-14.4-14.4s-14.4 6.4-14.4 14.4v36.4z" fill="#4C4372" /><path d="M870.2 359.2H617.6c-6.4 0-11.8-5.2-11.8-11.8s5.2-11.8 11.8-11.8h252.6c6.4 0 11.8 5.2 11.8 11.8s-5.2 11.8-11.8 11.8zM917.4 517.2c-16.6 0-30-13.4-30-30v-74.6c0-4 2-7.6 5.2-9.8 3.2-2.2 7.4-2.6 11-1 8.6 3.6 18.8 3.6 27.4 0 3.6-1.6 7.8-1.2 11 1s5.2 5.8 5.2 9.8v74.6c0.2 16.4-13.4 30-29.8 30z m-6.6-89.8v59.6c0 3.6 3 6.6 6.6 6.6 3.6 0 6.6-3 6.6-6.6v-59.6c-4.4 0.6-9 0.6-13.2 0z" fill="#4C4372" /><path d="M917.4 427.8c-32.4 0-58.8-26.4-58.8-58.8v-90.2c0-6.4 5.2-11.8 11.8-11.8h94c6.4 0 11.8 5.2 11.8 11.8v90.2c-0.2 32.4-26.4 58.8-58.8 58.8zM882 290.8v78.4c0 19.4 15.8 35.4 35.4 35.4 19.4 0 35.4-15.8 35.4-35.4v-78.4H882zM556.4 555.8h-88.8c-6.4 0-11.8-5.2-11.8-11.8v-36c0-6.4 5.2-11.8 11.8-11.8h88.8c6.4 0 11.8 5.2 11.8 11.8v36c0 6.6-5.4 11.8-11.8 11.8z m-77-23.4h65.4v-12.6h-65.4v12.6z" fill="#4C4372" /><path d="M529.8 627.2h-35.6c-6.4 0-11.8-5.2-11.8-11.8v-71.2c0-6.4 5.2-11.8 11.8-11.8h35.6c6.4 0 11.8 5.2 11.8 11.8v71.2c-0.2 6.4-5.4 11.8-11.8 11.8zM506 603.6h12v-47.8h-12v47.8zM459.8 470.2c-16.8 0-30.4-13.6-30.4-30.4 0-16.8 13.6-30.4 30.4-30.4 16.8 0 30.4 13.6 30.4 30.4-0.2 16.8-13.8 30.4-30.4 30.4z m0-37.2c-3.8 0-6.8 3-6.8 6.8s3 6.8 6.8 6.8 6.8-3 6.8-6.8-3-6.8-6.8-6.8zM564.2 470.2c-16.8 0-30.4-13.6-30.4-30.4 0-16.8 13.6-30.4 30.4-30.4 16.8 0 30.4 13.6 30.4 30.4 0 16.8-13.6 30.4-30.4 30.4z m0-37.2c-3.8 0-6.8 3-6.8 6.8s3 6.8 6.8 6.8 6.8-3 6.8-6.8c0.2-3.8-3-6.8-6.8-6.8zM512 831c-50.2 0-91.2-40.8-91.2-91.2v-79.4c0-6.4 5.2-11.8 11.8-11.8h158.8c6.4 0 11.8 5.2 11.8 11.8v79.4c0 50.2-41 91.2-91.2 91.2z m-67.6-158.8v67.6c0 37.4 30.4 67.6 67.6 67.6s67.6-30.4 67.6-67.6v-67.6h-135.2z" fill="#4C4372" /><path d="M512 786.2c-25.6 0-46.4-20.8-46.4-46.4 0-25.6 20.8-46.4 46.4-46.4s46.4 20.8 46.4 46.4c0 25.6-20.8 46.4-46.4 46.4z m0-69.4c-12.6 0-23 10.4-23 23s10.4 23 23 23 23-10.4 23-23-10.4-23-23-23z" fill="#4C4372" /><path d="M595.2 672.2h-166.4c-18.8 0-34.2-15.4-34.2-34.2s15.4-34.2 34.2-34.2h166.4c18.8 0 34.2 15.4 34.2 34.2s-15.4 34.2-34.2 34.2z m-166.4-45c-6 0-10.8 4.8-10.8 10.8s4.8 10.8 10.8 10.8h166.4c6 0 10.8-4.8 10.8-10.8s-4.8-10.8-10.8-10.8h-166.4z" fill="#4C4372" /></svg>