<?xml version="1.0" standalone="no"?><!DOCTYPE svg PUBLIC "-//W3C//DTD SVG 1.1//EN" "http://www.w3.org/Graphics/SVG/1.1/DTD/svg11.dtd"><svg class="icon" width="200px" height="200.00px" viewBox="0 0 1024 1024" version="1.1" xmlns="http://www.w3.org/2000/svg"><path d="M512 512m-414 0a414 414 0 1 0 828 0 414 414 0 1 0-828 0Z" fill="#F0C48A" /><path d="M512 512m-329.4 0a329.4 329.4 0 1 0 658.8 0 329.4 329.4 0 1 0-658.8 0Z" fill="#A4CFF2" /><path d="M512 182.6C330.2 182.6 182.6 330 182.6 512c0 90.6 36.6 172.6 95.8 232.2 53 36.4 117 57.6 186.2 57.6 181.8 0 329.4-147.4 329.4-329.4 0-90.6-36.6-172.6-95.8-232.2-53-36.2-117.2-57.6-186.2-57.6z" fill="#D3E6F8" /><path d="M915 366a84.2 48.6 90 1 0 97.2 0 84.2 48.6 90 1 0-97.2 0Z" fill="#E8677D" /><path d="M11.8 649.8a84.2 48.6 90 1 0 97.2 0 84.2 48.6 90 1 0-97.2 0Z" fill="#FD919E" /><path d="M512 396c-108.2 0-207.4-25.2-272.2-69.2-2.6-1.8-4.4-4.6-5-7.8-0.6-3.2 0.2-6.4 2.2-9 31-42.2 72-77.2 118.4-101.2 48-24.8 102.2-38 156.6-38 54.4 0 108.6 13.2 156.6 38 46.4 24 87.4 59 118.4 101.2 1.8 2.6 2.6 5.8 2.2 9-0.6 3.2-2.4 6-5 7.8-64.8 44-164 69.2-272.2 69.2z m-248.4-81.8c60.4 36.8 152.2 58.4 248.4 58.4 96.4 0 188-21.8 248.4-58.4-27.8-35-63.2-64-102.8-84.4-45.4-23.4-94.4-35.4-145.8-35.4s-100.4 11.8-145.8 35.4c-39.4 20.4-74.6 49.4-102.4 84.4z" fill="#4C4372" /><path d="M512 853C324 853 171 700 171 512S324 171 512 171 853 324 853 512 700 853 512 853z m0-658.6c-175.2 0-317.6 142.4-317.6 317.6S336.8 829.6 512 829.6 829.6 687.2 829.6 512 687.2 194.4 512 194.4z" fill="#4C4372" /><path d="M839.8 523H184.2c-6.4 0-11.8-5.2-11.8-11.8 0-6.4 5.2-11.8 11.8-11.8h655.4c6.4 0 11.8 5.2 11.8 11.8 0 6.6-5.2 11.8-11.6 11.8z" fill="#4C4372" /><path d="M512 853c-48.6 0-93.8-36.6-127-103-32-63.8-49.4-148.4-49.4-238.2s17.6-174.4 49.4-238.2c33.2-66.4 78.2-103 127-103 48.6 0 93.8 36.6 127 103 32 63.8 49.4 148.4 49.4 238.2s-17.6 174.4-49.4 238.2c-33.2 66.6-78.4 103-127 103z m0-658.6c-39.4 0-77 32-106 90-30.4 60.6-47 141.4-47 227.6s16.6 167 47 227.6c29 58 66.6 90 106 90s77-32 106-90c30.4-60.6 47-141.4 47-227.6s-16.6-167-47-227.6c-29-58-66.6-90-106-90z" fill="#4C4372" /><path d="M512 850.8c-6.4 0-11.8-5.2-11.8-11.8V183.6c0-6.4 5.2-11.8 11.8-11.8s11.8 5.2 11.8 11.8v655.4c0 6.4-5.4 11.8-11.8 11.8z" fill="#4C4372" /><path d="M334.871044 575.898838a158.6 91.6 44.999 1 0 129.539701-129.544224 158.6 91.6 44.999 1 0-129.539701 129.544224Z" fill="#A4CFF2" /><path d="M512 853c-54.4 0-108.6-13.2-156.6-38-46.4-24-87.4-59-118.4-101.2-1.8-2.6-2.6-5.8-2.2-9s2.4-6 5-7.8c64.8-44 164-69.2 272.2-69.2 108.2 0 207.4 25.2 272.2 69.2 2.6 1.8 4.4 4.6 5 7.8s-0.2 6.4-2.2 9c-31 42.2-72 77.2-118.4 101.2-48 25-102.2 38-156.6 38z m-248.4-143.2c27.8 35 63.2 64 102.8 84.4 45.4 23.4 94.4 35.4 145.8 35.4s100.4-11.8 145.8-35.4c39.6-20.4 74.8-49.6 102.8-84.4-60.4-36.8-152.2-58.4-248.4-58.4-96.8 0-188.4 21.6-248.8 58.4zM60.4 523.8c-6.4 0-11.8-5.2-11.8-11.8 0-123.8 48.2-240.2 135.8-327.6C271.8 96.8 388.2 48.6 512 48.6c6.4 0 11.8 5.2 11.8 11.8S518.4 72 512 72c-117.6 0-228 45.8-311 128.8C117.8 284 72 394.4 72 512c0 6.4-5.2 11.8-11.6 11.8z" fill="#4C4372" /><path d="M512 975.4c-6.4 0-11.8-5.2-11.8-11.8 0-6.4 5.2-11.8 11.8-11.8 117.6 0 228-45.8 311-128.8C906.2 740 952 629.6 952 512c0-6.4 5.2-11.8 11.8-11.8 6.4 0 11.8 5.2 11.8 11.8 0 123.8-48.2 240.2-135.8 327.6s-204 135.8-327.8 135.8zM464.6 641.2c-51.2 0-101.2-20-138.2-57-49-49-68.4-121.2-50.4-188.2 1-4 4.2-7.2 8.4-8.4 67.2-18 139.2 1.4 188.2 50.4s68.4 121.2 50.4 188.2c-1 4-4.2 7.2-8.4 8.4-16.4 4.4-33.2 6.6-50 6.6z m-167.6-232.6c-12.8 57.2 4.4 117.4 46 159 41.6 41.6 101.8 58.8 159 46 12.8-57.2-4.4-117.4-46-159-41.4-41.4-101.8-58.8-159-46zM963.6 462c-2 0-4-0.6-5.8-1.6-33.6-19.4-54.4-55.6-54.4-94.4 0-38.8 20.8-75 54.4-94.4 3.6-2.2 8.2-2.2 11.8 0 33.6 19.4 54.4 55.6 54.4 94.4 0 38.8-20.8 75-54.4 94.4-2 1-4 1.6-6 1.6z m0-166.4c-23 15.8-37 42.2-37 70.4 0 28 14 54.4 37 70.4 23-15.8 37-42.2 37-70.4 0-28.2-14-54.6-37-70.4zM60.4 745.8c-2 0-4-0.6-5.8-1.6C20.8 724.8 0 688.6 0 649.8s20.8-75 54.4-94.4c3.6-2.2 8.2-2.2 11.8 0 33.6 19.4 54.4 55.6 54.4 94.4 0 38.8-20.8 75-54.4 94.4-1.8 1-3.8 1.6-5.8 1.6z m0-166.4c-23 15.8-37 42.2-37 70.4 0 28 14 54.4 37 70.4 23-15.8 37-42.2 37-70.4s-14.2-54.4-37-70.4z" fill="#4C4372" /><path d="M512.33038 623.367502a91.6 158.6 44.999 1 0 224.290356-224.298186 91.6 158.6 44.999 1 0-224.290356 224.298186Z" fill="#7BABF1" /><path d="M559.4 641.2c-16.8 0-33.6-2.2-50.2-6.6-4-1-7.2-4.2-8.4-8.4-18-67.2 1.4-139.2 50.4-188.2s121.2-68.4 188.2-50.4c4 1 7.2 4.2 8.4 8.4 18 67.2-1.4 139.2-50.4 188.2-36.8 37-86.8 57-138 57zM522 613.6c57.2 12.8 117.4-4.4 159-46 41.6-41.6 58.8-101.8 46-159-57.2-12.8-117.4 4.4-159 46-41.6 41.6-58.8 101.8-46 159z" fill="#4C4372" /><path d="M512 634.2c-4 0-7.8-2-9.8-5.4-30.2-47.2-99.4-103.2-100-103.6-5-4-5.8-11.4-1.8-16.4 4-5 11.4-5.8 16.4-1.8 2.6 2.2 60.4 48.8 95.2 95 17-23.6 55-72 105.6-109.2 5.2-3.8 12.6-2.8 16.4 2.6 3.8 5.2 2.8 12.6-2.6 16.4-64.6 47.4-109 116.4-109.4 117.2-2.2 3.2-6 5.2-10 5.2z" fill="#4C4372" /></svg>