<?xml version="1.0" standalone="no"?><!DOCTYPE svg PUBLIC "-//W3C//DTD SVG 1.1//EN" "http://www.w3.org/Graphics/SVG/1.1/DTD/svg11.dtd"><svg class="icon" width="200px" height="200.00px" viewBox="0 0 1024 1024" version="1.1" xmlns="http://www.w3.org/2000/svg"><path d="M512 512m-414 0a414 414 0 1 0 828 0 414 414 0 1 0-828 0Z" fill="#F0C48A" /><path d="M759.2 11.8l-162 162h81l-62 173.8 189.8-168h-87.4z" fill="#FD919E" /><path d="M616.2 359.2c-2.2 0-4.6-0.6-6.6-2-4.4-3-6.2-8.6-4.4-13.6l56.4-158h-64.4c-4.8 0-9-2.8-10.8-7.2s-0.8-9.4 2.6-12.8l162-162c3.8-3.8 9.4-4.6 14-2 4.6 2.6 6.8 7.8 5.6 13L733.4 168H806c4.8 0 9.2 3 11 7.6 1.8 4.6 0.4 9.8-3.2 13l-189.8 168c-2.2 1.6-5 2.6-7.8 2.6z m9.4-197.2h52.8c3.8 0 7.4 1.8 9.6 5 2.2 3.2 2.8 7.2 1.4 10.6l-46.8 130.8 132.4-117.2h-56.4c-3.6 0-7-1.6-9.2-4.4-2.2-2.8-3-6.6-2.2-10L738 49.6 625.6 162z" fill="#4C4372" /><path d="M378.2 715.6h58.8v296.8h-58.8z" fill="#FFFFFF" /><path d="M411.6 715.6h25.4v296.8h-25.4z" fill="#D3E6F8" /><path d="M314.8 211.6c-15.6 0-28.4 12.8-28.4 28.4v137.6h56.8V240c0-15.6-12.8-28.4-28.4-28.4zM500.4 211.6c-15.6 0-28.4 12.8-28.4 28.4v137.6h56.8V240c0-15.6-12.6-28.4-28.4-28.4z" fill="#FFFFFF" /><path d="M565.6 440.8h-316c-17.4 0-31.6-14.2-31.6-31.6 0-17.4 14.2-31.6 31.6-31.6h316c17.4 0 31.6 14.2 31.6 31.6 0 17.6-14.2 31.6-31.6 31.6z" fill="#D3E6F8" /><path d="M428 715.6h-41c-21 0-37.8-17-37.8-37.8V664H466v13.8c0 20.8-17 37.8-38 37.8z" fill="#7BABF1" /><path d="M486.2 663.8h-157c-34.4 0-62.2-27.8-62.2-62.2v-160.8h281.6v160.8c-0.2 34.4-28.2 62.2-62.4 62.2z" fill="#FD919E" /><path d="M428 727.2h-41c-27.4 0-49.6-22.2-49.6-49.6v-13.8c0-6.4 5.2-11.8 11.8-11.8H466c6.4 0 11.8 5.2 11.8 11.8v13.8c-0.2 27.4-22.4 49.6-49.8 49.6z m-67-51.6v2.2c0 14.4 11.8 26.2 26.2 26.2H428c14.4 0 26.2-11.8 26.2-26.2v-2.2h-93.2z" fill="#4C4372" /><path d="M378.2 1024c-6.4 0-11.8-5.2-11.8-11.8V715.6c0-6.4 5.2-11.8 11.8-11.8s11.8 5.2 11.8 11.8v296.8c0 6.4-5.4 11.6-11.8 11.6zM437 1024c-6.4 0-11.8-5.2-11.8-11.8V715.6c0-6.4 5.2-11.8 11.8-11.8s11.8 5.2 11.8 11.8v296.8c-0.2 6.4-5.4 11.6-11.8 11.6z" fill="#4C4372" /><path d="M566.8 438.2h-111.6v-60.6h111.6c16.8 0 30.2 13.6 30.2 30.2 0.2 16.8-13.4 30.4-30.2 30.4z" fill="#A4CFF2" /><path d="M565.6 452.6h-316c-23.8 0-43.4-19.4-43.4-43.4 0-23.8 19.4-43.4 43.4-43.4h316c23.8 0 43.4 19.4 43.4 43.4-0.2 24-19.6 43.4-43.4 43.4z m-316-63.2c-11 0-19.8 9-19.8 19.8 0 11 9 19.8 19.8 19.8h316c11 0 19.8-9 19.8-19.8 0-11-9-19.8-19.8-19.8h-316z" fill="#4C4372" /><path d="M315.2 218H336v153.4h-20.8zM500.4 218h20.8v153.4h-20.8z" fill="#D3E6F8" /><path d="M343.2 389.4h-56.8c-6.4 0-11.8-5.2-11.8-11.8V240c0-22.2 18-40.2 40.2-40.2 22.2 0 40.2 18 40.2 40.2v137.6c-0.2 6.6-5.4 11.8-11.8 11.8zM298 366h33.4v-126c0-9.2-7.4-16.6-16.6-16.6-9.2 0-16.6 7.4-16.6 16.6v126zM528.8 389.4H472c-6.4 0-11.8-5.2-11.8-11.8V240c0-22.2 18-40.2 40.2-40.2 22.2 0 40.2 18 40.2 40.2v137.6c0 6.6-5.4 11.8-11.8 11.8zM483.8 366h33.4v-126c0-9.2-7.4-16.6-16.6-16.6s-16.6 7.4-16.6 16.6v126z" fill="#4C4372" /><path d="M497 663.8h1.2c26.2 0 47.6-21.2 47.6-47.6v-169.2h-48.8v216.8z" fill="#E8677D" /><path d="M486.2 675.6h-157c-40.8 0-74-33.2-74-74v-160.8c0-6.4 5.2-11.8 11.8-11.8h281.6c6.4 0 11.8 5.2 11.8 11.8v160.8c-0.4 40.8-33.4 74-74.2 74zM278.6 452.6v149c0 27.8 22.6 50.6 50.6 50.6h157c27.8 0 50.6-22.6 50.6-50.6v-149H278.6z" fill="#4C4372" /><path d="M489.6 512h-164c-6.4 0-11.8-5.2-11.8-11.8 0-6.4 5.2-11.8 11.8-11.8h164c6.4 0 11.8 5.2 11.8 11.8-0.2 6.6-5.4 11.8-11.8 11.8z" fill="#4C4372" /><path d="M489.6 560h-164c-6.4 0-11.8-5.2-11.8-11.8 0-6.4 5.2-11.8 11.8-11.8h164c6.4 0 11.8 5.2 11.8 11.8-0.2 6.4-5.4 11.8-11.8 11.8z" fill="#4C4372" /><path d="M489.6 607.8h-164c-6.4 0-11.8-5.2-11.8-11.8 0-6.4 5.2-11.8 11.8-11.8h164c6.4 0 11.8 5.2 11.8 11.8-0.2 6.6-5.4 11.8-11.8 11.8z" fill="#4C4372" /></svg>