<?xml version="1.0" standalone="no"?><!DOCTYPE svg PUBLIC "-//W3C//DTD SVG 1.1//EN" "http://www.w3.org/Graphics/SVG/1.1/DTD/svg11.dtd"><svg class="icon" width="200px" height="200.00px" viewBox="0 0 1024 1024" version="1.1" xmlns="http://www.w3.org/2000/svg"><path d="M512 512m-414 0a414 414 0 1 0 828 0 414 414 0 1 0-828 0Z" fill="#F0C48A" /><path d="M600.2 11.8h-176.4l-20.2 216.8h216.8z" fill="#FD919E" /><path d="M624.2 795.4H399.8c-15.8 0-28.6-12.8-28.6-28.6V257.2c0-15.8 12.8-28.6 28.6-28.6h224.4c15.8 0 28.6 12.8 28.6 28.6v509.6c0 15.8-12.8 28.6-28.6 28.6z" fill="#D3E6F8" /><path d="M598.2 293.8h52.4V252c0-13-10.6-23.4-23.4-23.4h-29v65.2zM598.2 730.2h52.4V772c0 13-10.6 23.4-23.4 23.4h-29v-65.2z" fill="#A4CFF2" /><path d="M600.2 1012.2h-176.4l-20.2-216.8h216.8z" fill="#FD919E" /><path d="M600.2 11.8h-41.8l20.2 216.8h41.8zM600.2 1012.2h-41.8l20.2-216.8h41.8z" fill="#E8677D" /><path d="M624.2 807.2H399.8c-22.2 0-40.4-18-40.4-40.4V257.2c0-22.2 18-40.4 40.4-40.4h224.4c22.2 0 40.4 18 40.4 40.4v509.6c-0.2 22.2-18.2 40.4-40.4 40.4zM399.8 240.2c-9.2 0-16.8 7.6-16.8 16.8v509.6c0 9.2 7.6 16.8 16.8 16.8h224.4c9.2 0 16.8-7.6 16.8-16.8V257.2c0-9.2-7.6-16.8-16.8-16.8H399.8z" fill="#4C4372" /><path d="M600.2 1024h-176.4c-6 0-11.2-4.6-11.6-10.6L392 796.6c-0.4-3.2 0.8-6.6 3-9 2.2-2.4 5.4-3.8 8.6-3.8h216.8c3.2 0 6.4 1.4 8.6 3.8 2.2 2.4 3.4 5.8 3 9l-20.2 216.8c-0.6 6-5.6 10.6-11.6 10.6z m-165.6-23.4h155l18-193.4h-191.2l18.2 193.4zM620.4 240.2H403.6c-3.2 0-6.4-1.4-8.6-3.8-2.2-2.4-3.4-5.8-3-9L412.2 10.6c0.6-6 5.6-10.6 11.6-10.6h176.4c6 0 11.2 4.6 11.6 10.6L632 227.4c0.4 3.2-0.8 6.6-3 9-2.2 2.6-5.2 3.8-8.6 3.8z m-204-23.4h191.2l-18-193.4h-155l-18.2 193.4z" fill="#4C4372" /><path d="M670 729.2H354c-32.6 0-59-26.4-59-59V354c0-32.6 26.4-59 59-59h316c32.6 0 59 26.4 59 59v316c0.2 32.6-26.4 59.2-59 59.2z" fill="#A4CFF2" /><path d="M656.8 727.2h11.6c33.6 0 60.8-27.2 60.8-60.8v-312c0-33.6-27.2-60.8-60.8-60.8h-11.6v433.6z" fill="#7BABF1" /><path d="M670 740.8H354c-39 0-70.8-31.8-70.8-70.8V354c0-39 31.8-70.8 70.8-70.8h316c39 0 70.8 31.8 70.8 70.8v316c0 39-31.8 70.8-70.8 70.8zM354 306.6c-26.2 0-47.4 21.2-47.4 47.4v316c0 26.2 21.2 47.4 47.4 47.4h316c26.2 0 47.4-21.2 47.4-47.4V354c0-26.2-21.2-47.4-47.4-47.4H354z" fill="#4C4372" /><path d="M497.6 692.2c-4.2 0-8.2-2.4-10.2-6.2l-21.2-38.8-8.2 8.2c-2.2 2.2-5.2 3.4-8.2 3.4h-45.2c-6.4 0-11.8-5.2-11.8-11.8 0-6.4 5.2-11.8 11.8-11.8h40.2l15.8-15.8c2.6-2.6 6.4-3.8 10-3.4 3.6 0.6 6.8 2.8 8.6 6l16 29.4 19.8-56.2c1.6-4.4 5.6-7.4 10.2-7.8 4.6-0.4 9 2 11.2 6.2l18.2 34.2h64.4c6.4 0 11.8 5.2 11.8 11.8 0 6.4-5.2 11.8-11.8 11.8h-71.6c-4.4 0-8.4-2.4-10.4-6.2l-9-16.8-19.8 55.8c-1.6 4.4-5.6 7.4-10.2 7.8 0.4 0.2 0 0.2-0.4 0.2z" fill="#4C4372" /><path d="M423.2 389.8c-20 20-20 52.6 0 72.6l88.8 88.8 88.8-88.8c20-20 20-52.6 0-72.6-20-20-52.6-20-72.6 0L512 406l-16.2-16.2c-20-20-52.6-20-72.6 0z" fill="#E8677D" /><path d="M583.2 441.6c15.6-15.6 19.2-39 10.2-58-20-13.6-47.4-11.6-65.2 6.2L512 406l-16.2-16.2c-20-20-52.6-20-72.6 0-16.4 16.4-19.4 41.2-9 60.6l80 80 89-88.8z" fill="#FD919E" /><path d="M512 563c-3.2 0-6-1.2-8.2-3.4l-88.8-88.8c-24.6-24.6-24.6-64.6 0-89.2 24.6-24.6 64.6-24.6 89.2 0l7.8 7.8 7.8-7.8c24.6-24.6 64.6-24.6 89.2 0 12 12 18.4 27.8 18.4 44.6s-6.6 32.6-18.4 44.6l-88.8 88.8c-2.2 2.2-5 3.4-8.2 3.4z m-52.4-176.6c-10.2 0-20.2 3.8-28 11.6-15.4 15.4-15.4 40.6 0 56l80.6 80.6 80.6-80.6c7.4-7.4 11.6-17.4 11.6-28 0-10.6-4.2-20.6-11.6-28-15.4-15.4-40.6-15.4-56 0l-16.2 16.2c-2.2 2.2-5.2 3.4-8.2 3.4-3.2 0-6-1.2-8.2-3.4L488 398c-8.2-7.6-18.4-11.6-28.4-11.6z" fill="#4C4372" /></svg>