<?xml version="1.0" standalone="no"?><!DOCTYPE svg PUBLIC "-//W3C//DTD SVG 1.1//EN" "http://www.w3.org/Graphics/SVG/1.1/DTD/svg11.dtd"><svg class="icon" width="200px" height="200.00px" viewBox="0 0 1024 1024" version="1.1" xmlns="http://www.w3.org/2000/svg"><path d="M512 512m-414 0a414 414 0 1 0 828 0 414 414 0 1 0-828 0Z" fill="#F0C48A" /><path d="M184.6 217.6v207.4c0 51.2 41.4 92.6 92.6 92.6 51.2 0 92.6-41.4 92.6-92.6v-90.8l-185.2-116.6zM851.8 217.6v207.4c0 51.2-41.4 92.6-92.6 92.6-51.2 0-92.6-41.4-92.6-92.6v-90.8l185.2-116.6z" fill="#7BABF1" /><path d="M277.2 529.4c-57.4 0-104.2-46.8-104.2-104.2V217.6c0-4.2 2.4-8.2 6-10.2 3.8-2 8.4-2 12 0.4l185 116.4c3.4 2.2 5.4 5.8 5.4 10v90.8c0.2 57.6-46.6 104.4-104.2 104.4zM196.4 239v186.2c0 44.6 36.2 80.8 80.8 80.8s80.8-36.2 80.8-80.8v-84.4l-161.6-101.8zM759.2 529.4c-57.4 0-104.2-46.8-104.2-104.2v-90.8c0-4 2-7.8 5.4-10l185-116.4c3.6-2.2 8.2-2.4 12-0.4 3.8 2 6 6 6 10.2v207.4c0 57.4-46.8 104.2-104.2 104.2z m-80.8-188.8v84.4c0 44.6 36.2 80.8 80.8 80.8 44.6 0 80.8-36.2 80.8-80.8v-186.2l-161.6 101.8z" fill="#4C4372" /><path d="M707.6 361.8H328.8c-79.6 0-144.2-64.6-144.2-144.2s64.6-144.2 144.2-144.2h378.8c79.6 0 144.2 64.6 144.2 144.2s-64.6 144.2-144.2 144.2z" fill="#7BABF1" /><path d="M805 217.6c0-79.6-64.6-144.2-144.2-144.2h-332c-79.6 0-144.2 64.6-144.2 144.2s64.6 144.2 144.2 144.2h332c79.6 0 144.2-64.6 144.2-144.2z" fill="#A4CFF2" /><path d="M479 304h-40.2c-9.2 0-16.6-7.4-16.6-16.6 0-9.2 7.4-16.6 16.6-16.6h40.2c9.2 0 16.6 7.4 16.6 16.6 0 9.2-7.4 16.6-16.6 16.6zM597.6 304h-40.2c-9.2 0-16.6-7.4-16.6-16.6 0-9.2 7.4-16.6 16.6-16.6h40.2c9.2 0 16.6 7.4 16.6 16.6 0 9.2-7.4 16.6-16.6 16.6z" fill="#7BABF1" /><path d="M414.2 189.8h-52.6V137.4H306v52.4h-52.6v55.6H306V298h55.6v-52.6h52.6z" fill="#FD919E" /><path d="M702.6 160m-22.8 0a22.8 22.8 0 1 0 45.6 0 22.8 22.8 0 1 0-45.6 0Z" fill="#FD919E" /><path d="M702.6 275.2m-22.8 0a22.8 22.8 0 1 0 45.6 0 22.8 22.8 0 1 0-45.6 0Z" fill="#FD919E" /><path d="M760.2 217.6m-22.8 0a22.8 22.8 0 1 0 45.6 0 22.8 22.8 0 1 0-45.6 0Z" fill="#FD919E" /><path d="M645 217.6m-22.8 0a22.8 22.8 0 1 0 45.6 0 22.8 22.8 0 1 0-45.6 0Z" fill="#FD919E" /><path d="M707.6 373.6H328.8c-86 0-155.8-70-155.8-155.8s70-156 155.8-156h378.8c86 0 155.8 70 155.8 155.8s-69.8 156-155.8 156zM328.8 85.2c-73 0-132.4 59.4-132.4 132.4s59.4 132.4 132.4 132.4h378.8c73 0 132.4-59.4 132.4-132.4s-59.4-132.4-132.4-132.4H328.8z" fill="#4C4372" /><path d="M479 315.8h-40.2c-15.6 0-28.4-12.8-28.4-28.4 0-15.6 12.8-28.4 28.4-28.4h40.2c15.6 0 28.4 12.8 28.4 28.4 0 15.6-12.8 28.4-28.4 28.4z m-40.2-33.4c-2.8 0-5 2.2-5 5s2.2 5 5 5h40.2c2.8 0 5-2.2 5-5s-2.2-5-5-5h-40.2zM597.6 315.8h-40.2c-15.6 0-28.4-12.8-28.4-28.4 0-15.6 12.8-28.4 28.4-28.4h40.2c15.6 0 28.4 12.8 28.4 28.4 0 15.6-12.8 28.4-28.4 28.4z m-40-33.4c-2.8 0-5 2.2-5 5s2.2 5 5 5h40.2c2.8 0 5-2.2 5-5s-2.2-5-5-5h-40.2z" fill="#4C4372" /><path d="M702.6 194.6c-19 0-34.4-15.4-34.4-34.4s15.4-34.4 34.4-34.4 34.4 15.4 34.4 34.4-15.4 34.4-34.4 34.4z m0-45.6c-6 0-11 5-11 11s5 11 11 11 11-5 11-11-4.8-11-11-11zM702.6 309.8c-19 0-34.4-15.4-34.4-34.4s15.4-34.4 34.4-34.4 34.4 15.4 34.4 34.4c0.2 18.8-15.4 34.4-34.4 34.4z m0-45.6c-6 0-11 5-11 11s5 11 11 11 11-5 11-11-4.8-11-11-11zM760.2 252.2c-19 0-34.4-15.4-34.4-34.4s15.4-34.4 34.4-34.4 34.4 15.4 34.4 34.4c0.2 18.8-15.4 34.4-34.4 34.4z m0-45.6c-6 0-11 5-11 11s5 11 11 11 11-5 11-11-4.8-11-11-11zM645 252.2c-19 0-34.4-15.4-34.4-34.4s15.4-34.4 34.4-34.4 34.4 15.4 34.4 34.4c0.2 18.8-15.4 34.4-34.4 34.4z m0-45.6c-6 0-11 5-11 11s5 11 11 11 11-5 11-11-4.8-11-11-11z" fill="#4C4372" /><path d="M389.4 189.6H414v56h-24.6z" fill="#E8677D" /><path d="M361.6 309.8H306c-6.4 0-11.8-5.2-11.8-11.8v-40.8h-40.8c-6.4 0-11.8-5.2-11.8-11.8V189.8c0-6.4 5.2-11.8 11.8-11.8h40.8V137.4c0-6.4 5.2-11.8 11.8-11.8h55.6c6.4 0 11.8 5.2 11.8 11.8v40.8h40.8c6.4 0 11.8 5.2 11.8 11.8v55.6c0 6.4-5.2 11.8-11.8 11.8h-40.8V298c0 6.4-5.2 11.8-11.8 11.8z m-44-23.6H350v-40.8c0-6.4 5.2-11.8 11.8-11.8h40.8v-32.2h-40.8c-6.4 0-11.8-5.2-11.8-11.8V149h-32.2v40.8c0 6.4-5.2 11.8-11.8 11.8h-40.8v32.2H306c6.4 0 11.8 5.2 11.8 11.8v40.6z" fill="#4C4372" /><path d="M75 714.8h868v87.8h-868z" fill="#FFFFFF" /><path d="M11.8 802.4h1000.6v148H11.8z" fill="#FD919E" /><path d="M897.2 797.4h115.2v158h-115.2z" fill="#E8677D" /><path d="M827.8 710.8h115.2v91.6h-115.2z" fill="#D3E6F8" /><path d="M11.8 566.8h1000.6v148H11.8z" fill="#FD919E" /><path d="M897.2 556.8h115.2v158h-115.2z" fill="#E8677D" /><path d="M913.8 639.8m-33.8 0a33.8 33.8 0 1 0 67.6 0 33.8 33.8 0 1 0-67.6 0Z" fill="#E8677D" /><path d="M1012.2 726.4H11.8c-6.4 0-11.8-5.2-11.8-11.8v-148c0-6.4 5.2-11.8 11.8-11.8h1000.6c6.4 0 11.8 5.2 11.8 11.8v148c-0.2 6.6-5.4 11.8-12 11.8zM23.4 703h977v-124.6H23.4v124.6zM1012.2 962.2H11.8c-6.4 0-11.8-5.2-11.8-11.8v-148c0-6.4 5.2-11.8 11.8-11.8h1000.6c6.4 0 11.8 5.2 11.8 11.8v148c-0.2 6.6-5.4 11.8-12 11.8zM23.4 938.8h977v-124.6H23.4v124.6z" fill="#4C4372" /><path d="M942.8 814.2h-868c-6.4 0-11.8-5.2-11.8-11.8v-87.8c0-6.4 5.2-11.8 11.8-11.8h868c6.4 0 11.8 5.2 11.8 11.8v87.8c0 6.6-5.2 11.8-11.8 11.8zM86.6 790.8h844.6v-64.2H86.6v64.2zM913.8 685.4c-25 0-45.4-20.4-45.4-45.6 0-25 20.4-45.4 45.4-45.4s45.4 20.4 45.4 45.4c0 25.2-20.4 45.6-45.4 45.6z m0-67.6c-12.2 0-22 9.8-22 22s9.8 22 22 22 22-9.8 22-22c0-12-10-22-22-22z" fill="#4C4372" /></svg>