<?xml version="1.0" standalone="no"?><!DOCTYPE svg PUBLIC "-//W3C//DTD SVG 1.1//EN" "http://www.w3.org/Graphics/SVG/1.1/DTD/svg11.dtd"><svg class="icon" width="200px" height="200.00px" viewBox="0 0 1024 1024" version="1.1" xmlns="http://www.w3.org/2000/svg"><path d="M512 512m-414 0a414 414 0 1 0 828 0 414 414 0 1 0-828 0Z" fill="#F0C48A" /><path d="M235.6 521.6h555v450H235.6z" fill="#D3E6F8" /><path d="M736.2 525.4h54.4v446.2h-54.4z" fill="#A4CFF2" /><path d="M296.6 971.6V660h168.2v311.6" fill="#FD919E" /><path d="M521.2 660h208.4v133H521.2z" fill="#FFFFFF" /><path d="M790.8 983.4H235.6c-6.4 0-11.8-5.2-11.8-11.8v-450c0-6.4 5.2-11.8 11.8-11.8h555c6.4 0 11.8 5.2 11.8 11.8v450c0 6.4-5.2 11.8-11.6 11.8z m-543.4-23.6h531.6V533.2H247.4v426.6z" fill="#4C4372" /><path d="M464.8 983.4c-6.4 0-11.8-5.2-11.8-11.8V671.8h-144.8v299.8c0 6.4-5.2 11.8-11.8 11.8s-11.8-5.2-11.8-11.8V660c0-6.4 5.2-11.8 11.8-11.8h168.2c6.4 0 11.8 5.2 11.8 11.8v311.6c0.2 6.4-5 11.8-11.6 11.8z" fill="#4C4372" /><path d="M599 669.6h17.4v112.8h-17.4zM702.4 669.6h17.4v112.8h-17.4z" fill="#D3E6F8" /><path d="M729.8 804.6H521.2c-6.4 0-11.8-5.2-11.8-11.8V660c0-6.4 5.2-11.8 11.8-11.8h208.4c6.4 0 11.8 5.2 11.8 11.8v133c0 6.4-5.2 11.6-11.6 11.6z m-196.8-23.4H718v-109.4h-185v109.4z" fill="#4C4372" /><path d="M625.4 804.6c-6.4 0-11.8-5.2-11.8-11.8V660c0-6.4 5.2-11.8 11.8-11.8 6.4 0 11.8 5.2 11.8 11.8v133c0 6.4-5.2 11.6-11.8 11.6z" fill="#4C4372" /><path d="M745.701656 237.096692a113.4 113.4 0 1 0 36.335293-223.870468 113.4 113.4 0 1 0-36.335293 223.870468Z" fill="#FD919E" /><path d="M763.8 317m-35.2 0a35.2 35.2 0 1 0 70.4 0 35.2 35.2 0 1 0-70.4 0Z" fill="#FD919E" /><path d="M763.8 250.4c-69 0-125.2-56.2-125.2-125.2S694.8 0 763.8 0s125.2 56.2 125.2 125.2-56.2 125.2-125.2 125.2z m0-227c-56 0-101.8 45.6-101.8 101.8s45.6 101.8 101.8 101.8c56 0 101.8-45.6 101.8-101.8s-45.8-101.8-101.8-101.8z" fill="#4C4372" /><path d="M763.8 364c-25.8 0-47-21-47-47 0-25.8 21-47 47-47s47 21 47 47c0 25.8-21.2 47-47 47z m0-70.4c-13 0-23.4 10.6-23.4 23.4 0 13 10.6 23.4 23.4 23.4 13 0 23.4-10.6 23.4-23.4 0-13-10.4-23.4-23.4-23.4z" fill="#4C4372" /><path d="M676.2 125.2c0-18 15.2-32.8 33.4-32.8 8 0 15.4 2.6 21 7.2 2.2 1.8 2.6 5 1 7.4-1.8 2.2-5.2 2.6-7.4 1-4-3.2-9-5-14.6-5-6.2 0-12.2 2.6-16.4 6.6-4.2 4.2-6.6 9.6-6.6 15.8 0 6.2 2.6 11.8 6.6 15.8 4.2 4 10.2 6.6 16.4 6.6 5.6 0 10.6-1.8 14.6-5 2-1.6 5.4-1.2 7.4 1 1.6 2.2 1.2 5.6-1 7.4-5.8 4.4-13 7.2-21 7.2-18.2-0.4-33.4-15-33.4-33.2zM798 102c5.6 6 9.2 14 9.2 23s-3.6 17.2-9.2 23c-5.4 6-13.4 9.8-21.8 9.8-8.8 0-16.8-3.8-22.4-9.8-5.6-6-9-14-9-23s3.4-17 9-23 13.6-9.8 22.4-9.8c8.4 0 16.4 3.8 21.8 9.8z m-1.2 23.2c0-6.2-2.4-12-6.2-16-3.8-4.2-9-6.4-14.4-6.4-5.8 0-11 2.4-14.8 6.4-3.8 4-6.2 9.8-6.2 16 0 6.2 2.4 12 6.2 15.8 3.8 4.2 9 6.6 14.8 6.6 5.4 0 10.6-2.4 14.4-6.6 3.6-3.8 6.2-9.6 6.2-15.8zM848.2 154.8c0 1.8-1.4 3.2-3.2 3.2h-21.2c-0.8 0-1.8-0.4-2.4-1-1.2-1.4-1.2-3.4 0.2-4.6l17.8-16c1.8-1.6 2.6-3.6 2.6-5.8 0-2-0.6-3.8-2-5.2-1.6-1.8-3.6-2.6-5.8-2.6-1.8 0-3.8 0.6-5.2 2l-1.8 1.6c-1.4 1.2-3.4 1.2-4.6-0.2-1.2-1.4-1.2-3.4 0.2-4.6l1.8-1.6c2.6-2.6 6.2-3.8 9.6-3.8 3.8 0 7.8 1.6 10.6 4.8 2.6 2.6 3.8 6.2 3.8 9.6 0 3.8-1.6 7.8-4.8 10.6l-11.4 10.2h12.8c1.6 0 3 1.4 3 3.4z" fill="#4C4372" /><path d="M512 521.6H146.6l182.6-169.4L512 182.8l182.6 169.4 182.6 169.4z" fill="#FD919E" /><path d="M829.6 1012.2H194.4c-26.4 0-47.8-20.6-47.8-46.2s21.4-46.2 47.8-46.2h635.2c26.4 0 47.8 20.6 47.8 46.2s-21.4 46.2-47.8 46.2z" fill="#A4CFF2" /><path d="M833.6 1012.2h-126.4V920h126.4c25.4 0 46 20.6 46 46 0.2 25.6-20.4 46.2-46 46.2z" fill="#7BABF1" /><path d="M829.6 1024H194.4c-32.8 0-59.6-26-59.6-58s26.6-58 59.6-58h635.2c32.8 0 59.6 26 59.6 58s-26.8 58-59.6 58zM194.4 931.6c-19.8 0-36 15.4-36 34.4s16.2 34.4 36 34.4h635.2c19.8 0 36-15.4 36-34.4s-16.2-34.4-36-34.4H194.4z" fill="#4C4372" /><path d="M512 182.8l-45.8 42.4 330.6 296.4h80.4z" fill="#E8677D" /><path d="M877.2 533.2H146.6c-4.8 0-9.2-3-11-7.4-1.8-4.4-0.6-9.6 3-12.8L504 174.2c4.4-4.2 11.4-4.2 16 0l365.4 338.8c3.6 3.2 4.8 8.4 3 12.8-2 4.6-6.4 7.4-11.2 7.4zM176.6 509.8h670.8L512 198.8 176.6 509.8z" fill="#4C4372" /></svg>