<?xml version="1.0" standalone="no"?><!DOCTYPE svg PUBLIC "-//W3C//DTD SVG 1.1//EN" "http://www.w3.org/Graphics/SVG/1.1/DTD/svg11.dtd"><svg class="icon" width="200px" height="200.00px" viewBox="0 0 1024 1024" version="1.1" xmlns="http://www.w3.org/2000/svg"><path d="M512 512m-414 0a414 414 0 1 0 828 0 414 414 0 1 0-828 0Z" fill="#F0C48A" /><path d="M960.4 791.4l-258.8-1.2 1.6-518.8c0-26 21.2-46.8 47.2-46.8l165 0.8c25.8 0.2 46.8 21.2 46.8 47l-1.8 519z" fill="#FD919E" /><path d="M886 791h-100.8v-19.6c0-27.2 22-49 49-49h2.8c27.2 0 49 22 49 49v19.6zM912.6 791l46.8 0.2 1.6-518.8c0-25.8-20.8-47-46.8-47l-1.6 565.6z" fill="#E8677D" /><path d="M960.4 803l-259-1.2c-6.4 0-11.6-5.2-11.6-11.8l1.6-518.8c0-15.6 6.2-30.4 17.4-41.4 11-11 25.8-17 41.4-17h0.2l165 0.8c32.4 0.2 58.4 26.6 58.4 58.8l-1.6 518.8c0 3.2-1.2 6-3.4 8.2-2.2 2.4-5.2 3.6-8.4 3.6z m-247-24.4l235.4 1 1.6-507.2c0-19.4-15.6-35.2-35-35.4l-165-0.8h-0.2c-9.4 0-18.2 3.6-24.8 10.2-6.6 6.6-10.4 15.4-10.4 24.8l-1.6 507.4z" fill="#4C4372" /><path d="M777.8 686.8c-18 0-32.6-14.6-32.6-32.6V328.6c0-18 14.6-32.6 32.6-32.6s32.6 14.6 32.6 32.6v325.8c0 17.8-14.6 32.4-32.6 32.4zM886 686.8c-18 0-32.6-14.6-32.6-32.6V328.6c0-18 14.6-32.6 32.6-32.6s32.6 14.6 32.6 32.6v325.8c0 17.8-14.6 32.4-32.6 32.4z" fill="#FFFFFF" /><path d="M12.634 789.04l999.8 4.336-0.856 197.4-999.8-4.334z" fill="#7BABF1" /><path d="M1011.4 1002.6L11.6 998.2c-3.2 0-6-1.2-8.2-3.4-2.2-2.2-3.4-5.2-3.4-8.2l0.8-197.4c0-6.4 5.2-11.6 11.8-11.6l999.8 4.4c3.2 0 6 1.2 8.2 3.4 2.2 2.2 3.4 5.2 3.4 8.2l-0.8 197.4c0 6.4-5.4 11.6-11.8 11.6z m-988-27.8l976.2 4.2 0.8-174-976.2-4.2-0.8 174z" fill="#4C4372" /><path d="M384.604 422.844l258.8 1.122-1.6 368.8-258.8-1.12z" fill="#A4CFF2" /><path d="M462.62 691.99l100 0.434-0.432 100-100-0.434zM595.606 423.704l46.8 0.204-1.6 368.8-46.8-0.204z" fill="#7BABF1" /><path d="M431.74 594.47l63 0.272-0.272 63-63-0.272zM531.942 594.87l63 0.272-0.274 63-63-0.272zM432.14 487.468l63 0.274-0.272 63-63-0.274zM532.34 488.068l63 0.274-0.272 63-63-0.274z" fill="#FFFFFF" /><path d="M641.8 804.4l-259-1.2c-6.4 0-11.6-5.2-11.6-11.8l1.6-368.8c0-3.2 1.2-6 3.4-8.2 2.2-2.2 5.2-3.4 8.2-3.4l258.8 1.2c6.4 0 11.6 5.2 11.6 11.8l-1.6 368.8c0 3.2-1.2 6-3.4 8.2-2 2.2-4.8 3.4-8 3.4zM394.8 780l235.4 1 1.4-345.4-235.4-1-1.4 345.4z" fill="#4C4372" /><path d="M494.4 669.4s-0.2 0 0 0l-63-0.2c-3.2 0-6-1.2-8.2-3.4-2.2-2.2-3.4-5.2-3.4-8.2l0.2-63c0-6.4 5.2-11.6 11.8-11.6l63 0.2c3.2 0 6 1.2 8.2 3.4 2.2 2.2 3.4 5.2 3.4 8.2l-0.2 63c-0.2 6.4-5.4 11.6-11.8 11.6z m-51.2-23.6l39.4 0.2 0.2-39.4-39.4-0.2-0.2 39.4zM594.6 669.8l-63-0.2c-6.4 0-11.6-5.2-11.6-11.8l0.2-63c0-6.4 5.2-11.6 11.8-11.6l63 0.2c3.2 0 6 1.2 8.2 3.4 2.2 2.2 3.4 5.2 3.4 8.2l-0.2 63c-0.2 6.6-5.4 11.8-11.8 11.8z m-51.2-23.6l39.4 0.2 0.2-39.4-39.4-0.2-0.2 39.4zM562.2 804.2l-100-0.4c-3.2 0-6-1.2-8.2-3.4-2.2-2.2-3.4-5.2-3.4-8.2l0.4-100c0-6.4 5.2-11.6 11.8-11.6l100 0.4c6.4 0 11.6 5.2 11.6 11.8l-0.4 100c0 3.2-1.2 6-3.4 8.2-2.4 1.8-5.2 3.2-8.4 3.2z m-88.2-24l76.6 0.4 0.4-76.6-76.6-0.4-0.4 76.6z" fill="#4C4372" /><path d="M494.8 562.4l-63-0.2c-6.4 0-11.6-5.2-11.6-11.8l0.2-63c0-3.2 1.2-6 3.4-8.2 2.2-2.2 5.2-3.4 8.2-3.4l63 0.2c6.4 0 11.6 5.2 11.6 11.8l-0.2 63c0 6.4-5.2 11.6-11.6 11.6z m-51.2-23.6l39.4 0.2 0.2-39.4-39.4-0.2-0.2 39.4zM595 562.8l-63-0.2c-6.4 0-11.6-5.2-11.6-11.8l0.2-63c0-6.4 5.2-11.6 11.8-11.6l63 0.2c3.2 0 6 1.2 8.2 3.4 2.2 2.2 3.4 5.2 3.4 8.2l-0.2 63c0 6.6-5.4 11.8-11.8 11.8z m-51.2-23.6l39.4 0.2 0.2-39.4-39.4-0.2-0.2 39.4z" fill="#4C4372" /><path d="M588.4 370l-148.2-0.6c-13.4 0-24.2 10.8-24.4 24.2l-0.2 29.4 196.8 0.8 0.2-29.4c0-13.4-10.8-24.2-24.2-24.4z" fill="#D3E6F8" /><path d="M565.4 419.8l46.8 0.2 0.2-29.4c0-13.4-10.8-24.2-24.2-24.4h-22.6l-0.2 53.6z" fill="#A4CFF2" /><path d="M612.4 435.4l-196.8-0.8c-3.2 0-6-1.2-8.2-3.4-2.2-2.2-3.4-5.2-3.4-8.2l0.2-29.4c0-19.8 16.2-35.8 36-35.8h0.2l148.2 0.6c9.6 0 18.6 3.8 25.4 10.6 6.8 6.8 10.4 15.8 10.4 25.4l-0.2 29.4c0 3.2-1.2 6-3.4 8.2-2.4 2.2-5.4 3.4-8.4 3.4z m-185-24.2l173.4 0.8v-17.6c0-3.4-1.2-6.4-3.6-8.8-2.4-2.4-5.4-3.6-8.8-3.8l-148.2-0.6c-6.8 0-12.4 5.6-12.6 12.4l-0.2 17.6z" fill="#4C4372" /><path d="M67.926 364.044l258.8 1.122-1.848 426.2-258.8-1.122z" fill="#FD919E" /><path d="M278.926 364.904l46.8 0.202-1.848 426.2-46.8-0.202z" fill="#E8677D" /><path d="M263.8 466.2l-133.8-0.6c-17.4 0-31.4-14.2-31.4-31.6 0-17.4 14.2-31.4 31.6-31.4l133.6 0.6c17.4 0 31.4 14.2 31.4 31.6 0 17.4-14 31.4-31.4 31.4zM263.4 559.4l-133.6-0.6c-17.4 0-31.4-14.2-31.4-31.6 0-17.4 14.2-31.4 31.6-31.4l133.6 0.6c17.4 0 31.4 14.2 31.4 31.6-0.2 17.4-14.2 31.4-31.6 31.4zM263 652.6l-133.8-0.6c-17.4 0-31.4-14.2-31.4-31.6 0-17.4 14.2-31.4 31.6-31.4l133.6 0.6c17.4 0 31.4 14.2 31.4 31.6 0 17.4-14 31.4-31.4 31.4z" fill="#FFFFFF" /><path d="M145.82 690.59l100 0.434-0.436 100-100-0.434z" fill="#E8677D" /><path d="M325 803L66 801.8c-3.2 0-6-1.2-8.2-3.4-2.2-2.2-3.4-5.2-3.4-8.2l1.8-426.2c0-6.4 5.2-11.6 11.8-11.6l258.8 1.2c3.2 0 6 1.2 8.2 3.4 2.2 2.2 3.4 5.2 3.4 8.2l-1.8 426.2c0 6.4-5.2 11.6-11.6 11.6zM77.8 778.6l235.4 1 1.8-402.8-235.4-1-1.8 402.8z" fill="#4C4372" /><path d="M245.4 802.6l-100-0.4c-3.2 0-6-1.2-8.2-3.4-2.2-2.2-3.4-5.2-3.4-8.2l0.4-100c0-6.4 5.2-11.6 11.8-11.6l100 0.4c3.2 0 6 1.2 8.2 3.4 2.2 2.2 3.4 5.2 3.4 8.2l-0.4 100c-0.2 6.4-5.4 11.6-11.8 11.6z m-88.2-23.8l76.6 0.4 0.4-76.6-76.6-0.4-0.4 76.6z" fill="#4C4372" /><path d="M271.8 311.2l-148.2-0.6c-13.4 0-24.2 10.8-24.4 24.2l-0.2 29.2 196.8 0.8 0.2-29.4c0-13.2-10.8-24-24.2-24.2z" fill="#FD919E" /><path d="M248.8 361l46.8 0.2 0.2-29.4c0-13.4-10.8-24.2-24.2-24.4h-22.6l-0.2 53.6z" fill="#E8677D" /><path d="M295.8 376.6l-196.8-0.8c-3.2 0-6-1.2-8.2-3.4-2.2-2.2-3.4-5.2-3.4-8.2l0.2-29.4c0-9.6 3.8-18.6 10.6-25.4 6.8-6.8 15.8-10.4 25.4-10.4h0.2l148.2 0.6c19.8 0 35.8 16.2 35.8 36.2l-0.2 29.4c-0.2 6.2-5.4 11.4-11.8 11.4z m-185-24.2l173.4 0.8v-17.6c0-7-5.6-12.6-12.4-12.6l-148.2-0.6c-3.4 0-6.4 1.2-8.8 3.6-2.4 2.4-3.6 5.4-3.8 8.8l-0.2 17.6z" fill="#4C4372" /><path d="M266.6 469.6h-19.2l0.2-66.2h19.2c16.2 0 29.4 13.4 29.4 29.6v7.4c-0.2 16-13.4 29.2-29.6 29.2zM266.2 561h-19.2l0.2-66.2h19.2c16.2 0 29.4 13.4 29.4 29.6v7.4c-0.2 16.2-13.4 29.4-29.6 29.2zM265.8 652.6h-19.2l0.2-66.2h19.2c16.2 0 29.4 13.4 29.4 29.6v7.4c-0.2 16.2-13.4 29.4-29.6 29.2z" fill="#D3E6F8" /><path d="M263.8 478l-133.8-0.6c-11.6 0-22.4-4.6-30.4-12.8-8.2-8.2-12.6-19-12.6-30.6 0-11.6 4.6-22.4 12.8-30.4 8.2-8 19-12.6 30.4-12.6h0.2l133.6 0.6c23.8 0.2 43 19.6 43 43.4 0 23.6-19.4 43-43.2 43z m0-23.6c11 0 19.8-8.8 19.8-19.6s-8.8-19.8-19.6-19.8l-133.6-0.6c-5.2 0-10.2 2-14 5.8-3.8 3.8-5.8 8.6-5.8 14 0 5.2 2 10.2 5.8 14 3.8 3.8 8.6 5.8 14 5.8l133.4 0.4z" fill="#4C4372" /><path d="M263.4 571.2l-133.8-0.6c-11.6 0-22.4-4.6-30.4-12.8-8.2-8.2-12.6-19-12.6-30.6 0-11.6 4.6-22.4 12.8-30.4 8.2-8 19-12.6 30.4-12.6h0.2l133.6 0.6c23.8 0.2 43 19.6 43 43.4 0 23.6-19.4 43-43.2 43z m0-23.6c11 0 19.8-8.8 19.8-19.6s-8.8-19.8-19.6-19.8l-133.6-0.6c-5.2 0-10.2 2-14 5.8-3.8 3.8-5.8 8.6-5.8 14 0 5.2 2 10.2 5.8 14 3.8 3.8 8.6 5.8 14 5.8l133.4 0.4z" fill="#4C4372" /><path d="M263 664.4l-133.8-0.6c-11.6 0-22.4-4.6-30.4-12.8-8.2-8.2-12.6-19-12.6-30.6 0-11.6 4.6-22.4 12.8-30.4 8.2-8.2 19-12.6 30.6-12.6l133.6 0.6c23.8 0.2 43 19.6 43 43.4 0 23.6-19.4 43-43.2 43z m0-23.4c11 0 19.8-8.8 19.8-19.6s-8.8-19.8-19.6-19.8l-133.6-0.6c-5.2 0-10.2 2-14 5.8-3.8 3.8-5.8 8.6-5.8 14 0 5.2 2 10.2 5.8 14 3.8 3.8 8.6 5.8 14 5.8l133.4 0.4z" fill="#4C4372" /><path d="M886 802.6h-100.8c-6.4 0-11.8-5.2-11.8-11.8v-19.6c0-33.6 27.2-60.8 60.8-60.8h2.8c33.6 0 60.8 27.2 60.8 60.8v19.6c-0.2 6.6-5.4 11.8-11.8 11.8z m-89.2-23.4h77.4v-8c0-20.6-16.8-37.4-37.4-37.4H834c-20.6 0-37.4 16.8-37.4 37.4v8z" fill="#4C4372" /><path d="M777.8 686.8c18 0 32.6-14.6 32.6-32.6V338.4c0-18-14.6-32.6-32.6-32.6v381z" fill="#D3E6F8" /><path d="M886 686.8c18 0 32.6-14.6 32.6-32.6V338.4c0-18-14.6-32.6-32.6-32.6v381z" fill="#D3E6F8" /><path d="M777.8 698.6c-24.4 0-44.2-19.8-44.2-44.2V328.6c0-24.4 19.8-44.2 44.2-44.2 24.4 0 44.2 19.8 44.2 44.2v325.8c0.2 24.2-19.8 44.2-44.2 44.2z m0-390.8c-11.6 0-20.8 9.4-20.8 20.8v325.8c0 11.6 9.4 20.8 20.8 20.8 11.6 0 20.8-9.4 20.8-20.8V328.6c0-11.6-9.2-20.8-20.8-20.8zM886 698.6c-24.4 0-44.2-19.8-44.2-44.2V328.6c0-24.4 19.8-44.2 44.2-44.2 24.4 0 44.2 19.8 44.2 44.2v325.8c0 24.2-19.8 44.2-44.2 44.2z m0-390.8c-11.6 0-20.8 9.4-20.8 20.8v325.8c0 11.6 9.4 20.8 20.8 20.8 11.6 0 20.8-9.4 20.8-20.8V328.6c0-11.6-9.4-20.8-20.8-20.8z" fill="#4C4372" /><path d="M593.2 113c0-46-39-83-85.8-79.8-39.6 2.8-71.6 35-74 74.6-1.6 25.8 9 49 26.6 64.8 8 7.2 12.6 17.2 12.6 28V242c0 22.4 18.2 40.4 40.4 40.4 22.4 0 40.4-18.2 40.4-40.4v-41.4c0-10.6 4.4-20.6 12.4-27.6 16.8-14.6 27.4-36 27.4-60z" fill="#E8677D" /><path d="M507.4 33.4c-39.6 2.8-71.6 35-74 74.6-1.6 25.8 9 49 26.6 64.8 8 7.2 12.6 17.2 12.6 28V242c0 10.6 4 20.2 10.8 27.4 17.2-4.8 29.8-20.4 29.8-39V189c0-10.6 4.4-20.6 12.4-27.6 16.6-14.6 27.2-36 27.2-60 0-29-15.4-54.2-38.4-68.2-2.4 0-4.6 0-7 0.2z" fill="#FD919E" /><path d="M472.8 200.6V242c0 22.4 18.2 40.4 40.4 40.4 22.4 0 40.4-18.2 40.4-40.4v-41.4h-80.8z" fill="#FFFFFF" /><path d="M513.2 201.8v79.4h10c17.4-4.4 30.4-20.2 30.4-39.2v-40.4h-40.4z" fill="#D3E6F8" /><path d="M513.2 294.2c-28.8 0-52.2-23.4-52.2-52.2v-41.4c0-7.2-3.2-14.2-8.8-19.2-21.2-18.8-32.4-45.8-30.6-74.2 2.8-45.6 39.2-82.4 84.8-85.6 25.8-1.8 50.4 6.8 69.2 24.4 18.6 17.2 29.2 41.8 29.2 67 0 26.4-11.4 51.4-31.2 68.8-5.4 4.6-8.4 11.6-8.4 18.8V242c0.2 28.8-23.2 52.2-52 52.2z m0-249.4c-1.6 0-3.4 0-5 0.2-33.8 2.4-61 29.8-63 63.8C444 130 452.2 150 468 164c10.6 9.4 16.6 22.8 16.6 36.6V242c0 15.8 12.8 28.8 28.8 28.8 15.8 0 28.8-12.8 28.8-28.8v-41.4c0-14 6-27.2 16.2-36.4 14.8-13 23.2-31.6 23.2-51.2 0-19.2-7.8-36.8-21.8-50-12.8-11.8-29.2-18.2-46.6-18.2z" fill="#4C4372" /><path d="M553.6 212.4h-80.8c-6.4 0-11.8-5.2-11.8-11.8s5.2-11.8 11.8-11.8h80.8c6.4 0 11.8 5.2 11.8 11.8s-5.2 11.8-11.8 11.8zM544.4 251h-65.2c-6.4 0-11.8-5.2-11.8-11.8s5.2-11.8 11.8-11.8h65.2c6.4 0 11.8 5.2 11.8 11.8s-5.4 11.8-11.8 11.8z" fill="#4C4372" /><path d="M513.2 212.4c-6.4 0-11.8-5.2-11.8-11.8V110.4c0-6.4 5.2-11.8 11.8-11.8s11.8 5.2 11.8 11.8v90.4c0 6.4-5.4 11.6-11.8 11.6z" fill="#4C4372" /></svg>