<?xml version="1.0" standalone="no"?><!DOCTYPE svg PUBLIC "-//W3C//DTD SVG 1.1//EN" "http://www.w3.org/Graphics/SVG/1.1/DTD/svg11.dtd"><svg class="icon" width="200px" height="200.00px" viewBox="0 0 1024 1024" version="1.1" xmlns="http://www.w3.org/2000/svg"><path d="M512 512m-414 0a414 414 0 1 0 828 0 414 414 0 1 0-828 0Z" fill="#F0C48A" /><path d="M306.069714 926.918219a291.2 291.2 0 1 0 411.811802-411.826177 291.2 291.2 0 1 0-411.811802 411.826177Z" fill="#7BABF1" /><path d="M758.4 686.6c0-84-35.6-159.8-92.6-213-44.6-27.8-97.4-43.8-153.8-43.8-160.8 0-291.2 130.4-291.2 291.2 0 84 35.6 159.8 92.6 213 44.6 27.8 97.4 43.8 153.8 43.8 160.8 0.2 291.2-130.2 291.2-291.2z" fill="#A4CFF2" /><path d="M512 1024c-167 0-303-136-303-303S345 418 512 418s303 136 303 303S679 1024 512 1024z m0-582.6c-154.2 0-279.6 125.4-279.6 279.6S357.8 1000.6 512 1000.6c154.2 0 279.6-125.4 279.6-279.6S666.2 441.4 512 441.4z" fill="#4C4372" /><path d="M512 902c-46.4 0-92.8-17.6-128-53-70.6-70.6-70.6-185.4 0-256 19.6-19.6 42.8-34.2 69-43.2 6.2-2.2 12.8 1.2 15 7.2 2.2 6.2-1.2 12.8-7.2 15-22.8 7.8-43 20.4-60 37.6-61.4 61.4-61.4 161.4 0 223 61.4 61.4 161.4 61.4 223 0 61.4-61.4 61.4-161.4 0-223-17-17-37.2-29.8-60-37.6-6.2-2.2-9.4-8.8-7.2-15 2.2-6.2 8.8-9.4 15-7.2 26.2 9 49.4 23.6 69 43.2 70.6 70.6 70.6 185.4 0 256-35.8 35.4-82.2 53-128.6 53z" fill="#4C4372" /><path d="M512 645.2c-6.4 0-11.8-5.2-11.8-11.8v-145.2c0-6.4 5.2-11.8 11.8-11.8 6.4 0 11.8 5.2 11.8 11.8v145.2c0 6.6-5.4 11.8-11.8 11.8z" fill="#4C4372" /><path d="M595.4 178.6c0-46.2-37.6-83.6-83.8-83.4-44.8 0.2-81.8 36.4-83 81.2-0.6 25.2 9.8 47.8 26.8 63.6 13 12 20.2 29.2 20.2 47v43.6c0 20.2 16.4 36.4 36.4 36.4 20.2 0 36.4-16.4 36.4-36.4v-43.6c0-18.2 7.8-35.4 21-47.8 16-15.4 26-36.8 26-60.6z" fill="#FD919E" /><path d="M512 367c-20.2 0-36.4-16.4-36.4-36.4v-43.6h72.8v43.6c0 20-16.2 36.4-36.4 36.4z" fill="#FFFFFF" /><path d="M512 378.6c-26.6 0-48.2-21.6-48.2-48.2v-43.6c0-14.8-6-28.8-16.4-38.4-20.2-18.6-31.4-45-30.6-72.6 1.4-50.8 43.8-92.4 94.8-92.6 25.4-0.2 49.4 9.8 67.6 27.8 18 18 28 42 28 67.4 0 26.4-10.6 50.8-29.6 69-11 10.4-17.2 24.8-17.2 39.4v43.6c-0.2 26.6-21.8 48.2-48.4 48.2z m0-271.8h-0.4c-38.4 0.2-70.4 31.4-71.4 69.8-0.6 20.8 7.8 40.6 23 54.6s23.8 34.2 23.8 55.6v43.6c0 13.6 11 24.8 24.8 24.8 13.6 0 24.8-11 24.8-24.8v-43.6c0-21 9-41.6 24.6-56.4 14.4-13.6 22.4-32.2 22.4-52 0-19.2-7.4-37.2-21.2-50.8-13.4-13.4-31.4-20.8-50.4-20.8z" fill="#4C4372" /><path d="M548.4 298.6h-72.8c-6.4 0-11.8-5.2-11.8-11.8 0-6.4 5.2-11.8 11.8-11.8h72.8c6.4 0 11.8 5.2 11.8 11.8 0 6.6-5.2 11.8-11.8 11.8zM548.4 337.8h-72.8c-6.4 0-11.8-5.2-11.8-11.8 0-6.4 5.2-11.8 11.8-11.8h72.8c6.4 0 11.8 5.2 11.8 11.8 0 6.6-5.2 11.8-11.8 11.8zM512 67.6c-6.4 0-11.8-5.2-11.8-11.8v-44c0-6.4 5.2-11.8 11.8-11.8 6.4 0 11.8 5.2 11.8 11.8v44c0 6.4-5.4 11.8-11.8 11.8zM637.2 119.4c-3 0-6-1.2-8.2-3.4-4.6-4.6-4.6-12 0-16.6l31.2-31.2c4.6-4.6 12-4.6 16.6 0 4.6 4.6 4.6 12 0 16.6L645.6 116c-2.4 2.2-5.4 3.4-8.4 3.4zM386.8 119.4c-3 0-6-1.2-8.2-3.4l-31.2-31.2c-4.6-4.6-4.6-12 0-16.6 4.6-4.6 12-4.6 16.6 0l31.2 31.2c4.6 4.6 4.6 12 0 16.6-2.4 2.2-5.4 3.4-8.4 3.4z" fill="#4C4372" /></svg>