<?xml version="1.0" standalone="no"?><!DOCTYPE svg PUBLIC "-//W3C//DTD SVG 1.1//EN" "http://www.w3.org/Graphics/SVG/1.1/DTD/svg11.dtd"><svg class="icon" width="200px" height="200.00px" viewBox="0 0 1024 1024" version="1.1" xmlns="http://www.w3.org/2000/svg"><path d="M512 512m-414 0a414 414 0 1 0 828 0 414 414 0 1 0-828 0Z" fill="#F0C48A" /><path d="M737.4 289H286.6c-12.6 0-23-10.2-23-23 0-12.6 10.2-23 23-23h450.6c12.6 0 23 10.2 23 23s-10.2 23-22.8 23z" fill="#7BABF1" /><path d="M737.4 300.8H286.6c-19.2 0-34.8-15.6-34.8-34.8 0-19.2 15.6-34.8 34.8-34.8h450.6c19.2 0 34.8 15.6 34.8 34.8 0 19.2-15.6 34.8-34.6 34.8z m-450.8-46c-6.2 0-11.2 5-11.2 11.2 0 6.2 5 11.2 11.2 11.2h450.6c6.2 0 11.2-5 11.2-11.2 0-6.2-5-11.2-11.2-11.2H286.6z" fill="#4C4372" /><path d="M644.6 311.2H379.4c-10.4 0-18.8-8.4-18.8-18.8V242c0-10.4 8.4-18.8 18.8-18.8h265.4c10.4 0 18.8 8.4 18.8 18.8v50.4c0 10.4-8.6 18.8-19 18.8z" fill="#D3E6F8" /><path d="M647.8 304.4h-23.2v-85.6h23.2c10.4 0 18.8 8.4 18.8 18.8v48c0.2 10.4-8.2 18.8-18.8 18.8z" fill="#A4CFF2" /><path d="M458.8 311h106.4v134.6h-106.4z" fill="#FFFFFF" /><path d="M512 340.4h53.8V400H512z" fill="#D3E6F8" /><path d="M565.2 457.4h-106.4c-6.4 0-11.8-5.2-11.8-11.8v-134.6c0-6.4 5.2-11.8 11.8-11.8h106.4c6.4 0 11.8 5.2 11.8 11.8v134.6c0 6.4-5.2 11.8-11.8 11.8z m-94.8-23.6h83v-111.2h-83v111.2z" fill="#4C4372" /><path d="M458.8 901.6h106.4v57.6c0 29.4-23.8 53.2-53.2 53.2-29.4 0-53.2-23.8-53.2-53.2v-57.6z" fill="#7BABF1" /><path d="M512 1024c-35.8 0-65-29.2-65-65v-57.6c0-6.4 5.2-11.8 11.8-11.8h106.4c6.4 0 11.8 5.2 11.8 11.8v57.6c0 35.8-29.2 65-65 65z m-41.4-110.8v45.8c0 22.8 18.6 41.4 41.4 41.4 22.8 0 41.4-18.6 41.4-41.4v-45.8h-82.8z" fill="#4C4372" /><path d="M282.763068 113.097121a59.4 59.4 0 1 0 84.00282-84.005752 59.4 59.4 0 1 0-84.00282 84.005752Z" fill="#D3E6F8" /><path d="M657.10376 112.96594a59.4 59.4 0 1 0 84.002819-84.005752 59.4 59.4 0 1 0-84.002819 84.005752Z" fill="#D3E6F8" /><path d="M644.6 322.8H379.4c-16.8 0-30.6-13.8-30.6-30.6v-50.4c0-16.8 13.8-30.6 30.6-30.6h265.4c16.8 0 30.6 13.8 30.6 30.6v50.4c-0.2 17-13.8 30.6-30.8 30.6z m-265.2-88.2c-4 0-7.2 3.2-7.2 7.2v50.4c0 4 3.2 7.2 7.2 7.2h265.4c4 0 7.2-3.2 7.2-7.2v-50.4c0-4-3.2-7.2-7.2-7.2H379.4z" fill="#4C4372" /><path d="M399.2 234.6c-6.4 0-11.8-5.2-11.8-11.8v-40c0-20.2-7.8-39.2-22.2-53.4l-49.6-49.6c-4.6-4.6-4.6-12 0-16.6 4.6-4.6 12-4.6 16.6 0L382 113c18.6 18.6 29 43.6 29 70v40c0 6.4-5.2 11.6-11.8 11.6z" fill="#4C4372" /><path d="M324.8 142.2c-39.2 0-71-31.8-71-71S285.6 0 324.8 0 396 31.8 396 71s-32 71.2-71.2 71.2z m0-118.8c-26.2 0-47.6 21.4-47.6 47.6s21.4 47.6 47.6 47.6c26.2 0 47.6-21.4 47.6-47.6s-21.2-47.6-47.6-47.6zM624.8 234.6c-6.4 0-11.8-5.2-11.8-11.8v-40c0-26.4 10.2-51.2 29-70l49.6-49.6c4.6-4.6 12-4.6 16.6 0 4.6 4.6 4.6 12 0 16.6l-49.6 49.6c-14.2 14.2-22.2 33.2-22.2 53.4v40c0 6.6-5.2 11.8-11.6 11.8z" fill="#4C4372" /><path d="M699.2 142.2c-39.2 0-71.2-32-71.2-71.2S660 0 699.2 0s71 31.8 71 71-31.8 71.2-71 71.2z m0-118.8c-26.2 0-47.6 21.4-47.6 47.6s21.4 47.6 47.6 47.6c26.2 0 47.6-21.4 47.6-47.6s-21.4-47.6-47.6-47.6z" fill="#4C4372" /><path d="M498.654429 348.979176a83 83 0 1 0 26.594615-163.85581 83 83 0 1 0-26.594615 163.85581Z" fill="#FD919E" /><path d="M505.351145 307.719099a41.2 41.2 0 1 0 13.201183-81.335655 41.2 41.2 0 1 0-13.201183 81.335655Z" fill="#FFFFFF" /><path d="M512 361.8c-52.2 0-94.6-42.4-94.6-94.6s42.4-94.6 94.6-94.6 94.6 42.4 94.6 94.6-42.4 94.6-94.6 94.6z m0-166c-39.2 0-71.2 32-71.2 71.2s32 71.2 71.2 71.2 71.2-32 71.2-71.2-32-71.2-71.2-71.2z" fill="#4C4372" /><path d="M512 320c-29.2 0-53-23.8-53-53S482.8 214 512 214s53 23.8 53 53S541.2 320 512 320z m0-82.4c-16.2 0-29.4 13.2-29.4 29.4s13.2 29.4 29.4 29.4 29.4-13.2 29.4-29.4-13.2-29.4-29.4-29.4z" fill="#4C4372" /><path d="M641.8 852.8H382.2c-31.6 0-56.2-27.6-52.4-59l45-343c3-26.6 25.6-46.8 52.4-46.8h169.6c26.8 0 49.4 20 52.4 46.8l45 343c3.8 31.4-20.8 59-52.4 59z" fill="#A4CFF2" /><path d="M596.8 404l59 446.8s37.2-16.8 38.4-57c1.2-40.2-48.6-363-48.6-363s-7-23.8-48.8-26.8z" fill="#7BABF1" /><path d="M641.8 864.4H382.2c-18.4 0-36-7.8-48.2-21.6-12.2-13.8-18-32.2-16-50.4l45-343.2c3.8-32.4 31.4-57 64.2-57h169.6c32.8 0 60.4 24.6 64.2 57.2L706 792.2c2.2 18.4-3.6 36.8-15.8 50.6-12.4 13.8-30 21.6-48.4 21.6zM427.2 415.8c-20.8 0-38.4 15.6-40.8 36.4l-45 343.2c-1.4 11.4 2.4 23.2 10.2 32 7.8 8.8 19 13.8 30.8 13.8H642c11.8 0 23-5 30.8-13.8 7.8-8.8 11.4-20.4 10.2-32L638 452.6c-2.4-21-20-36.6-40.8-36.6h-170z" fill="#4C4372" /><path d="M574.6 901.6h-125.2c-10 0-18.2-8.2-18.2-18.2v-99.6c0-44.6 36.2-80.8 80.8-80.8 44.6 0 80.8 36.2 80.8 80.8v99.6c0 10-8 18.2-18.2 18.2z" fill="#D3E6F8" /><path d="M575.2 594h-126.6c-11 0-19.8-9-19.8-19.8v-41.8c0-11 9-19.8 19.8-19.8h126.6c11 0 19.8 9 19.8 19.8V574c0.2 11-8.8 20-19.8 20z" fill="#FD919E" /><path d="M539.2 594H572c11.2 0 20.4-9.2 20.4-20.4v-41c0-11.2-9.2-20.4-20.4-20.4h-33V594z" fill="#E8677D" /><path d="M575.2 605.6h-126.6c-17.4 0-31.6-14.2-31.6-31.6v-41.8c0-17.4 14.2-31.6 31.6-31.6h126.6c17.4 0 31.6 14.2 31.6 31.6V574c0 17.6-14.2 31.6-31.6 31.6zM448.8 524c-4.4 0-8.2 3.6-8.2 8.2V574c0 4.4 3.6 8.2 8.2 8.2h126.6c4.4 0 8.2-3.6 8.2-8.2v-41.8c0-4.4-3.6-8.2-8.2-8.2h-126.6z" fill="#4C4372" /><path d="M538.6 901.6h40c7.8 0 14.2-6.4 14.2-14.2v-124.8c0-30-24.4-54.4-54.4-54.4v193.4z" fill="#A4CFF2" /><path d="M572.6 913.2h-121.2c-17.6 0-32-14.4-32-32v-97.6c0-51 41.6-92.6 92.6-92.6 51 0 92.6 41.6 92.6 92.6v97.6c0 17.8-14.4 32-32 32zM512 714.4c-38.2 0-69.2 31-69.2 69.2v97.6c0 4.8 3.8 8.6 8.6 8.6h121.2c4.8 0 8.6-3.8 8.6-8.6v-97.6c0-38.2-31-69.2-69.2-69.2z" fill="#4C4372" /></svg>