<?xml version="1.0" standalone="no"?><!DOCTYPE svg PUBLIC "-//W3C//DTD SVG 1.1//EN" "http://www.w3.org/Graphics/SVG/1.1/DTD/svg11.dtd"><svg class="icon" width="200px" height="200.00px" viewBox="0 0 1024 1024" version="1.1" xmlns="http://www.w3.org/2000/svg"><path d="M512 512m-414 0a414 414 0 1 0 828 0 414 414 0 1 0-828 0Z" fill="#F0C48A" /><path d="M78 187.6V83.4C78 44 110.2 11.8 149.6 11.8h364.6C553.8 11.8 586 44 586 83.4v857c0 39.4-32.2 71.8-71.8 71.8H149.6C110.2 1012.2 78 980 78 940.6V187.6z" fill="#D3E6F8" /><path d="M78 152.4h510v650.8H78z" fill="#FFFFFF" /><path d="M487.8 158.2H586V68c0-29.4-23.8-53.2-53.2-53.2h-45v143.4zM487.8 1012.2h25.2c40.4 0 73.2-32.8 73.2-73.2v-126.8c0-5-4-9-9-9H488v209z" fill="#7BABF1" /><path d="M487.8 158.2H586v645h-98.2z" fill="#D3E6F8" /><path d="M300.884028 936.080028a44 44 0 1 0 62.224311-62.226483 44 44 0 1 0-62.224311 62.226483Z" fill="#7BABF1" /><path d="M583.2 164.2H80.8c-6.4 0-11.8-5.2-11.8-11.8s5.2-11.8 11.8-11.8h502.6c6.4 0 11.8 5.2 11.8 11.8s-5.4 11.8-12 11.8zM583.2 815H80.8c-6.4 0-11.8-5.2-11.8-11.8 0-6.4 5.2-11.8 11.8-11.8h502.6c6.4 0 11.8 5.2 11.8 11.8-0.2 6.6-5.4 11.8-12 11.8zM332 960.6c-30.8 0-55.6-25-55.6-55.6 0-30.8 25-55.6 55.6-55.6s55.6 25 55.6 55.6-25 55.6-55.6 55.6z m0-87.8c-17.8 0-32.2 14.4-32.2 32.2s14.4 32.2 32.2 32.2c17.8 0 32.2-14.4 32.2-32.2s-14.4-32.2-32.2-32.2z" fill="#4C4372" /><path d="M514.2 1024H149.6c-46 0-83.4-37.4-83.4-83.4V83.4C66.2 37.4 103.6 0 149.6 0h364.6c46 0 83.4 37.4 83.4 83.4v857c0.2 46.2-37.4 83.6-83.4 83.6zM149.6 23.4c-33.2 0-60 27-60 60v857c0 33.2 27 60 60 60h364.6c33.2 0 60-27 60-60V83.4c0-33.2-27-60-60-60H149.6z" fill="#4C4372" /><path d="M887.8 692.2H457c-32.2 0-58.2-26-58.2-58.2V390c0-32.2 26-58.2 58.2-58.2h430.8c32.2 0 58.2 26 58.2 58.2v244c0 32.2-26 58.2-58.2 58.2z" fill="#FD919E" /><path d="M398.8 403.8h547.4v70.4H398.8z" fill="#FFFFFF" /><path d="M847.6 407H946v63.8h-98.4z" fill="#D3E6F8" /><path d="M946 403.8h-98.4V340h67.8c16.8 0 30.6 13.6 30.6 30.6v33.2zM902.2 692.2h-54.4v-212H946v168c0 24.4-19.6 44-43.8 44z" fill="#E8677D" /><path d="M887.8 704H457c-38.6 0-70-31.4-70-70V390c0-38.6 31.4-70 70-70h430.8c38.6 0 70 31.4 70 70v244c0 38.6-31.4 70-70 70zM457 343.4c-25.6 0-46.6 20.8-46.6 46.6v244c0 25.6 20.8 46.6 46.6 46.6h430.8c25.6 0 46.6-20.8 46.6-46.6V390c0-25.6-20.8-46.6-46.6-46.6H457z" fill="#4C4372" /><path d="M800.6 595.8m-39 0a39 39 0 1 0 78 0 39 39 0 1 0-78 0Z" fill="#FFFFFF" /><path d="M932.6 415.4H398.8c-6.4 0-11.8-5.2-11.8-11.8s5.2-11.8 11.8-11.8h533.8c6.4 0 11.8 5.2 11.8 11.8s-5.4 11.8-11.8 11.8zM932.6 485.8H398.8c-6.4 0-11.8-5.2-11.8-11.8s5.2-11.8 11.8-11.8h533.8c6.4 0 11.8 5.2 11.8 11.8s-5.4 11.8-11.8 11.8zM800.6 646.6c-28 0-50.8-22.8-50.8-50.8 0-28 22.8-50.8 50.8-50.8 28 0 50.8 22.8 50.8 50.8 0 28-22.8 50.8-50.8 50.8z m0-78c-15 0-27.2 12.2-27.2 27.2s12.2 27.2 27.2 27.2 27.2-12.2 27.2-27.2c0.2-15-12.2-27.2-27.2-27.2z" fill="#4C4372" /><path d="M860.2 595.8m-39 0a39 39 0 1 0 78 0 39 39 0 1 0-78 0Z" fill="#FFFFFF" /><path d="M860.2 646.6c-28 0-50.8-22.8-50.8-50.8 0-28 22.8-50.8 50.8-50.8 28 0 50.8 22.8 50.8 50.8 0 28-22.8 50.8-50.8 50.8z m0-78c-15 0-27.2 12.2-27.2 27.2s12.2 27.2 27.2 27.2 27.2-12.2 27.2-27.2c0.2-15-12.2-27.2-27.2-27.2z" fill="#4C4372" /><path d="M829 128.8m-117.2 0a117.2 117.2 0 1 0 234.4 0 117.2 117.2 0 1 0-234.4 0Z" fill="#E8677D" /><path d="M829 11.8c-64.6 0-117.2 52.4-117.2 117.2 0 24.6 7.6 47.4 20.6 66.4 18.8 13 41.6 20.6 66.4 20.6 64.6 0 117.2-52.4 117.2-117.2 0-24.6-7.6-47.4-20.6-66.4-19-13-41.8-20.6-66.4-20.6z" fill="#FD919E" /><path d="M829 257.8c-71 0-128.8-57.8-128.8-128.8S757.8 0 829 0c71 0 128.8 57.8 128.8 128.8s-57.8 129-128.8 129z m0-234.4c-58.2 0-105.4 47.2-105.4 105.4s47.2 105.4 105.4 105.4 105.4-47.2 105.4-105.4-47.4-105.4-105.4-105.4z" fill="#4C4372" /><path d="M830.6 57.2c4 0 7.2 3.2 7.2 7.2V68c9.8 1.2 18 4.2 25.6 9 2.6 1.4 5 4 5 8 0 5.2-4.2 9-9.2 9-1.6 0-3.4-0.4-5-1.4-5.8-3.4-11.4-6-17-7.2v31.8c25.2 6.2 35.8 16.4 35.8 34 0 18.2-14.2 30.2-35.2 32.2v10c0 4-3.2 7.2-7.2 7.2s-7.2-3.2-7.2-7.2v-10.2c-12.4-1.4-23.8-5.8-33.8-12.8-2.8-1.8-4.4-4.4-4.4-8 0-5.2 4-9 9-9 2 0 4 0.6 5.4 1.8 7.8 5.6 15.4 9.4 24.4 11V133.4c-24.2-6.2-35.4-15.4-35.4-34 0-17.6 14-30 34.8-31.6v-3.4c0-4 3.2-7.2 7.2-7.2zM824 113.6V84.4c-10.6 1-15.8 6.6-15.8 13.8 0 7 3 11.4 15.8 15.4z m13 23v30c10.6-1.2 16.4-6.4 16.4-14.4 0-7.2-3.6-11.6-16.4-15.6z" fill="#4C4372" /></svg>