<?xml version="1.0" standalone="no"?><!DOCTYPE svg PUBLIC "-//W3C//DTD SVG 1.1//EN" "http://www.w3.org/Graphics/SVG/1.1/DTD/svg11.dtd"><svg class="icon" width="200px" height="200.00px" viewBox="0 0 1024 1024" version="1.1" xmlns="http://www.w3.org/2000/svg"><path d="M518.4 512m-414 0a414 414 0 1 0 828 0 414 414 0 1 0-828 0Z" fill="#F0C48A" /><path d="M920.6 421h-20.2c-15 0-27.2-12.2-27.2-27.2v-176c0-15 12.2-27.2 27.2-27.2h20.2c15 0 27.2 12.2 27.2 27.2v176c0.2 15-12 27.2-27.2 27.2z" fill="#FD919E" /><path d="M910.6 421c-16 0-28.8-13-28.8-28.8v-46.6h57.8v46.6c-0.2 15.8-13.2 28.8-29 28.8zM873.2 354.8h-49c-27.2 0-49-22-49-49 0-27.2 22-49 49-49h49v98z" fill="#E8677D" /><path d="M873.2 366.6h-49c-33.6 0-60.8-27.2-60.8-60.8 0-33.6 27.2-60.8 60.8-60.8h49c6.4 0 11.8 5.2 11.8 11.8v98.2c0 6.2-5.4 11.6-11.8 11.6z m-49-98.2c-20.6 0-37.4 16.8-37.4 37.4 0 20.6 16.8 37.4 37.4 37.4h37.4v-74.8h-37.4z" fill="#4C4372" /><path d="M920.6 432.8h-20.2c-21.4 0-39-17.4-39-39v-176c0-21.6 17.4-39 39-39h20.2c21.6 0 39 17.4 39 39v176c0 21.4-17.4 39-39 39z m-20.2-230.6c-8.6 0-15.6 7-15.6 15.6v176c0 8.6 7 15.6 15.6 15.6h20.2c8.6 0 15.6-7 15.6-15.6v-176c0-8.6-7-15.6-15.6-15.6h-20.2z" fill="#4C4372" /><path d="M920.6 741h-20.2c-15 0-27.2-12.2-27.2-27.2v-176c0-15 12.2-27.2 27.2-27.2h20.2c15 0 27.2 12.2 27.2 27.2v176c0.2 15-12 27.2-27.2 27.2z" fill="#FD919E" /><path d="M910.6 743.2c-16 0-28.8-13-28.8-28.8v-46.6h57.8v46.6c-0.2 16-13.2 28.8-29 28.8zM873.2 674.8h-49c-27.2 0-49-22-49-49 0-27.2 22-49 49-49h49v98z" fill="#E8677D" /><path d="M873.2 686.6h-49c-33.6 0-60.8-27.2-60.8-60.8 0-33.6 27.2-60.8 60.8-60.8h49c6.4 0 11.8 5.2 11.8 11.8v98.2c0 6.2-5.4 11.6-11.8 11.6z m-49-98.2c-20.6 0-37.4 16.8-37.4 37.4 0 20.6 16.8 37.4 37.4 37.4h37.4v-74.8h-37.4z" fill="#4C4372" /><path d="M920.6 752.8h-20.2c-21.4 0-39-17.4-39-39v-176c0-21.4 17.4-39 39-39h20.2c21.6 0 39 17.4 39 39v176c0 21.4-17.4 39-39 39z m-20.2-230.6c-8.6 0-15.6 7-15.6 15.6v176c0 8.6 7 15.6 15.6 15.6h20.2c8.6 0 15.6-7 15.6-15.6v-176c0-8.6-7-15.6-15.6-15.6h-20.2z" fill="#4C4372" /><path d="M630.4 1024H400.2c-36.2 0-65.8-29.4-65.8-65.8v-39.8c0-6.4 5.2-11.8 11.8-11.8 6.4 0 11.8 5.2 11.8 11.8v39.8c0 23.4 19 42.2 42.2 42.2h230.2c23.4 0 42.2-19 42.2-42.2V679.8c0-36.2 29.4-65.8 65.8-65.8h36.6c6.4 0 11.8 5.2 11.8 11.8s-5.2 11.8-11.8 11.8h-36.6c-23.4 0-42.2 19-42.2 42.2v278.6c0 36.2-29.6 65.6-65.8 65.6z" fill="#4C4372" /><path d="M684.4 771.2c-6.4 0-11.8-5.2-11.8-11.8V359.8c0-36.2 29.4-65.8 65.8-65.8h36.6c6.4 0 11.8 5.2 11.8 11.8s-5.2 11.8-11.8 11.8h-36.6c-23.4 0-42.2 19-42.2 42.2v399.6c0 6.6-5.4 11.8-11.8 11.8z" fill="#4C4372" /><path d="M541.8 849.2H150.8c-41.2 0-74.6-33.4-74.6-74.6V86.4C76 45.2 109.6 11.8 150.8 11.8h391c41.2 0 74.6 33.4 74.6 74.6v688.2c0 41.2-33.4 74.6-74.6 74.6z" fill="#D3E6F8" /><path d="M82 112h528.6v367H82z" fill="#FFFFFF" /><path d="M530.4 119h86V78.8c0-37.4-30.4-67.8-67.8-67.8h-18.2v108z" fill="#A4CFF2" /><path d="M530.4 112h86v367h-86z" fill="#D3E6F8" /><path d="M530.4 849h13.6c40 0 72.2-32.4 72.2-72.2V482.2h-86v366.8z" fill="#A4CFF2" /><path d="M361 918.6h-29.4c-15.6 0-28.2-12.6-28.2-28.2v-41.2h85.6v41.2c0 15.6-12.6 28.2-28 28.2z" fill="#7BABF1" /><path d="M346.2 665.6m-111.2 0a111.2 111.2 0 1 0 222.4 0 111.2 111.2 0 1 0-222.4 0Z" fill="#FD919E" /><path d="M346.2 665.6m-40 0a40 40 0 1 0 80 0 40 40 0 1 0-80 0Z" fill="#E8677D" /><path d="M541.8 861H150.8c-47.6 0-86.4-38.8-86.4-86.4V86.4C64.4 38.8 103.2 0 150.8 0h391C589.4 0 628 38.8 628 86.4v688.2c0 47.6-38.6 86.4-86.2 86.4zM150.8 23.4c-34.6 0-63 28.2-63 63v688.2c0 34.6 28.2 63 63 63h391c34.6 0 63-28.2 63-63V86.4c0-34.6-28.2-63-63-63H150.8z" fill="#4C4372" /><path d="M610.4 123.8H82c-6.4 0-11.8-5.2-11.8-11.8s5.2-11.8 11.8-11.8h528.6c6.4 0 11.8 5.2 11.8 11.8s-5.4 11.8-12 11.8zM610.4 490.6H82c-6.4 0-11.8-5.2-11.8-11.8s5.2-11.8 11.8-11.8h528.6c6.4 0 11.8 5.2 11.8 11.8s-5.4 11.8-12 11.8zM346.2 788.4c-67.8 0-122.8-55.2-122.8-122.8s55.2-122.8 122.8-122.8 122.8 55.2 122.8 122.8-55 122.8-122.8 122.8z m0-222.2c-54.8 0-99.4 44.6-99.4 99.4s44.6 99.4 99.4 99.4 99.4-44.6 99.4-99.4-44.6-99.4-99.4-99.4z" fill="#4C4372" /><path d="M346.2 717.2c-28.4 0-51.6-23.2-51.6-51.6 0-28.4 23.2-51.6 51.6-51.6s51.6 23.2 51.6 51.6c0 28.6-23 51.6-51.6 51.6z m0-79.8c-15.6 0-28.2 12.6-28.2 28.2s12.6 28.2 28.2 28.2 28.2-12.6 28.2-28.2-12.6-28.2-28.2-28.2zM361 930.2h-29.4c-22 0-39.8-17.8-39.8-39.8v-41.2c0-6.4 5.2-11.8 11.8-11.8h85.6c6.4 0 11.8 5.2 11.8 11.8v41.2c-0.2 22-18 39.8-40 39.8z m-45.8-69.2v29.6c0 9 7.4 16.4 16.4 16.4h29.4c9 0 16.4-7.4 16.4-16.4v-29.6h-62.2z" fill="#4C4372" /><path d="M240.2 363a41.2 27.8 0 1 0 82.4 0 41.2 27.8 0 1 0-82.4 0Z" fill="#FD919E" /><path d="M369.8 352.8a41.2 27.8 0 1 0 82.4 0 41.2 27.8 0 1 0-82.4 0Z" fill="#FD919E" /><path d="M281.4 402.6c-29.6 0-53-17.4-53-39.6 0-22.2 23.2-39.6 53-39.6 29.6 0 53 17.4 53 39.6 0 22.2-23.2 39.6-53 39.6z m0-55.6c-16.8 0-29.4 8.4-29.4 16s12.6 16 29.4 16c16.8 0 29.4-8.4 29.4-16s-12.6-16-29.4-16zM411 392.4c-29.6 0-53-17.4-53-39.6s23.2-39.6 53-39.6c29.6 0 53 17.4 53 39.6s-23.2 39.6-53 39.6z m0-55.6c-16.8 0-29.4 8.4-29.4 16s12.6 16 29.4 16c16.8 0 29.4-8.4 29.4-16s-12.6-16-29.4-16z" fill="#4C4372" /><path d="M322.6 377.4c-6.4 0-11.8-5.2-11.8-11.8V198c0-6 4.4-11 10.4-11.6l129.6-14.4c3.4-0.4 6.6 0.6 9.2 3 2.4 2.2 4 5.4 4 8.8v167.8c0 6.4-5.2 11.8-11.8 11.8s-11.8-5.2-11.8-11.8V196.6l-106.2 11.8v157.2c0.2 6.6-5 11.8-11.6 11.8z" fill="#4C4372" /></svg>