<?xml version="1.0" standalone="no"?><!DOCTYPE svg PUBLIC "-//W3C//DTD SVG 1.1//EN" "http://www.w3.org/Graphics/SVG/1.1/DTD/svg11.dtd"><svg class="icon" width="200px" height="200.00px" viewBox="0 0 1024 1024" version="1.1" xmlns="http://www.w3.org/2000/svg"><path d="M512 512m-414 0a414 414 0 1 0 828 0 414 414 0 1 0-828 0Z" fill="#F0C48A" /><path d="M59 187.6V83.4C59 44 91.4 11.8 130.8 11.8h501.6c39.4 0 71.8 32.2 71.8 71.8v857c0 39.4-32.2 71.8-71.8 71.8H130.8c-39.4 0-71.8-32.2-71.8-71.8V187.6z" fill="#A4CFF2" /><path d="M59 152.4H706v657.4H59z" fill="#FFFFFF" /><path d="M146.4 251.2h174.8V426H146.4zM146.4 531.6h174.8v174.8H146.4z" fill="#FD919E" /><path d="M605.8 158.2H704V68c0-29.4-23.8-53.2-53.2-53.2h-45v143.4zM605.8 1012.2h25.2c40.4 0 73.2-32.8 73.2-73.2v-126.8c0-5-4-9-9-9H606v209z" fill="#7BABF1" /><path d="M605.8 158.2H704v645h-98.2z" fill="#D3E6F8" /><path d="M351.490472 936.095584a44 44 0 1 0 62.224311-62.226483 44 44 0 1 0-62.224311 62.226483Z" fill="#7BABF1" /><path d="M701.4 164.2H61.8c-6.4 0-11.8-5.2-11.8-11.8s5.2-11.8 11.8-11.8h639.6c6.4 0 11.8 5.2 11.8 11.8s-5.4 11.8-11.8 11.8zM701.4 815H61.8c-6.4 0-11.8-5.2-11.8-11.8 0-6.4 5.2-11.8 11.8-11.8h639.6c6.4 0 11.8 5.2 11.8 11.8 0 6.6-5.4 11.8-11.8 11.8zM382.6 960.6c-30.8 0-55.6-25-55.6-55.6 0-30.8 25-55.6 55.6-55.6s55.6 25 55.6 55.6-25 55.6-55.6 55.6z m0-87.8c-17.8 0-32.2 14.4-32.2 32.2s14.4 32.2 32.2 32.2 32.2-14.4 32.2-32.2-14.4-32.2-32.2-32.2z" fill="#4C4372" /><path d="M632.4 1024H130.8c-46 0-83.4-37.4-83.4-83.4V83.4C47.4 37.4 84.8 0 130.8 0h501.6c46 0 83.4 37.4 83.4 83.4v857c0 46.2-37.4 83.6-83.4 83.6zM130.8 23.4c-33.2 0-60 27-60 60v857c0 33.2 27 60 60 60h501.6c33.2 0 60-27 60-60V83.4c0-33.2-27-60-60-60H130.8z" fill="#4C4372" /><path d="M267.6 251.2h53.8v167.8h-53.8zM267.6 535.2h53.8v167.8h-53.8z" fill="#E8677D" /><path d="M321.4 437.8H146.4c-6.4 0-11.8-5.2-11.8-11.8v-174.8c0-6.4 5.2-11.8 11.8-11.8h174.8c6.4 0 11.8 5.2 11.8 11.8V426c0 6.6-5.2 11.8-11.6 11.8z m-163.2-23.4h151.4v-151.4H158.2v151.4zM321.4 718.2H146.4c-6.4 0-11.8-5.2-11.8-11.8v-174.8c0-6.4 5.2-11.8 11.8-11.8h174.8c6.4 0 11.8 5.2 11.8 11.8v174.8c0 6.6-5.2 11.8-11.6 11.8z m-163.2-23.4h151.4v-151.4H158.2v151.4z" fill="#4C4372" /><path d="M704.2 482.6m-260.8 0a260.8 260.8 0 1 0 521.6 0 260.8 260.8 0 1 0-521.6 0Z" fill="#E8677D" /><path d="M704.2 222c-144 0-260.8 116.8-260.8 260.8 0 52 15.2 100.2 41.4 141 47 46.6 111.8 75.2 183.2 75.2 144 0 260.8-116.8 260.8-260.8 0-52-15.2-100.2-41.4-141-47-46.6-111.8-75.2-183.2-75.2z" fill="#FD919E" /><path d="M725.4 675.4c-3 0-6-1.2-8.2-3.4-4.6-4.6-4.6-12 0-16.6 95.2-95.2 95.2-250.2 0-345.4-4.6-4.6-4.6-12 0-16.6 4.6-4.6 12-4.6 16.6 0 50.6 50.6 78.4 117.8 78.4 189.2s-27.8 138.6-78.4 189.2c-2.4 2.4-5.4 3.6-8.4 3.6z" fill="#4C4372" /><path d="M668 618c-3 0-6-1.2-8.2-3.4-4.6-4.6-4.6-12 0-16.6 30.8-30.8 47.8-71.8 47.8-115.2 0-43.6-17-84.4-47.8-115.2-4.6-4.6-4.6-12 0-16.6 4.6-4.6 12-4.6 16.6 0 35.2 35.2 54.6 82 54.6 131.8s-19.4 96.6-54.6 131.8c-2.4 2.2-5.4 3.4-8.4 3.4zM608 558c-3 0-6-1.2-8.2-3.4-4.6-4.6-4.6-12 0-16.6 14.8-14.8 23-34.4 23-55.4s-8.2-40.6-23-55.4c-4.6-4.6-4.6-12 0-16.6 4.6-4.6 12-4.6 16.6 0 19.2 19.2 29.8 44.8 29.8 72 0 27.2-10.6 52.8-29.8 72-2.4 2.4-5.4 3.4-8.4 3.4z" fill="#4C4372" /><path d="M704.2 755.2c-150.2 0-272.6-122.2-272.6-272.6S554 210.2 704.2 210.2s272.6 122.2 272.6 272.6-122.4 272.4-272.6 272.4z m0-521.6c-137.4 0-249 111.8-249 249s111.8 249 249 249S953.2 620 953.2 482.6s-111.8-249-249-249z" fill="#4C4372" /></svg>