<?xml version="1.0" standalone="no"?><!DOCTYPE svg PUBLIC "-//W3C//DTD SVG 1.1//EN" "http://www.w3.org/Graphics/SVG/1.1/DTD/svg11.dtd"><svg class="icon" width="200px" height="200.00px" viewBox="0 0 1024 1024" version="1.1" xmlns="http://www.w3.org/2000/svg"><path d="M512 512m-414 0a414 414 0 1 0 828 0 414 414 0 1 0-828 0Z" fill="#F0C48A" /><path d="M11.8 183.8V82c0-38.6 31-70.2 68.8-70.2h480.8c37.8 0 68.8 31.6 68.8 70.2v860c0 38.6-31 70.2-68.8 70.2H80.6c-37.8 0-68.8-31.6-68.8-70.2V183.8z" fill="#A4CFF2" /><path d="M11.8 149.4h620.4v668H11.8z" fill="#FFFFFF" /><path d="M536 155h94.2v630.8H536z" fill="#D3E6F8" /><path d="M321 703.8c-123.2 0-223.2-99.8-223.2-223.2 0-123.2 99.8-223.2 223.2-223.2 123.2 0 223.2 99.8 223.2 223.2-0.2 123.4-100 223.2-223.2 223.2z" fill="#E8677D" /><path d="M321 257.6c-123.2 0-223.2 99.8-223.2 223.2 0 56.2 20.8 107.6 55 146.8C190.6 656.6 238 674 289.4 674c123.2 0 223.2-99.8 223.2-223.2 0-56.2-20.8-107.6-55-146.8-38-29-85.2-46.4-136.6-46.4z" fill="#FD919E" /><path d="M536 155h94.2V66.4c0-28.4-23-51.6-51.6-51.6H536v140.2zM536 1012.2h24c38.8 0 70.2-31.4 70.2-70.2v-143.6c0-4.8-3.8-8.6-8.6-8.6H536v222.4z" fill="#7BABF1" /><path d="M291.93772 942.721157a42.2 42.2 0 1 0 59.678771-59.680854 42.2 42.2 0 1 0-59.678771 59.680854Z" fill="#7BABF1" /><path d="M627.6 161H14.4c-6.4 0-11.8-5.2-11.8-11.8s5.2-11.8 11.8-11.8h613.2c6.4 0 11.8 5.2 11.8 11.8s-5.4 11.8-11.8 11.8zM627.6 829H14.4c-6.4 0-11.8-5.2-11.8-11.8 0-6.4 5.2-11.8 11.8-11.8h613.2c6.4 0 11.8 5.2 11.8 11.8-0.2 6.6-5.4 11.8-11.8 11.8zM321.8 966.8c-29.8 0-53.8-24.2-53.8-53.8 0-29.8 24.2-53.8 53.8-53.8 29.8 0 53.8 24.2 53.8 53.8 0.2 29.6-24 53.8-53.8 53.8z m0-84.4c-16.8 0-30.4 13.6-30.4 30.4s13.6 30.4 30.4 30.4 30.4-13.6 30.4-30.4-13.6-30.4-30.4-30.4z" fill="#4C4372" /><path d="M561.4 1024H80.6C36.2 1024 0 987.2 0 942V82C0 36.8 36.2 0 80.6 0h480.8C605.8 0 642 36.8 642 82v860c0 45.2-36.2 82-80.6 82zM80.6 23.4c-31.4 0-57 26.2-57 58.4V942c0 32.2 25.6 58.4 57 58.4h480.8c31.4 0 57-26.2 57-58.4V82c0-32.2-25.6-58.4-57-58.4H80.6z" fill="#4C4372" /><path d="M378 585.8h-114c-26.4 0-48-21.6-48-48v-114c0-26.4 21.6-48 48-48h114c26.4 0 48 21.6 48 48v114c0 26.4-21.6 48-48 48z m-114-186.6c-13.6 0-24.6 11-24.6 24.6v114c0 13.6 11 24.6 24.6 24.6h114c13.6 0 24.6-11 24.6-24.6v-114c0-13.6-11-24.6-24.6-24.6h-114z" fill="#4C4372" /><path d="M321 715.6c-129.4 0-234.8-105.4-234.8-234.8S191.4 246 321 246s234.8 105.4 234.8 234.8-105.4 234.8-234.8 234.8z m0-446.2c-116.6 0-211.4 94.8-211.4 211.4 0 116.6 94.8 211.4 211.4 211.4 116.6 0 211.4-94.8 211.4-211.4 0-116.6-94.8-211.4-211.4-211.4z" fill="#4C4372" /><path d="M986.4 857l-140.2 140.2c-20 20-52.4 20-72.4 0l-35-35c-20-20-20-52.4 0-72.4l140.2-140.2c20-20 52.4-20 72.4 0l35 35c20 20 20 52.4 0 72.4z" fill="#D3E6F8" /><path d="M985.2 858.2l-36.4 36.4-104-104 36.4-36.4c17.4-17.4 45.6-17.4 63 0l41 41c17.4 17.4 17.4 45.6 0 63z" fill="#A4CFF2" /><path d="M402.4 808l194.6 67.4 141.6 14.4 140.2-140.2-18.2-100.8-206-206.2s-48.6-10.2-62.8 48.6c-66-16-66 37.2-66 37.2s-63.4-36.8-81.2 22.4c-95.4-86.4-112.6-80.4-112.6-80.4s-61.6 26.4-21.8 79.4c39.8 53 172.8 172.8 172.8 172.8l-103.2 11.8c-0.2-0.2-42.6 50.4 22.6 73.6z" fill="#FFFFFF" /><path d="M616.2 459.8l187.4 187.4c5.6 5.6 10.2 12.2 13.6 19.6l40.8 90.4s44.8-24.4 25.4-44.6c-19.2-20.2-42.6-104.2-42.6-104.2l-186.2-166-38.4 17.4z" fill="#D3E6F8" /><path d="M810 1024c-16.2 0-32.2-6.2-44.6-18.4l-35-35c-11.8-11.8-18.4-27.6-18.4-44.6s6.6-32.6 18.4-44.6l140.2-140.2c24.6-24.6 64.4-24.6 89 0l35 35c11.8 11.8 18.4 27.6 18.4 44.6s-6.6 32.6-18.4 44.6l-140.2 140.2c-12.2 12.2-28.2 18.4-44.4 18.4z m105.2-277.8c-10.2 0-20.2 3.8-28 11.6L747 898c-7.4 7.4-11.6 17.4-11.6 28s4.2 20.4 11.6 28l35 35c15.4 15.4 40.4 15.4 55.8 0l140.2-140.2c7.4-7.4 11.6-17.4 11.6-28s-4.2-20.4-11.6-28l-35-35c-7.6-7.8-17.8-11.6-27.8-11.6z" fill="#4C4372" /><path d="M730.4 912.4c-0.6 0-1.4 0-2-0.2L609.4 892c-0.6-0.2-1.2-0.2-1.8-0.4l-208-72.2c-24.6-4.8-42.4-26.4-42.4-51.6 0-24.4 17.4-46 41.2-51.2 4-0.8 8.2-1.2 13.2-1l49.4 1.6-167.6-167.6c-20.8-20.8-20.8-54.6 0-75.4 20.8-20.8 54.6-20.8 75.4 0l179 179c4.6 4.6 4.6 12 0 16.6-4.6 4.6-12 4.6-16.6 0L352 490.8c-11.6-11.6-30.6-11.6-42.2 0-11.6 11.6-11.6 30.6 0 42.2l188.6 188.6c3.4 3.4 4.4 8.6 2.4 13-2 4.4-6.2 7.2-11.2 7l-79-2.6c-3-0.2-5.4 0-7.4 0.4-13.2 2.8-22.8 14.8-22.8 28.4 0 14 10 26.2 24 28.6 0.6 0.2 1.2 0.2 1.8 0.4l208 72 118 20.2c6.4 1 10.6 7.2 9.6 13.6-0.8 5.8-5.8 9.8-11.4 9.8z" fill="#4C4372" /><path d="M539.2 673.2c-3 0-6-1.2-8.2-3.4l-83.2-83.2c-9.6-9.6-15-22.4-15-36.2s5.4-26.4 15-36.2c9.6-9.6 22.4-15 36.2-15s26.4 5.4 36.2 15l83.2 83.2c4.6 4.6 4.6 12 0 16.6-4.6 4.6-12 4.6-16.6 0l-83.2-83.2c-5.2-5.2-12.2-8.2-19.6-8.2-7.4 0-14.4 2.8-19.6 8.2-5.2 5.2-8.2 12.2-8.2 19.6s2.8 14.4 8.2 19.6l83.2 83.2c4.6 4.6 4.6 12 0 16.6-2.4 2.2-5.4 3.4-8.4 3.4z" fill="#4C4372" /><path d="M595 617.6c-3 0-6-1.2-8.2-3.4l-59-59c-9.6-9.6-15-22.4-15-36.2 0-13.6 5.4-26.4 15-36.2 20-20 52.4-20 72.2 0l59 59c4.6 4.6 4.6 12 0 16.6-4.6 4.6-12 4.6-16.6 0l-59-59c-5.2-5.2-12.2-8.2-19.6-8.2-7.4 0-14.4 2.8-19.6 8.2-5.2 5.2-8.2 12.2-8.2 19.6 0 7.4 2.8 14.4 8.2 19.6l59 59c4.6 4.6 4.6 12 0 16.6-2.2 2.2-5.2 3.4-8.2 3.4z" fill="#4C4372" /><path d="M892.4 747.8c-4.6 0-9.2-2.8-11-7.4l-24-62.4c-6.8-17.6-17-33.2-30.2-46.4l-163.4-163.4c-10.8-10.8-28.4-10.8-39.2 0-5.2 5.2-8.2 12.2-8.2 19.6 0 7.4 2.8 14.4 8.2 19.6l34.6 34.6c4.6 4.6 4.6 12 0 16.6-4.6 4.6-12 4.6-16.6 0L608 524c-20-20-20-52.4 0-72.4 20-20 52.4-20 72.2 0l163.4 163.4c15.6 15.6 27.6 34 35.6 54.6l24.2 62.2c2.4 6-0.6 12.8-6.6 15.2-1.6 0.6-3 0.8-4.4 0.8z" fill="#4C4372" /><path d="M962.2 388.6H628.4c-27.6 0-50-22.4-50-50V128c0-27.6 22.4-50 50-50h333.8c27.6 0 50 22.4 50 50v210.4c0 27.8-22.4 50.2-50 50.2z" fill="#FD919E" /><path d="M838.8 304.2c-2.2 0-4.6-0.6-6.6-2l-103.8-70.8-69.4 69.4c-4.6 4.6-12 4.6-16.6 0-4.6-4.6-4.6-12 0-16.6l76.4-76.4c4-4 10.2-4.6 15-1.4l102.6 70 85-112c4-5.2 11.2-6.2 16.4-2.2 5.2 4 6.2 11.2 2.2 16.4l-91.8 121c-2.2 3-5.8 4.6-9.4 4.6z" fill="#4C4372" /><path d="M954.2 384V82.8c32 0 58 26 58 58V326c0 32-25.8 58-58 58z" fill="#E8677D" /><path d="M962.2 400.4H628.4c-34 0-61.8-27.8-61.8-61.8V128c0-34 27.8-61.8 61.8-61.8h333.8c34 0 61.8 27.8 61.8 61.8v210.4c0 34.2-27.8 62-61.8 62zM628.4 89.8c-21.2 0-38.4 17.2-38.4 38.4v210.4c0 21.2 17.2 38.4 38.4 38.4h333.8c21.2 0 38.4-17.2 38.4-38.4V128c0-21.2-17.2-38.4-38.4-38.4H628.4z" fill="#4C4372" /></svg>