<?xml version="1.0" standalone="no"?><!DOCTYPE svg PUBLIC "-//W3C//DTD SVG 1.1//EN" "http://www.w3.org/Graphics/SVG/1.1/DTD/svg11.dtd"><svg class="icon" width="200px" height="200.00px" viewBox="0 0 1024 1024" version="1.1" xmlns="http://www.w3.org/2000/svg"><path d="M512 512m-414 0a414 414 0 1 0 828 0 414 414 0 1 0-828 0Z" fill="#F0C48A" /><path d="M473 644.4h77.8v156.8h-77.8zM556 644.4h-88c-17.2 0-31.2-14-31.2-31.2v-50.6h150.4v50.6c0 17.2-14 31.2-31.2 31.2zM556 801.2h-88c-17.2 0-31.2 14-31.2 31.2v50.6h150.4v-50.6c0-17.2-14-31.2-31.2-31.2zM238.4 644.4h77.8v156.8h-77.8zM321.4 644.4h-88c-17.2 0-31.2-14-31.2-31.2v-50.6h150.4v50.6c0 17.2-14 31.2-31.2 31.2zM321.4 801.2h-88c-17.2 0-31.2 14-31.2 31.2v50.6h150.4v-50.6c0-17.2-14-31.2-31.2-31.2zM707.8 644.4h77.8v156.8h-77.8zM790.6 644.4h-88c-17.2 0-31.2-14-31.2-31.2v-50.6h150.4v50.6c0 17.2-14 31.2-31.2 31.2zM790.6 801.2h-88c-17.2 0-31.2 14-31.2 31.2v50.6h150.4v-50.6c0-17.2-14-31.2-31.2-31.2z" fill="#FD919E" /><path d="M746.6 649h37.2v152.2h-37.2zM771.4 644.4h14c20 0 36.4-16.2 36.4-36.4v-58.2h-50.4v94.6zM771.4 801.2h14c20 0 36.4 16.2 36.4 36.4v58.2h-50.4v-94.6zM513.4 649h37.2v152.2h-37.2zM538.2 644.4h14c20 0 36.4-16.2 36.4-36.4v-58.2h-50.4v94.6zM538.2 801.2h14c20 0 36.4 16.2 36.4 36.4v58.2h-50.4v-94.6zM278.6 649h37.2v152.2h-37.2zM303.4 644.4h14c20 0 36.4-16.2 36.4-36.4v-58.2h-50.4v94.6zM303.4 801.2h14c20 0 36.4 16.2 36.4 36.4v58.2h-50.4v-94.6z" fill="#E8677D" /><path d="M137.4 883h749.2v129.2H137.4z" fill="#7BABF1" /><path d="M135 883h751.6v50.8H135zM170.2 562.6h683.6c31.6 0 44.8-40.4 19.4-59.2L531.4 251.6c-11.6-8.6-27.2-8.6-38.8 0L150.8 503.4c-25.4 18.8-12.2 59.2 19.4 59.2z" fill="#A4CFF2" /><path d="M873.2 503.4L531.4 251.6c-11.6-8.6-27.2-8.6-38.8 0l-9 6.6-24 17.6 394.2 286.6 10.2-1.6c24-7.2 31.8-40.8 9.2-57.4z" fill="#7BABF1" /><path d="M886.6 1024H137.4c-6.4 0-11.8-5.2-11.8-11.8v-129.2c0-6.4 5.2-11.8 11.8-11.8h749.2c6.4 0 11.8 5.2 11.8 11.8v129.2c0 6.6-5.4 11.8-11.8 11.8zM149.2 1000.6h725.8v-105.8H149.2v105.8zM551 813h-77.8c-6.4 0-11.8-5.2-11.8-11.8v-156.8c0-6.4 5.2-11.8 11.8-11.8h77.8c6.4 0 11.8 5.2 11.8 11.8v156.8c-0.2 6.6-5.4 11.8-11.8 11.8z m-66.2-23.4h54.4v-133.4h-54.4v133.4z" fill="#4C4372" /><path d="M556 656.2h-88c-23.6 0-43-19.2-43-42.8v-50.6c0-6.4 5.2-11.8 11.8-11.8h150.4c6.4 0 11.8 5.2 11.8 11.8v50.6c0 23.4-19.4 42.8-43 42.8z m-107.4-82v39c0 10.8 8.8 19.4 19.4 19.4h88c10.8 0 19.4-8.8 19.4-19.4v-39h-126.8zM587.2 894.8h-150.4c-6.4 0-11.8-5.2-11.8-11.8v-50.6c0-23.6 19.2-43 43-43h88c23.6 0 43 19.2 43 43v50.6c0 6.6-5.4 11.8-11.8 11.8z m-138.6-23.4h127v-39c0-10.8-8.8-19.4-19.4-19.4h-88c-10.8 0-19.4 8.8-19.4 19.4v39zM316.2 813h-77.8c-6.4 0-11.8-5.2-11.8-11.8v-156.8c0-6.4 5.2-11.8 11.8-11.8h77.8c6.4 0 11.8 5.2 11.8 11.8v156.8c0 6.6-5.2 11.8-11.8 11.8z m-66-23.4h54.4v-133.4h-54.4v133.4z" fill="#4C4372" /><path d="M321.4 656.2h-88c-23.6 0-43-19.2-43-42.8v-50.6c0-6.4 5.2-11.8 11.8-11.8h150.4c6.4 0 11.8 5.2 11.8 11.8v50.6c-0.2 23.4-19.4 42.8-43 42.8z m-107.6-82v39c0 10.8 8.8 19.4 19.4 19.4h88c10.8 0 19.4-8.8 19.4-19.4v-39h-126.8zM352.6 894.8h-150.4c-6.4 0-11.8-5.2-11.8-11.8v-50.6c0-23.6 19.2-43 43-43h88c23.6 0 43 19.2 43 43v50.6c-0.2 6.6-5.4 11.8-11.8 11.8z m-138.8-23.4h127v-39c0-10.8-8.8-19.4-19.4-19.4h-88c-10.8 0-19.4 8.8-19.4 19.4v39zM785.6 813h-77.8c-6.4 0-11.8-5.2-11.8-11.8v-156.8c0-6.4 5.2-11.8 11.8-11.8h77.8c6.4 0 11.8 5.2 11.8 11.8v156.8c0 6.6-5.4 11.8-11.8 11.8z m-66.2-23.4h54.4v-133.4h-54.4v133.4z" fill="#4C4372" /><path d="M790.6 656.2h-88c-23.6 0-43-19.2-43-42.8v-50.6c0-6.4 5.2-11.8 11.8-11.8h150.4c6.4 0 11.8 5.2 11.8 11.8v50.6c0 23.4-19.2 42.8-43 42.8z m-107.4-82v39c0 10.8 8.8 19.4 19.4 19.4h88c10.8 0 19.4-8.8 19.4-19.4v-39h-126.8zM821.8 894.8h-150.4c-6.4 0-11.8-5.2-11.8-11.8v-50.6c0-23.6 19.2-43 43-43h88c23.6 0 43 19.2 43 43v50.6c0 6.6-5.2 11.8-11.8 11.8z m-138.6-23.4h127v-39c0-10.8-8.8-19.4-19.4-19.4h-88c-10.8 0-19.4 8.8-19.4 19.4v39z" fill="#4C4372" /><path d="M853.8 574.2H170.2c-19.6 0-36.2-12-42.2-30.6-6.2-18.6 0.2-38 15.8-49.6l341.8-251.8c15.8-11.6 37-11.6 52.8 0L880.2 494c15.8 11.6 22 31.2 15.8 49.6-6 18.6-22.6 30.6-42.2 30.6zM512 257c-4.4 0-8.8 1.4-12.4 4.2L157.8 512.8c-9 6.6-9.8 16.4-7.6 23.4 2.2 7 8.8 14.4 20 14.4h683.6c11.2 0 17.6-7.4 20-14.4 2.2-7 1.6-16.8-7.6-23.4L524.4 261.2c-3.6-2.8-8-4.2-12.4-4.2z" fill="#4C4372" /><path d="M646 254.4c-3 0-6-1.2-8.2-3.4-4.6-4.6-4.6-12 0-16.6 59.2-59.2 59.2-155.2 0-214.4-4.6-4.6-4.6-12 0-16.6 4.6-4.6 12-4.6 16.6 0 68.2 68.2 68.2 179.2 0 247.6-2.2 2.2-5.4 3.4-8.4 3.4z" fill="#4C4372" /><path d="M609.4 217.8c-3 0-6-1.2-8.2-3.4-4.6-4.6-4.6-12 0-16.6 18.8-18.8 29.2-44 29.2-70.6 0-26.6-10.4-51.8-29.2-70.6-4.6-4.6-4.6-12 0-16.6 4.6-4.6 12-4.6 16.6 0 23.2 23.2 36 54.2 36 87.2s-12.8 63.8-36 87.2c-2.4 2.2-5.4 3.4-8.4 3.4zM378 254.4c-3 0-6-1.2-8.2-3.4-68.2-68.2-68.2-179.2 0-247.6 4.6-4.6 12-4.6 16.6 0 4.6 4.6 4.6 12 0 16.6-59.2 59.2-59.2 155.2 0 214.4 4.6 4.6 4.6 12 0 16.6-2.4 2.2-5.4 3.4-8.4 3.4z" fill="#4C4372" /><path d="M414.6 217.8c-3 0-6-1.2-8.2-3.4-23.2-23.2-36-54.2-36-87.2s12.8-63.8 36-87.2c4.6-4.6 12-4.6 16.6 0 4.6 4.6 4.6 12 0 16.6-18.8 18.8-29.2 44-29.2 70.6 0 26.6 10.4 51.8 29.2 70.6 4.6 4.6 4.6 12 0 16.6-2.4 2.2-5.4 3.4-8.4 3.4z" fill="#4C4372" /><path d="M512 145.6c-11.2 0-20.2 9-20.2 20.2v168.4c0 11.2 9 20.2 20.2 20.2s20.2-9 20.2-20.2V165.8c0-11.2-9-20.2-20.2-20.2z" fill="#FFFFFF" /><path d="M512 366.2c-17.6 0-32-14.4-32-32V145.6c0-6.4 5.2-11.8 11.8-11.8h40.6c6.4 0 11.8 5.2 11.8 11.8v188.6c-0.2 17.6-14.6 32-32.2 32z m-8.6-209V334c0 4.8 3.8 8.6 8.6 8.6s8.6-3.8 8.6-8.6V157.2h-17.2z" fill="#4C4372" /><path d="M471.544298 167.651314a57.2 57.2 0 1 0 80.891604-80.894427 57.2 57.2 0 1 0-80.891604 80.894427Z" fill="#E8677D" /><path d="M454.8 127.2c0 15.4 6.2 29.6 16.2 39.8 4 0.8 8.2 1.4 12.4 1.4 31.6 0 57.2-25.6 57.2-57.2 0-15.4-6.2-29.6-16.2-39.8-4-0.8-8.2-1.4-12.4-1.4-31.6 0-57.2 25.6-57.2 57.2z" fill="#FD919E" /><path d="M512 196c-38 0-68.8-30.8-68.8-68.8S474 58.4 512 58.4s68.8 30.8 68.8 68.8S550 196 512 196z m0-114.2c-25 0-45.4 20.4-45.4 45.4s20.4 45.4 45.4 45.4 45.4-20.4 45.4-45.4-20.4-45.4-45.4-45.4z" fill="#4C4372" /></svg>