<?xml version="1.0" standalone="no"?><!DOCTYPE svg PUBLIC "-//W3C//DTD SVG 1.1//EN" "http://www.w3.org/Graphics/SVG/1.1/DTD/svg11.dtd"><svg class="icon" width="200px" height="200.00px" viewBox="0 0 1024 1024" version="1.1" xmlns="http://www.w3.org/2000/svg"><path d="M512 512m-414 0a414 414 0 1 0 828 0 414 414 0 1 0-828 0Z" fill="#F0C48A" /><path d="M238 254.6h548v431H238z" fill="#7BABF1" /><path d="M786 697.2H238c-6.4 0-11.8-5.2-11.8-11.8V254.6c0-6.4 5.2-11.8 11.8-11.8h548c6.4 0 11.8 5.2 11.8 11.8v431c-0.2 6.4-5.4 11.6-11.8 11.6z m-536.2-23.4h524.4V266.2H249.8v407.6z" fill="#4C4372" /><path d="M317.2 133.4h392v552h-392z" fill="#A4CFF2" /><path d="M363.6 72.6h299.2v60.8H363.6z" fill="#D3E6F8" /><path d="M418.6 11.8h189v60.8h-189z" fill="#FFFFFF" /><path d="M554.4 11.8h53.2v60.8h-53.2z" fill="#D3E6F8" /><path d="M609.6 68.2h53.2v60.8h-53.2z" fill="#A4CFF2" /><path d="M656 133.4h53.2v552H656z" fill="#7BABF1" /><path d="M363.6 426h71.6v71.6h-71.6zM477.4 426h71.6v71.6h-71.6zM591.4 426h71.6v71.6h-71.6zM363.6 304.6h71.6v71.6h-71.6zM477.4 304.6h71.6v71.6h-71.6zM591.4 304.6h71.6v71.6h-71.6zM363.6 183h71.6v71.6h-71.6zM477.4 183h71.6v71.6h-71.6zM591.4 183h71.6v71.6h-71.6z" fill="#FFFFFF" /><path d="M709.2 697.2h-392c-6.4 0-11.8-5.2-11.8-11.8v-552c0-6.4 5.2-11.8 11.8-11.8h392c6.4 0 11.8 5.2 11.8 11.8v552c0 6.6-5.4 11.8-11.8 11.8z m-380.2-23.4h368.6V145.2H329v528.6z" fill="#4C4372" /><path d="M435 509.2h-71.6c-6.4 0-11.8-5.2-11.8-11.8V426c0-6.4 5.2-11.8 11.8-11.8h71.6c6.4 0 11.8 5.2 11.8 11.8v71.6c0 6.4-5.2 11.6-11.8 11.6z m-59.8-23.4h48v-48h-48v48zM549 509.2h-71.6c-6.4 0-11.8-5.2-11.8-11.8V426c0-6.4 5.2-11.8 11.8-11.8h71.6c6.4 0 11.8 5.2 11.8 11.8v71.6c-0.2 6.4-5.4 11.6-11.8 11.6z m-59.8-23.4h48v-48h-48v48zM662.8 509.2h-71.6c-6.4 0-11.8-5.2-11.8-11.8V426c0-6.4 5.2-11.8 11.8-11.8h71.6c6.4 0 11.8 5.2 11.8 11.8v71.6c0 6.4-5.2 11.6-11.8 11.6z m-59.8-23.4h48v-48h-48v48zM435 387.8h-71.6c-6.4 0-11.8-5.2-11.8-11.8v-71.6c0-6.4 5.2-11.8 11.8-11.8h71.6c6.4 0 11.8 5.2 11.8 11.8V376c0 6.6-5.2 11.8-11.8 11.8z m-59.8-23.4h48v-48h-48v48zM549 387.8h-71.6c-6.4 0-11.8-5.2-11.8-11.8v-71.6c0-6.4 5.2-11.8 11.8-11.8h71.6c6.4 0 11.8 5.2 11.8 11.8V376c-0.2 6.6-5.4 11.8-11.8 11.8z m-59.8-23.4h48v-48h-48v48zM662.8 387.8h-71.6c-6.4 0-11.8-5.2-11.8-11.8v-71.6c0-6.4 5.2-11.8 11.8-11.8h71.6c6.4 0 11.8 5.2 11.8 11.8V376c0 6.6-5.2 11.8-11.8 11.8z m-59.8-23.4h48v-48h-48v48z" fill="#4C4372" /><path d="M435 266.2h-71.6c-6.4 0-11.8-5.2-11.8-11.8V183c0-6.4 5.2-11.8 11.8-11.8h71.6c6.4 0 11.8 5.2 11.8 11.8v71.6c0 6.4-5.2 11.6-11.8 11.6z m-59.8-23.4h48v-48h-48v48zM549 266.2h-71.6c-6.4 0-11.8-5.2-11.8-11.8V183c0-6.4 5.2-11.8 11.8-11.8h71.6c6.4 0 11.8 5.2 11.8 11.8v71.6c-0.2 6.4-5.4 11.6-11.8 11.6z m-59.8-23.4h48v-48h-48v48zM662.8 266.2h-71.6c-6.4 0-11.8-5.2-11.8-11.8V183c0-6.4 5.2-11.8 11.8-11.8h71.6c6.4 0 11.8 5.2 11.8 11.8v71.6c0 6.4-5.2 11.6-11.8 11.6z m-59.8-23.4h48v-48h-48v48z" fill="#4C4372" /><path d="M662.8 145.2H363.6c-6.4 0-11.8-5.2-11.8-11.8V72.6c0-6.4 5.2-11.8 11.8-11.8h299.2c6.4 0 11.8 5.2 11.8 11.8v60.8c0 6.6-5.2 11.8-11.8 11.8zM375.2 121.8h275.8V84.4H375.2v37.4z" fill="#4C4372" /><path d="M607.8 84.4h-189c-6.4 0-11.8-5.2-11.8-11.8V11.8c0-6.4 5.2-11.8 11.8-11.8h189c6.4 0 11.8 5.2 11.8 11.8v60.8c-0.2 6.4-5.4 11.8-11.8 11.8z m-177.4-23.6H596V23.4h-165.6v37.4z" fill="#4C4372" /><path d="M513.2 1012.2l229.6-166.6V548.4H283.6v297.2z" fill="#FD919E" /><path d="M513.2 826.6l-82.4 43.2 15.8-91.6-66.6-65 92-13.2 41.2-83.6 41.2 83.6 92 13.2-66.6 65 15.8 91.6z" fill="#FFFFFF" /><path d="M595.6 881.6c-1.8 0-3.8-0.4-5.4-1.4l-76.8-40.4-76.8 40.4c-4 2-8.8 1.8-12.4-0.8-3.6-2.6-5.4-7-4.6-11.4l14.6-85.6-62.2-60.6c-3.2-3.2-4.4-7.8-3-12 1.4-4.2 5-7.4 9.4-8l86-12.4 38.4-77.8c2-4 6-6.6 10.6-6.6 4.4 0 8.6 2.6 10.6 6.6l38.4 77.8 86 12.4c4.4 0.6 8 3.8 9.4 8 1.4 4.2 0.2 9-3 12l-62.2 60.6 14.6 85.6c0.8 4.4-1 8.8-4.6 11.4-2.2 1.4-4.6 2.2-7 2.2z m-190.4-160.2l49.6 48.4c2.8 2.6 4 6.6 3.4 10.4l-11.8 68.2 61.2-32.2c3.4-1.8 7.4-1.8 11 0l61.2 32.2-11.8-68.2c-0.6-3.8 0.6-7.6 3.4-10.4l49.6-48.4-68.6-10c-3.8-0.6-7.2-3-8.8-6.4l-30.6-62-30.6 62c-1.8 3.4-5 5.8-8.8 6.4l-68.4 10z" fill="#4C4372" /><path d="M687.4 551.6v222.2c0 27.2-12.8 52.8-34.4 69.2L477.4 976l35.8 36.4 229.4-169.8V551.6h-55.2z" fill="#E8677D" /><path d="M513.2 1024c-2.4 0-4.8-0.8-6.8-2.2l-229.6-166.8c-3-2.2-4.8-5.8-4.8-9.4V548.4c0-6.4 5.2-11.8 11.8-11.8h459c6.4 0 11.8 5.2 11.8 11.8v297.2c0 3.8-1.8 7.2-4.8 9.4L520 1021.8c-2 1.4-4.4 2.2-6.8 2.2z m-217.8-184.4l217.8 158.2 217.8-158.2V560H295.4v279.6z" fill="#4C4372" /></svg>