<?xml version="1.0" standalone="no"?><!DOCTYPE svg PUBLIC "-//W3C//DTD SVG 1.1//EN" "http://www.w3.org/Graphics/SVG/1.1/DTD/svg11.dtd"><svg class="icon" width="200px" height="200.00px" viewBox="0 0 1024 1024" version="1.1" xmlns="http://www.w3.org/2000/svg"><path d="M512 512m-414 0a414 414 0 1 0 828 0 414 414 0 1 0-828 0Z" fill="#F0C48A" /><path d="M702.4 1012.2h-536c-40.8 0-74-33.2-74-74V85.8c0-40.8 33.2-74 74-74h536c40.8 0 74 33.2 74 74v852.4c0 41-33.2 74-74 74z" fill="#D3E6F8" /><path d="M663.8 11.8h36c42.4 0 76.6 34.2 76.6 76.6v847.4c0 42.4-34.2 76.6-76.6 76.6h-36V11.8z" fill="#A4CFF2" /><path d="M276.6 543.2h-50.2c-17.2 0-31.2-14-31.2-31.2v-5c0-17.2 14-31.2 31.2-31.2h50.2c17.2 0 31.2 14 31.2 31.2v5c0 17.2-14 31.2-31.2 31.2zM459.4 543.2h-50.2c-17.2 0-31.2-14-31.2-31.2v-5c0-17.2 14-31.2 31.2-31.2h50.2c17.2 0 31.2 14 31.2 31.2v5c0.2 17.2-13.8 31.2-31.2 31.2zM642.4 543.2h-50.2c-17.2 0-31.2-14-31.2-31.2v-5c0-17.2 14-31.2 31.2-31.2h50.2c17.2 0 31.2 14 31.2 31.2v5c0 17.2-14 31.2-31.2 31.2zM276.6 676.6h-50.2c-17.2 0-31.2-14-31.2-31.2v-5c0-17.2 14-31.2 31.2-31.2h50.2c17.2 0 31.2 14 31.2 31.2v5c0 17.2-14 31.2-31.2 31.2zM459.4 676.6h-50.2c-17.2 0-31.2-14-31.2-31.2v-5c0-17.2 14-31.2 31.2-31.2h50.2c17.2 0 31.2 14 31.2 31.2v5c0.2 17.2-13.8 31.2-31.2 31.2zM642.4 676.6h-50.2c-17.2 0-31.2-14-31.2-31.2v-5c0-17.2 14-31.2 31.2-31.2h50.2c17.2 0 31.2 14 31.2 31.2v5c0 17.2-14 31.2-31.2 31.2zM276.6 810.2h-50.2c-17.2 0-31.2-14-31.2-31.2V774c0-17.2 14-31.2 31.2-31.2h50.2c17.2 0 31.2 14 31.2 31.2v5c0 17.2-14 31.2-31.2 31.2zM459.4 810.2h-50.2c-17.2 0-31.2-14-31.2-31.2V774c0-17.2 14-31.2 31.2-31.2h50.2c17.2 0 31.2 14 31.2 31.2v5c0.2 17.2-13.8 31.2-31.2 31.2zM642.4 810.2h-50.2c-17.2 0-31.2-14-31.2-31.2V774c0-17.2 14-31.2 31.2-31.2h50.2c17.2 0 31.2 14 31.2 31.2v5c0 17.2-14 31.2-31.2 31.2z" fill="#FFFFFF" /><path d="M459.4 943.6h-50.2c-17.2 0-31.2-14-31.2-31.2v-5c0-17.2 14-31.2 31.2-31.2h50.2c17.2 0 31.2 14 31.2 31.2v5c0.2 17.2-13.8 31.2-31.2 31.2z" fill="#FFFFFF" /><path d="M702.4 1024h-536c-47.2 0-85.8-38.4-85.8-85.8V85.8C80.6 38.4 119.2 0 166.4 0h536c47.2 0 85.8 38.4 85.8 85.8v852.4c0 47.4-38.6 85.8-85.8 85.8zM166.4 23.4C132 23.4 104 51.4 104 85.8v852.4c0 34.4 28 62.4 62.4 62.4h536c34.4 0 62.4-28 62.4-62.4V85.8c0-34.4-28-62.4-62.4-62.4h-536z" fill="#4C4372" /><path d="M776.4 255.4h-684c-6.4 0-11.8-5.2-11.8-11.8s5.2-11.8 11.8-11.8h684c6.4 0 11.8 5.2 11.8 11.8s-5.4 11.8-11.8 11.8z" fill="#4C4372" /><path d="M621.2 394H247.6c-29 0-52.6-23.6-52.6-52.6v-196c0-29 23.6-52.6 52.6-52.6h373.4c29 0 52.6 23.6 52.6 52.6v196c0 29.2-23.4 52.6-52.4 52.6z" fill="#7BABF1" /><path d="M621.2 405.8H247.6c-35.4 0-64.2-28.8-64.2-64.2v-196c0-35.4 28.8-64.2 64.2-64.2h373.4c35.4 0 64.2 28.8 64.2 64.2v196c0.2 35.4-28.6 64.2-64 64.2zM247.6 104.8c-22.4 0-40.8 18.2-40.8 40.8v196c0 22.4 18.2 40.8 40.8 40.8h373.4c22.4 0 40.8-18.2 40.8-40.8v-196c0-22.4-18.2-40.8-40.8-40.8H247.6z" fill="#4C4372" /><path d="M276.6 554.8h-50.2c-23.6 0-43-19.2-43-43v-5c0-23.6 19.2-43 43-43h50.2c23.6 0 43 19.2 43 43v5c0 23.8-19.4 43-43 43z m-50.2-67.4c-10.8 0-19.6 8.8-19.6 19.6v5c0 10.8 8.8 19.6 19.6 19.6h50.2c10.8 0 19.6-8.8 19.6-19.6v-5c0-10.8-8.8-19.6-19.6-19.6h-50.2zM459.4 554.8h-50.2c-23.6 0-43-19.2-43-43v-5c0-23.6 19.2-43 43-43h50.2c23.6 0 43 19.2 43 43v5c0 23.8-19.2 43-43 43z m-50.2-67.4c-10.8 0-19.6 8.8-19.6 19.6v5c0 10.8 8.8 19.6 19.6 19.6h50.2c10.8 0 19.6-8.8 19.6-19.6v-5c0-10.8-8.8-19.6-19.6-19.6h-50.2zM642.4 554.8h-50.2c-23.6 0-43-19.2-43-43v-5c0-23.6 19.2-43 43-43h50.2c23.6 0 43 19.2 43 43v5c0 23.8-19.4 43-43 43z m-50.2-67.4c-10.8 0-19.6 8.8-19.6 19.6v5c0 10.8 8.8 19.6 19.6 19.6h50.2c10.8 0 19.6-8.8 19.6-19.6v-5c0-10.8-8.8-19.6-19.6-19.6h-50.2zM276.6 688.4h-50.2c-23.6 0-43-19.2-43-43v-5c0-23.6 19.2-43 43-43h50.2c23.6 0 43 19.2 43 43v5c0 23.8-19.4 43-43 43z m-50.2-67.4c-10.8 0-19.6 8.8-19.6 19.6v5c0 10.8 8.8 19.6 19.6 19.6h50.2c10.8 0 19.6-8.8 19.6-19.6v-5c0-10.8-8.8-19.6-19.6-19.6h-50.2zM459.4 688.4h-50.2c-23.6 0-43-19.2-43-43v-5c0-23.6 19.2-43 43-43h50.2c23.6 0 43 19.2 43 43v5c0 23.8-19.2 43-43 43z m-50.2-67.4c-10.8 0-19.6 8.8-19.6 19.6v5c0 10.8 8.8 19.6 19.6 19.6h50.2c10.8 0 19.6-8.8 19.6-19.6v-5c0-10.8-8.8-19.6-19.6-19.6h-50.2zM642.4 688.4h-50.2c-23.6 0-43-19.2-43-43v-5c0-23.6 19.2-43 43-43h50.2c23.6 0 43 19.2 43 43v5c0 23.8-19.4 43-43 43z m-50.2-67.4c-10.8 0-19.6 8.8-19.6 19.6v5c0 10.8 8.8 19.6 19.6 19.6h50.2c10.8 0 19.6-8.8 19.6-19.6v-5c0-10.8-8.8-19.6-19.6-19.6h-50.2z" fill="#4C4372" /><path d="M276.6 821.8h-50.2c-23.6 0-43-19.2-43-43V774c0-23.6 19.2-43 43-43h50.2c23.6 0 43 19.2 43 43v5c0 23.6-19.4 42.8-43 42.8z m-50.2-67.4c-10.8 0-19.6 8.8-19.6 19.6v5c0 10.8 8.8 19.6 19.6 19.6h50.2c10.8 0 19.6-8.8 19.6-19.6V774c0-10.8-8.8-19.6-19.6-19.6h-50.2zM459.4 821.8h-50.2c-23.6 0-43-19.2-43-43V774c0-23.6 19.2-43 43-43h50.2c23.6 0 43 19.2 43 43v5c0 23.6-19.2 42.8-43 42.8z m-50.2-67.4c-10.8 0-19.6 8.8-19.6 19.6v5c0 10.8 8.8 19.6 19.6 19.6h50.2c10.8 0 19.6-8.8 19.6-19.6V774c0-10.8-8.8-19.6-19.6-19.6h-50.2zM642.4 821.8h-50.2c-23.6 0-43-19.2-43-43V774c0-23.6 19.2-43 43-43h50.2c23.6 0 43 19.2 43 43v5c0 23.6-19.4 42.8-43 42.8z m-50.2-67.4c-10.8 0-19.6 8.8-19.6 19.6v5c0 10.8 8.8 19.6 19.6 19.6h50.2c10.8 0 19.6-8.8 19.6-19.6V774c0-10.8-8.8-19.6-19.6-19.6h-50.2z" fill="#4C4372" /><path d="M459.4 955.4h-50.2c-23.6 0-43-19.2-43-43v-5c0-23.6 19.2-43 43-43h50.2c23.6 0 43 19.2 43 43v5c0 23.6-19.2 43-43 43zM409.2 888c-10.8 0-19.6 8.8-19.6 19.6v5c0 10.8 8.8 19.6 19.6 19.6h50.2c10.8 0 19.6-8.8 19.6-19.6v-5c0-10.8-8.8-19.6-19.6-19.6h-50.2z" fill="#4C4372" /><path d="M776.4 475.8c-62.4 0-113 50.6-113 113v113h52.8v-111.6c0-33.2 27-60.2 60.2-60.2s60.2 27 60.2 60.2v111.6h52.8v-113c0-62.4-50.6-113-113-113z" fill="#FFFFFF" /><path d="M844.6 498.8v203h44.8v-113c0-36.8-17.6-69.4-44.8-90z" fill="#D3E6F8" /><path d="M621.2 701.8h310.4v310.4H621.2z" fill="#FD919E" /><path d="M860.8 701.8h70.8v310.4h-70.8zM825 832c0-26.8-21.8-48.6-48.6-48.6s-48.6 21.8-48.6 48.6c0 14.4 6.2 27.2 16.2 36l-8 62.4h82l-8-63.4c9.2-8.6 15-21 15-35z" fill="#E8677D" /><path d="M931.6 1024H621.2c-6.4 0-11.8-5.2-11.8-11.8V701.8c0-6.4 5.2-11.8 11.8-11.8h310.4c6.4 0 11.8 5.2 11.8 11.8v310.4c0 6.6-5.2 11.8-11.8 11.8z m-298.8-23.4H920V713.6H632.8v287z" fill="#4C4372" /><path d="M889.4 713.6h-52.8c-6.4 0-11.8-5.2-11.8-11.8v-111.6c0-26.8-21.8-48.4-48.4-48.4-26.8 0-48.4 21.8-48.4 48.4v111.6c0 6.4-5.2 11.8-11.8 11.8h-52.8c-6.4 0-11.8-5.2-11.8-11.8v-113c0-68.8 56-124.8 124.8-124.8s124.8 56 124.8 124.8v113c0 6.4-5.4 11.8-11.8 11.8zM848.4 690h29.4v-101.2c0-55.8-45.4-101.2-101.2-101.2-55.8 0-101.2 45.4-101.2 101.2V690h29.4v-99.8c0-39.6 32.2-72 72-72s72 32.2 72 72V690zM818 942.2h-82c-3.4 0-6.6-1.4-8.8-4-2.2-2.6-3.2-5.8-2.8-9.2l7.2-56.6c-10-11-15.6-25.4-15.6-40.2 0-33.2 27-60.2 60.2-60.2s60.2 27 60.2 60.2c0 14.6-5 28.2-14.4 39.2l7.4 57.8c0.4 3.4-0.6 6.8-2.8 9.2-2.2 2.4-5.4 3.8-8.6 3.8z m-68.6-23.4h55.2l-6.4-50.2c-0.4-3.6 0.8-7.4 3.6-10 7.4-7 11.4-16.4 11.4-26.6 0-20.2-16.6-36.8-36.8-36.8s-36.8 16.6-36.8 36.8c0 10.4 4.4 20.4 12.2 27.4 2.8 2.6 4.2 6.4 3.8 10.2l-6.2 49.2z" fill="#4C4372" /></svg>