<?xml version="1.0" standalone="no"?><!DOCTYPE svg PUBLIC "-//W3C//DTD SVG 1.1//EN" "http://www.w3.org/Graphics/SVG/1.1/DTD/svg11.dtd"><svg class="icon" width="200px" height="200.00px" viewBox="0 0 1024 1024" version="1.1" xmlns="http://www.w3.org/2000/svg"><path d="M512 512m-414 0a414 414 0 1 0 828 0 414 414 0 1 0-828 0Z" fill="#F0C48A" /><path d="M1012.2 149.8c-3 0-6-1.2-8.2-3.4-54.4-54.4-143-54.4-197.6 0-4.6 4.6-12 4.6-16.6 0-4.6-4.6-4.6-12 0-16.6 63.6-63.6 167-63.6 230.6 0 4.6 4.6 4.6 12 0 16.6-2.2 2.2-5.2 3.4-8.2 3.4z" fill="#4C4372" /><path d="M978.4 183.6c-3 0-6-1.2-8.2-3.4-35.8-35.8-93.8-35.8-129.6 0-4.6 4.6-12 4.6-16.6 0-4.6-4.6-4.6-12 0-16.6 44.8-44.8 117.8-44.8 162.8 0 4.6 4.6 4.6 12 0 16.6-2.4 2.4-5.4 3.4-8.4 3.4z" fill="#4C4372" /><path d="M942.8 219.2c-3 0-6-1.2-8.2-3.4-16.2-16.2-42.6-16.2-58.8 0-4.6 4.6-12 4.6-16.6 0-4.6-4.6-4.6-12 0-16.6 25.4-25.4 66.6-25.4 91.8 0 4.6 4.6 4.6 12 0 16.6-2.2 2.2-5.2 3.4-8.2 3.4z" fill="#4C4372" /><path d="M905.2 245m-22 0a22 22 0 1 0 44 0 22 22 0 1 0-44 0Z" fill="#4C4372" /><path d="M693.8 930.2H105.6c-51.8 0-93.8-42-93.8-93.8V248.2c0-51.8 42-93.8 93.8-93.8h588.2c51.8 0 93.8 42 93.8 93.8v588.2c0.2 51.8-41.8 93.8-93.8 93.8z" fill="#FFFFFF" /><path d="M541.2 254.2m-37.6 0a37.6 37.6 0 1 0 75.2 0 37.6 37.6 0 1 0-75.2 0Z" fill="#7BABF1" /><path d="M399.8 254.2m-37.6 0a37.6 37.6 0 1 0 75.2 0 37.6 37.6 0 1 0-75.2 0Z" fill="#A4CFF2" /><path d="M258.4 254.2m-37.6 0a37.6 37.6 0 1 0 75.2 0 37.6 37.6 0 1 0-75.2 0Z" fill="#D3E6F8" /><path d="M687.4 930.2h5.8c52.2 0 94.4-42.4 94.4-94.4V248.8c0-52.2-42.4-94.4-94.4-94.4h-5.8v775.8z" fill="#D3E6F8" /><path d="M528 675.6H271.4c-28 0-50.8-22.8-50.8-50.8v-165.4c0-28 22.8-50.8 50.8-50.8H528c28 0 50.8 22.8 50.8 50.8v165.4c0 28.2-22.8 50.8-50.8 50.8z" fill="#7BABF1" /><path d="M693.8 942H105.6C47.4 942 0 894.6 0 836.4V248.2C0 190 47.4 142.6 105.6 142.6h588.2c58.2 0 105.6 47.4 105.6 105.6v588.2c0 58.2-47.4 105.6-105.6 105.6zM105.6 166c-45.4 0-82.2 36.8-82.2 82.2v588.2c0 45.4 36.8 82.2 82.2 82.2h588.2c45.4 0 82.2-36.8 82.2-82.2V248.2c0-45.4-36.8-82.2-82.2-82.2H105.6z" fill="#4C4372" /><path d="M528 687.4H271.4c-34.4 0-62.4-28-62.4-62.4v-165.4c0-34.4 28-62.4 62.4-62.4H528c34.4 0 62.4 28 62.4 62.4v165.4c0 34.4-28 62.4-62.4 62.4zM271.4 420.6c-21.6 0-39 17.6-39 39v165.4c0 21.6 17.6 39 39 39H528c21.6 0 39-17.6 39-39v-165.4c0-21.6-17.6-39-39-39H271.4zM258.4 303.6c-27.2 0-49.4-22.2-49.4-49.4s22.2-49.4 49.4-49.4 49.4 22.2 49.4 49.4-22.2 49.4-49.4 49.4z m0-75.2c-14.2 0-25.8 11.6-25.8 25.8 0 14.2 11.6 25.8 25.8 25.8 14.2 0 25.8-11.6 25.8-25.8 0-14.2-11.6-25.8-25.8-25.8zM399.8 303.6c-27.2 0-49.4-22.2-49.4-49.4s22.2-49.4 49.4-49.4 49.4 22.2 49.4 49.4-22.2 49.4-49.4 49.4z m0-75.2c-14.2 0-25.8 11.6-25.8 25.8 0 14.2 11.6 25.8 25.8 25.8 14.2 0 25.8-11.6 25.8-25.8 0-14.2-11.6-25.8-25.8-25.8zM541.2 303.6c-27.2 0-49.4-22.2-49.4-49.4s22.2-49.4 49.4-49.4 49.4 22.2 49.4 49.4-22.2 49.4-49.4 49.4z m0-75.2c-14.2 0-25.8 11.6-25.8 25.8 0 14.2 11.6 25.8 25.8 25.8 14.2 0 25.8-11.6 25.8-25.8 0-14.2-11.6-25.8-25.8-25.8z" fill="#4C4372" /><path d="M461.2 604.8c-4 0-7.8-2-10-5.4l-61-96.2h-116.6c-6.4 0-11.8-5.2-11.8-11.8s5.2-11.8 11.8-11.8h123c4 0 7.8 2 10 5.4l54.6 86 54.6-86c3.4-5.4 10.8-7 16.2-3.6 5.4 3.4 7 10.8 3.6 16.2l-64.4 101.6c-2.2 3.6-6 5.6-10 5.6z" fill="#4C4372" /><path d="M332.4 604.8c-6.4 0-11.8-5.2-11.8-11.8v-101.6c0-6.4 5.2-11.8 11.8-11.8s11.8 5.2 11.8 11.8v101.6c0 6.6-5.2 11.8-11.8 11.8z" fill="#4C4372" /><path d="M862.2 930.2h-149c-21.8 0-39.4-17.6-39.4-39.4V344.4c0-21.8 17.6-39.4 39.4-39.4h149c21.8 0 39.4 17.6 39.4 39.4v546.4c0 21.8-17.6 39.4-39.4 39.4z" fill="#FD919E" /><path d="M845.4 930.2h12.2c24.2 0 43.8-19.6 43.8-43.8V349c0-24.2-19.6-43.8-43.8-43.8h-12.2v625z" fill="#E8677D" /><path d="M862.2 942h-149c-28.2 0-51-22.8-51-51V344.4c0-28.2 22.8-51 51-51h149c28.2 0 51 22.8 51 51v546.4c0 28.4-22.8 51.2-51 51.2z m-149-625.2c-15.2 0-27.6 12.4-27.6 27.6v546.4c0 15.2 12.4 27.6 27.6 27.6h149c15.2 0 27.6-12.4 27.6-27.6V344.4c0-15.2-12.4-27.6-27.6-27.6h-149z" fill="#4C4372" /><path d="M787.8 687.8m-67.2 0a67.2 67.2 0 1 0 134.4 0 67.2 67.2 0 1 0-134.4 0Z" fill="#FFFFFF" /><path d="M787.8 766.6c-43.6 0-79-35.4-79-79s35.4-79 79-79 79 35.4 79 79c-0.2 43.6-35.6 79-79 79z m0-134.4c-30.6 0-55.4 24.8-55.4 55.4 0 30.6 24.8 55.4 55.4 55.4 30.6 0 55.4-24.8 55.4-55.4 0-30.4-24.8-55.4-55.4-55.4z" fill="#4C4372" /><path d="M787.8 724.6c-20.4 0-37-16.6-37-37s16.6-37 37-37 37 16.6 37 37c-0.2 20.4-16.6 37-37 37z m0-50.4a13.4 13.4 0 1 0 0 26.8 13.4 13.4 0 0 0 0-26.8z" fill="#4C4372" /><path d="M743.2 384.2h-27c-6.4 0-11.8-5.2-11.8-11.8s5.2-11.8 11.8-11.8h27c6.4 0 11.8 5.2 11.8 11.8s-5.4 11.8-11.8 11.8zM801.2 384.2h-27c-6.4 0-11.8-5.2-11.8-11.8s5.2-11.8 11.8-11.8h27c6.4 0 11.8 5.2 11.8 11.8s-5.2 11.8-11.8 11.8zM859.4 384.2h-27c-6.4 0-11.8-5.2-11.8-11.8s5.2-11.8 11.8-11.8h27c6.4 0 11.8 5.2 11.8 11.8s-5.4 11.8-11.8 11.8zM743.2 443.4h-27c-6.4 0-11.8-5.2-11.8-11.8s5.2-11.8 11.8-11.8h27c6.4 0 11.8 5.2 11.8 11.8s-5.4 11.8-11.8 11.8zM801.2 443.4h-27c-6.4 0-11.8-5.2-11.8-11.8s5.2-11.8 11.8-11.8h27c6.4 0 11.8 5.2 11.8 11.8s-5.2 11.8-11.8 11.8zM859.4 443.4h-27c-6.4 0-11.8-5.2-11.8-11.8s5.2-11.8 11.8-11.8h27c6.4 0 11.8 5.2 11.8 11.8s-5.4 11.8-11.8 11.8z" fill="#4C4372" /><path d="M743.2 502.8h-27c-6.4 0-11.8-5.2-11.8-11.8s5.2-11.8 11.8-11.8h27c6.4 0 11.8 5.2 11.8 11.8s-5.4 11.8-11.8 11.8zM801.2 502.8h-27c-6.4 0-11.8-5.2-11.8-11.8s5.2-11.8 11.8-11.8h27c6.4 0 11.8 5.2 11.8 11.8s-5.2 11.8-11.8 11.8zM859.4 502.8h-27c-6.4 0-11.8-5.2-11.8-11.8s5.2-11.8 11.8-11.8h27c6.4 0 11.8 5.2 11.8 11.8s-5.4 11.8-11.8 11.8z" fill="#4C4372" /><path d="M801.2 562.2h-27c-6.4 0-11.8-5.2-11.8-11.8 0-6.4 5.2-11.8 11.8-11.8h27c6.4 0 11.8 5.2 11.8 11.8 0 6.6-5.2 11.8-11.8 11.8z" fill="#4C4372" /></svg>