<?xml version="1.0" standalone="no"?><!DOCTYPE svg PUBLIC "-//W3C//DTD SVG 1.1//EN" "http://www.w3.org/Graphics/SVG/1.1/DTD/svg11.dtd"><svg class="icon" width="200px" height="200.00px" viewBox="0 0 1024 1024" version="1.1" xmlns="http://www.w3.org/2000/svg"><path d="M512 512m-414 0a414 414 0 1 0 828 0 414 414 0 1 0-828 0Z" fill="#F0C48A" /><path d="M631.6 73c-3 0-6-1.2-8.4-3.4-29.8-29.8-69.2-46-111.2-46s-81.6 16.4-111.2 46c-4.6 4.6-12 4.6-16.6 0-4.6-4.6-4.6-12 0-16.6C418.2 18.8 463.6 0 512 0c48.4 0 93.8 18.8 127.8 53 4.6 4.6 4.6 12 0 16.6-2.2 2.2-5.2 3.4-8.2 3.4z" fill="#4C4372" /><path d="M593.6 111c-3 0-6-1.2-8.4-3.4-40.4-40.4-106.2-40.4-146.6 0-4.6 4.6-12 4.6-16.6 0-4.6-4.6-4.6-12 0-16.6 49.6-49.6 130.4-49.6 180 0 4.6 4.6 4.6 12 0 16.6-2.4 2.2-5.4 3.4-8.4 3.4z" fill="#4C4372" /><path d="M554 150.6c-3 0-6-1.2-8.4-3.4-18.6-18.6-49-18.6-67.6 0-4.6 4.6-12 4.6-16.6 0-4.6-4.6-4.6-12 0-16.6 27.8-27.8 73-27.8 100.8 0 4.6 4.6 4.6 12 0 16.6-2.2 2.2-5.2 3.4-8.2 3.4z" fill="#4C4372" /><path d="M512 180.8m-24.4 0a24.4 24.4 0 1 0 48.8 0 24.4 24.4 0 1 0-48.8 0Z" fill="#4C4372" /><path d="M730.6 1012.2H293.4c-33.4 0-60.4-27-60.4-60.4V309c0-33.4 27-60.4 60.4-60.4h437.4c33.4 0 60.4 27 60.4 60.4v642.8c-0.2 33.4-27.2 60.4-60.6 60.4z" fill="#D3E6F8" /><path d="M233 309v167.4h558.2v-167.4c0-33.4-27-60.4-60.4-60.4H293.4c-33.4 0-60.4 27-60.4 60.4z" fill="#FD919E" /><path d="M712.2 1012.2h-4.6V476.4h83.6v457c-0.2 43.6-35.4 78.8-79 78.8z" fill="#A4CFF2" /><path d="M730.6 248.6h-23.2v227.8h83.6v-167.4c0-33.4-27-60.4-60.4-60.4z" fill="#E8677D" /><path d="M475.8 390.4h-114.2c-15.4 0-28-12.6-28-28s12.6-28 28-28h114.2c15.4 0 28 12.6 28 28s-12.6 28-28 28z" fill="#FFFFFF" /><path d="M574.8 362.4m-28 0a28 28 0 1 0 56 0 28 28 0 1 0-56 0Z" fill="#FFFFFF" /><path d="M662.4 362.4m-28 0a28 28 0 1 0 56 0 28 28 0 1 0-56 0Z" fill="#FFFFFF" /><path d="M512 745.8m-161 0a161 161 0 1 0 322 0 161 161 0 1 0-322 0Z" fill="#FFFFFF" /><path d="M512 745.8m-115.4 0a115.4 115.4 0 1 0 230.8 0 115.4 115.4 0 1 0-230.8 0Z" fill="#7BABF1" /><path d="M730.6 1024H293.4c-39.8 0-72.2-32.4-72.2-72.2V309c0-39.8 32.4-72.2 72.2-72.2h437.4c39.8 0 72.2 32.4 72.2 72.2v642.8c-0.2 39.8-32.6 72.2-72.4 72.2zM293.4 260.4c-26.8 0-48.6 21.8-48.6 48.6v642.8c0 26.8 21.8 48.6 48.6 48.6h437.4c26.8 0 48.6-21.8 48.6-48.6V309c0-26.8-21.8-48.6-48.6-48.6H293.4z" fill="#4C4372" /><path d="M783.8 488.2H240.2c-6.4 0-11.8-5.2-11.8-11.8s5.2-11.8 11.8-11.8h543.4c6.4 0 11.8 5.2 11.8 11.8s-5.2 11.8-11.6 11.8zM512 918.6c-95.2 0-172.8-77.6-172.8-172.8s77.6-172.8 172.8-172.8 172.8 77.6 172.8 172.8-77.6 172.8-172.8 172.8z m0-322c-82.4 0-149.4 67-149.4 149.4s67 149.4 149.4 149.4 149.4-67 149.4-149.4-67-149.4-149.4-149.4z" fill="#4C4372" /><path d="M512 873c-70 0-127.2-57-127.2-127.2s57-127.2 127.2-127.2c70 0 127.2 57 127.2 127.2S582 873 512 873z m0-230.8c-57.2 0-103.6 46.4-103.6 103.6s46.4 103.6 103.6 103.6 103.6-46.4 103.6-103.6-46.4-103.6-103.6-103.6z" fill="#4C4372" /><path d="M451.2 342h52.4v41h-52.4z" fill="#D3E6F8" /><path d="M475.8 402h-114.2c-21.8 0-39.6-17.8-39.6-39.6s17.8-39.6 39.6-39.6h114.2c21.8 0 39.6 17.8 39.6 39.6 0.2 21.8-17.8 39.6-39.6 39.6z m-114.2-55.8c-9 0-16.2 7.2-16.2 16.2s7.2 16.2 16.2 16.2h114.2c9 0 16.2-7.2 16.2-16.2s-7.2-16.2-16.2-16.2h-114.2zM574.8 402c-21.8 0-39.6-17.8-39.6-39.6s17.8-39.6 39.6-39.6 39.6 17.8 39.6 39.6c0.2 21.8-17.6 39.6-39.6 39.6z m0-55.8c-9 0-16.2 7.2-16.2 16.2s7.2 16.2 16.2 16.2 16.2-7.2 16.2-16.2-7.2-16.2-16.2-16.2zM662.4 402c-21.8 0-39.6-17.8-39.6-39.6s17.8-39.6 39.6-39.6 39.6 17.8 39.6 39.6c0.2 21.8-17.6 39.6-39.6 39.6z m0-55.8c-9 0-16.2 7.2-16.2 16.2s7.2 16.2 16.2 16.2 16.2-7.2 16.2-16.2-7.2-16.2-16.2-16.2z" fill="#4C4372" /></svg>