<?xml version="1.0" standalone="no"?><!DOCTYPE svg PUBLIC "-//W3C//DTD SVG 1.1//EN" "http://www.w3.org/Graphics/SVG/1.1/DTD/svg11.dtd"><svg class="icon" width="200px" height="200.00px" viewBox="0 0 1024 1024" version="1.1" xmlns="http://www.w3.org/2000/svg"><path d="M512 512m-414 0a414 414 0 1 0 828 0 414 414 0 1 0-828 0Z" fill="#F0C48A" /><path d="M107.4 187.6V83.4C107.4 44 139.6 11.8 179.2 11.8h364.6c39.4 0 71.8 32.2 71.8 71.8v857c0 39.4-32.2 71.8-71.8 71.8H179.2c-39.4 0-71.8-32.2-71.8-71.8V187.6z" fill="#D3E6F8" /><path d="M107.4 152.4h510v650.8h-510z" fill="#FFFFFF" /><path d="M517.2 158.2h98.2V68c0-29.4-23.8-53.2-53.2-53.2h-45v143.4zM517.2 1012.2h25.2c40.4 0 73.2-32.8 73.2-73.2v-126.8c0-5-4-9-9-9h-89.2v209z" fill="#7BABF1" /><path d="M517.2 158.2h98.2v645h-98.2z" fill="#D3E6F8" /><path d="M330.302188 936.123869a44 44 0 1 0 62.224311-62.226483 44 44 0 1 0-62.224311 62.226483Z" fill="#7BABF1" /><path d="M612.6 164.2H110.2c-6.4 0-11.8-5.2-11.8-11.8s5.2-11.8 11.8-11.8h502.6c6.4 0 11.8 5.2 11.8 11.8s-5.4 11.8-12 11.8zM612.6 815H110.2c-6.4 0-11.8-5.2-11.8-11.8 0-6.4 5.2-11.8 11.8-11.8h502.6c6.4 0 11.8 5.2 11.8 11.8-0.2 6.6-5.4 11.8-12 11.8zM361.4 960.6c-30.8 0-55.6-25-55.6-55.6 0-30.8 25-55.6 55.6-55.6s55.6 25 55.6 55.6c0.2 30.6-24.8 55.6-55.6 55.6z m0-87.8c-17.8 0-32.2 14.4-32.2 32.2s14.4 32.2 32.2 32.2c17.8 0 32.2-14.4 32.2-32.2s-14.4-32.2-32.2-32.2z" fill="#4C4372" /><path d="M543.8 1024H179.2c-46 0-83.4-37.4-83.4-83.4V83.4C95.6 37.4 133.2 0 179.2 0h364.6c46 0 83.4 37.4 83.4 83.4v857c0 46.2-37.4 83.6-83.4 83.6zM179.2 23.4c-33.2 0-60 27-60 60v857c0 33.2 27 60 60 60h364.6c33.2 0 60-27 60-60V83.4c0-33.2-27-60-60-60H179.2z" fill="#4C4372" /><path d="M916.6 291.2c-3 0-6-1.2-8.2-3.4-61.2-61.2-161-61.2-222.2 0-4.6 4.6-12 4.6-16.6 0-4.6-4.6-4.6-12 0-16.6 34-34 79.4-52.8 127.6-52.8s93.6 18.8 127.6 52.8c4.6 4.6 4.6 12 0 16.6-2.2 2.4-5.2 3.4-8.2 3.4z" fill="#4C4372" /><path d="M878.8 329.2c-3 0-6-1.2-8.2-3.4-40.4-40.4-106-40.4-146.4 0-4.6 4.6-12 4.6-16.6 0-4.6-4.6-4.6-12 0-16.6 49.6-49.6 130-49.6 179.6 0 4.6 4.6 4.6 12 0 16.6-2.4 2.2-5.4 3.4-8.4 3.4z" fill="#4C4372" /><path d="M839.2 368.6c-3 0-6-1.2-8.2-3.4-18.6-18.6-48.8-18.6-67.4 0-4.6 4.6-12 4.6-16.6 0-4.6-4.6-4.6-12 0-16.6 27.8-27.8 72.8-27.8 100.6 0 4.6 4.6 4.6 12 0 16.6-2.4 2.4-5.4 3.4-8.4 3.4z" fill="#4C4372" /><path d="M797.2 399m-24.4 0a24.4 24.4 0 1 0 48.8 0 24.4 24.4 0 1 0-48.8 0Z" fill="#4C4372" /><path d="M903.4 793.8H691.2V590.6l97-110.8h115.2z" fill="#FD919E" /><path d="M726.6 660.2H868v92.8h-141.4z" fill="#FFFFFF" /><path d="M862.6 479.8h40.8v314h-40.8z" fill="#E8677D" /><path d="M827.2 660.2H868v92.8h-40.8z" fill="#D3E6F8" /><path d="M903.4 805.6H691.2c-6.4 0-11.8-5.2-11.8-11.8V590.6c0-2.8 1-5.6 3-7.8l97-110.8c2.2-2.6 5.4-4 8.8-4h115.2c6.4 0 11.8 5.2 11.8 11.8v314c-0.2 6.6-5.4 11.8-11.8 11.8z m-200.6-23.4h188.8V491.6h-98l-90.6 103.4v187.2z" fill="#4C4372" /><path d="M868 764.6h-141.4c-6.4 0-11.8-5.2-11.8-11.8V660c0-6.4 5.2-11.8 11.8-11.8H868c6.4 0 11.8 5.2 11.8 11.8v92.8c-0.2 6.6-5.4 11.8-11.8 11.8z m-129.6-23.4h117.8V672h-117.8v69.2z" fill="#4C4372" /><path d="M864 718.2h-137.4c-6.4 0-11.8-5.2-11.8-11.8 0-6.4 5.2-11.8 11.8-11.8H864c6.4 0 11.8 5.2 11.8 11.8 0 6.6-5.2 11.8-11.8 11.8z" fill="#4C4372" /><path d="M800 711.6c-6.4 0-11.8-5.2-11.8-11.8v-38.2c0-6.4 5.2-11.8 11.8-11.8 6.4 0 11.8 5.2 11.8 11.8v38.2c-0.2 6.6-5.4 11.8-11.8 11.8zM868 560.8c-6.4 0-11.8-5.2-11.8-11.8v-26.6h-23.4c-6.4 0-11.8-5.2-11.8-11.8 0-6.4 5.2-11.8 11.8-11.8H868c6.4 0 11.8 5.2 11.8 11.8v38.2c-0.2 6.6-5.4 12-11.8 12z" fill="#4C4372" /></svg>