<?xml version="1.0" standalone="no"?><!DOCTYPE svg PUBLIC "-//W3C//DTD SVG 1.1//EN" "http://www.w3.org/Graphics/SVG/1.1/DTD/svg11.dtd"><svg class="icon" width="200px" height="200.00px" viewBox="0 0 1024 1024" version="1.1" xmlns="http://www.w3.org/2000/svg"><path d="M512 512m-414 0a414 414 0 1 0 828 0 414 414 0 1 0-828 0Z" fill="#F0C48A" /><path d="M632 397.2c-3 0-6-1.2-8.2-3.4-29.6-29.6-69.2-46-111-46s-81.4 16.4-111 46c-4.6 4.6-12 4.6-16.6 0-4.6-4.6-4.6-12 0-16.6 34-34 79.4-52.8 127.6-52.8 48.2 0 93.6 18.8 127.6 52.8 4.6 4.6 4.6 12 0 16.6-2.4 2.4-5.4 3.4-8.4 3.4z" fill="#4C4372" /><path d="M594 435.2c-3 0-6-1.2-8.2-3.4-19.6-19.6-45.6-30.4-73.2-30.4s-53.6 10.8-73.2 30.4c-4.6 4.6-12 4.6-16.6 0-4.6-4.6-4.6-12 0-16.6 24-24 55.8-37.2 89.8-37.2s65.8 13.2 89.8 37.2c4.6 4.6 4.6 12 0 16.6-2.2 2.2-5.4 3.4-8.4 3.4z" fill="#4C4372" /><path d="M554.6 474.6c-3 0-6-1.2-8.2-3.4-9-9-21-14-33.6-14-12.8 0-24.6 5-33.6 14-4.6 4.6-12 4.6-16.6 0-4.6-4.6-4.6-12 0-16.6 13.4-13.4 31.2-20.8 50.2-20.8 19 0 36.8 7.4 50.2 20.8 4.6 4.6 4.6 12 0 16.6-2.4 2.4-5.4 3.4-8.4 3.4z" fill="#4C4372" /><path d="M512.6 505m-24.4 0a24.4 24.4 0 1 0 48.8 0 24.4 24.4 0 1 0-48.8 0Z" fill="#4C4372" /><path d="M12.4 506.4v-63.8c0-24.2 19.8-44 44-44H280c24.2 0 44 19.8 44 44v525.6c0 24.2-19.8 44-44 44H56.4c-24.2 0-44-19.8-44-44V506.4z" fill="#D3E6F8" /><path d="M12.4 484.8h312.8v392.2H12.4z" fill="#FFFFFF" /><path d="M263.6 488.4H324v-55.2c0-18-14.6-32.6-32.6-32.6h-27.6v87.8zM263.6 1012.2h15.4c24.8 0 44.8-20 44.8-44.8v-77.8c0-3-2.4-5.6-5.6-5.6h-54.8v128.2z" fill="#7BABF1" /><path d="M263.6 488.4h60.2V884h-60.2z" fill="#D3E6F8" /><path d="M149.042792 965.469707a27 27 0 1 0 38.183099-38.184433 27 27 0 1 0-38.183099 38.184433Z" fill="#7BABF1" /><path d="M322.2 496.6H14c-6.4 0-11.8-5.2-11.8-11.8s5.2-11.8 11.8-11.8h308.2c6.4 0 11.8 5.2 11.8 11.8s-5.2 11.8-11.8 11.8zM322.2 895.8H14c-6.4 0-11.8-5.2-11.8-11.8 0-6.4 5.2-11.8 11.8-11.8h308.2c6.4 0 11.8 5.2 11.8 11.8 0 6.6-5.2 11.8-11.8 11.8zM168.2 985.2c-21.4 0-38.6-17.4-38.6-38.6S147 908 168.2 908c21.4 0 38.6 17.4 38.6 38.6s-17.4 38.6-38.6 38.6z m0-54c-8.4 0-15.2 6.8-15.2 15.2s6.8 15.2 15.2 15.2c8.4 0 15.2-6.8 15.2-15.2s-6.8-15.2-15.2-15.2z" fill="#4C4372" /><path d="M280 1024H56.4C25.6 1024 0.6 999 0.6 968.2V442.6c0-30.8 25-55.8 55.8-55.8H280c30.8 0 55.8 25 55.8 55.8v525.6c0 30.8-25.2 55.8-55.8 55.8zM56.4 410.2c-17.8 0-32.2 14.4-32.2 32.2V968c0 17.8 14.4 32.2 32.2 32.2H280c17.8 0 32.2-14.4 32.2-32.2V442.6c0-17.8-14.4-32.2-32.2-32.2H56.4z" fill="#4C4372" /><path d="M700 506.4v-63.8c0-24.2 19.8-44 44-44h223.6c24.2 0 44 19.8 44 44v525.6c0 24.2-19.8 44-44 44H744c-24.2 0-44-19.8-44-44V506.4z" fill="#D3E6F8" /><path d="M700 484.8h312.8V884H700z" fill="#FFFFFF" /><path d="M951.4 488.4h60.2v-55.2c0-18-14.6-32.6-32.6-32.6h-27.6v87.8zM951.4 1012.2h15.4c24.8 0 44.8-20 44.8-44.8v-77.8c0-3-2.4-5.6-5.6-5.6h-54.8v128.2z" fill="#7BABF1" /><path d="M951.4 488.4h60.2V884h-60.2z" fill="#D3E6F8" /><path d="M836.666425 965.542762a27 27 0 1 0 38.1831-38.184433 27 27 0 1 0-38.1831 38.184433Z" fill="#7BABF1" /><path d="M1010 496.6H701.8c-6.4 0-11.8-5.2-11.8-11.8s5.2-11.8 11.8-11.8H1010c6.4 0 11.8 5.2 11.8 11.8s-5.4 11.8-11.8 11.8zM1010 895.8H701.8c-6.4 0-11.8-5.2-11.8-11.8 0-6.4 5.2-11.8 11.8-11.8H1010c6.4 0 11.8 5.2 11.8 11.8-0.2 6.6-5.4 11.8-11.8 11.8zM855.8 985.2c-21.4 0-38.6-17.4-38.6-38.6s17.4-38.6 38.6-38.6c21.4 0 38.6 17.4 38.6 38.6s-17.2 38.6-38.6 38.6z m0-54c-8.4 0-15.2 6.8-15.2 15.2s6.8 15.2 15.2 15.2 15.2-6.8 15.2-15.2-6.8-15.2-15.2-15.2z" fill="#4C4372" /><path d="M967.6 1024H744c-30.8 0-55.8-25-55.8-55.8V442.6c0-30.8 25-55.8 55.8-55.8h223.6c30.8 0 55.8 25 55.8 55.8v525.6c0 30.8-25 55.8-55.8 55.8zM744 410.2c-17.8 0-32.2 14.4-32.2 32.2V968c0 17.8 14.4 32.2 32.2 32.2h223.6c17.8 0 32.2-14.4 32.2-32.2V442.6c0-17.8-14.4-32.2-32.2-32.2H744z" fill="#4C4372" /><path d="M561.8 615l-41-23.8v33.4l-98.4-3v34h98.4v30.2l41-23.6 41-23.6z" fill="#FD919E" /><path d="M520.8 697.6c-2 0-4-0.6-5.8-1.6-3.6-2-5.8-6-5.8-10.2v-18.6h-86.8c-6.4 0-11.8-5.2-11.8-11.8v-34c0-6.4 5.2-11.8 11.8-11.8h86.8v-18.6c0-4.2 2.2-8 5.8-10.2 3.6-2 8-2 11.8 0l41 23.6 41 23.6c3.6 2 5.8 6 5.8 10.2 0 4.2-2.2 8-5.8 10.2l-82 47.2c-1.8 1.4-4 2-6 2z m-86.6-53.8h86.8c6.4 0 11.8 5.2 11.8 11.8v10l46.8-27-46.8-27v10c0 6.4-5.2 11.8-11.8 11.8h-86.8v10.4z" fill="#4C4372" /><path d="M463.4 741l41-23.6v33.2l98.4-3v34h-98.4V812l-41-23.8-41-23.6z" fill="#FD919E" /><path d="M504.4 823.6c-2 0-4-0.6-5.8-1.6l-82-47.2c-3.6-2-5.8-6-5.8-10.2 0-4.2 2.2-8 5.8-10.2l82-47.2c3.6-2 8-2 11.8 0 3.6 2 5.8 6 5.8 10.2v18.6h86.8c6.4 0 11.8 5.2 11.8 11.8v34c0 6.4-5.2 11.8-11.8 11.8H516v18.6c0 4.2-2.2 8-5.8 10.2-1.8 0.8-3.8 1.2-5.8 1.2z m-58.6-59l46.8 27v-10c0-6.4 5.2-11.8 11.8-11.8h86.8v-10.4h-86.8c-6.4 0-11.8-5.2-11.8-11.8v-10l-23.4 13.4-23.4 13.6z m17.6-23.6z" fill="#4C4372" /><path d="M372 258.4c-54.6 0-99-44.2-99-99 0-54.6 44.2-99 99-99 15.8 0 30.6 3.6 43.8 10.2C442.8 34.8 485.6 11.6 534 11.6c73.6 0 134.6 53.8 145.8 124.4 3.6-0.6 7.2-1 10.8-1 34 0 61.6 27.6 61.6 61.6s-27.6 61.6-61.6 61.6H372z" fill="#FFFFFF" /><path d="M690.6 270.2H372c-61 0-110.6-49.6-110.6-110.6 0-61 49.6-110.6 110.6-110.6 14 0 27.4 2.6 40.2 7.6C442.6 20.4 486.4 0 533.8 0c38.2 0 75 13.6 104 38.6 25.8 22.2 43.8 52 51.4 84.8 41.2-0.8 74.8 32.4 74.8 73.4 0 40.4-33 73.4-73.4 73.4zM372 72.2c-48 0-87.2 39.2-87.2 87.2s39.2 87.2 87.2 87.2h318.6c27.6 0 50-22.4 50-50s-22.4-50-50-50c-2.8 0-5.8 0.2-8.8 0.8-3 0.6-6.2-0.2-8.8-2-2.6-1.8-4.2-4.6-4.8-7.8-5-31.6-21.2-60.6-45.6-81.6C598 34.8 566.4 23.2 534 23.2c-43.2 0-82.8 19.8-108.8 54.4-3.4 4.6-9.6 6-14.6 3.4-12.2-5.8-25.2-8.8-38.6-8.8z" fill="#4C4372" /></svg>