<?xml version="1.0" standalone="no"?><!DOCTYPE svg PUBLIC "-//W3C//DTD SVG 1.1//EN" "http://www.w3.org/Graphics/SVG/1.1/DTD/svg11.dtd"><svg class="icon" width="200px" height="200.00px" viewBox="0 0 1024 1024" version="1.1" xmlns="http://www.w3.org/2000/svg"><path d="M512 512m-414 0a414 414 0 1 0 828 0 414 414 0 1 0-828 0Z" fill="#F0C48A" /><path d="M655.8 221c-3 0-6-1.2-8.2-3.4-61.2-61.2-161-61.2-222.2 0-4.6 4.6-12 4.6-16.6 0-4.6-4.6-4.6-12 0-16.6 70.4-70.4 185-70.4 255.4 0 4.6 4.6 4.6 12 0 16.6-2.4 2.2-5.4 3.4-8.4 3.4z" fill="#4C4372" /><path d="M618 258.8c-3 0-6-1.2-8.2-3.4-40.4-40.4-106-40.4-146.4 0-4.6 4.6-12 4.6-16.6 0-4.6-4.6-4.6-12 0-16.6 49.6-49.6 130-49.6 179.6 0 4.6 4.6 4.6 12 0 16.6-2.4 2.2-5.4 3.4-8.4 3.4z" fill="#4C4372" /><path d="M578.4 298.4c-3 0-6-1.2-8.2-3.4-18.6-18.6-48.8-18.6-67.4 0-4.6 4.6-12 4.6-16.6 0-4.6-4.6-4.6-12 0-16.6 27.8-27.8 72.8-27.8 100.6 0 4.6 4.6 4.6 12 0 16.6-2.4 2.2-5.4 3.4-8.4 3.4z" fill="#4C4372" /><path d="M536.4 328.6m-24.4 0a24.4 24.4 0 1 0 48.8 0 24.4 24.4 0 1 0-48.8 0Z" fill="#4C4372" /><path d="M473.2 619.6h144.6v74.2h-144.6z" fill="#7BABF1" /><path d="M617.8 705.6h-144.6c-6.4 0-11.8-5.2-11.8-11.8v-74.2c0-6.4 5.2-11.8 11.8-11.8h144.6c6.4 0 11.8 5.2 11.8 11.8v74.2c0 6.6-5.4 11.8-11.8 11.8z m-132.8-23.4H606v-50.8h-121.2v50.8z" fill="#4C4372" /><path d="M192.4 543.4L234 269.6l22.6 11c20.2 9.8 44.4-0.6 51.2-22 5.4-17-2.2-35.6-18.2-43.8l-32-16.6c-33-17.2-73.4 1.2-82 37.4l-95 402 111.8-94.2z" fill="#7BABF1" /><path d="M80.6 649.2c-2.2 0-4.2-0.6-6.2-1.8-4.4-2.6-6.4-7.8-5.2-12.6l95-402c5-20.8 19-37.8 38.4-46.8 19.4-8.8 41.6-8.4 60.4 1.6l32 16.6c21 11 31 35.2 23.8 57.8-4.2 13.4-14.2 24.4-27.2 30-13 5.6-27.8 5.2-40.4-1l-8.2-4L204 545.2c-0.4 2.8-1.8 5.4-4 7.2l-111.8 94c-2.2 2-5 2.8-7.6 2.8z m150.6-446c-6.4 0-12.8 1.4-18.8 4.2-12.8 5.8-22 17.2-25.2 30.8L100 605.8l81.4-68.4 40.8-269.6c0.6-3.6 2.8-6.8 6.2-8.6 3.2-1.8 7.2-1.8 10.6-0.2l22.6 11c6.6 3.2 14.2 3.4 21 0.4 6.8-2.8 11.8-8.6 14-15.6 3.6-11.6-1.6-24.2-12.4-29.8l-32-16.6c-6.6-3.4-13.8-5.2-21-5.2zM192.4 543.4z" fill="#4C4372" /><path d="M347.6 864.2H174.6c-52 0-94-42.2-94-94v-132.6c0-52 42.2-94 94-94h206.4c52 0 94 42.2 94 94v91c0 21.4-7.4 42.2-20.8 58.8l-33.4 41.6c-17.8 22.2-44.8 35.2-73.2 35.2z" fill="#D3E6F8" /><path d="M473.4 620.8c-1.6-9.2-4.6-17.8-8.6-25.8L436 561.4c-4.8-3.4-9.8-6.4-15.2-9v277l0.2-0.2 33.4-41.6c9.8-12.2 16.4-26.8 19.2-42v-124.8z" fill="#A4CFF2" /><path d="M900.4 543.4l-41.6-273.8-22.6 11c-20.2 9.8-44.4-0.6-51.2-22-5.4-17 2.2-35.6 18.2-43.8l32-16.6c33-17.2 73.4 1.2 82 37.4l95 402-111.8-94.2z" fill="#7BABF1" /><path d="M1012.2 649.2c-2.6 0-5.4-1-7.6-2.8l-111.8-94c-2.2-1.8-3.6-4.4-4-7.2l-39.2-258.2-8.2 4c-12.8 6.2-27.4 6.4-40.4 1-13-5.6-22.8-16.6-27.2-30-7.2-22.6 3-46.8 23.8-57.8l32-16.6c19-9.8 41-10.4 60.4-1.6s33.4 26 38.4 46.8l95 402c1.2 5-1 10-5.2 12.6-1.6 1.2-3.8 1.8-6 1.8z m-100.8-111.8l81.4 68.4-87-367.6c-3.2-13.8-12.4-25-25.2-30.8-12.8-5.8-27.4-5.4-39.8 1l-32 16.6c-10.8 5.6-16 18.2-12.4 29.8 2.2 7 7.4 12.6 14 15.6 6.8 2.8 14.4 2.8 21-0.4l22.6-11c3.4-1.6 7.2-1.6 10.6 0.2 3.2 1.8 5.6 5 6.2 8.6l40.6 269.6z" fill="#4C4372" /><path d="M745.2 864.2h173c52 0 94-42.2 94-94v-132.6c0-52-42.2-94-94-94H711.8c-52 0-94 42.2-94 94v91c0 21.4 7.4 42.2 20.8 58.8l33.4 41.6c17.8 22.2 44.8 35.2 73.2 35.2z" fill="#D3E6F8" /><path d="M959.4 853.8c29.2 0 52.8-23.6 52.8-52.8v-196l-52.8-61.6v310.4z" fill="#A4CFF2" /><path d="M347.6 875.8H174.6c-58.4 0-105.8-47.4-105.8-105.8v-132.6c0-58.4 47.4-105.8 105.8-105.8h206.4c58.4 0 105.8 47.4 105.8 105.8v91c0 24-8.2 47.6-23.2 66.2L430 836.4c-20.2 25-50.2 39.4-82.4 39.4zM174.6 555.2c-45.4 0-82.4 37-82.4 82.4v132.6c0 45.4 37 82.4 82.4 82.4h173c25 0 48.4-11.2 64.2-30.8l33.4-41.6c11.6-14.6 18.2-32.8 18.2-51.6v-91c0-45.4-37-82.4-82.4-82.4H174.6zM918.2 875.8h-173c-32.2 0-62.2-14.4-82.4-39.6l-33.4-41.6c-15-18.8-23.2-42.2-23.2-66.2v-91c0-58.4 47.4-105.8 105.8-105.8h206.4c28.2 0 54.8 11 74.8 31s31 46.6 31 74.8V770c-0.2 58.4-47.6 105.8-106 105.8zM711.8 555.2c-45.4 0-82.4 37-82.4 82.4v91c0 18.6 6.4 37 18.2 51.6l33.4 41.6c15.8 19.6 39 30.8 64.2 30.8h173c45.4 0 82.4-37 82.4-82.4v-132.6c0-22-8.6-42.6-24.2-58.2-15.6-15.6-36.2-24.2-58.2-24.2H711.8z" fill="#4C4372" /><path d="M11.8 622.4h264.6v125.2H11.8z" fill="#FD919E" /><path d="M223.4 619.6h53v127.8h-53z" fill="#E8677D" /><path d="M276.4 759.2H11.8c-6.4 0-11.8-5.2-11.8-11.8v-125.2c0-6.4 5.2-11.8 11.8-11.8h264.6c6.4 0 11.8 5.2 11.8 11.8v125.2c-0.2 6.6-5.4 11.8-11.8 11.8zM23.4 735.8h241.2V634H23.4v101.8z" fill="#4C4372" /><path d="M70.8 685m-24.4 0a24.4 24.4 0 1 0 48.8 0 24.4 24.4 0 1 0-48.8 0Z" fill="#4C4372" /><path d="M144 685m-24.4 0a24.4 24.4 0 1 0 48.8 0 24.4 24.4 0 1 0-48.8 0Z" fill="#4C4372" /></svg>