<?xml version="1.0" standalone="no"?><!DOCTYPE svg PUBLIC "-//W3C//DTD SVG 1.1//EN" "http://www.w3.org/Graphics/SVG/1.1/DTD/svg11.dtd"><svg class="icon" width="200px" height="200.00px" viewBox="0 0 1024 1024" version="1.1" xmlns="http://www.w3.org/2000/svg"><path d="M512 512m-414 0a414 414 0 1 0 828 0 414 414 0 1 0-828 0Z" fill="#F0C48A" /><path d="M238 72.6c-3 0-6-1.2-8.2-3.4-4.6-4.6-4.6-12 0-16.6 70-70 183.8-70 253.8 0 4.6 4.6 4.6 12 0 16.6-4.6 4.6-12 4.6-16.6 0-60.8-60.8-159.8-60.8-220.6 0-2.4 2.2-5.4 3.4-8.4 3.4z" fill="#4C4372" /><path d="M275.6 110.2c-3 0-6-1.2-8.2-3.4-4.6-4.6-4.6-12 0-16.6 49.2-49.2 129.4-49.2 178.6 0 4.6 4.6 4.6 12 0 16.6-4.6 4.6-12 4.6-16.6 0-40-40-105.4-40-145.4 0-2.4 2.2-5.4 3.4-8.4 3.4z" fill="#4C4372" /><path d="M398.4 149.4c-3 0-6-1.2-8.2-3.4-9-9-20.8-13.8-33.4-13.8-12.6 0-24.6 5-33.4 13.8-4.6 4.6-12 4.6-16.6 0-4.6-4.6-4.6-12 0-16.6 13.4-13.4 31.2-20.8 50-20.8s36.6 7.4 50 20.8c4.6 4.6 4.6 12 0 16.6-2.4 2.2-5.4 3.4-8.4 3.4z" fill="#4C4372" /><path d="M356.6 179.4m-24.2 0a24.2 24.2 0 1 0 48.4 0 24.2 24.2 0 1 0-48.4 0Z" fill="#4C4372" /><path d="M767.6 569.4h-155.2c-28.2 0-51-22.8-51-51v-155.2c0-28.2 22.8-51 51-51h155.2c28.2 0 51 22.8 51 51v155.2c-0.2 28.2-23 51-51 51z" fill="#FD919E" /><path d="M765.6 569.4h8c24.8 0 45-20.2 45-45v-167.2c0-24.8-20.2-45-45-45h-8v257.2z" fill="#E8677D" /><path d="M667.2 174h45.4v77.2h-45.4z" fill="#FFFFFF" /><path d="M690 179.4h17.6v66.4H690zM786.4 174h-193c-17.6 0-32-14.4-32-32s14.4-32 32-32h193c17.6 0 32 14.4 32 32s-14.2 32-32 32z" fill="#D3E6F8" /><path d="M788.4 174h-40.2V110h40.2c16.8 0 30.4 13.6 30.4 30.4v3c0 17-13.6 30.6-30.4 30.6z" fill="#A4CFF2" /><path d="M518 397.6H276.8c-47.8 0-86.4 38.8-86.4 86.4v260.8c0 13 10.4 23.4 23.4 23.4h39.8c13 0 23.4-10.4 23.4-23.4V529.4c0-25 20.2-45.2 45.2-45.2H518v-86.6z" fill="#FFFFFF" /><path d="M243.6 768.2V510.8c0-32.2 26.2-58.4 58.4-58.4h182.8v32H322l-36.8 16-8.4 28.8v215.6l-33.2 23.4z" fill="#D3E6F8" /><path d="M718 251.2h-56c-16.6 0-30.2 13.6-30.2 30.2v30.8h116.4v-30.8c0-16.6-13.6-30.2-30.2-30.2z" fill="#7BABF1" /><path d="M737.4 441.2h-95c-17.4 0-31.6-14.2-31.6-31.6 0-17.4 14.2-31.6 31.6-31.6h95c17.4 0 31.6 14.2 31.6 31.6 0.2 17.4-14 31.6-31.6 31.6z" fill="#FFFFFF" /><path d="M238 1012.2c-51.2 0-83.2-55.4-57.6-99.8l57.6-99.8 57.6 99.8c25.6 44.4-6.4 99.8-57.6 99.8z" fill="#D3E6F8" /><path d="M253.4 780h-39.8c-19.4 0-35.2-15.8-35.2-35.2V484.2c0-54.2 44-98.2 98.2-98.2H518c6.4 0 11.8 5.2 11.8 11.8v86.4c0 6.4-5.2 11.8-11.8 11.8h-196c-18.4 0-33.6 15-33.6 33.6v215.6c0.2 19-15.6 34.8-35 34.8z m23.4-370.6c-41.2 0-74.8 33.6-74.8 74.8v260.8c0 6.4 5.2 11.6 11.6 11.6h39.8c6.4 0 11.6-5.2 11.6-11.6V529.4c0-31.4 25.6-57 57-57h184.2v-63H276.8zM238 1024c-28.2 0-53.6-14.6-67.8-39.2-14.2-24.6-14.2-53.8 0-78.2l57.6-99.8c2-3.6 6-5.8 10.2-5.8 4.2 0 8 2.2 10.2 5.8l57.6 99.8c14.2 24.6 14.2 53.8 0 78.2-14.2 24.6-39.6 39.2-67.8 39.2z m0-187.8l-47.4 82.2c-10 17.2-10 37.6 0 54.8 10 17.2 27.6 27.4 47.4 27.4s37.6-10.2 47.4-27.4c10-17.2 10-37.6 0-54.8L238 836.2z" fill="#4C4372" /><path d="M308 698.6H168c-17.6 0-32-14.4-32-32s14.4-32 32-32h140c17.6 0 32 14.4 32 32-0.2 17.6-14.4 32-32 32z" fill="#FFFFFF" /><path d="M526.4 518.8h35v-155.8h-35c-19 0-34.4 15.4-34.4 34.4v87c0 19 15.4 34.4 34.4 34.4zM853.6 518.8h-35v-155.8h35c19 0 34.4 15.4 34.4 34.4v87c0 19-15.4 34.4-34.4 34.4z" fill="#7BABF1" /><path d="M786.4 185.8h-193c-24 0-43.6-19.6-43.6-43.6s19.6-43.6 43.6-43.6h193c24 0 43.6 19.6 43.6 43.6s-19.4 43.6-43.6 43.6z m-193-64c-11.2 0-20.2 9-20.2 20.2s9 20.2 20.2 20.2h193c11.2 0 20.2-9 20.2-20.2s-9-20.2-20.2-20.2h-193zM767.6 581h-155.2c-34.6 0-62.6-28.2-62.6-62.6v-155.2c0-34.6 28.2-62.6 62.6-62.6h155.2c34.6 0 62.6 28.2 62.6 62.6v155.2c0 34.6-28.2 62.6-62.6 62.6zM612.4 324c-21.6 0-39.2 17.6-39.2 39.2v155.2c0 21.6 17.6 39.2 39.2 39.2h155.2c21.6 0 39.2-17.6 39.2-39.2v-155.2c0-21.6-17.6-39.2-39.2-39.2h-155.2z" fill="#4C4372" /><path d="M748.2 324h-116.4c-6.4 0-11.8-5.2-11.8-11.8v-30.8c0-23.2 18.8-42 42-42h56c23.2 0 42 18.8 42 42v30.8c-0.2 6.6-5.4 11.8-11.8 11.8z m-104.8-23.4h93v-19.2c0-10.2-8.2-18.4-18.4-18.4h-56c-10.2 0-18.4 8.2-18.4 18.4v19.2z" fill="#4C4372" /><path d="M712.6 263h-45.4c-6.4 0-11.8-5.2-11.8-11.8V174c0-6.4 5.2-11.8 11.8-11.8h45.4c6.4 0 11.8 5.2 11.8 11.8v77.2c0 6.4-5.4 11.8-11.8 11.8z m-33.6-23.6h21.8V185.8h-21.8v53.6zM561.4 530.4h-35c-25.4 0-46.2-20.6-46.2-46.2v-87c0-25.4 20.6-46.2 46.2-46.2h35c6.4 0 11.8 5.2 11.8 11.8v155.8c0 6.6-5.2 11.8-11.8 11.8z m-35-155.8c-12.4 0-22.6 10.2-22.6 22.6v87c0 12.4 10.2 22.6 22.6 22.6h23.4v-132.4h-23.4zM853.6 530.4h-35c-6.4 0-11.8-5.2-11.8-11.8v-155.8c0-6.4 5.2-11.8 11.8-11.8h35c25.4 0 46.2 20.6 46.2 46.2v87c-0.2 25.6-20.8 46.2-46.2 46.2z m-23.4-23.4h23.4c12.4 0 22.6-10.2 22.6-22.6v-87c0-12.4-10.2-22.6-22.6-22.6h-23.4v132.2z" fill="#4C4372" /><path d="M308 698.6h-40.2v-64H308c16.8 0 30.4 13.6 30.4 30.4v3c0 17-13.6 30.6-30.4 30.6z" fill="#D3E6F8" /><path d="M308 710.4H168c-24 0-43.6-19.6-43.6-43.6S144 623 168 623h140c24 0 43.6 19.6 43.6 43.6s-19.6 43.8-43.6 43.8z m-140-64c-11.2 0-20.2 9-20.2 20.2s9 20.2 20.2 20.2h140c11.2 0 20.2-9 20.2-20.2s-9-20.2-20.2-20.2H168z" fill="#4C4372" /><path d="M739 441.6h-20.6v-64h20.6c16.8 0 30.4 13.6 30.4 30.4v3c0 17-13.6 30.6-30.4 30.6z" fill="#D3E6F8" /><path d="M737.4 453h-95c-24 0-43.4-19.4-43.4-43.4s19.4-43.4 43.4-43.4h95c24 0 43.4 19.4 43.4 43.4s-19.4 43.4-43.4 43.4z m-95-63.4c-11 0-20 9-20 20s9 20 20 20h95c11 0 20-9 20-20s-9-20-20-20h-95z" fill="#4C4372" /></svg>