<?xml version="1.0" standalone="no"?><!DOCTYPE svg PUBLIC "-//W3C//DTD SVG 1.1//EN" "http://www.w3.org/Graphics/SVG/1.1/DTD/svg11.dtd"><svg class="icon" width="200px" height="200.00px" viewBox="0 0 1024 1024" version="1.1" xmlns="http://www.w3.org/2000/svg"><path d="M512 512m-414 0a414 414 0 1 0 828 0 414 414 0 1 0-828 0Z" fill="#F0C48A" /><path d="M447.2 722.4l1.2 2.4c-0.6-0.8-1-1.6-1.2-2.4z" fill="#A4CFF2" /><path d="M643.4 78c-3 0-6-1.2-8.2-3.4-33-33-76.6-51-123.2-51-46.6 0-90.2 18.2-123.2 51-4.6 4.6-12 4.6-16.6 0-4.6-4.6-4.6-12 0-16.6C409.6 20.6 459.2 0 512 0c52.8 0 102.4 20.6 139.8 57.8 4.6 4.6 4.6 12 0 16.6-2.4 2.4-5.4 3.6-8.4 3.6z" fill="#4C4372" /><path d="M601.8 119.6c-3 0-6-1.2-8.2-3.4-45-45-118-45-163 0-4.6 4.6-12 4.6-16.6 0-4.6-4.6-4.6-12 0-16.6 54-54 142-54 196 0 4.6 4.6 4.6 12 0 16.6-2.2 2.2-5.2 3.4-8.2 3.4zM558.2 163.2c-3 0-6-1.2-8.2-3.4-10.2-10.2-23.6-15.8-38-15.8-14.4 0-27.8 5.6-38 15.8-4.6 4.6-12 4.6-16.6 0-4.6-4.6-4.6-12 0-16.6 14.6-14.6 34-22.6 54.6-22.6s40 8 54.6 22.6c4.6 4.6 4.6 12 0 16.6-2.4 2.2-5.4 3.4-8.4 3.4z" fill="#4C4372" /><path d="M512 197.6m-27 0a27 27 0 1 0 54 0 27 27 0 1 0-54 0Z" fill="#4C4372" /><path d="M512 265.4c-206.2 0-373.4 167.2-373.4 373.4S305.8 1012.2 512 1012.2s373.4-167.2 373.4-373.4S718.2 265.4 512 265.4z m0 591.2c-120.2 0-217.6-97.4-217.6-217.6S391.8 421.2 512 421.2c120.2 0 217.6 97.4 217.6 217.6S632.2 856.6 512 856.6z" fill="#D3E6F8" /><path d="M832.6 830.4c33.6-56 52.8-121.6 52.8-191.6 0-206.2-167.2-373.4-373.4-373.4v155.8c120.2 0 217.6 97.6 217.6 217.6 0 38.8-10.2 75-27.8 106.6l130.8 85z" fill="#FD919E" /><path d="M833.4 829.2L704 741.6c-36.8 68.4-108.8 114.8-192 114.8-83 0-155.2-46.4-191.8-114.8l-129.2 88c65.2 109.4 184.6 182.6 321 182.6 136.8 0 256.2-73.4 321.4-183z" fill="#FFFFFF" /><path d="M512 1024c-212.4 0-385.2-172.8-385.2-385.2S299.6 253.6 512 253.6s385.2 172.8 385.2 385.2S724.4 1024 512 1024z m0-746.8c-199.4 0-361.8 162.2-361.8 361.8S312.6 1000.6 512 1000.6s361.8-162.2 361.8-361.8S711.4 277.2 512 277.2z" fill="#4C4372" /><path d="M512 868.2c-126.4 0-229.4-103-229.4-229.4S385.6 409.4 512 409.4s229.4 103 229.4 229.4c0 126.6-103 229.4-229.4 229.4z m0-435.4c-113.6 0-206 92.4-206 206s92.4 206 206 206 206-92.4 206-206-92.4-206-206-206z" fill="#4C4372" /><path d="M512 432.8c-6.4 0-11.8-5.2-11.8-11.8v-155.8c0-6.4 5.2-11.8 11.8-11.8 6.4 0 11.8 5.2 11.8 11.8v155.8c0 6.6-5.4 11.8-11.8 11.8zM833.2 841.2c-2.4 0-4.8-0.8-6.8-2.2l-127.2-91.8c-5.2-3.8-6.4-11.2-2.6-16.4 3.8-5.2 11.2-6.4 16.4-2.6L840 820c5.2 3.8 6.4 11.2 2.6 16.4-2.2 3-5.8 4.8-9.4 4.8zM192.4 841.2c-3.6 0-7.2-1.6-9.6-4.8-3.8-5.2-2.6-12.6 2.6-16.4l123.2-88.8c5.2-3.8 12.6-2.6 16.4 2.6 3.8 5.2 2.6 12.6-2.6 16.4l-123.2 88.8c-2.2 1.4-4.6 2.2-6.8 2.2z" fill="#4C4372" /><path d="M536.2 717.6V475.8c0-13.4-10.8-24.2-24.2-24.2-13.4 0-24.2 10.8-24.2 24.2v241.8c-19.2 9.2-32.6 28.8-32.6 51.4 0 31.4 25.4 57 57 57 31.4 0 57-25.4 57-57-0.2-22.6-13.6-42.2-33-51.4z" fill="#FD919E" /><path d="M486.896816 779.393407a27.2 27.2 0 1 0 50.259047-20.817979 27.2 27.2 0 1 0-50.259047 20.817979Z" fill="#FFFFFF" /><path d="M512 837.8c-37.8 0-68.6-30.8-68.6-68.6 0-23.8 12.6-46 32.6-58.4V475.8c0-19.8 16.2-36 36-36s36 16.2 36 36v234.8c20 12.4 32.6 34.6 32.6 58.4 0 38-30.8 68.8-68.6 68.8z m0-374.6c-7 0-12.6 5.6-12.6 12.6v241.8c0 4.6-2.6 8.6-6.8 10.6-15.8 7.4-26 23.4-26 40.8 0 25 20.2 45.2 45.2 45.2 25 0 45.2-20.2 45.2-45.2 0-17.4-10.2-33.4-26-40.8-4-2-6.8-6-6.8-10.6V475.8c0.4-6.8-5.2-12.6-12.2-12.6z" fill="#4C4372" /><path d="M512 808c-21.6 0-39-17.6-39-39 0-21.6 17.6-39 39-39 21.6 0 39 17.6 39 39S533.6 808 512 808z m0-54.6c-8.6 0-15.6 7-15.6 15.6s7 15.6 15.6 15.6 15.6-7 15.6-15.6-7-15.6-15.6-15.6z" fill="#4C4372" /></svg>