<?xml version="1.0" standalone="no"?><!DOCTYPE svg PUBLIC "-//W3C//DTD SVG 1.1//EN" "http://www.w3.org/Graphics/SVG/1.1/DTD/svg11.dtd"><svg class="icon" width="200px" height="200.00px" viewBox="0 0 1024 1024" version="1.1" xmlns="http://www.w3.org/2000/svg"><path d="M512 512m-414 0a414 414 0 1 0 828 0 414 414 0 1 0-828 0Z" fill="#F0C48A" /><path d="M844.6 210.6c-3 0-6-1.2-8.2-3.4-29.6-29.6-69.2-46-111-46-42 0-81.4 16.4-111 46-4.6 4.6-12 4.6-16.6 0-4.6-4.6-4.6-12 0-16.6 34-34 79.4-52.8 127.6-52.8 48.2 0 93.6 18.8 127.6 52.8 4.6 4.6 4.6 12 0 16.6-2.4 2.2-5.4 3.4-8.4 3.4z" fill="#4C4372" /><path d="M806.8 248.4c-3 0-6-1.2-8.2-3.4-19.6-19.6-45.6-30.4-73.2-30.4s-53.6 10.8-73.2 30.4c-4.6 4.6-12 4.6-16.6 0-4.6-4.6-4.6-12 0-16.6 24-24 55.8-37.2 89.8-37.2s65.8 13.2 89.8 37.2c4.6 4.6 4.6 12 0 16.6-2.4 2.4-5.4 3.4-8.4 3.4z" fill="#4C4372" /><path d="M767.2 288c-3 0-6-1.2-8.2-3.4-18.6-18.6-48.8-18.6-67.4 0-4.6 4.6-12 4.6-16.6 0-4.6-4.6-4.6-12 0-16.6 27.8-27.8 72.8-27.8 100.6 0 4.6 4.6 4.6 12 0 16.6-2.4 2.2-5.4 3.4-8.4 3.4z" fill="#4C4372" /><path d="M725.2 318.2m-24.4 0a24.4 24.4 0 1 0 48.8 0 24.4 24.4 0 1 0-48.8 0Z" fill="#4C4372" /><path d="M484.6 11.8h-176.2L288 228.6h217z" fill="#FD919E" /><path d="M508.6 795.4H284.4c-15.8 0-28.6-12.8-28.6-28.6V257.2c0-15.8 12.8-28.6 28.6-28.6h224.4c15.8 0 28.6 12.8 28.6 28.6v509.6c-0.2 15.8-13 28.6-28.8 28.6z" fill="#D3E6F8" /><path d="M482.6 293.8h52.4V252c0-13-10.6-23.4-23.4-23.4h-29v65.2zM482.6 730.2h52.4V772c0 13-10.6 23.4-23.4 23.4h-29v-65.2z" fill="#A4CFF2" /><path d="M484.6 1012.2h-176.2L288 795.4h217z" fill="#FD919E" /><path d="M484.6 11.8h-41.8l20.4 216.8h41.8zM484.6 1012.2h-41.8l20.4-216.8h41.8z" fill="#E8677D" /><path d="M508.6 807.2H284.4c-22.2 0-40.4-18-40.4-40.4V257.2c0-22.2 18-40.4 40.4-40.4h224.4c22.2 0 40.4 18 40.4 40.4v509.6c-0.2 22.2-18.4 40.4-40.6 40.4zM284.4 240.2c-9.2 0-16.8 7.6-16.8 16.8v509.6c0 9.2 7.6 16.8 16.8 16.8h224.4c9.2 0 16.8-7.6 16.8-16.8V257.2c0-9.2-7.6-16.8-16.8-16.8H284.4z" fill="#4C4372" /><path d="M484.6 1024h-176.4c-6 0-11.2-4.6-11.6-10.6l-20.2-216.8c-0.4-3.2 0.8-6.6 3-9 2.2-2.4 5.4-3.8 8.6-3.8h216.8c3.2 0 6.4 1.4 8.6 3.8 2.2 2.4 3.4 5.8 3 9l-20.2 216.8c-0.4 6-5.4 10.6-11.6 10.6z m-165.6-23.4H474l18-193.4h-191.2l18.2 193.4zM505 240.2H288c-3.2 0-6.4-1.4-8.6-3.8-2.2-2.4-3.4-5.8-3-9L296.6 10.6c0.6-6 5.6-10.6 11.6-10.6h176.4c6 0 11.2 4.6 11.6 10.6l20.2 216.8c0.4 3.2-0.8 6.6-3 9-2 2.6-5.2 3.8-8.4 3.8z m-204-23.4H492l-18-193.4h-155l-18 193.4z" fill="#4C4372" /><path d="M554.6 729.2h-316c-32.6 0-59-26.4-59-59V354c0-32.6 26.4-59 59-59h316c32.6 0 59 26.4 59 59v316c0 32.6-26.4 59.2-59 59.2z" fill="#A4CFF2" /><path d="M284.2 444.6h224.8v134.8H284.2z" fill="#FFFFFF" /><path d="M541.2 727.2h11.6c33.6 0 60.8-27.2 60.8-60.8v-312c0-33.6-27.2-60.8-60.8-60.8h-11.6v433.6z" fill="#7BABF1" /><path d="M454.8 444.6h54.2v134.8h-54.2z" fill="#D3E6F8" /><path d="M508.8 591.2H284.2c-6.4 0-11.8-5.2-11.8-11.8v-134.8c0-6.4 5.2-11.8 11.8-11.8h224.8c6.4 0 11.8 5.2 11.8 11.8v134.8c-0.2 6.4-5.4 11.8-12 11.8z m-213-23.6h201.4v-111.4H295.8v111.4z" fill="#4C4372" /><path d="M396.4 523.8c-2 0-4.2-0.6-6-1.6L278 454.6c-5.6-3.4-7.4-10.6-4-16 3.4-5.6 10.6-7.4 16-4l106.4 63.8 106.4-63.8c5.6-3.4 12.8-1.6 16 4 3.4 5.6 1.6 12.8-4 16L402.6 522c-2 1.2-4 1.8-6.2 1.8z" fill="#4C4372" /><path d="M554.6 740.8h-316c-39 0-70.8-31.8-70.8-70.8V354c0-39 31.8-70.8 70.8-70.8h316c39 0 70.8 31.8 70.8 70.8v316c0 39-31.8 70.8-70.8 70.8zM238.4 306.6c-26.2 0-47.4 21.2-47.4 47.4v316c0 26.2 21.2 47.4 47.4 47.4h316c26.2 0 47.4-21.2 47.4-47.4V354c0-26.2-21.2-47.4-47.4-47.4h-316z" fill="#4C4372" /></svg>