<?xml version="1.0" standalone="no"?><!DOCTYPE svg PUBLIC "-//W3C//DTD SVG 1.1//EN" "http://www.w3.org/Graphics/SVG/1.1/DTD/svg11.dtd"><svg class="icon" width="200px" height="200.00px" viewBox="0 0 1024 1024" version="1.1" xmlns="http://www.w3.org/2000/svg"><path d="M512 512m-414 0a414 414 0 1 0 828 0 414 414 0 1 0-828 0Z" fill="#F0C48A" /><path d="M90.8 167v-92c0-34.8 28.6-63.4 63.4-63.4h442.8c34.8 0 63.4 28.6 63.4 63.4v756.6c0 34.8-28.6 63.4-63.4 63.4H154.2c-34.8 0-63.4-28.6-63.4-63.4V167z" fill="#A4CFF2" /><path d="M90.8 136H662v571.2H90.8z" fill="#FFFFFF" /><path d="M430.6 223.2h154.4v154.4h-154.4z" fill="#A4CFF2" /><path d="M573.6 141h86.8V61.4c0-26-21-47-47-47h-39.8v126.6zM573.6 895.2h22.2c35.6 0 64.6-29 64.6-64.6v-112c0-4.4-3.6-8-8-8h-78.8v184.6z" fill="#7BABF1" /><path d="M573.6 141h86.8v569.4h-86.8z" fill="#D3E6F8" /><path d="M348.995239 827.889862a38.8 38.8 0 1 0 54.870529-54.872443 38.8 38.8 0 1 0-54.870529 54.872443Z" fill="#7BABF1" /><path d="M658 147.6H93.4c-6.4 0-11.8-5.2-11.8-11.8s5.2-11.8 11.8-11.8H658c6.4 0 11.8 5.2 11.8 11.8s-5.4 11.8-11.8 11.8zM658 722.2H93.4c-6.4 0-11.8-5.2-11.8-11.8 0-6.4 5.2-11.8 11.8-11.8H658c6.4 0 11.8 5.2 11.8 11.8-0.2 6.6-5.4 11.8-11.8 11.8zM376.4 851c-27.8 0-50.6-22.6-50.6-50.6 0-27.8 22.6-50.6 50.6-50.6s50.6 22.6 50.6 50.6c0 27.8-22.6 50.6-50.6 50.6z m0-77.8c-15 0-27 12.2-27 27 0 15 12.2 27 27 27s27-12.2 27-27c0.2-14.8-12-27-27-27z" fill="#4C4372" /><path d="M597 906.8H154.2c-41.4 0-75-33.6-75-75V75C79.2 33.6 112.8 0 154.2 0h442.8C638.4 0 672 33.6 672 75v756.6c0.2 41.6-33.6 75.2-75 75.2zM154.2 23.4c-28.4 0-51.6 23.2-51.6 51.6v756.6c0 28.4 23.2 51.6 51.6 51.6h442.8c28.4 0 51.6-23.2 51.6-51.6V75c0-28.4-23.2-51.6-51.6-51.6H154.2z" fill="#4C4372" /><path d="M933.2 240.2c0-58.2-49.2-104.8-108.4-100.8-50 3.6-90.4 44.2-93.4 94.4-2 32.6 11.4 62 33.6 81.8 10 9 16 21.8 16 35.2v52.2c0 28.2 22.8 51 51 51s51-22.8 51-51v-52.2c0-13.4 5.6-26 15.6-34.8 21.2-18.6 34.6-45.6 34.6-75.8z" fill="#E8677D" /><path d="M824.8 139.4c-50 3.6-90.4 44.2-93.4 94.4-2 32.6 11.4 62 33.6 81.8 10 9 16 21.8 16 35.2v52.2c0 13.4 5.2 25.4 13.6 34.6 21.6-6 37.6-25.6 37.6-49.2v-52.2c0-13.4 5.6-26 15.6-34.8 21-18.4 34.4-45.6 34.4-75.8 0-36.6-19.4-68.6-48.4-86.2-3.2-0.2-6-0.2-9 0z" fill="#FD919E" /><path d="M781.2 350.8v52.2c0 28.2 22.8 51 51 51s51-22.8 51-51v-52.2h-102z" fill="#FFFFFF" /><path d="M832.2 352.2v100.4h12.6c22.2-5.6 38.4-25.6 38.4-49.4v-51h-51z" fill="#D3E6F8" /><path d="M832.2 465.8c-34.6 0-62.8-28.2-62.8-62.8v-52.2c0-10-4.4-19.6-12-26.4-26-23.2-39.8-56.4-37.6-91.2 3.4-56 48.2-101.4 104.2-105.2 31.8-2.2 61.8 8.4 85 30 22.8 21.2 35.8 51.4 35.8 82.4 0 32.4-14 63.2-38.2 84.6-7.4 6.4-11.6 16-11.6 26v52.2c0 34.6-28.2 62.6-62.8 62.6z m0-314.8c-2.2 0-4.4 0-6.6 0.2-44.4 3.2-79.8 39-82.6 83.4-1.8 27.6 9.2 54 29.8 72.4 12.6 11.2 20 27.4 20 44v52.2c0 21.8 17.6 39.4 39.4 39.4 21.8 0 39.4-17.6 39.4-39.4v-52.2c0-16.8 7.2-32.8 19.6-43.6 19.2-17 30.4-41.4 30.4-67 0-24.6-10.4-48.4-28.4-65.4-16.8-15.8-38.2-24-61-24z" fill="#4C4372" /><path d="M883.2 362.6h-102.2c-6.4 0-11.8-5.2-11.8-11.8s5.2-11.8 11.8-11.8h102.2c6.4 0 11.8 5.2 11.8 11.8s-5.2 11.8-11.8 11.8zM871.6 411.2h-82.4c-6.4 0-11.8-5.2-11.8-11.8s5.2-11.8 11.8-11.8h82.4c6.4 0 11.8 5.2 11.8 11.8s-5.4 11.8-11.8 11.8z" fill="#4C4372" /><path d="M832.2 362.6c-6.4 0-11.8-5.2-11.8-11.8v-114c0-6.4 5.2-11.8 11.8-11.8 6.4 0 11.8 5.2 11.8 11.8v114c0 6.4-5.4 11.8-11.8 11.8z" fill="#4C4372" /><path d="M322.4 389.4H168c-6.4 0-11.8-5.2-11.8-11.8v-154.4c0-6.4 5.2-11.8 11.8-11.8h154.4c6.4 0 11.8 5.2 11.8 11.8v154.4c0 6.4-5.2 11.8-11.8 11.8z m-142.6-23.6h131v-131H179.8v131z" fill="#4C4372" /><path d="M585 389.4h-154.4c-6.4 0-11.8-5.2-11.8-11.8v-154.4c0-6.4 5.2-11.8 11.8-11.8h154.4c6.4 0 11.8 5.2 11.8 11.8v154.4c-0.2 6.4-5.4 11.8-11.8 11.8z m-142.8-23.6h131v-131h-131v131z" fill="#4C4372" /><path d="M322.4 637H168c-6.4 0-11.8-5.2-11.8-11.8v-154.4c0-6.4 5.2-11.8 11.8-11.8h154.4c6.4 0 11.8 5.2 11.8 11.8v154.4c0 6.4-5.2 11.8-11.8 11.8z m-142.6-23.6h131v-131H179.8v131z" fill="#4C4372" /><path d="M585 637h-154.4c-6.4 0-11.8-5.2-11.8-11.8v-154.4c0-6.4 5.2-11.8 11.8-11.8h154.4c6.4 0 11.8 5.2 11.8 11.8v154.4c-0.2 6.4-5.4 11.8-11.8 11.8z m-142.8-23.6h131v-131h-131v131z" fill="#4C4372" /><path d="M715.8 1012.2h-182.6c-26 0-47.2-21.2-47.2-47.2v-45.6c0-26 21.2-47.2 47.2-47.2h182.6c26 0 47.2 21.2 47.2 47.2v45.6c0 26.2-21.2 47.2-47.2 47.2z" fill="#D3E6F8" /><path d="M714.2 1012.2h-47.4v-135.6h47.4c22.6 0 41 18.4 41 41v53.4c0 23-18.4 41.2-41 41.2z" fill="#A4CFF2" /><path d="M367.4 600l82.8 170.6 83 101.6h182.6l53.8-77.4V526.2s-25-38.4-72.6-9.2c-32.6-53.6-67.2-18.8-67.2-18.8s-17.4-65.2-67.4-38.4c-5.8-118.4-21-125.6-21-125.6s-57.4-23-65.8 37.4 0 225 0 225l-74.8-59.6c-0.2 0.2-60.6 5.4-33.4 63z" fill="#FFFFFF" /><path d="M733.2 512.4v244.2c0 7.4-1.4 14.6-4 21.6l-32.4 85.6s45 13.2 45.6-12.4c0.6-25.6 40.2-95.6 40.2-95.6l-13.2-229.2-36.2-14.2z" fill="#D3E6F8" /><path d="M715.8 1024h-182.6c-32.4 0-58.8-26.4-58.8-58.8v-45.6c0-32.4 26.4-58.8 58.8-58.8h182.6c32.4 0 58.8 26.4 58.8 58.8v45.6c0 32.4-26.4 58.8-58.8 58.8z m-182.6-140c-19.6 0-35.4 16-35.4 35.4v45.6c0 19.6 16 35.4 35.4 35.4h182.6c19.6 0 35.4-16 35.4-35.4v-45.6c0-19.6-16-35.4-35.4-35.4h-182.6z" fill="#4C4372" /><path d="M520.6 885.6c-3.6 0-7.2-1.8-9.6-5L446.8 790c-0.4-0.6-0.8-1-1-1.6L357.2 606c-13-19.6-10.6-45.6 6.2-62.2 16.2-16.2 42-19 61.4-6.6 3.2 2 6.2 4.6 9.4 8l29.4 31.4v-216c0-27.6 22.4-50 50-50s50 22.4 50 50v233.2c0 6.4-5.2 11.8-11.8 11.8-6.4 0-11.8-5.2-11.8-11.8V360.6c0-14.6-11.8-26.6-26.6-26.6-14.6 0-26.6 11.8-26.6 26.6v245.6c0 4.8-3 9.2-7.4 11-4.4 1.8-9.6 0.6-12.8-2.8l-49.8-53.2c-1.8-2-3.4-3.4-5-4.4-10.2-6.4-23.6-5-32.2 3.6-8.8 8.8-10 22.8-3 33 0.4 0.6 0.6 1 1 1.6l88.4 182.2 63.8 90c3.8 5.2 2.4 12.6-2.8 16.4-1.8 1.4-4 2-6.4 2z" fill="#4C4372" /><path d="M624.4 605.4c-6.4 0-11.8-5.2-11.8-11.8v-108.4c0-13.6-11-24.6-24.6-24.6-13.6 0-24.6 11-24.6 24.6v108.4c0 6.4-5.2 11.8-11.8 11.8-6.4 0-11.8-5.2-11.8-11.8v-108.4c0-26.4 21.6-48 48-48s48 21.6 48 48v108.4c0.4 6.6-4.8 11.8-11.4 11.8z" fill="#4C4372" /><path d="M697 605.4c-6.4 0-11.8-5.2-11.8-11.8v-76.8c0-13.6-11-24.6-24.6-24.6-13.6 0-24.6 11-24.6 24.6v76.8c0 6.4-5.2 11.8-11.8 11.8-6.4 0-11.8-5.2-11.8-11.8v-76.8c0-26.4 21.6-48 48-48s48 21.6 48 48v76.8c0.4 6.6-5 11.8-11.4 11.8z" fill="#4C4372" /><path d="M733.2 884c-1.6 0-3.2-0.4-4.8-1-6-2.6-8.6-9.6-6-15.4l24.8-56.2c7-15.8 10.4-32.4 10.4-49.6V548.8c0-13.6-11-24.6-24.6-24.6-13.6 0-24.6 11-24.6 24.6v45c0 6.4-5.2 11.8-11.8 11.8-6.4 0-11.8-5.2-11.8-11.8v-45c0-26.4 21.6-48 48-48s48 21.6 48 48v212.8c0 20.4-4.2 40.4-12.4 59L744 877c-2 4.4-6.2 7-10.8 7z" fill="#4C4372" /></svg>