<?xml version="1.0" standalone="no"?><!DOCTYPE svg PUBLIC "-//W3C//DTD SVG 1.1//EN" "http://www.w3.org/Graphics/SVG/1.1/DTD/svg11.dtd"><svg class="icon" width="200px" height="200.00px" viewBox="0 0 1024 1024" version="1.1" xmlns="http://www.w3.org/2000/svg"><path d="M512 512m-414 0a414 414 0 1 0 828 0 414 414 0 1 0-828 0Z" fill="#F0C48A" /><path d="M631.4 135c-3 0-6-1.2-8.2-3.4-61.2-61.2-161-61.2-222.2 0-4.6 4.6-12 4.6-16.6 0-4.6-4.6-4.6-12 0-16.6 70.4-70.4 185-70.4 255.4 0 4.6 4.6 4.6 12 0 16.6-2.4 2.2-5.4 3.4-8.4 3.4z" fill="#4C4372" /><path d="M593.6 173c-3 0-6-1.2-8.2-3.4-19.6-19.6-45.6-30.4-73.2-30.4s-53.6 10.8-73.2 30.4c-4.6 4.6-12 4.6-16.6 0-4.6-4.6-4.6-12 0-16.6 24-24 55.8-37.2 89.8-37.2S578 129 602 153c4.6 4.6 4.6 12 0 16.6-2.4 2.2-5.6 3.4-8.4 3.4z" fill="#4C4372" /><path d="M554 212.4c-3 0-6-1.2-8.2-3.4-18.6-18.6-48.8-18.6-67.4 0-4.6 4.6-12 4.6-16.6 0-4.6-4.6-4.6-12 0-16.6 27.8-27.8 72.8-27.8 100.6 0 4.6 4.6 4.6 12 0 16.6-2.4 2.2-5.4 3.4-8.4 3.4z" fill="#4C4372" /><path d="M512 242.6m-24.4 0a24.4 24.4 0 1 0 48.8 0 24.4 24.4 0 1 0-48.8 0Z" fill="#4C4372" /><path d="M937.6 884.6H86.4c-41.2 0-74.8-33.4-74.8-74.8V390.2c0-41.2 33.4-74.8 74.8-74.8h851.2c41.2 0 74.8 33.4 74.8 74.8V810c-0.2 41.2-33.6 74.6-74.8 74.6z" fill="#D3E6F8" /><path d="M780.8 366.8h144.2v144.2h-144.2z" fill="#FFFFFF" /><path d="M893.4 366.8h31.2v144.2h-31.2zM821.6 366.8h31.2v64.2h-31.2z" fill="#D3E6F8" /><path d="M964.6 879.2c26.4 0 47.8-21.4 47.8-47.8V370c0-26.4-21.4-47.8-47.8-47.8v557zM649 322.2h47.8v557h-47.8z" fill="#A4CFF2" /><path d="M856.4 645.4m-42.4 0a42.4 42.4 0 1 0 84.8 0 42.4 42.4 0 1 0-84.8 0Z" fill="#FD919E" /><path d="M856.4 785m-42.4 0a42.4 42.4 0 1 0 84.8 0 42.4 42.4 0 1 0-84.8 0Z" fill="#FD919E" /><path d="M68.4 366.8h574.8v466.4H68.4zM228 950H185c-18.2 0-32.8-14.6-32.8-32.8v-32.6h108.6v32.6c0 18.2-14.6 32.8-32.8 32.8zM839 950H796c-18.2 0-32.8-14.6-32.8-32.8v-32.6h108.6v32.6c0 18.2-14.8 32.8-32.8 32.8z" fill="#7BABF1" /><path d="M937.6 896.4H86.4C38.8 896.4 0 857.6 0 810V390.2c0-47.6 38.8-86.4 86.4-86.4h851.2c47.6 0 86.4 38.8 86.4 86.4V810c0 47.6-38.8 86.4-86.4 86.4zM86.4 327.2c-34.8 0-63 28.2-63 63V810c0 34.8 28.2 63 63 63h851.2c34.8 0 63-28.2 63-63V390.2c0-34.8-28.2-63-63-63H86.4z" fill="#4C4372" /><path d="M696 890.8c-6.4 0-11.8-5.2-11.8-11.8v-558c0-6.4 5.2-11.8 11.8-11.8 6.4 0 11.8 5.2 11.8 11.8v558.2c-0.2 6.4-5.4 11.6-11.8 11.6zM643.4 845H68.4c-6.4 0-11.8-5.2-11.8-11.8V366.8c0-6.4 5.2-11.8 11.8-11.8h574.8c6.4 0 11.8 5.2 11.8 11.8v466.4c0 6.6-5.2 11.8-11.6 11.8zM80.2 821.6h551.4V378.6H80.2v443zM925 522.8h-144.2c-6.4 0-11.8-5.2-11.8-11.8v-144.2c0-6.4 5.2-11.8 11.8-11.8h144.2c6.4 0 11.8 5.2 11.8 11.8v144.2c-0.2 6.4-5.4 11.8-11.8 11.8z m-132.6-23.6h120.8v-120.8h-120.8v120.8zM856.4 699.6c-29.8 0-54.2-24.2-54.2-54.2s24.2-54.2 54.2-54.2 54.2 24.2 54.2 54.2-24.4 54.2-54.2 54.2z m0-84.8c-17 0-30.6 13.8-30.6 30.6 0 17 13.8 30.6 30.6 30.6 17 0 30.6-13.8 30.6-30.6 0.2-16.8-13.6-30.6-30.6-30.6zM856.4 839.2c-29.8 0-54.2-24.2-54.2-54.2s24.2-54.2 54.2-54.2 54.2 24.2 54.2 54.2-24.4 54.2-54.2 54.2z m0-84.8c-17 0-30.6 13.8-30.6 30.6 0 17 13.8 30.6 30.6 30.6 17 0 30.6-13.8 30.6-30.6 0.2-17-13.6-30.6-30.6-30.6z" fill="#4C4372" /><path d="M914.6 442.8h-127c-6.4 0-11.8-5.2-11.8-11.8s5.2-11.8 11.8-11.8h127c6.4 0 11.8 5.2 11.8 11.8s-5.4 11.8-11.8 11.8z" fill="#4C4372" /><path d="M852.8 433c-6.4 0-11.8-5.2-11.8-11.8V374c0-6.4 5.2-11.8 11.8-11.8 6.4 0 11.8 5.2 11.8 11.8v47.4c0 6.4-5.2 11.6-11.8 11.6zM228 961.8H185c-24.6 0-44.6-20-44.6-44.6v-32.6c0-6.4 5.2-11.8 11.8-11.8h108.6c6.4 0 11.8 5.2 11.8 11.8v32.6c0 24.6-20 44.6-44.6 44.6z m-64-65.4v20.8c0 11.6 9.4 21 21 21H228c11.6 0 21-9.4 21-21v-20.8H164zM839 961.8H796c-24.6 0-44.6-20-44.6-44.6v-32.6c0-6.4 5.2-11.8 11.8-11.8h108.6c6.4 0 11.8 5.2 11.8 11.8v32.6c0 24.6-20 44.6-44.6 44.6z m-64.2-65.4v20.8c0 11.6 9.4 21 21 21h43c11.6 0 21-9.4 21-21v-20.8h-85zM553.6 701.6H163.8c-21.6 0-39.2-17.6-39.2-39.2s17.6-39.2 39.2-39.2h389.8c21.6 0 39.2 17.6 39.2 39.2s-17.6 39.2-39.2 39.2zM163.8 646.8c-8.6 0-15.6 7-15.6 15.6s7 15.6 15.6 15.6h389.8c8.6 0 15.6-7 15.6-15.6s-7-15.6-15.6-15.6H163.8z" fill="#4C4372" /><path d="M472.4 784.2H245c-4.6 0-8.6-2.6-10.6-6.8l-39-82.6c-1.8-3.6-1.4-7.8 0.6-11.2 2.2-3.4 5.8-5.4 10-5.4h305.4c4 0 7.8 2 10 5.4 2.2 3.4 2.4 7.6 0.6 11.2l-39 82.6c-2 4-6.2 6.8-10.6 6.8z m-220-23.6h212.4l28-59.2H224.4l28 59.2z" fill="#4C4372" /><path d="M511.4 646.8H206c-6.4 0-11.8-5.2-11.8-11.8v-8.4c0-90.6 73.8-164.4 164.4-164.4s164.4 73.8 164.4 164.4v8.4c0.2 6.6-5 11.8-11.6 11.8z m-293.6-23.4h282c-1.8-76.2-64.4-137.6-141-137.6s-139.2 61.4-141 137.6z" fill="#4C4372" /><path d="M381.4 488.2H336c-6.4 0-11.8-5.2-11.8-11.8v-22.6c0-19 15.4-34.4 34.4-34.4s34.4 15.4 34.4 34.4v22.6c0.2 6.4-5.2 11.8-11.6 11.8z m-33.6-23.6h22v-11c0-6-5-11-11-11s-11 5-11 11v11z" fill="#4C4372" /></svg>