<?xml version="1.0" standalone="no"?><!DOCTYPE svg PUBLIC "-//W3C//DTD SVG 1.1//EN" "http://www.w3.org/Graphics/SVG/1.1/DTD/svg11.dtd"><svg class="icon" width="200px" height="200.00px" viewBox="0 0 1024 1024" version="1.1" xmlns="http://www.w3.org/2000/svg"><path d="M512.2 512m-414 0a414 414 0 1 0 828 0 414 414 0 1 0-828 0Z" fill="#F0C48A" /><path d="M59.6 130.4c-26.4 0-47.6-21.4-47.6-47.6 0-26.4 21.4-47.6 47.6-47.6 7.6 0 14.8 1.8 21 5C93.6 22.8 114.2 11.8 137.4 11.8c35.4 0 64.8 26 70.2 59.8 1.6-0.4 3.4-0.4 5.2-0.4 16.4 0 29.6 13.2 29.6 29.6s-13.2 29.6-29.6 29.6H59.6z" fill="#FFFFFF" /><path d="M213 142.2H59.6C26.8 142.2 0.2 115.6 0.2 82.8s26.6-59.4 59.4-59.4c6 0 11.8 0.8 17.6 2.6C92.6 9.4 114.2 0 137.4 0c37.4 0 69.4 24.6 79.6 59.6 21 2 37.4 19.8 37.4 41.2 0 22.8-18.6 41.4-41.4 41.4zM59.6 47c-19.8 0-35.8 16.2-35.8 35.8s16.2 35.8 35.8 35.8h153.4c10 0 18-8 18-18 0-11-9.8-19.8-21.2-17.6-3 0.6-6.2-0.2-8.8-2-2.6-1.8-4.2-4.6-4.8-7.8-4.6-29-29.2-50-58.6-50-18.8 0-36.2 8.6-47.6 23.8-3.4 4.6-9.6 6-14.6 3.4-5-2.2-10.2-3.4-15.8-3.4z" fill="#4C4372" /><path d="M344.8 11.8h134.6v1000.4H208z" fill="#D3E6F8" /><path d="M429.2 11.8h43.6v1000.6h-43.6z" fill="#A4CFF2" /><path d="M479.4 1024H208c-3.4 0-6.6-1.4-8.8-4-2.2-2.6-3.2-6-2.8-9.2L333.2 10.2c0.8-5.8 5.8-10.2 11.6-10.2h134.6c6.4 0 11.8 5.2 11.8 11.8v1000.6c-0.2 6.4-5.4 11.6-11.8 11.6z m-258-23.4h246.2V23.4h-112.6l-133.6 977.2z" fill="#4C4372" /><path d="M679.6 11.8h-134.6v1000.4h271.4z" fill="#D3E6F8" /><path d="M638 11.8L750.2 1012.2h66.2L679.6 11.8z" fill="#A4CFF2" /><path d="M816.4 1024H545c-6.4 0-11.8-5.2-11.8-11.8V11.8c0-6.4 5.2-11.8 11.8-11.8h134.6c5.8 0 10.8 4.4 11.6 10.2l136.8 1000.6c0.4 3.4-0.6 6.8-2.8 9.2-2.2 2.6-5.4 4-8.8 4z m-259.6-23.4h246.2L669.4 23.4h-112.6v977.2z" fill="#4C4372" /><path d="M1012.4 72.8c-3 0-6-1.2-8.2-3.4-61.2-61.2-161-61.2-222.2 0-4.6 4.6-12 4.6-16.6 0-4.6-4.6-4.6-12 0-16.6 70.4-70.4 185-70.4 255.4 0 4.6 4.6 4.6 12 0 16.6-2.4 2.4-5.4 3.4-8.4 3.4z" fill="#4C4372" /><path d="M811.6 110.8c-3 0-6-1.2-8.2-3.4-4.6-4.6-4.6-12 0-16.6 24-24 55.8-37.2 89.8-37.2s65.8 13.2 89.8 37.2c4.6 4.6 4.6 12 0 16.6-4.6 4.6-12 4.6-16.6 0-19.6-19.6-45.6-30.4-73.2-30.4s-53.6 10.8-73.2 30.4c-2.4 2.2-5.4 3.4-8.4 3.4z" fill="#4C4372" /><path d="M935 150.2c-3 0-6-1.2-8.2-3.4-18.6-18.6-48.8-18.6-67.4 0-4.6 4.6-12 4.6-16.6 0-4.6-4.6-4.6-12 0-16.6 27.8-27.8 72.8-27.8 100.6 0 4.6 4.6 4.6 12 0 16.6-2.4 2.4-5.4 3.4-8.4 3.4z" fill="#4C4372" /><path d="M893.2 180.6m-24.4 0a24.4 24.4 0 1 0 48.8 0 24.4 24.4 0 1 0-48.8 0Z" fill="#4C4372" /><path d="M12 334.4v178.8c41.8 0 75.6 33.8 75.6 75.6v98.8H168.2v-129.8c0-24.6 20-44.6 44.6-44.6h598.8c24.6 0 44.6 20 44.6 44.6v129.8h80.8v-98.8c0-41.8 33.8-75.6 75.6-75.6v-178.8H12z" fill="#FD919E" /><path d="M12 451h962.6v32.4H12zM241 503.6H168.2c-23 0-41.8 18.6-41.8 41.8v142.2H168.2v-150.8c14.2-14.6 37.2-35 72.8-33.2z" fill="#E8677D" /><path d="M1012.4 334.4h-46.6v133c0 9.6-4.6 18.4-12.6 23.8-8.8 5.8-16.2 12.8-22.4 19.6-15.8 17.8-24.2 41-24.2 64.8v114.2h33.2v-130.6l43.6-36.6s3.6-4 8.2-9.4h20.8v-178.8z" fill="#E8677D" /><path d="M937 699.2H856.2c-6.4 0-11.8-5.2-11.8-11.8v-129.8c0-18.2-14.8-32.8-32.8-32.8H212.8c-18.2 0-32.8 14.8-32.8 32.8v129.8c0 6.4-5.2 11.8-11.8 11.8H87.4c-6.4 0-11.8-5.2-11.8-11.8v-98.8c0-35.2-28.6-63.8-63.8-63.8-6.4 0-11.8-5.2-11.8-11.8v-178.8c0-6.4 5.2-11.8 11.8-11.8h1000.6c6.4 0 11.8 5.2 11.8 11.8v178.8c0 6.4-5.2 11.8-11.8 11.8-35.2 0-63.8 28.6-63.8 63.8v98.8c0 6.6-5.2 11.8-11.6 11.8z m-69.2-23.4h57.2v-87c0-44.2 33-80.8 75.6-86.6V346H23.6v156.2c42.6 5.8 75.6 42.4 75.6 86.6v87h57.2v-118c0-31 25.2-56.4 56.4-56.4h598.8c31 0 56.4 25.2 56.4 56.4v118z" fill="#4C4372" /><path d="M1006.4 462.8H18c-6.4 0-11.8-5.2-11.8-11.8s5.2-11.8 11.8-11.8h988.6c6.4 0 11.8 5.2 11.8 11.8s-5.4 11.8-12 11.8z" fill="#4C4372" /></svg>