<?xml version="1.0" standalone="no"?><!DOCTYPE svg PUBLIC "-//W3C//DTD SVG 1.1//EN" "http://www.w3.org/Graphics/SVG/1.1/DTD/svg11.dtd"><svg class="icon" width="200px" height="200.00px" viewBox="0 0 1024 1024" version="1.1" xmlns="http://www.w3.org/2000/svg"><path d="M518.4 512m-414 0a414 414 0 1 0 828 0 414 414 0 1 0-828 0Z" fill="#F0C48A" /><path d="M343.2 454.2v-70.4c0-26.8 21.8-48.6 48.6-48.6h339.4c26.8 0 48.6 21.8 48.6 48.6v580c0 26.8-21.8 48.6-48.6 48.6H391.8c-26.8 0-48.6-21.8-48.6-48.6V454.2z" fill="#A4CFF2" /><path d="M343.2 430.2h438v445h-438z" fill="#FFFFFF" /><path d="M713.2 434.2h66.6v-61c0-19.8-16.2-36-36-36h-30.4v97zM713.2 1012.2h17c27.4 0 49.6-22.2 49.6-49.6v-85.8c0-3.4-2.8-6.2-6.2-6.2h-60.4v141.6z" fill="#7BABF1" /><path d="M713.2 434.2h66.6v436.6h-66.6z" fill="#D3E6F8" /><path d="M541.064584 960.64564a29.8 29.8 0 1 0 42.142829-42.1443 29.8 29.8 0 1 0-42.142829 42.1443Z" fill="#7BABF1" /><path d="M778 442H345c-6.4 0-11.8-5.2-11.8-11.8s5.2-11.8 11.8-11.8H778c6.4 0 11.8 5.2 11.8 11.8s-5.4 11.8-11.8 11.8zM778 882.6H345c-6.4 0-11.8-5.2-11.8-11.8s5.2-11.8 11.8-11.8H778c6.4 0 11.8 5.2 11.8 11.8s-5.4 11.8-11.8 11.8zM562.2 981.2c-22.8 0-41.4-18.6-41.4-41.4 0-22.8 18.6-41.4 41.4-41.4s41.4 18.6 41.4 41.4c0 22.8-18.6 41.4-41.4 41.4z m0-59.6c-10 0-18 8-18 18s8 18 18 18 18-8 18-18c0-9.8-8.2-18-18-18z" fill="#4C4372" /><path d="M731.2 1024H391.8c-33.2 0-60.2-27-60.2-60.2v-580c0-33.2 27-60.2 60.2-60.2h339.4c33.2 0 60.2 27 60.2 60.2v580c0.2 33.2-27 60.2-60.2 60.2zM391.8 346.8c-20.4 0-36.8 16.6-36.8 36.8v580c0 20.4 16.6 36.8 36.8 36.8h339.4c20.4 0 36.8-16.6 36.8-36.8v-580c0-20.4-16.6-36.8-36.8-36.8H391.8z" fill="#4C4372" /><path d="M345 181c-77.4 0-126 83.8-87.2 151l87.2 151 87.2-151c38.8-67.2-9.6-151-87.2-151z m0 140.8c-24.4 0-44-19.8-44-44s19.8-44 44-44 44 19.8 44 44-19.6 44-44 44z" fill="#FD919E" /><path d="M384 188.6c35.6 29.6 49.4 82.6 23.2 128L328 453.6l17 29.4 87.2-151c31.8-55 5-121.2-48.2-143.4z" fill="#E8677D" /><path d="M345 494.6c-4.2 0-8-2.2-10.2-5.8l-87.2-151c-20.4-35.2-20.4-77.2 0-112.4s56.8-56.2 97.4-56.2 77 21 97.4 56.2c20.4 35.2 20.4 77.2 0 112.4l-87.2 151c-2 3.6-6 5.8-10.2 5.8z m0-302c-32.2 0-61 16.6-77 44.4-16 27.8-16 61 0 89l77 133.4L422 326c16-27.8 16-61 0-89s-44.8-44.4-77-44.4z" fill="#4C4372" /><path d="M345 333.6c-30.8 0-55.8-25-55.8-55.8s25-55.8 55.8-55.8 55.8 25 55.8 55.8-25 55.8-55.8 55.8z m0-88.2c-17.8 0-32.4 14.6-32.4 32.4 0 17.8 14.6 32.4 32.4 32.4 17.8 0 32.4-14.6 32.4-32.4 0-18-14.4-32.4-32.4-32.4z" fill="#4C4372" /><path d="M471.2 570.4h244.6c8.6 0 14.6 8.6 11.6 16.6l-36.2 98.4c-1.8 4.8-6.4 8-11.6 8h-177.4" fill="#FD919E" /><path d="M688 570.4l-38.8 123H688l39-116.2z" fill="#E8677D" /><path d="M544.8 783.4m-24.8 0a24.8 24.8 0 1 0 49.6 0 24.8 24.8 0 1 0-49.6 0Z" fill="#E8677D" /><path d="M633.2 783.4m-24.8 0a24.8 24.8 0 1 0 49.6 0 24.8 24.8 0 1 0-49.6 0Z" fill="#E8677D" /><path d="M674 742h-169.6c-5.6 0-10.4-4-11.4-9.4L448 516.4h-52c-6.4 0-11.8-5.2-11.8-11.8 0-6.4 5.2-11.8 11.8-11.8h61.4c5.6 0 10.4 4 11.4 9.4L514 718.6h160c6.4 0 11.8 5.2 11.8 11.8s-5.4 11.6-11.8 11.6z" fill="#4C4372" /><path d="M679.6 705h-177.4c-6.4 0-11.8-5.2-11.8-11.8s5.2-11.8 11.8-11.8h177.4c0.2 0 0.4-0.2 0.6-0.4l36.2-98.4c0-0.2 0.2-0.2 0-0.6-0.2-0.2-0.4-0.2-0.4-0.2H471.2c-6.4 0-11.8-5.2-11.8-11.8 0-6.4 5.2-11.8 11.8-11.8h244.6c7.8 0 15.2 3.8 19.8 10.4 4.4 6.4 5.6 14.8 2.8 22l-36.2 98.4c-3.6 9.8-12.6 16-22.6 16zM544.8 819.8c-20.2 0-36.6-16.4-36.6-36.6 0-20.2 16.4-36.6 36.6-36.6s36.6 16.4 36.6 36.6c-0.2 20.2-16.6 36.6-36.6 36.6z m0-49.6c-7.2 0-13 5.8-13 13s5.8 13 13 13 13-5.8 13-13-5.8-13-13-13zM633.2 819.8c-20.2 0-36.6-16.4-36.6-36.6 0-20.2 16.4-36.6 36.6-36.6 20.2 0 36.6 16.4 36.6 36.6 0 20.2-16.4 36.6-36.6 36.6z m0-49.6c-7.2 0-13 5.8-13 13s5.8 13 13 13 13-5.8 13-13-5.8-13-13-13z" fill="#4C4372" /><path d="M713.8 624.8H485.4c-6.4 0-11.8-5.2-11.8-11.8s5.2-11.8 11.8-11.8h228.4c6.4 0 11.8 5.2 11.8 11.8s-5.2 11.8-11.8 11.8zM694.6 664.6h-199.6c-6.4 0-11.8-5.2-11.8-11.8s5.2-11.8 11.8-11.8h199.6c6.4 0 11.8 5.2 11.8 11.8s-5.2 11.8-11.8 11.8z" fill="#4C4372" /><path d="M550.6 705c-6.4 0-11.8-5.2-11.8-11.8v-123c0-6.4 5.2-11.8 11.8-11.8s11.8 5.2 11.8 11.8v123c0 6.6-5.2 11.8-11.8 11.8zM633.2 705c-6.4 0-11.8-5.2-11.8-11.8v-123c0-6.4 5.2-11.8 11.8-11.8s11.8 5.2 11.8 11.8v123c0 6.6-5.4 11.8-11.8 11.8z" fill="#4C4372" /><path d="M721.2 89.2c-3 0-6-1.2-8.2-3.4-83.2-83.2-218.4-83.2-301.6 0-4.6 4.6-12 4.6-16.6 0-4.6-4.6-4.6-12 0-16.6 92.2-92.2 242.4-92.2 334.8 0 4.6 4.6 4.6 12 0 16.6-2.4 2.2-5.4 3.4-8.4 3.4z" fill="#4C4372" /><path d="M670.8 139.6c-3 0-6-1.2-8.2-3.4-55.4-55.4-145.4-55.4-200.6 0-4.6 4.6-12 4.6-16.6 0-4.6-4.6-4.6-12 0-16.6 64.4-64.4 169.4-64.4 233.8 0 4.6 4.6 4.6 12 0 16.6-2.4 2.4-5.4 3.4-8.4 3.4zM506.2 192.4c-3 0-6-1.2-8.2-3.4-4.6-4.6-4.6-12 0-16.6 17.2-17.2 40-26.6 64.2-26.6s47 9.4 64.2 26.6c4.6 4.6 4.6 12 0 16.6-4.6 4.6-12 4.6-16.6 0-12.8-12.8-29.6-19.8-47.6-19.8s-35 7-47.6 19.8c-2.4 2.2-5.4 3.4-8.4 3.4z" fill="#4C4372" /><path d="M562.2 236.6m-32.6 0a32.6 32.6 0 1 0 65.2 0 32.6 32.6 0 1 0-65.2 0Z" fill="#4C4372" /></svg>