<?xml version="1.0" standalone="no"?><!DOCTYPE svg PUBLIC "-//W3C//DTD SVG 1.1//EN" "http://www.w3.org/Graphics/SVG/1.1/DTD/svg11.dtd"><svg class="icon" width="200px" height="200.00px" viewBox="0 0 1024 1024" version="1.1" xmlns="http://www.w3.org/2000/svg"><path d="M512 512m-414 0a414 414 0 1 0 828 0 414 414 0 1 0-828 0Z" fill="#F0C48A" /><path d="M11.8 838.4h1000.6v78H11.8z" fill="#7BABF1" /><path d="M1012.2 928H11.8c-6.4 0-11.8-5.2-11.8-11.8v-78c0-6.4 5.2-11.8 11.8-11.8h1000.6c6.4 0 11.8 5.2 11.8 11.8v78c-0.2 6.6-5.4 11.8-12 11.8zM23.4 904.6h977v-54.4H23.4v54.4z" fill="#4C4372" /><path d="M176.8 354h294.2v484.4H176.8z" fill="#FD919E" /><path d="M416.6 354h53.2v484.4h-53.2z" fill="#E8677D" /><path d="M399.8 469.4h-152c-19.8 0-35.8-16-35.8-35.8 0-19.8 16-35.8 35.8-35.8h152c19.8 0 35.8 16 35.8 35.8 0 19.8-16 35.8-35.8 35.8zM399.8 575.2h-152c-19.8 0-35.8-16-35.8-35.8 0-19.8 16-35.8 35.8-35.8h152c19.8 0 35.8 16 35.8 35.8 0 19.8-16 35.8-35.8 35.8zM399.8 681.2h-152c-19.8 0-35.8-16-35.8-35.8 0-19.8 16-35.8 35.8-35.8h152c19.8 0 35.8 16 35.8 35.8 0 19.8-16 35.8-35.8 35.8z" fill="#FFFFFF" /><path d="M553 419.2h294.2v419.2H553z" fill="#A4CFF2" /><path d="M643 724.8h113.6v113.6h-113.6zM792.8 419.2H846v419.2h-53.2z" fill="#7BABF1" /><path d="M607.4 614.2h71.6v71.6h-71.6zM721.2 614.2h71.6v71.6h-71.6zM607.4 492.6h71.6v71.6h-71.6zM721.2 492.6h71.6v71.6h-71.6z" fill="#FFFFFF" /><path d="M847.2 850.2H553c-6.4 0-11.8-5.2-11.8-11.8V419.2c0-6.4 5.2-11.8 11.8-11.8h294.2c6.4 0 11.8 5.2 11.8 11.8v419.2c-0.2 6.6-5.4 11.8-11.8 11.8z m-282.6-23.4h270.8V431H564.6v395.8z" fill="#4C4372" /><path d="M678.8 697.4h-71.6c-6.4 0-11.8-5.2-11.8-11.8V614c0-6.4 5.2-11.8 11.8-11.8h71.6c6.4 0 11.8 5.2 11.8 11.8v71.6c0 6.6-5.2 11.8-11.8 11.8zM619 674h48v-48h-48v48zM792.8 697.4h-71.6c-6.4 0-11.8-5.2-11.8-11.8V614c0-6.4 5.2-11.8 11.8-11.8h71.6c6.4 0 11.8 5.2 11.8 11.8v71.6c-0.2 6.6-5.4 11.8-11.8 11.8zM733 674h48v-48h-48v48zM756.6 850.2h-113.6c-6.4 0-11.8-5.2-11.8-11.8v-113.6c0-6.4 5.2-11.8 11.8-11.8h113.6c6.4 0 11.8 5.2 11.8 11.8v113.6c0 6.6-5.2 11.8-11.8 11.8z m-101.8-23.4h90.2v-90.2h-90.2v90.2zM678.8 576h-71.6c-6.4 0-11.8-5.2-11.8-11.8v-71.6c0-6.4 5.2-11.8 11.8-11.8h71.6c6.4 0 11.8 5.2 11.8 11.8v71.6c0 6.4-5.2 11.8-11.8 11.8z m-59.8-23.6h48v-48h-48v48zM792.8 576h-71.6c-6.4 0-11.8-5.2-11.8-11.8v-71.6c0-6.4 5.2-11.8 11.8-11.8h71.6c6.4 0 11.8 5.2 11.8 11.8v71.6c-0.2 6.4-5.4 11.8-11.8 11.8z m-59.8-23.6h48v-48h-48v48z" fill="#4C4372" /><path d="M784.2 358.4h-168.4c-15.2 0-27.6 12.4-27.6 27.6v33.4h223.6V386c0-15.2-12.4-27.6-27.6-27.6z" fill="#D3E6F8" /><path d="M758.4 415h53.2v-33.4c0-15.2-12.4-27.6-27.6-27.6h-25.8v61z" fill="#A4CFF2" /><path d="M811.8 431H588.2c-6.4 0-11.8-5.2-11.8-11.8V386c0-21.6 17.6-39.2 39.2-39.2H784c21.6 0 39.2 17.6 39.2 39.2v33.4c0.4 6.4-5 11.6-11.4 11.6zM600 407.6h200V386c0-8.8-7-15.8-15.8-15.8h-168.4c-8.8 0-15.8 7-15.8 15.8v21.6z" fill="#4C4372" /><path d="M267 724.8h113.6v113.6h-113.6z" fill="#E8677D" /><path d="M471 850.2H176.8c-6.4 0-11.8-5.2-11.8-11.8V354c0-6.4 5.2-11.8 11.8-11.8h294.2c6.4 0 11.8 5.2 11.8 11.8v484.4c0 6.6-5.2 11.8-11.8 11.8zM188.6 826.8h270.8V365.8H188.6v461z" fill="#4C4372" /><path d="M380.6 850.2h-113.6c-6.4 0-11.8-5.2-11.8-11.8v-113.6c0-6.4 5.2-11.8 11.8-11.8h113.6c6.4 0 11.8 5.2 11.8 11.8v113.6c0 6.6-5.4 11.8-11.8 11.8z m-101.8-23.4h90.2v-90.2h-90.2v90.2z" fill="#4C4372" /><path d="M408.2 293.2h-168.4c-15.2 0-27.6 12.4-27.6 27.6V354h223.6v-33.4c0-15-12.4-27.4-27.6-27.4z" fill="#FD919E" /><path d="M382.4 349.8h53.2v-33.4c0-15.2-12.4-27.6-27.6-27.6h-25.8v61z" fill="#E8677D" /><path d="M435.8 365.8H212.2c-6.4 0-11.8-5.2-11.8-11.8v-33.4c0-21.6 17.6-39.2 39.2-39.2H408c21.6 0 39.2 17.6 39.2 39.2V354c0.2 6.6-5 11.8-11.4 11.8z m-212-23.4H424v-21.6c0-8.8-7-15.8-15.8-15.8h-168.4c-8.8 0-15.8 7-15.8 15.8v21.6z" fill="#4C4372" /><path d="M403.2 473h-21.8v-75.2h21.8c18.4 0 33.4 15 33.4 33.4v8.4c0 18.4-15 33.4-33.4 33.4z" fill="#D3E6F8" /><path d="M403.2 577.2h-21.8V502h21.8c18.4 0 33.4 15 33.4 33.4v8.4c0 18.4-15 33.4-33.4 33.4z" fill="#D3E6F8" /><path d="M403.2 681.2h-21.8V606h21.8c18.4 0 33.4 15 33.4 33.4v8.4c0 18.4-15 33.4-33.4 33.4z" fill="#D3E6F8" /><path d="M399.8 481h-152c-26.2 0-47.4-21.2-47.4-47.4s21.2-47.4 47.4-47.4h152c26.2 0 47.4 21.2 47.4 47.4 0.2 26.2-21.2 47.4-47.4 47.4zM248 409.6c-13.2 0-24 10.8-24 24s10.8 24 24 24h152c13.2 0 24-10.8 24-24s-10.8-24-24-24h-152z" fill="#4C4372" /><path d="M399.8 587h-152c-26.2 0-47.4-21.2-47.4-47.4S221.8 492 248 492h152c26.2 0 47.4 21.2 47.4 47.4s-21.4 47.6-47.6 47.6zM248 515.4c-13.2 0-24 10.8-24 24s10.8 24 24 24h152c13.2 0 24-10.8 24-24s-10.8-24-24-24h-152z" fill="#4C4372" /><path d="M399.8 692.8h-152c-26.2 0-47.4-21.2-47.4-47.4s21.2-47.4 47.4-47.4h152c26.2 0 47.4 21.2 47.4 47.4 0.2 26.2-21.2 47.4-47.4 47.4zM248 621.4c-13.2 0-24 10.8-24 24s10.8 24 24 24h152c13.2 0 24-10.8 24-24s-10.8-24-24-24h-152z" fill="#4C4372" /><path d="M819.2 168.8c-3 0-6-1.2-8.2-3.4-61.2-61.2-161-61.2-222.2 0-4.6 4.6-12 4.6-16.6 0-4.6-4.6-4.6-12 0-16.6 34-34 79.4-52.8 127.6-52.8s93.6 18.8 127.6 52.8c4.6 4.6 4.6 12 0 16.6-2.2 2.2-5.2 3.4-8.2 3.4z" fill="#4C4372" /><path d="M781.4 206.6c-3 0-6-1.2-8.2-3.4-40.4-40.4-106-40.4-146.4 0-4.6 4.6-12 4.6-16.6 0-4.6-4.6-4.6-12 0-16.6 49.6-49.6 130-49.6 179.6 0 4.6 4.6 4.6 12 0 16.6-2.4 2.4-5.4 3.4-8.4 3.4z" fill="#4C4372" /><path d="M657.8 246.2c-3 0-6-1.2-8.2-3.4-4.6-4.6-4.6-12 0-16.6 13.4-13.4 31.2-20.8 50.2-20.8 19 0 36.8 7.4 50.2 20.8 4.6 4.6 4.6 12 0 16.6-4.6 4.6-12 4.6-16.6 0-9-9-21-14-33.6-14-12.8 0-24.6 5-33.6 14-2.4 2.2-5.4 3.4-8.4 3.4z" fill="#4C4372" /><path d="M699.8 276.4m-24.4 0a24.4 24.4 0 1 0 48.8 0 24.4 24.4 0 1 0-48.8 0Z" fill="#4C4372" /></svg>