<?xml version="1.0" standalone="no"?><!DOCTYPE svg PUBLIC "-//W3C//DTD SVG 1.1//EN" "http://www.w3.org/Graphics/SVG/1.1/DTD/svg11.dtd"><svg class="icon" width="200px" height="200.00px" viewBox="0 0 1024 1024" version="1.1" xmlns="http://www.w3.org/2000/svg"><path d="M512 512m-414 0a414 414 0 1 0 828 0 414 414 0 1 0-828 0Z" fill="#F0C48A" /><path d="M722.6 1012.2H301.4c-41.8 0-75.6-33.8-75.6-75.6V87.4c0-41.8 33.8-75.6 75.6-75.6h421.2c41.8 0 75.6 33.8 75.6 75.6v849.2c0 41.8-33.8 75.6-75.6 75.6z" fill="#FFFFFF" /><path d="M709.6 1012.2V13.6c49 0 88.8 39.8 88.8 88.8v821c-0.2 49.2-39.8 88.8-88.8 88.8z" fill="#D3E6F8" /><path d="M300.4 350c-13.8 0-25.2-11.2-25.2-25.2v-75.4c0-13.8 11.2-25.2 25.2-25.2 13.8 0 25.2 11.2 25.2 25.2v75.4c0 14-11.2 25.2-25.2 25.2zM300.4 565.2c-13.8 0-25.2-11.2-25.2-25.2v-75.4c0-13.8 11.2-25.2 25.2-25.2 13.8 0 25.2 11.2 25.2 25.2V540c0 13.8-11.2 25.2-25.2 25.2z" fill="#7BABF1" /><path d="M594.4 320.4H440c-23.2 0-42-18.8-42-42V123.8c0-23.2 18.8-42 42-42h154.4c23.2 0 42 18.8 42 42v154.4c0 23.2-18.8 42.2-42 42.2z" fill="#FD919E" /><path d="M722.6 1024H301.4c-48.2 0-87.4-39.2-87.4-87.4V87.4C214 39.2 253.2 0 301.4 0h421.2C770.8 0 810 39.2 810 87.4v849.2c0 48.2-39.2 87.4-87.4 87.4zM301.4 23.4c-35.2 0-64 28.6-64 64v849.2c0 35.2 28.6 64 64 64h421.2c35.2 0 64-28.6 64-64V87.4c0-35.2-28.6-64-64-64H301.4z" fill="#4C4372" /><path d="M798.2 399H225.8c-6.4 0-11.8-5.2-11.8-11.8 0-6.4 5.2-11.8 11.8-11.8h572.6c6.4 0 11.8 5.2 11.8 11.8-0.2 6.6-5.4 11.8-12 11.8zM300.4 361.6c-20.4 0-36.8-16.6-36.8-36.8v-75.4c0-20.4 16.6-36.8 36.8-36.8s36.8 16.6 36.8 36.8v75.4c0.2 20.4-16.4 36.8-36.8 36.8z m0-125.6c-7.4 0-13.4 6-13.4 13.4v75.4a13.4 13.4 0 0 0 26.8 0v-75.4c0-7.4-6-13.4-13.4-13.4zM300.4 576.8c-20.4 0-36.8-16.6-36.8-36.8v-75.4c0-20.4 16.6-36.8 36.8-36.8s36.8 16.6 36.8 36.8V540c0.2 20.2-16.4 36.8-36.8 36.8z m0-125.6c-7.4 0-13.4 6-13.4 13.4V540a13.4 13.4 0 0 0 26.8 0v-75.4c0-7.4-6-13.4-13.4-13.4z" fill="#4C4372" /><path d="M582.8 317.4V84.6c29.6 0 53.6 24 53.6 53.6v125.6c0 29.6-24 53.6-53.6 53.6z" fill="#E8677D" /><path d="M599.6 188.2c-3 0-6-1.2-8.2-3.4-41-41-107.4-41-148.4 0-4.6 4.6-12 4.6-16.6 0-4.6-4.6-4.6-12 0-16.6 50-50 131.4-50 181.6 0 4.6 4.6 4.6 12 0 16.6-2.4 2.2-5.4 3.4-8.4 3.4z" fill="#4C4372" /><path d="M573.4 214.4c-3 0-6-1.2-8.2-3.4-12.8-12.8-29.8-19.8-48-19.8s-35.2 7-48 19.8c-4.6 4.6-12 4.6-16.6 0-4.6-4.6-4.6-12 0-16.6 17.2-17.2 40.2-26.8 64.6-26.8s47.4 9.6 64.6 26.8c4.6 4.6 4.6 12 0 16.6-2.4 2.2-5.4 3.4-8.4 3.4z" fill="#4C4372" /><path d="M546.2 241.6c-3 0-6-1.2-8.2-3.4-11.4-11.4-30-11.4-41.4 0-4.6 4.6-12 4.6-16.6 0-4.6-4.6-4.6-12 0-16.6 20.6-20.6 54-20.6 74.6 0 4.6 4.6 4.6 12 0 16.6-2.4 2.2-5.4 3.4-8.4 3.4z" fill="#4C4372" /><path d="M517 259m-16.8 0a16.8 16.8 0 1 0 33.6 0 16.8 16.8 0 1 0-33.6 0Z" fill="#4C4372" /><path d="M594.4 332H440c-29.6 0-53.8-24.2-53.8-53.8V123.8c0-29.6 24.2-53.8 53.8-53.8h154.4C624 70 648 94.2 648 123.8v154.4c0 29.8-24 53.8-53.6 53.8zM439.8 93.6c-16.8 0-30.4 13.6-30.4 30.4v154.4c0 16.8 13.6 30.4 30.4 30.4h154.4c16.8 0 30.4-13.6 30.4-30.4V123.8c0-16.8-13.6-30.4-30.4-30.4h-154.4z" fill="#4C4372" /></svg>