<?xml version="1.0" standalone="no"?><!DOCTYPE svg PUBLIC "-//W3C//DTD SVG 1.1//EN" "http://www.w3.org/Graphics/SVG/1.1/DTD/svg11.dtd"><svg class="icon" width="200px" height="200.00px" viewBox="0 0 1024 1024" version="1.1" xmlns="http://www.w3.org/2000/svg"><path d="M512 512m-414 0a414 414 0 1 0 828 0 414 414 0 1 0-828 0Z" fill="#F0C48A" /><path d="M356.8 418.8L266.2 186.2h491.6l-90.6 232.6z" fill="#FFFFFF" /><path d="M702.4 186.2l-75.8 232.6h40.6l90.6-232.6z" fill="#D3E6F8" /><path d="M757.8 186.2H266.2c-48.2 0-87.2-39-87.2-87.2S218 11.8 266.2 11.8H758c48.2 0 87.2 39 87.2 87.2S806 186.2 757.8 186.2z" fill="#D3E6F8" /><path d="M757.8 11.8h-55.4v174.6h55.4c48.2 0 87.2-39 87.2-87.2 0.2-48.4-39-87.4-87.2-87.4z" fill="#A4CFF2" /><path d="M692.4 543.2H331.6c-34.4 0-62.2-27.8-62.2-62.2 0-34.4 27.8-62.2 62.2-62.2h360.6c34.4 0 62.2 27.8 62.2 62.2 0 34.4-27.8 62.2-62 62.2z" fill="#D3E6F8" /><path d="M692.4 418.8h-65.6v124.4h65.6c34.4 0 62.2-27.8 62.2-62.2-0.2-34.4-28-62.2-62.2-62.2z" fill="#A4CFF2" /><path d="M512 671.4l98.4 170.4c43.8 75.8-11 170.4-98.4 170.4s-142.2-94.6-98.4-170.4l98.4-170.4z" fill="#E8677D" /><path d="M512 810.2l58.4 101c26 45-6.4 101-58.4 101-51.8 0-84.2-56.2-58.4-101l58.4-101z" fill="#FD919E" /><path d="M757.8 198H266.2c-54.6 0-99-44.4-99-99S211.6 0 266.2 0H758c54.6 0 99 44.4 99 99S812.4 198 757.8 198zM266.2 23.4c-41.6 0-75.6 33.8-75.6 75.6s33.8 75.6 75.6 75.6H758c41.6 0 75.6-33.8 75.6-75.6S799.8 23.4 758 23.4H266.2zM692.4 554.8H331.6c-40.8 0-73.8-33.2-73.8-73.8 0-40.8 33.2-73.8 73.8-73.8h360.6c40.8 0 73.8 33.2 73.8 73.8 0.2 40.8-33 73.8-73.6 73.8z m-360.8-124.2c-27.8 0-50.4 22.6-50.4 50.4 0 27.8 22.6 50.4 50.4 50.4h360.6c27.8 0 50.4-22.6 50.4-50.4 0-27.8-22.6-50.4-50.4-50.4H331.6z" fill="#4C4372" /><path d="M667.2 430.6H356.8c-4.8 0-9.2-3-11-7.4L255.2 190.4c-1.4-3.6-1-7.6 1.2-10.8 2.2-3.2 5.8-5.2 9.6-5.2h491.8c3.8 0 7.4 2 9.6 5.2 2.2 3.2 2.6 7.2 1.2 10.8L678 423c-1.6 4.6-6 7.6-10.8 7.6z m-302.4-23.4h294.4L740.8 198H283.2l81.6 209.2z" fill="#4C4372" /><path d="M512 423.8c-6.4 0-11.8-5.2-11.8-11.8V186.2c0-6.4 5.2-11.8 11.8-11.8s11.8 5.2 11.8 11.8V412c0 6.6-5.4 11.8-11.8 11.8zM427.6 423.8c-5.4 0-10.2-3.8-11.4-9.2L368 188.6c-1.4-6.4 2.6-12.6 9-14 6.4-1.4 12.6 2.6 14 9l48.2 225.8c1.4 6.4-2.6 12.6-9 14-0.8 0.4-1.8 0.4-2.6 0.4zM596.4 423.8c-0.8 0-1.6 0-2.4-0.2-6.4-1.4-10.4-7.6-9-14l48.2-225.8c1.4-6.4 7.6-10.4 14-9 6.4 1.4 10.4 7.6 9 14L608 414.6c-1.4 5.4-6.2 9.2-11.6 9.2zM512 1024c-45.4 0-85.8-23.4-108.6-62.6-22.6-39.2-22.6-86.2 0-125.4l98.4-170.4c2-3.6 6-5.8 10.2-5.8 4.2 0 8 2.2 10.2 5.8l98.4 170.4c22.6 39.2 22.6 86.2 0 125.4-22.8 39.2-63.2 62.6-108.6 62.6z m0-329.2l-88.2 152.8c-18.4 32-18.4 70 0 101.8 18.4 32 51.4 51 88.2 51s69.8-19 88.2-51c18.4-32 18.4-70 0-101.8L512 694.8z" fill="#4C4372" /><path d="M512 1024c-28.6 0-54.2-14.8-68.6-39.6-14.2-24.8-14.2-54.4 0-79.2l58.4-101c2-3.6 6-5.8 10.2-5.8 4.2 0 8 2.2 10.2 5.8l58.4 101c14.2 24.8 14.2 54.4 0 79.2-14.4 24.8-40 39.6-68.6 39.6z m0-190.4l-48.2 83.4c-10 17.4-10 38.2 0 55.6s28 27.8 48.2 27.8c20.2 0 38.2-10.4 48.2-27.8s10-38.2 0-55.6L512 833.6z" fill="#4C4372" /></svg>