<?xml version="1.0" standalone="no"?><!DOCTYPE svg PUBLIC "-//W3C//DTD SVG 1.1//EN" "http://www.w3.org/Graphics/SVG/1.1/DTD/svg11.dtd"><svg class="icon" width="200px" height="200.00px" viewBox="0 0 1024 1024" version="1.1" xmlns="http://www.w3.org/2000/svg"><path d="M512 512m-414 0a414 414 0 1 0 828 0 414 414 0 1 0-828 0Z" fill="#F0C48A" /><path d="M664 1012.2H100.6c-56 0-98-51.2-87-106l37-187.8c8.2-41.6 44.6-71.6 87-71.6h489.4c42.4 0 78.8 30 87 71.6l37 187.8c11 55-31 106-87 106z" fill="#D3E6F8" /><path d="M602.6 647L664 1012.2s84.6-5.8 87-106c2.4-100-56.8-234.4-56.8-234.4s-10.6-24.8-91.6-24.8z" fill="#A4CFF2" /><path d="M216.8 647L180.4 1012.2M547.6 647l36.6 365.2" fill="#D3E6F8" /><path d="M664 1024H100.6c-30.2 0-58.4-13.4-77.6-36.6S-4 933.6 2 904l37-187.8c9.2-47 50.8-81 98.6-81h489.4c47.8 0 89.4 34 98.6 81l37 187.8c5.8 29.6-1.8 60-21 83.2-19.2 23.4-47.4 36.8-77.6 36.8zM137.6 658.6c-36.6 0-68.4 26.2-75.6 62.2l-37 187.8c-4.4 22.8 1.4 46 16 63.8 14.6 17.8 36.4 28.2 59.6 28.2H664c23.2 0 44.8-10.2 59.6-28.2 14.6-17.8 20.6-41.2 16-63.8l-37-187.8c-7.2-36-38.8-62.2-75.6-62.2H137.6z" fill="#4C4372" /><path d="M180.4 1024h-1.2c-6.4-0.6-11.2-6.4-10.4-12.8l36.6-365.4c0.6-6.4 6.4-11.2 12.8-10.4 6.4 0.6 11.2 6.4 10.4 12.8L192 1013.4c-0.6 6-5.8 10.6-11.6 10.6zM584.2 1024c-6 0-11-4.6-11.6-10.6L536 648c-0.6-6.4 4-12.2 10.4-12.8 6.4-0.6 12.2 4 12.8 10.4l36.6 365.4c0.6 6.4-4 12.2-10.4 12.8-0.4 0.2-0.8 0.2-1.2 0.2zM382.2 1024c-6.4 0-11.8-5.2-11.8-11.8V647c0-6.4 5.2-11.8 11.8-11.8 6.4 0 11.8 5.2 11.8 11.8v365.4c0 6.4-5.2 11.6-11.8 11.6z" fill="#4C4372" /><path d="M729.2 825.8H31.6c-6.4 0-11.8-5.2-11.8-11.8 0-6.4 5.2-11.8 11.8-11.8h697.6c6.4 0 11.8 5.2 11.8 11.8-0.2 6.6-5.4 11.8-11.8 11.8z" fill="#4C4372" /><path d="M375.4 375.4m-183.6 0a183.6 183.6 0 1 0 367.2 0 183.6 183.6 0 1 0-367.2 0Z" fill="#E8677D" /><path d="M375.4 191.6c-101.4 0-183.6 82.2-183.6 183.6 0 35.6 10.2 68.8 27.8 97 30.4 22 67.6 35.2 108 35.2 101.4 0 183.6-82.2 183.6-183.6 0-35.6-10.2-68.8-27.8-97-30.4-22-67.6-35.2-108-35.2z" fill="#FD919E" /><path d="M375.4 570.8c-107.8 0-195.4-87.6-195.4-195.4S267.6 180 375.4 180c107.8 0 195.4 87.6 195.4 195.4s-87.8 195.4-195.4 195.4z m0-367.4c-94.8 0-172 77.2-172 172s77.2 172 172 172 172-77.2 172-172c-0.2-94.8-77.2-172-172-172zM375.4 124.6c-6.4 0-11.8-5.2-11.8-11.8V11.8c0-6.4 5.2-11.8 11.8-11.8s11.8 5.2 11.8 11.8v101.2c-0.2 6.4-5.4 11.6-11.8 11.6zM561 201.4c-3 0-6-1.2-8.2-3.4-4.6-4.6-4.6-12 0-16.6L624.2 110c4.6-4.6 12-4.6 16.6 0 4.6 4.6 4.6 12 0 16.6L569.2 198c-2.2 2.4-5.2 3.4-8.2 3.4zM189.8 201.4c-3 0-6-1.2-8.2-3.4L110 126.6c-4.6-4.6-4.6-12 0-16.6 4.6-4.6 12-4.6 16.6 0L198 181.4c4.6 4.6 4.6 12 0 16.6-2.2 2.4-5.2 3.4-8.2 3.4zM112.8 387H11.8c-6.4 0-11.8-5.2-11.8-11.8 0-6.4 5.2-11.8 11.8-11.8h101.2c6.4 0 11.8 5.2 11.8 11.8-0.2 6.6-5.4 11.8-12 11.8zM739 387h-101.2c-6.4 0-11.8-5.2-11.8-11.8 0-6.4 5.2-11.8 11.8-11.8h101.2c6.4 0 11.8 5.2 11.8 11.8-0.2 6.6-5.4 11.8-11.8 11.8z" fill="#4C4372" /><path d="M964.6 11.8l-165 165h82.6l-63.2 177 193.2-171h-89z" fill="#FD919E" /><path d="M819 365.4c-2.2 0-4.6-0.6-6.6-2-4.4-3-6.2-8.6-4.4-13.6l57.6-161.2h-65.8c-4.8 0-9-2.8-10.8-7.2-1.8-4.4-0.8-9.4 2.6-12.8l165-165c3.8-3.8 9.4-4.6 14-2 4.6 2.6 6.8 7.8 5.6 13l-38 156.6h74.2c4.8 0 9.2 3 11 7.6 1.8 4.6 0.4 9.8-3.2 13l-193.2 171c-2.4 1.6-5.2 2.6-8 2.6zM828 165h54.2c3.8 0 7.4 1.8 9.6 5 2.2 3.2 2.8 7.2 1.4 10.6l-47.8 134 136-120.2h-58c-3.6 0-7-1.6-9.2-4.4-2.2-2.8-3-6.6-2.2-10l31.6-130.4L828 165z" fill="#4C4372" /></svg>