<?xml version="1.0" standalone="no"?><!DOCTYPE svg PUBLIC "-//W3C//DTD SVG 1.1//EN" "http://www.w3.org/Graphics/SVG/1.1/DTD/svg11.dtd"><svg class="icon" width="200px" height="200.00px" viewBox="0 0 1024 1024" version="1.1" xmlns="http://www.w3.org/2000/svg"><path d="M512 512m-414 0a414 414 0 1 0 828 0 414 414 0 1 0-828 0Z" fill="#F0C48A" /><path d="M858.2 858.2m-154 0a154 154 0 1 0 308 0 154 154 0 1 0-308 0Z" fill="#D3E6F8" /><path d="M967.2 749.2c-60.2-60.2-157.8-60.2-218 0-29.8 29.8-44.8 68.6-45 107.6 7 24.2 20 47 39 66 60.2 60.2 157.8 60.2 218 0 29.8-29.8 44.8-68.6 45-107.6-7-24-20-47-39-66z" fill="#FFFFFF" /><path d="M165.8 858.2m-154 0a154 154 0 1 0 308 0 154 154 0 1 0-308 0Z" fill="#D3E6F8" /><path d="M274.8 749.2c-60.2-60.2-157.8-60.2-218 0C27 779 12 817.8 11.8 856.8c7 24.2 20 47 39 66 60.2 60.2 157.8 60.2 218 0 29.8-29.8 44.8-68.6 45-107.6-7-24-20-47-39-66z" fill="#FFFFFF" /><path d="M165.8 165.8m-154 0a154 154 0 1 0 308 0 154 154 0 1 0-308 0Z" fill="#D3E6F8" /><path d="M274.8 56.8c-60.2-60.2-157.8-60.2-218 0C27.2 86.6 12.2 125.4 11.8 164.4c7 24.2 20 47 39 66 60.2 60.2 157.8 60.2 218 0 29.8-29.8 44.8-68.6 45-107.6-7-24-20-46.8-39-66z" fill="#FFFFFF" /><path d="M866.4 975.8c-6.4 0-11.8-5.2-11.8-11.8 0-6.4 5.2-11.8 11.8-11.8 47.4 0 86-38.6 86-86 0-6.4 5.2-11.8 11.8-11.8 6.4 0 11.8 5.2 11.8 11.8-0.2 60.6-49.2 109.6-109.6 109.6z" fill="#4C4372" /><path d="M866.4 928.4c-6.4 0-11.8-5.2-11.8-11.8 0-6.4 5.2-11.8 11.8-11.8 21.2 0 38.6-17.4 38.6-38.6 0-6.4 5.2-11.8 11.8-11.8 6.4 0 11.8 5.2 11.8 11.8-0.2 34.4-28 62.2-62.2 62.2zM60 169.4c-6.4 0-11.8-5.2-11.8-11.8 0-60.4 49.2-109.4 109.4-109.4 6.4 0 11.8 5.2 11.8 11.8s-5.2 11.8-11.8 11.8c-47.4 0-86 38.6-86 86 0 6.4-5.2 11.6-11.6 11.6z" fill="#4C4372" /><path d="M107.2 169.4c-6.4 0-11.8-5.2-11.8-11.8 0-34.2 27.8-62 62-62 6.4 0 11.8 5.2 11.8 11.8 0 6.4-5.2 11.8-11.8 11.8-21.2 0-38.6 17.4-38.6 38.6 0.2 6.4-5 11.6-11.6 11.6z" fill="#4C4372" /><path d="M165.8 331.6c-44.2 0-86-17.2-117.2-48.6S0 210.2 0 165.8c0-44.2 17.2-86 48.6-117.2S121.6 0 165.8 0s86 17.2 117.2 48.6 48.6 73 48.6 117.2-17.2 86-48.6 117.2-72.8 48.6-117.2 48.6z m0-308.2c-38 0-73.8 14.8-100.6 41.6S23.4 127.8 23.4 165.8s14.8 73.8 41.6 100.6S127.6 308 165.6 308s73.8-14.8 100.6-41.6 41.6-62.6 41.6-100.6c0-38-14.8-73.8-41.6-100.6s-62.4-41.8-100.4-41.8z" fill="#4C4372" /><path d="M858.2 165.8m-154 0a154 154 0 1 0 308 0 154 154 0 1 0-308 0Z" fill="#D3E6F8" /><path d="M967.2 56.8c-60.2-60.2-157.8-60.2-218 0-29.8 29.8-44.8 68.6-45 107.6 7 24.2 20 47 39 66 60.2 60.2 157.8 60.2 218 0 29.8-29.8 44.8-68.6 45-107.6-7-24-20-46.8-39-66z" fill="#FFFFFF" /><path d="M964 169.4c-6.4 0-11.8-5.2-11.8-11.8 0-47.4-38.6-86-86-86-6.4 0-11.8-5.2-11.8-11.8s5.2-11.8 11.8-11.8c60.4 0 109.4 49 109.4 109.4 0.2 6.8-5 12-11.6 12z" fill="#4C4372" /><path d="M916.8 169.4c-6.4 0-11.8-5.2-11.8-11.8 0-21.2-17.4-38.6-38.6-38.6-6.4 0-11.8-5.2-11.8-11.8 0-6.4 5.2-11.8 11.8-11.8 34.2 0 62 27.8 62 62 0 6.8-5.2 12-11.6 12zM157.6 975.8c-60.4 0-109.4-49-109.4-109.4 0-6.4 5.2-11.8 11.8-11.8 6.4 0 11.8 5.2 11.8 11.8 0 47.4 38.6 86 86 86 6.4 0 11.8 5.2 11.8 11.8-0.2 6.4-5.4 11.6-12 11.6z" fill="#4C4372" /><path d="M157.6 928.4c-34.2 0-62-27.8-62-62 0-6.4 5.2-11.8 11.8-11.8s11.8 5.2 11.8 11.8c0 21.2 17.4 38.6 38.6 38.6 6.4 0 11.8 5.2 11.8 11.8-0.2 6.4-5.4 11.6-12 11.6z" fill="#4C4372" /><path d="M858.2 331.6c-44.2 0-86-17.2-117.2-48.6-31.4-31.4-48.6-73-48.6-117.2s17.2-86 48.6-117.2C772.2 17.2 813.8 0 858.2 0c44.2 0 86 17.2 117.2 48.6C1006.8 79.8 1024 121.6 1024 165.8s-17.2 86-48.6 117.2c-31.2 31.4-73 48.6-117.2 48.6z m0-308.2c-38 0-73.8 14.8-100.6 41.6C730.8 91.8 716 127.6 716 165.6s14.8 73.8 41.6 100.6c26.8 26.8 62.6 41.6 100.6 41.6 38 0 73.8-14.8 100.6-41.6 26.8-26.8 41.6-62.6 41.6-100.6s-14.8-73.8-41.6-100.6c-26.8-26.8-62.6-41.6-100.6-41.6z" fill="#4C4372" /><path d="M858.2 1024c-44.2 0-86-17.2-117.2-48.6-31.4-31.4-48.6-73-48.6-117.2s17.2-86 48.6-117.2c31.4-31.4 73-48.6 117.2-48.6s86 17.2 117.2 48.6c31.4 31.4 48.6 73 48.6 117.2s-17.2 86-48.6 117.2c-31.2 31.4-73 48.6-117.2 48.6z m0-308.2c-38 0-73.8 14.8-100.6 41.6C730.8 784.2 716 820 716 858c0 38 14.8 73.8 41.6 100.6 26.8 26.8 62.6 41.6 100.6 41.6 38 0 73.8-14.8 100.6-41.6 26.8-26.8 41.6-62.6 41.6-100.6 0-38-14.8-73.8-41.6-100.6-26.8-26.8-62.6-41.6-100.6-41.6z" fill="#4C4372" /><path d="M165.8 1024c-44.2 0-86-17.2-117.2-48.6-64.6-64.6-64.6-169.8 0-234.4 31.4-31.4 73-48.6 117.2-48.6s86 17.2 117.2 48.6c31.4 31.4 48.6 73 48.6 117.2s-17.2 86-48.6 117.2c-31.2 31.4-72.8 48.6-117.2 48.6z m0-308.2c-38 0-73.8 14.8-100.6 41.6-55.6 55.6-55.6 145.8 0 201.4 26.8 26.8 62.6 41.6 100.6 41.6 38 0 73.8-14.8 100.6-41.6 26.8-26.8 41.6-62.6 41.6-100.6 0-38-14.8-73.8-41.6-100.6-26.8-27-62.6-41.8-100.6-41.8z" fill="#4C4372" /><path d="M858.2 735.2l-146-146c-42.6-42.6-42.6-111.8 0-154.4l146-146c34-34 34-89 0-123s-89-34-123 0l-146 146c-42.6 42.6-111.8 42.6-154.4 0l-146-146c-34-34-89-34-123 0s-34 89 0 123l146 146c42.6 42.6 42.6 111.8 0 154.4l-146 146c-34 34-34 89 0 123s89 34 123 0l146-146c42.6-42.6 111.8-42.6 154.4 0l146 146c34 34 89 34 123 0s34-89 0-123z m-402-167.4c-30.8-30.8-30.8-80.8 0-111.6 30.8-30.8 80.8-30.8 111.6 0 30.8 30.8 30.8 80.8 0 111.6-30.8 30.8-80.8 30.8-111.6 0z" fill="#FD919E" /><path d="M867.6 192s23 60.2 0 83l-150.6 150.6c-49.6 49.6-49.6 130.2 0 179.8l152 152c23 23 23 60.2 0 83L664.4 635.8c-66.4-66.4-66.4-174 0-240.4L867.6 192z" fill="#E8677D" /><path d="M606.6 606.6c52.2-52.2 52.2-136.8 0-189-52.2-52.2-136.8-52.2-189 0-52.2 52.2-52.2 136.8 0 189 52 52.2 136.8 52.2 189 0z m-150.4-38.8c-30.8-30.8-30.8-80.8 0-111.6 30.8-30.8 80.8-30.8 111.6 0 30.8 30.8 30.8 80.8 0 111.6-30.8 30.8-80.8 30.8-111.6 0z" fill="#D3E6F8" /><path d="M384.6 675.2L183.6 876c21 21 55 21 76 0l43.4-43.4c2-2 68.2-68 131.6-120.4 64.4-53.2 129.8-21.8 129.8-21.8l-15.4-15.4c-45.2-45.2-119-45.2-164.4 0.2z" fill="#E8677D" /><path d="M512 602.6c-23.2 0-46.4-8.8-64.2-26.6-35.4-35.4-35.4-92.8 0-128.2 35.4-35.4 92.8-35.4 128.2 0 35.4 35.4 35.4 92.8 0 128.2-17.6 17.8-40.8 26.6-64 26.6z m0-157.8c-17.2 0-34.4 6.6-47.6 19.6-26.2 26.2-26.2 68.8 0 95 26.2 26.2 68.8 26.2 95 0 26.2-26.2 26.2-68.8 0-95-13-13-30.2-19.6-47.4-19.6z m55.8 123z" fill="#4C4372" /><path d="M227.4 895.4c-26.4 0-51.2-10.2-69.8-29-38.4-38.4-38.4-101 0-139.6l146-146c38-38 38-99.8 0-138l-146-146c-18.6-18.6-29-43.4-29-69.8s10.2-51.2 29-69.8c38.4-38.4 101-38.4 139.6 0l146 146c18.4 18.4 43 28.6 69 28.6s50.6-10.2 69-28.6l146-146c38.4-38.4 101-38.4 139.6 0 18.6 18.6 29 43.4 29 69.8s-10.2 51.2-29 69.8l-146 146c-38 38-38 99.8 0 138l146 146c18.6 18.6 29 43.4 29 69.8s-10.2 51.2-29 69.8c-38.4 38.4-101 38.4-139.6 0l-146-146C562.6 702.2 538 692 512 692s-50.6 10.2-69 28.6l-146 146c-18.6 18.6-43.4 28.8-69.6 28.8zM512 668.6c32.4 0 62.6 12.6 85.6 35.4l146 146c29.4 29.4 77 29.4 106.4 0 14.2-14.2 22-33.2 22-53.2s-7.8-39-22-53.2l-146-146c-47.2-47.2-47.2-124 0-171l146-146c14.2-14.2 22-33.2 22-53.2s-7.8-39-22-53.2c-29.4-29.4-77-29.4-106.4 0l-146 146c-22.8 22.8-53.2 35.4-85.6 35.4s-62.6-12.6-85.6-35.4l-146-146c-29.4-29.4-77-29.4-106.4 0-14.2 14.2-22 33.2-22 53.2s7.8 39 22 53.2l146 146c47.2 47.2 47.2 124 0 171l-146 146c-29.4 29.4-29.4 77 0 106.4 29.4 29.4 77 29.4 106.4 0l146-146c23-22.8 53.2-35.4 85.6-35.4z" fill="#4C4372" /><path d="M512 657.4c-37.2 0-74.4-14.2-102.8-42.6-56.6-56.6-56.6-149 0-205.6s149-56.6 205.6 0c56.6 56.6 56.6 149 0 205.6-28.4 28.4-65.6 42.6-102.8 42.6z m0-267.2c-31.2 0-62.4 11.8-86.2 35.6-47.6 47.6-47.6 125 0 172.4 47.6 47.6 125 47.6 172.4 0 47.6-47.6 47.6-125 0-172.4-23.8-23.8-55-35.6-86.2-35.6z" fill="#4C4372" /></svg>