<?xml version="1.0" standalone="no"?><!DOCTYPE svg PUBLIC "-//W3C//DTD SVG 1.1//EN" "http://www.w3.org/Graphics/SVG/1.1/DTD/svg11.dtd"><svg class="icon" width="200px" height="200.00px" viewBox="0 0 1024 1024" version="1.1" xmlns="http://www.w3.org/2000/svg"><path d="M512 512.039347m-413.968184 0a413.968184 413.968184 0 1 0 827.936368 0 413.968184 413.968184 0 1 0-827.936368 0Z" fill="#F0C48A" /><path d="M808.177237 428.045802v-4.599646c0-147.788642-122.390594-268.179389-270.179235-261.779881-137.78941 5.999539-247.580972 119.390824-247.580972 258.580127v591.954505h258.780111v-111.791408h123.190532c74.994236 0 135.589579-60.795328 135.58958-135.58958v-83.79356h58.595496c23.398202 0 39.396972-23.998156 29.997695-45.596495L807.977253 428.445772c0.199985-0.199985 0.199985-0.199985 0.199984-0.39997z" fill="#D3E6F8" /><path d="M808.177237 764.819919v-83.79356h58.595497c23.398202 0 39.396972-23.998156 29.997694-45.596495l-88.593191-206.984092v-7.999386c0-121.190686-83.393591-222.982863-195.984937-251.180695 77.794021 45.996465 147.788642 152.988242 147.788641 252.180619l44.396588 104.591961 45.396511 100.592269c4.599646 10.399201-2.799785 21.998309-14.198909 21.998309h-55.395742c-8.599339 0-15.598801 6.999462-15.598801 15.598801V762.020135c0 58.595497-47.396357 105.991854-105.991854 105.991854h-137.189456c-8.599339 0-15.598801 6.999462-15.598802 15.598801v128.790101h43.59665v-111.791408h123.190532c74.994236-0.199985 135.589579-60.995312 135.589579-135.789564z" fill="#A4CFF2" /><path d="M549.397126 1024H290.617014c-6.399508 0-11.799093-5.1996-11.799093-11.799093v-591.954505c0-70.194605 26.79794-136.789487 75.394206-187.385599 48.39628-50.396127 113.59127-79.993852 183.385906-82.993621 73.794329-3.199754 143.988934 23.398202 197.584814 74.794252 53.795865 51.596035 84.793483 123.990471 84.793483 198.584737v2.399816l87.793253 204.984246c5.999539 13.798939 4.399662 29.397741-3.799708 41.996772-8.19937 12.599032-22.198294 19.998463-37.197141 19.998463H819.97633v71.994467c0 81.19376-66.194913 147.388672-147.388672 147.388672h-111.391439v100.1923c0 6.599493-5.399585 11.799093-11.799093 11.799093z m-247.181003-23.398202h235.38191v-100.192299c0-6.399508 5.1996-11.799093 11.799093-11.799094h123.190532c68.394743 0 123.990471-55.595727 123.990471-123.99047v-83.79356c0-6.399508 5.1996-11.799093 11.799093-11.799093h58.595496c7.199447 0 13.598955-3.399739 17.598648-9.399278 3.999693-5.999539 4.599646-13.198986 1.799862-19.798478l-88.593192-206.984093c-0.599954-1.599877-0.999923-3.199754-0.999923-4.799631v-4.599646c0-68.194759-28.197833-134.389671-77.594036-181.786029C669.987858 194.863724 605.992776 170.465599 538.597956 173.465368c-63.795097 2.799785-123.190532 29.597725-167.387136 75.794175-44.396588 46.19645-68.794713 106.991777-68.794712 171.186843v580.155412z m516.760284-576.955658z" fill="#4C4372" /><path d="M456.604257 177.86503c0-95.792638-80.993775-172.586736-178.186305-165.787258C196.024284 18.077311 129.829372 85.072162 124.629772 167.465829c-3.199754 53.595881 18.798555 101.992161 55.395742 134.589656 16.598724 14.798863 26.397971 35.797249 26.397971 57.995543v85.993391c0 46.396434 37.59711 83.993545 83.993545 83.993545s83.993545-37.59711 83.993544-83.993545v-85.993391c0-21.798325 9.199293-42.996695 25.598033-57.395589 34.797326-30.397664 56.59565-74.994236 56.59565-124.790409z" fill="#E8677D" /><path d="M278.417952 12.277756C196.024284 18.077311 129.829372 85.072162 124.629772 167.465829c-3.199754 53.595881 18.798555 101.992161 55.395742 134.589656 16.598724 14.798863 26.397971 35.797249 26.397971 57.995543v85.993391c0 21.998309 8.399354 41.796788 22.198294 56.795635 35.597264-9.799247 61.795251-42.196757 61.795251-80.993775v-85.993391c0-21.798325 9.199293-42.996695 25.598033-57.395589 34.597341-30.397664 56.395666-74.994236 56.395665-124.790409 0-60.195374-31.997541-112.791331-79.793867-141.989088-4.599646 0.199985-9.399278 0.199985-14.198909 0.599954z" fill="#FD919E" /><path d="M206.423485 360.051028v85.993391c0 46.396434 37.59711 83.993545 83.993545 83.993545s83.993545-37.59711 83.993544-83.993545v-85.993391h-167.987089z" fill="#FFFFFF" /><path d="M290.617014 362.250859v165.187304h20.798402c36.397203-9.199293 63.395128-42.196757 63.395128-81.393744v-83.79356h-84.19353z" fill="#D3E6F8" /><path d="M290.617014 541.837057c-52.795942 0-95.792638-42.996695-95.792637-95.792638v-85.993391c0-18.598571-8.19937-36.597187-22.398279-49.196219-40.996849-36.597187-62.795174-88.99316-59.395435-144.188918 5.399585-88.393206 76.194144-159.987704 164.587351-166.187228 49.996158-3.599723 97.592499 13.198986 134.189686 47.196373 35.997233 33.597418 56.59565 80.993775 56.595651 130.189994 0 50.996081-21.998309 99.79233-60.395359 133.589733-13.798939 11.999078-21.59834 29.79771-21.59834 48.596265v85.993391c0 52.795942-42.996695 95.792638-95.792638 95.792638z m0-518.360161c-3.799708 0-7.599416 0.199985-11.399123 0.399969-76.794098 5.399585-138.189379 67.39482-142.789026 144.188918-2.999769 47.796327 15.798786 93.392822 51.596034 125.190379 19.198524 17.198678 30.197679 41.396818 30.197679 66.794866v85.993391c0 39.996926 32.39751 72.394436 72.394436 72.394436s72.394436-32.39751 72.394437-72.394436v-85.993391c0-25.598033 10.79917-49.596188 29.597725-66.194912 33.397433-29.397741 52.395973-71.594498 52.395973-115.991086 0-42.796711-17.998617-83.79356-49.196219-112.991316-28.997771-26.79794-65.994928-41.396818-105.191916-41.396818z" fill="#4C4372" /><path d="M374.610559 371.850121h-168.187074c-6.399508 0-11.799093-5.1996-11.799093-11.799093s5.1996-11.799093 11.799093-11.799093h168.187074c6.399508 0 11.799093 5.1996 11.799093 11.799093s-5.399585 11.799093-11.799093 11.799093zM355.21205 451.843973h-135.389595c-6.399508 0-11.799093-5.1996-11.799093-11.799093s5.1996-11.799093 11.799093-11.799093h135.389595c6.399508 0 11.799093 5.1996 11.799093 11.799093s-5.399585 11.799093-11.799093 11.799093z" fill="#4C4372" /><path d="M290.617014 371.850121c-6.399508 0-11.799093-5.1996-11.799093-11.799093V172.26546c0-6.399508 5.1996-11.799093 11.799093-11.799093 6.399508 0 11.799093 5.1996 11.799094 11.799093V360.051028c-0.199985 6.599493-5.399585 11.799093-11.799094 11.799093z" fill="#4C4372" /><path d="M723.983708 437.845049h-83.79356c-6.399508 0-11.799093-5.1996-11.799093-11.799093s5.1996-11.799093 11.799093-11.799093H723.983708c6.399508 0 11.799093 5.1996 11.799093 11.799093s-5.399585 11.799093-11.799093 11.799093z" fill="#4C4372" /></svg>