<?xml version="1.0" standalone="no"?><!DOCTYPE svg PUBLIC "-//W3C//DTD SVG 1.1//EN" "http://www.w3.org/Graphics/SVG/1.1/DTD/svg11.dtd"><svg class="icon" width="200px" height="200.00px" viewBox="0 0 1024 1024" version="1.1" xmlns="http://www.w3.org/2000/svg"><path d="M512 512m-414 0a414 414 0 1 0 828 0 414 414 0 1 0-828 0Z" fill="#F0C48A" /><path d="M180.2 654.4h-72l-17.4-19.2 2.2-69 18.4-13.8h100.8l7 16.8zM842 654.4h72l17.4-19.2-2.2-69-18.4-13.8H810l-7 16.8z" fill="#7BABF1" /><path d="M141.8 666H120.6c-24.6 0-44.4-20-44.4-44.4v-37.8c0-24.6 20-44.4 44.4-44.4h100.2c6.4 0 11.8 5.2 11.8 11.8 0 6.4-5.2 11.8-11.8 11.8H120.6c-11.6 0-21 9.4-21 21v37.8c0 11.6 9.4 21 21 21h21.2c6.4 0 11.8 5.2 11.8 11.8 0 6.2-5.4 11.4-11.8 11.4zM903.4 666h-21.2c-6.4 0-11.8-5.2-11.8-11.8 0-6.4 5.2-11.8 11.8-11.8h21.2c11.6 0 21-9.4 21-21v-37.8c0-11.6-9.4-21-21-21h-100.2c-6.4 0-11.8-5.2-11.8-11.8 0-6.4 5.2-11.8 11.8-11.8h100.2c24.6 0 44.4 20 44.4 44.4v37.8c0 25-19.8 44.8-44.4 44.8z" fill="#4C4372" /><path d="M822 886.6H202c-33.6 0-60.8-27.2-60.8-60.8v-148.8c0-33.6 27.2-60.8 60.8-60.8h620c33.6 0 60.8 27.2 60.8 60.8v148.8c0 33.4-27.2 60.8-60.8 60.8z" fill="#A4CFF2" /><path d="M810.4 886.6c39.2 0 70.8-31.8 70.8-70.8v-129c0-39.2-31.8-70.8-70.8-70.8v270.6z" fill="#7BABF1" /><path d="M818.6 615.8H205.4l53.2-181c6.6-27.4 31-46.8 59.2-46.8H706c28.2 0 52.8 19.4 59.2 46.8l53.4 181z" fill="#D3E6F8" /><path d="M683.2 388l79 227.8h56.4l-67.8-208.2-29.6-17.6z" fill="#A4CFF2" /><path d="M762.2 615.8H261.8l43.4-147.6c5.4-22.4 25.4-38.2 48.4-38.2h316.8c23 0 43 15.8 48.4 38.2l43.4 147.6z" fill="#FFFFFF" /><path d="M655.6 436.6l48.4 179.2h58.2l-49.2-161.6-29.8-17.6z" fill="#D3E6F8" /><path d="M290 1012.2h-80c-17.6 0-31.8-14.2-31.8-31.8v-94h143.4v94c0 17.6-14.2 31.8-31.6 31.8zM814 1012.2h-80c-17.6 0-31.8-14.2-31.8-31.8v-94h143.4v94c0.2 17.6-14 31.8-31.6 31.8z" fill="#7BABF1" /><path d="M564 816.8h-104c-35 0-63.6-28.4-63.6-63.6h231c0 35-28.4 63.6-63.4 63.6z" fill="#FFFFFF" /><path d="M241.663005 814.96135a63.6 63.6 0 1 0 29.72663-123.677676 63.6 63.6 0 1 0-29.72663 123.677676Z" fill="#FFFFFF" /><path d="M726.206305 801.732801a63.6 63.6 0 1 0 82.412107-96.892129 63.6 63.6 0 1 0-82.412107 96.892129Z" fill="#FFFFFF" /><path d="M512 155.4m-143.6 0a143.6 143.6 0 1 0 287.2 0 143.6 143.6 0 1 0-287.2 0Z" fill="#FD919E" /><path d="M822 898.2H202c-40 0-72.6-32.6-72.6-72.6v-148.8c0-40 32.6-72.6 72.6-72.6h620c40 0 72.6 32.6 72.6 72.6v148.8c0 40-32.6 72.6-72.6 72.6zM202 627.6c-27.2 0-49.2 22-49.2 49.2v148.8c0 27.2 22 49.2 49.2 49.2h620c27.2 0 49.2-22 49.2-49.2v-148.8c0-27.2-22-49.2-49.2-49.2H202z" fill="#4C4372" /><path d="M818.6 627.6H205.4c-3.6 0-7.2-1.8-9.4-4.6-2.2-3-3-6.8-1.8-10.4l53.2-180.6c8-32.6 36.8-55.6 70.6-55.6h388c33.6 0 62.6 22.8 70.6 55.6l53.2 180.6c1 3.6 0.4 7.4-1.8 10.4-2.4 2.8-5.8 4.6-9.4 4.6z m-597.4-23.4h581.6l-48.8-166c0-0.2-0.2-0.4-0.2-0.6-5.2-22.2-25-37.8-47.8-37.8H318c-22.8 0-42.6 15.6-47.8 37.8 0 0.2-0.2 0.4-0.2 0.6l-48.8 166z" fill="#4C4372" /><path d="M762.2 627.6H261.8c-3.6 0-7.2-1.8-9.4-4.6-2.2-3-3-6.8-1.8-10.4l43.4-147.4c6.8-27.6 31.2-46.8 59.6-46.8h316.8c28.4 0 53 19.2 59.6 46.8l43.4 147.4c1 3.6 0.4 7.4-1.8 10.4-2.4 2.8-5.8 4.6-9.4 4.6z m-484.6-23.4h469l-39-132.6c0-0.2-0.2-0.4-0.2-0.6-4-17.2-19.2-29.2-37-29.2H353.6c-17.6 0-32.8 12-37 29.2 0 0.2-0.2 0.4-0.2 0.6l-38.8 132.6zM256.6 828.4c-41.4 0-75.2-33.8-75.2-75.2 0-41.4 33.8-75.2 75.2-75.2s75.2 33.8 75.2 75.2c0 41.4-33.8 75.2-75.2 75.2z m0-127c-28.6 0-51.8 23.2-51.8 51.8s23.2 51.8 51.8 51.8 51.8-23.2 51.8-51.8-23.4-51.8-51.8-51.8zM767.4 828.4c-41.4 0-75.2-33.8-75.2-75.2 0-41.4 33.8-75.2 75.2-75.2 41.4 0 75.2 33.8 75.2 75.2 0.2 41.4-33.6 75.2-75.2 75.2z m0-127c-28.6 0-51.8 23.2-51.8 51.8s23.2 51.8 51.8 51.8c28.6 0 51.8-23.2 51.8-51.8s-23.2-51.8-51.8-51.8zM564 828.4h-104c-41.4 0-75.2-33.8-75.2-75.2 0-6.4 5.2-11.8 11.8-11.8h231c6.4 0 11.8 5.2 11.8 11.8-0.2 41.4-34 75.2-75.4 75.2z m-154.4-63.4c5.4 23 26 40 50.4 40h104c24.6 0 45.2-17.2 50.4-40H409.6z" fill="#4C4372" /><path d="M290 1024h-80c-24 0-43.4-19.6-43.4-43.4v-94c0-6.4 5.2-11.8 11.8-11.8h143.4c6.4 0 11.8 5.2 11.8 11.8v94c-0.2 23.8-19.8 43.4-43.6 43.4z m-100-125.8v82.2c0 11 9 20 20 20h80c11 0 20-9 20-20v-82.2H190zM814 1024h-80c-24 0-43.4-19.6-43.4-43.4v-94c0-6.4 5.2-11.8 11.8-11.8h143.4c6.4 0 11.8 5.2 11.8 11.8v94c0 23.8-19.6 43.4-43.6 43.4z m-100-125.8v82.2c0 11 9 20 20 20h80c11 0 20-9 20-20v-82.2h-120z" fill="#4C4372" /><path d="M416 155.4c0.2-20.2 17-36.6 37.4-36.6 9 0 17.2 3 23.6 8 2.4 2 2.8 5.6 1 8.2-2 2.6-5.8 3-8.2 1.2-4.4-3.6-10-5.6-16.4-5.6-7 0-13.6 2.8-18.4 7.4-4.6 4.6-7.4 10.8-7.4 17.8s2.8 13.2 7.4 17.8c4.8 4.4 11.4 7.4 18.4 7.4 6.4 0 11.8-2 16.4-5.6 2.4-1.8 6.2-1.4 8.2 1.2 1.8 2.6 1.4 6.2-1 8.2-6.4 5-14.6 8-23.6 8-20.4-0.8-37.4-17.2-37.4-37.4zM551.8 129.6c6.4 6.8 10.2 15.6 10.2 25.8 0 10-4 19.2-10.2 25.8-6 6.6-15 11-24.4 11-9.8 0-18.8-4.2-25-11-6.4-6.6-10-15.6-10-25.8 0-10 3.8-19 10-25.8 6.2-6.8 15.2-11 25-11 9.6 0 18.4 4.2 24.4 11z m-1.2 25.8c0-7-2.8-13.4-7-17.8-4.2-4.6-10-7.2-16-7.2-6.6 0-12.2 2.6-16.6 7.2-4.2 4.4-7 11-7 17.8 0 7 2.6 13.4 7 17.8 4.2 4.6 10 7.4 16.6 7.4 6.2 0 11.8-2.8 16-7.4 4.2-4.6 7-11 7-17.8zM608 188.4c0 2-1.6 3.6-3.6 3.6h-23.6c-1 0-2-0.4-2.8-1.2-1.4-1.6-1.2-3.8 0.2-5.2l19.8-18c2-1.8 2.8-4 2.8-6.4 0-2.2-0.8-4.2-2.2-5.8-1.8-2-4-2.8-6.4-2.8-2 0-4.2 0.8-5.8 2.2l-2 1.8c-1.6 1.4-3.8 1.2-5.2-0.2-1.4-1.6-1.2-3.8 0.2-5.2l2-1.8c3-2.8 7-4.2 10.8-4.2 4.4 0 8.8 1.8 12 5.2 2.8 3 4.2 7 4.2 10.8 0 4.4-1.8 8.8-5.2 12l-12.6 11.4h14.2c1.6 0 3.2 1.6 3.2 3.8z" fill="#4C4372" /><path d="M512 310.6c-41.4 0-80.4-16.2-109.8-45.4s-45.4-68.4-45.4-109.8 16.2-80.4 45.4-109.8S470.6 0 512 0c41.4 0 80.4 16.2 109.8 45.4 29.4 29.4 45.4 68.4 45.4 109.8s-16.2 80.4-45.4 109.8-68.4 45.6-109.8 45.6z m0-287.2c-35.2 0-68.4 13.8-93.2 38.6-25 25-38.6 58-38.6 93.2s13.8 68.4 38.6 93.2c25 25 58 38.6 93.2 38.6s68.4-13.8 93.2-38.6c25-25 38.6-58 38.6-93.2S630 86.8 605.2 62c-24.8-24.8-58-38.6-93.2-38.6z" fill="#4C4372" /><path d="M410.4 268.6c-3 0-6-1.2-8.2-3.4-4.6-4.6-4.6-12 0-16.6L605.2 45.4c4.6-4.6 12-4.6 16.6 0 4.6 4.6 4.6 12 0 16.6L418.8 265.2c-2.4 2.2-5.4 3.4-8.4 3.4z" fill="#4C4372" /></svg>