<?xml version="1.0" standalone="no"?><!DOCTYPE svg PUBLIC "-//W3C//DTD SVG 1.1//EN" "http://www.w3.org/Graphics/SVG/1.1/DTD/svg11.dtd"><svg class="icon" width="200px" height="200.00px" viewBox="0 0 1024 1024" version="1.1" xmlns="http://www.w3.org/2000/svg"><path d="M512 512m-414 0a414 414 0 1 0 828 0 414 414 0 1 0-828 0Z" fill="#F0C48A" /><path d="M852.8 265H171.2c-38.6 0-69.8 31.2-69.8 69.8v354.4c0 38.6 31.2 69.8 69.8 69.8h177.8c29.6 0 57.8-13.2 76.8-36l25.6-30.8c14.2-17.2 35.4-27 57.8-27h5.6c22.4 0 43.4 10 57.8 27l25.6 30.8c19 22.8 47.2 36 76.8 36h177.8c38.6 0 69.8-31.2 69.8-69.8V334.8c0.2-38.6-31.2-69.8-69.8-69.8z" fill="#FFFFFF" /><path d="M834 759h23.8c35.8 0 65-29 65-65V329.2c0-35.8-29-65-65-65H834v494.8z" fill="#D3E6F8" /><path d="M11.8 390h89.6v170.8H11.8z" fill="#FD919E" /><path d="M922.8 390h89.6v170.8h-89.6z" fill="#E8677D" /><path d="M101.2 342.8h815.2V604H101.2z" fill="#A4CFF2" /><path d="M101.2 572.6H11.8c-6.4 0-11.8-5.2-11.8-11.8V390c0-6.4 5.2-11.8 11.8-11.8h89.6c6.4 0 11.8 5.2 11.8 11.8v170.8c-0.2 6.6-5.4 11.8-12 11.8z m-77.8-23.4h66v-147.4h-66v147.4zM1012.2 572.6h-89.6c-6.4 0-11.8-5.2-11.8-11.8V390c0-6.4 5.2-11.8 11.8-11.8h89.6c6.4 0 11.8 5.2 11.8 11.8v170.8c0 6.6-5.2 11.8-11.8 11.8z m-77.8-23.4h66v-147.4h-66v147.4zM606.2 539.6c-3.6 0-7.2-1.6-9.4-4.8l-38.2-52.6c-3.6-5-2.8-11.8 2-15.8l33-28c0.4-0.2 1.2-1 0.6-2.4s-1.6-1.4-2-1.4h-41.2L489.8 534c-2.2 3.6-6 5.6-10 5.6-4.2 0-8-2.2-10-5.8l-62-105c-3.2-5.6-1.4-12.8 4.2-16 5.6-3.2 12.8-1.4 16 4.2l52.2 88.2 54.2-88.4c2.2-3.4 6-5.6 10-5.6H592c10.8 0 20.4 6.6 24 16.8 3.8 10.2 0.8 21.4-7.6 28.4L584 477.4l31.8 43.6c3.8 5.2 2.6 12.6-2.6 16.4-2.2 1.6-4.6 2.2-7 2.2z" fill="#4C4372" /><path d="M834 347h88.8V604H834z" fill="#7BABF1" /><path d="M916.8 358.6H107.2c-6.4 0-11.8-5.2-11.8-11.8s5.2-11.8 11.8-11.8h809.6c6.4 0 11.8 5.2 11.8 11.8s-5.2 11.8-11.8 11.8zM916.8 615.6H107.2c-6.4 0-11.8-5.2-11.8-11.8 0-6.4 5.2-11.8 11.8-11.8h809.6c6.4 0 11.8 5.2 11.8 11.8 0 6.6-5.2 11.8-11.8 11.8z" fill="#4C4372" /><path d="M852.8 770.8h-177.8c-33.2 0-64.6-14.6-85.8-40.2l-25.6-30.8c-12-14.6-29.8-22.8-48.8-22.8h-5.6c-18.8 0-36.6 8.4-48.8 22.8l-25.6 30.8c-21.2 25.6-52.6 40.2-85.8 40.2H171.2c-45 0-81.6-36.6-81.6-81.6V334.8c0-45 36.6-81.6 81.6-81.6h681.8c45 0 81.6 36.6 81.6 81.6v354.4c-0.2 45-36.8 81.6-81.8 81.6z m-343.6-117.2h5.6c25.8 0 50.2 11.4 66.8 31.2l25.6 30.8a88.08 88.08 0 0 0 67.8 31.8h177.8c32 0 58.2-26 58.2-58.2V334.8c0-32-26-58.2-58.2-58.2H171.2c-32 0-58.2 26-58.2 58.2v354.4c0 32 26 58.2 58.2 58.2h177.8c26.2 0 51-11.6 67.8-31.8l25.6-30.8c16.6-19.8 40.8-31.2 66.8-31.2z" fill="#4C4372" /></svg>