<?xml version="1.0" standalone="no"?><!DOCTYPE svg PUBLIC "-//W3C//DTD SVG 1.1//EN" "http://www.w3.org/Graphics/SVG/1.1/DTD/svg11.dtd"><svg class="icon" width="200px" height="200.00px" viewBox="0 0 1024 1024" version="1.1" xmlns="http://www.w3.org/2000/svg"><path d="M512.02698 512m-414 0a414 414 0 1 0 828 0 414 414 0 1 0-828 0Z" fill="#F0C48A" /><path d="M100.82698 521.6h555v450H100.82698z" fill="#D3E6F8" /><path d="M601.42698 525.4h54.4v446.2h-54.4z" fill="#A4CFF2" /><path d="M161.82698 971.6V660H330.02698v311.6" fill="#FD919E" /><path d="M386.42698 660h208.4v133H386.42698z" fill="#FFFFFF" /><path d="M655.82698 983.4H100.82698c-6.4 0-11.8-5.2-11.8-11.8v-450c0-6.4 5.2-11.8 11.8-11.8h555c6.4 0 11.8 5.2 11.8 11.8v450c0 6.4-5.4 11.8-11.8 11.8zM112.42698 959.8H644.02698V533.2H112.42698v426.6z" fill="#4C4372" /><path d="M330.02698 983.4c-6.4 0-11.8-5.2-11.8-11.8V671.8H173.42698v299.8c0 6.4-5.2 11.8-11.8 11.8S150.02698 978 150.02698 971.6V660c0-6.4 5.2-11.8 11.8-11.8H330.02698c6.4 0 11.8 5.2 11.8 11.8v311.6c-0.2 6.4-5.4 11.8-11.8 11.8z" fill="#4C4372" /><path d="M464.22698 669.6h17.4v112.8h-17.4zM567.42698 669.6h17.4v112.8h-17.4z" fill="#D3E6F8" /><path d="M594.82698 804.6H386.42698c-6.4 0-11.8-5.2-11.8-11.8V660c0-6.4 5.2-11.8 11.8-11.8h208.4c6.4 0 11.8 5.2 11.8 11.8v133c0 6.4-5.4 11.6-11.8 11.6zM398.02698 781.2h185v-109.4H398.02698v109.4z" fill="#4C4372" /><path d="M490.62698 804.6c-6.4 0-11.8-5.2-11.8-11.8V660c0-6.4 5.2-11.8 11.8-11.8s11.8 5.2 11.8 11.8v133c0 6.4-5.4 11.6-11.8 11.6z" fill="#4C4372" /><path d="M377.02698 521.6H11.82698l182.6-169.4 182.6-169.4 182.6 169.4 182.8 169.4z" fill="#FD919E" /><path d="M694.62698 1012.2H59.62698c-26.4 0-47.8-20.6-47.8-46.2s21.4-46.2 47.8-46.2h635.2c26.4 0 47.8 20.6 47.8 46.2-0.2 25.6-21.6 46.2-48 46.2z" fill="#A4CFF2" /><path d="M698.82698 1012.2h-126.4V920h126.4c25.4 0 46 20.6 46 46 0 25.6-20.6 46.2-46 46.2z" fill="#7BABF1" /><path d="M694.62698 1024H59.62698C26.62698 1024 0.02698 998 0.02698 966s26.6-58 59.6-58h635.2c32.8 0 59.6 26 59.6 58-0.2 32-27 58-59.8 58zM59.62698 931.6c-19.8 0-36 15.4-36 34.4s16.2 34.4 36 34.4h635.2c19.8 0 36-15.4 36-34.4s-16.2-34.4-36-34.4H59.62698z" fill="#4C4372" /><path d="M377.02698 182.8l-45.6 42.4 330.4 296.4h80.6z" fill="#E8677D" /><path d="M742.42698 533.2H11.82698c-4.8 0-9.2-3-11-7.4-1.8-4.4-0.6-9.6 3-12.8L369.02698 174.2c4.4-4.2 11.4-4.2 16 0l365.4 338.8c3.6 3.2 4.8 8.4 3 12.8-2 4.6-6.2 7.4-11 7.4zM41.62698 509.8h670.8L377.02698 198.8 41.62698 509.8z" fill="#4C4372" /><path d="M883.42698 11.8h-176.4l-20.2 216.8h216.8z" fill="#FD919E" /><path d="M907.42698 795.4H683.02698c-15.8 0-28.6-12.8-28.6-28.6V257.2c0-15.8 12.8-28.6 28.6-28.6h224.4c15.8 0 28.6 12.8 28.6 28.6v509.6c0 15.8-12.8 28.6-28.6 28.6z" fill="#D3E6F8" /><path d="M881.42698 293.8h52.4V252c0-13-10.6-23.4-23.4-23.4h-29v65.2zM881.42698 730.2h52.4V772c0 13-10.6 23.4-23.4 23.4h-29v-65.2z" fill="#A4CFF2" /><path d="M883.42698 1012.2h-176.4l-20.2-216.8h216.8z" fill="#FD919E" /><path d="M883.42698 11.8h-41.8l20.2 216.8h41.8zM883.42698 1012.2h-41.8l20.2-216.8h41.8z" fill="#E8677D" /><path d="M907.42698 807.2H683.02698c-22.2 0-40.4-18-40.4-40.4V257.2c0-22.2 18-40.4 40.4-40.4h224.4c22.2 0 40.4 18 40.4 40.4v509.6c-0.2 22.2-18.2 40.4-40.4 40.4zM683.02698 240.2c-9.2 0-16.8 7.6-16.8 16.8v509.6c0 9.2 7.6 16.8 16.8 16.8h224.4c9.2 0 16.8-7.6 16.8-16.8V257.2c0-9.2-7.6-16.8-16.8-16.8H683.02698z" fill="#4C4372" /><path d="M883.42698 1024h-176.4c-6 0-11.2-4.6-11.6-10.6l-20.2-216.8c-0.4-3.2 0.8-6.6 3-9 2.2-2.4 5.4-3.8 8.6-3.8h216.8c3.2 0 6.4 1.4 8.6 3.8 2.2 2.4 3.4 5.8 3 9l-20.2 216.8c-0.6 6-5.6 10.6-11.6 10.6z m-165.8-23.4h155l18-193.4h-191.2l18.2 193.4zM903.62698 240.2H686.82698c-3.2 0-6.4-1.4-8.6-3.8-2.2-2.4-3.4-5.8-3-9L695.42698 10.6c0.6-6 5.6-10.6 11.6-10.6h176.4c6 0 11.2 4.6 11.6 10.6l20.2 216.8c0.4 3.2-0.8 6.6-3 9-2.2 2.6-5.4 3.8-8.6 3.8z m-204-23.4h191.2l-18-193.4h-155l-18.2 193.4z" fill="#4C4372" /><path d="M953.22698 729.2h-316c-32.6 0-59-26.4-59-59V354c0-32.6 26.4-59 59-59h316c32.6 0 59 26.4 59 59v316c0 32.6-26.4 59.2-59 59.2z" fill="#A4CFF2" /><path d="M940.02698 727.2h11.6c33.6 0 60.8-27.2 60.8-60.8v-312c0-33.6-27.2-60.8-60.8-60.8H940.02698v433.6z" fill="#7BABF1" /><path d="M953.22698 740.8h-316c-39 0-70.8-31.8-70.8-70.8V354c0-39 31.8-70.8 70.8-70.8h316c39 0 70.8 31.8 70.8 70.8v316c0 39-31.8 70.8-70.8 70.8z m-316-434.2c-26.2 0-47.4 21.2-47.4 47.4v316c0 26.2 21.2 47.4 47.4 47.4h316c26.2 0 47.4-21.2 47.4-47.4V354c0-26.2-21.2-47.4-47.4-47.4h-316z" fill="#4C4372" /><path d="M795.22698 361c-77.4 0-126 83.8-87.2 151l87.2 151 87.2-151c38.6-67.2-9.8-151-87.2-151z m0 140.8c-24.4 0-44-19.8-44-44s19.8-44 44-44 44 19.8 44 44-19.6 44-44 44z" fill="#FFFFFF" /><path d="M834.02698 368.6c35.6 29.6 49.4 82.6 23.2 128l-79 136.8 17 29.4 87.2-151c31.6-54.8 5-121-48.4-143.2z" fill="#D3E6F8" /><path d="M795.22698 674.8c-4.2 0-8-2.2-10.2-5.8L697.82698 518c-20.4-35.2-20.4-77.2 0-112.4s56.6-56.2 97.4-56.2c40.6 0 77 21 97.4 56.2 20.4 35.2 20.4 77.2 0 112.4l-87.2 151c-2.2 3.4-6 5.8-10.2 5.8z m0-302c-32.2 0-61 16.6-77 44.4-16 27.8-16 61 0 89l77 133.4 77-133.4c16-27.8 16-61 0-89-16.2-27.8-44.8-44.4-77-44.4z" fill="#4C4372" /><path d="M795.22698 513.6c-30.8 0-55.8-25-55.8-55.8s25-55.8 55.8-55.8 55.8 25 55.8 55.8-25 55.8-55.8 55.8z m0-88.2c-17.8 0-32.4 14.6-32.4 32.4 0 17.8 14.6 32.4 32.4 32.4 17.8 0 32.4-14.6 32.4-32.4 0-17.8-14.6-32.4-32.4-32.4z" fill="#4C4372" /></svg>