<?xml version="1.0" standalone="no"?><!DOCTYPE svg PUBLIC "-//W3C//DTD SVG 1.1//EN" "http://www.w3.org/Graphics/SVG/1.1/DTD/svg11.dtd"><svg class="icon" width="200px" height="200.00px" viewBox="0 0 1024 1024" version="1.1" xmlns="http://www.w3.org/2000/svg"><path d="M512 512m-414 0a414 414 0 1 0 828 0 414 414 0 1 0-828 0Z" fill="#F0C48A" /><path d="M952 842.6H72c-33.4 0-60.4-27-60.4-60.4v-168.4c0-33.4 27-60.4 60.4-60.4h880c33.4 0 60.4 27 60.4 60.4v168.4c-0.2 33.2-27.2 60.4-60.4 60.4z" fill="#D3E6F8" /><path d="M911.8 842.6h34.4c36.4 0 65.8-29.4 65.8-65.8v-157.6c0-36.4-29.4-65.8-65.8-65.8h-34.4v289.2z" fill="#A4CFF2" /><path d="M117 661.8h462v69.8h-462z" fill="#FD919E" /><path d="M734.8 696.6m-34.8 0a34.8 34.8 0 1 0 69.6 0 34.8 34.8 0 1 0-69.6 0Z" fill="#FD919E" /><path d="M850.2 696.6m-34.8 0a34.8 34.8 0 1 0 69.6 0 34.8 34.8 0 1 0-69.6 0Z" fill="#FD919E" /><path d="M267.2 911.4H196.2c-19.6 0-35.4-15.8-35.4-35.4v-33.4h142V876c0 19.6-16 35.4-35.6 35.4zM828 911.4h-71c-19.6 0-35.4-15.8-35.4-35.4v-33.4h142V876c-0.2 19.6-16 35.4-35.6 35.4zM792.6 279.2c-13.4 0-24.4 11-24.4 24.4v249.8h48.8V303.6c-0.2-13.4-11-24.4-24.4-24.4z" fill="#7BABF1" /><path d="M673.2 173.8c-3 0-6-1.2-8.2-3.4-4.6-4.6-4.6-12 0-16.6 34-34 79.4-52.8 127.6-52.8 48.2 0 93.6 18.8 127.6 52.8 4.6 4.6 4.6 12 0 16.6-4.6 4.6-12 4.6-16.6 0-29.6-29.6-69.2-46-111-46-42 0-81.4 16.4-111 46-2.4 2.2-5.4 3.4-8.4 3.4z" fill="#4C4372" /><path d="M874 211.6c-3 0-6-1.2-8.2-3.4-40.4-40.4-106-40.4-146.4 0-4.6 4.6-12 4.6-16.6 0-4.6-4.6-4.6-12 0-16.6 49.6-49.6 130-49.6 179.6 0 4.6 4.6 4.6 12 0 16.6-2.4 2.2-5.4 3.4-8.4 3.4z" fill="#4C4372" /><path d="M834.4 251.2c-3 0-6-1.2-8.2-3.4-18.6-18.6-48.8-18.6-67.4 0-4.6 4.6-12 4.6-16.6 0-4.6-4.6-4.6-12 0-16.6 27.8-27.8 72.8-27.8 100.6 0 4.6 4.6 4.6 12 0 16.6-2.2 2.2-5.2 3.4-8.4 3.4zM952 854.2H72c-39.8 0-72-32.4-72-72v-168.4c0-39.8 32.4-72 72-72h880c39.8 0 72 32.4 72 72v168.4c0 39.8-32.4 72-72 72zM72 565c-26.8 0-48.6 21.8-48.6 48.6V782c0 26.8 21.8 48.6 48.6 48.6h880c26.8 0 48.6-21.8 48.6-48.6v-168.4c0-26.8-21.8-48.6-48.6-48.6H72z" fill="#4C4372" /><path d="M267.2 923.2H196.2c-26 0-47.2-21.2-47.2-47.2v-33.4c0-6.4 5.2-11.8 11.8-11.8h142c6.4 0 11.8 5.2 11.8 11.8V876c-0.2 26-21.4 47.2-47.4 47.2z m-94.8-69V876c0 13 10.6 23.8 23.8 23.8h71c13.2 0 23.8-10.6 23.8-23.8v-21.8H172.4zM828 923.2h-71c-26 0-47.2-21.2-47.2-47.2v-33.4c0-6.4 5.2-11.8 11.8-11.8h142c6.4 0 11.8 5.2 11.8 11.8V876c-0.2 26-21.4 47.2-47.4 47.2z m-94.8-69V876c0 13 10.6 23.8 23.8 23.8H828c13.2 0 23.8-10.6 23.8-23.8v-21.8h-118.6zM816.8 565H768c-6.4 0-11.8-5.2-11.8-11.8V303.6c0-19.8 16.2-36 36-36s36 16.2 36 36v249.8c0.4 6.4-4.8 11.6-11.4 11.6z m-37-23.4h25.2v-238c0-7-5.6-12.6-12.6-12.6s-12.6 5.6-12.6 12.6v238z" fill="#4C4372" /><path d="M734.8 743.2c-25.6 0-46.6-21-46.6-46.6s21-46.6 46.6-46.6 46.6 21 46.6 46.6-20.8 46.6-46.6 46.6z m0-69.8c-12.8 0-23.2 10.4-23.2 23.2 0 12.8 10.4 23.2 23.2 23.2s23.2-10.4 23.2-23.2c0-12.8-10.4-23.2-23.2-23.2zM850.2 743.2c-25.6 0-46.6-21-46.6-46.6s21-46.6 46.6-46.6 46.6 21 46.6 46.6-21 46.6-46.6 46.6z m0-69.8c-12.8 0-23.2 10.4-23.2 23.2 0 12.8 10.4 23.2 23.2 23.2 12.8 0 23.2-10.4 23.2-23.2-0.2-12.8-10.6-23.2-23.2-23.2z" fill="#4C4372" /><path d="M483.4 655.2h95.6v76.4h-95.6z" fill="#E8677D" /><path d="M579 743.2h-462c-6.4 0-11.8-5.2-11.8-11.8v-69.8c0-6.4 5.2-11.8 11.8-11.8h462c6.4 0 11.8 5.2 11.8 11.8v69.8c0 6.6-5.2 11.8-11.8 11.8zM128.8 719.8h438.6v-46.2H128.8v46.2z" fill="#4C4372" /></svg>