<?xml version="1.0" standalone="no"?><!DOCTYPE svg PUBLIC "-//W3C//DTD SVG 1.1//EN" "http://www.w3.org/Graphics/SVG/1.1/DTD/svg11.dtd"><svg class="icon" width="200px" height="200.00px" viewBox="0 0 1024 1024" version="1.1" xmlns="http://www.w3.org/2000/svg"><path d="M512 512m-414 0a414 414 0 1 0 828 0 414 414 0 1 0-828 0Z" fill="#F0C48A" /><path d="M683 487.6c-3 0-6-1.2-8.2-3.4-43.4-43.4-101.2-67.4-162.8-67.4-61.4 0-119.2 24-162.8 67.4-4.6 4.6-12 4.6-16.6 0-4.6-4.6-4.6-12 0-16.6 48-48 111.6-74.2 179.4-74.2 67.8 0 131.4 26.4 179.4 74.2 4.6 4.6 4.6 12 0 16.6-2.4 2.2-5.4 3.4-8.4 3.4z" fill="#4C4372" /><path d="M395.2 541.8c-3 0-6-1.2-8.2-3.4-4.6-4.6-4.6-12 0-16.6 69-69 181.2-69 250.2 0 4.6 4.6 4.6 12 0 16.6-4.6 4.6-12 4.6-16.6 0-59.8-59.8-157.2-59.8-217 0-2.4 2.4-5.4 3.4-8.4 3.4z" fill="#4C4372" /><path d="M572.2 598.6c-3 0-6-1.2-8.2-3.4-28.6-28.6-75.2-28.6-103.8 0-4.6 4.6-12 4.6-16.6 0-4.6-4.6-4.6-12 0-16.6 37.8-37.8 99.2-37.8 137 0 4.6 4.6 4.6 12 0 16.6-2.4 2.2-5.4 3.4-8.4 3.4z" fill="#4C4372" /><path d="M512 647m-35 0a35 35 0 1 0 70 0 35 35 0 1 0-70 0Z" fill="#4C4372" /><path d="M878.8 846.6h74.8c32.4 0 58.6-26.2 58.6-58.6v-96.4c0-32.4-26.2-58.6-58.6-58.6h-74.8v213.6z" fill="#A4CFF2" /><path d="M964.6 843.8H956V632.8h8.6c26.4 0 47.8 21.4 47.8 47.8V796c-0.2 26.4-21.4 47.8-47.8 47.8z" fill="#7BABF1" /><path d="M827.2 927c28.4 0 51.6-23.2 51.6-51.6V604.2c0-28.4-23.2-51.6-51.6-51.6-28.4 0-51.6 23.2-51.6 51.6v271.2c0 28.4 23 51.6 51.6 51.6z" fill="#D3E6F8" /><path d="M835.4 927V552.6c22.8 0 41.4 18.6 41.4 41.4v291.6c0 22.8-18.4 41.4-41.4 41.4z" fill="#A4CFF2" /><path d="M196.8 927c-28.4 0-51.6-23.2-51.6-51.6V604.2c0-28.4 23.2-51.6 51.6-51.6 28.4 0 51.6 23.2 51.6 51.6v271.2c0 28.4-23 51.6-51.6 51.6z" fill="#D3E6F8" /><path d="M207 927V552.6c22.8 0 41.4 18.6 41.4 41.4v291.6c0 22.8-18.4 41.4-41.4 41.4zM145.2 846.6H70.4C38 846.6 11.8 820.4 11.8 788v-96.4c0-32.4 26.2-58.6 58.6-58.6h74.8v213.6z" fill="#A4CFF2" /><path d="M87.6 632.8h56.2v210.8H87.6z" fill="#7BABF1" /><path d="M879 632.8V544c0-202.6-164.2-366.8-366.8-366.8-202.6 0-366.8 164.2-366.8 366.8v88.8H80.6v-104.4c0-238.2 193.2-431.4 431.4-431.4s431.4 193.2 431.4 431.4v104.4h-64.4z" fill="#FD919E" /><path d="M145.2 858.4H70.4C31.6 858.4 0 826.8 0 788v-96.4c0-18.8 7.4-36.4 20.6-49.8s31-20.6 49.8-20.6h74.8c6.4 0 11.8 5.2 11.8 11.8v213.8c0 6.2-5.2 11.6-11.8 11.6zM70.4 644.6c-12.6 0-24.4 4.8-33.2 13.8-8.8 8.8-13.8 20.6-13.8 33.2V788c0 25.8 21 47 47 47h63.2v-190.2H70.4z" fill="#4C4372" /><path d="M196.8 938.6c-35 0-63.4-28.4-63.4-63.4V604.2c0-35 28.4-63.4 63.4-63.4s63.4 28.4 63.4 63.4v271.2c0 34.8-28.4 63.2-63.4 63.2z m0-374.4c-22 0-39.8 17.8-39.8 39.8v271.2c0 22 17.8 39.8 39.8 39.8s39.8-17.8 39.8-39.8V604.2c0.2-22-17.8-40-39.8-40zM953.6 858.4h-74.8c-6.4 0-11.8-5.2-11.8-11.8V632.8c0-6.4 5.2-11.8 11.8-11.8h74.8c38.8 0 70.4 31.6 70.4 70.4V788c0 38.8-31.6 70.4-70.4 70.4z m-63.2-23.6h63.2c25.8 0 47-21 47-47v-96.4c0-25.8-21-47-47-47h-63.2v190.4z" fill="#4C4372" /><path d="M827.2 938.6c-35 0-63.4-28.4-63.4-63.4V604.2c0-35 28.4-63.4 63.4-63.4s63.4 28.4 63.4 63.4v271.2c-0.2 34.8-28.6 63.2-63.4 63.2z m0-374.4c-22 0-39.8 17.8-39.8 39.8v271.2c0 22 17.8 39.8 39.8 39.8 22 0 39.8-17.8 39.8-39.8V604.2c0-22-17.8-40-39.8-40z" fill="#4C4372" /><path d="M943.6 644.6h-64.6c-6.4 0-11.8-5.2-11.8-11.8V544c0-195.8-159.4-355.2-355.2-355.2-195.8 0-355.2 159.4-355.2 355.2v88.8c0 6.4-5.2 11.8-11.8 11.8H80.6c-6.4 0-11.8-5.2-11.8-11.8v-104.4c0-118.4 46-229.6 129.8-313.4 83.8-83.8 195-129.8 313.4-129.8 118.4 0 229.6 46 313.4 129.8 83.8 83.8 129.8 195 129.8 313.4v104.4c0 6.6-5.2 11.8-11.6 11.8z m-53-23.4h41.2v-92.6c0-112.2-43.6-217.6-123-296.8-79.2-79.2-184.6-123-296.8-123s-217.6 43.6-296.8 123C136 311 92.4 416.4 92.4 528.6v92.6h41.2v-77c0-208.8 169.8-378.6 378.6-378.6s378.6 169.8 378.6 378.6v77z" fill="#4C4372" /></svg>