<?xml version="1.0" standalone="no"?><!DOCTYPE svg PUBLIC "-//W3C//DTD SVG 1.1//EN" "http://www.w3.org/Graphics/SVG/1.1/DTD/svg11.dtd"><svg class="icon" width="200px" height="200.00px" viewBox="0 0 1024 1024" version="1.1" xmlns="http://www.w3.org/2000/svg"><path d="M512 512m-414 0a414 414 0 1 0 828 0 414 414 0 1 0-828 0Z" fill="#F0C48A" /><path d="M1012.2 149c-3 0-6-1.2-8.2-3.4-90.4-90.4-237.6-90.4-328.2 0-4.6 4.6-12 4.6-16.6 0-4.6-4.6-4.6-12 0-16.6 99.6-99.6 261.6-99.6 361.2 0 4.6 4.6 4.6 12 0 16.6-2.2 2.2-5.2 3.4-8.2 3.4z" fill="#4C4372" /><path d="M722.2 203.8c-3 0-6-1.2-8.2-3.4-4.6-4.6-4.6-12 0-16.6 33.6-33.6 78.4-52.2 126-52.2 47.6 0 92.4 18.6 126 52.2 4.6 4.6 4.6 12 0 16.6-4.6 4.6-12 4.6-16.6 0-29.2-29.2-68-45.4-109.4-45.4-41.4 0-80.2 16-109.4 45.4-2.4 2.2-5.4 3.4-8.4 3.4z" fill="#4C4372" /><path d="M900.6 260.8c-3 0-6-1.2-8.2-3.4-14-14-32.6-21.6-52.4-21.6s-38.4 7.6-52.4 21.6c-4.6 4.6-12 4.6-16.6 0-4.6-4.6-4.6-12 0-16.6 38-38 99.8-38 137.8 0 4.6 4.6 4.6 12 0 16.6-2.2 2.2-5.2 3.4-8.2 3.4z" fill="#4C4372" /><path d="M840 309.6m-35.4 0a35.4 35.4 0 1 0 70.8 0 35.4 35.4 0 1 0-70.8 0Z" fill="#4C4372" /><path d="M350.6 958h-35.6C147.6 958 11.8 822.2 11.8 654.8V369.2C11.8 201.8 147.6 66 315 66h35.6C518.2 66 654 201.8 654 369.2v285.6c0 167.4-135.8 303.2-303.4 303.2z" fill="#D3E6F8" /><path d="M284.2 76.8c-20 0.4-38.6 5.4-54 11.6v280.8h102.6V85.4s5.2-9.8-48.6-8.6zM544.4 888c59.6-49.6 99.8-121.4 108-203V338.8c-8-81.4-48.4-153.4-108-203V888z" fill="#A4CFF2" /><path d="M350.6 969.8h-35.6C141.4 969.8 0 828.4 0 654.8V369.2C0 195.6 141.4 54.2 315 54.2h35.6c173.8 0 315 141.4 315 315v285.6c0 173.6-141.2 315-315 315zM315 77.6c-160.8 0-291.6 130.8-291.6 291.6v285.6c0 160.8 130.8 291.6 291.6 291.6h35.6c160.8 0 291.6-130.8 291.6-291.6V369.2c0-160.8-130.8-291.6-291.6-291.6h-35.6z" fill="#4C4372" /><path d="M654 381H11.8c-6.4 0-11.8-5.2-11.8-11.8s5.2-11.8 11.8-11.8H654c6.4 0 11.8 5.2 11.8 11.8s-5.4 11.8-11.8 11.8z" fill="#4C4372" /><path d="M332.8 492.6c-33.2 0-60-26.8-60-60v-126.8c0-33.2 26.8-60 60-60s60 26.8 60 60v126.8c0 33.2-26.8 60-60 60z" fill="#7BABF1" /><path d="M332.8 504.2c-39.6 0-71.8-32.2-71.8-71.8v-126.8c0-39.6 32.2-71.8 71.8-71.8s71.8 32.2 71.8 71.8v126.8c0 39.8-32.2 71.8-71.8 71.8z m0-246.6c-26.6 0-48.2 21.6-48.2 48.2v126.8c0 26.6 21.6 48.2 48.2 48.2s48.2-21.6 48.2-48.2v-126.8c0-26.6-21.6-48.2-48.2-48.2z" fill="#4C4372" /><path d="M332.8 257.6c-6.4 0-11.8-5.2-11.8-11.8V66c0-6.4 5.2-11.8 11.8-11.8s11.8 5.2 11.8 11.8v180c0 6.4-5.2 11.6-11.8 11.6z" fill="#4C4372" /><path d="M468.8 851.2H836v107H468.8z" fill="#FD919E" /><path d="M531.6 609.4h241.6v241.6H531.6z" fill="#FFFFFF" /><path d="M710.8 609.4H780v241.6h-69.2z" fill="#D3E6F8" /><path d="M710.8 851.2H836v107h-125.2z" fill="#E8677D" /><path d="M836 969.8H468.8c-6.4 0-11.8-5.2-11.8-11.8v-107c0-6.4 5.2-11.8 11.8-11.8H836c6.4 0 11.8 5.2 11.8 11.8V958c0 6.6-5.4 11.8-11.8 11.8z m-355.4-23.4h343.8v-83.6H480.6v83.6z" fill="#4C4372" /><path d="M773.2 862.8H531.6c-6.4 0-11.8-5.2-11.8-11.8V609.4c0-6.4 5.2-11.8 11.8-11.8h241.6c6.4 0 11.8 5.2 11.8 11.8v241.6c0 6.6-5.2 11.8-11.8 11.8z m-229.8-23.4h218.2V621.2H543.4v218.2z" fill="#4C4372" /><path d="M594.2 785.2c-6.4 0-11.8-5.2-11.8-11.8v-86.4c0-6.4 5.2-11.8 11.8-11.8 6.4 0 11.8 5.2 11.8 11.8v86.4c-0.2 6.6-5.4 11.8-11.8 11.8zM710.8 785.2c-6.4 0-11.8-5.2-11.8-11.8v-86.4c0-6.4 5.2-11.8 11.8-11.8 6.4 0 11.8 5.2 11.8 11.8v86.4c-0.2 6.6-5.4 11.8-11.8 11.8z" fill="#4C4372" /></svg>