<?xml version="1.0" standalone="no"?><!DOCTYPE svg PUBLIC "-//W3C//DTD SVG 1.1//EN" "http://www.w3.org/Graphics/SVG/1.1/DTD/svg11.dtd"><svg class="icon" width="200px" height="200.00px" viewBox="0 0 1024 1024" version="1.1" xmlns="http://www.w3.org/2000/svg"><path d="M512 512m-414 0a414 414 0 1 0 828 0 414 414 0 1 0-828 0Z" fill="#F0C48A" /><path d="M904.6 180.4l31.6 17.4-31.8 17-17.4 31.6-17-31.6-31.6-17.4 31.6-17.2 17.4-31.6zM160.4 611.4l31.4 17.4-31.6 17.2-17.4 31.6-17.2-31.8-31.4-17.2 31.6-17.2 17.4-31.6z" fill="#FD919E" /><path d="M356.4 351c-60.6-0.2-109.4-49.6-109.2-110 0.2-60.6 49.6-109.4 110-109.2 17.4 0 33.8 4.2 48.4 11.4 30-39.6 77.6-65.2 131.2-65 81.6 0.4 149 60.2 161.2 138.4 4-0.6 8-1 12-1 37.8 0.2 68.2 30.8 68.2 68.6-0.2 37.8-30.8 68.2-68.6 68.2l-353.2-1.4zM801.2 514.8c-30.4-0.2-54.8-24.8-54.6-55 0.2-30.4 24.8-54.8 55-54.6 8.8 0 17 2.2 24.2 5.8 15-19.8 38.8-32.6 65.6-32.4 40.8 0.2 74.6 30.2 80.6 69.2 2-0.4 4-0.6 6-0.6 18.8 0 34.2 15.4 34 34.4 0 18.8-15.4 34.2-34.4 34l-176.4-0.8zM66.4 512.2C36 512 11.6 487.4 11.8 457c0.2-30.4 24.8-54.8 55-54.6 8.8 0 17 2.2 24.2 5.8 15-19.8 38.8-32.6 65.6-32.4 40.8 0.2 74.6 30.2 80.6 69.2 2-0.4 4-0.6 6-0.6 18.8 0 34.2 15.4 34 34.4 0 18.8-15.4 34.2-34.4 34l-176.4-0.6z" fill="#FFFFFF" /><path d="M710 364h-0.2l-353.2-1.2c-32.4-0.2-62.8-12.8-85.8-35.8-22.8-23-35.4-53.6-35.2-86C235.8 174 290.2 120 356.8 120h0.4c15.6 0 30.6 3 45 8.8 33.4-39.6 81.8-62.2 134-62.2h0.6c42 0.2 82.6 15.4 114.2 42.8 28.6 24.8 48.2 58 56.4 94.6h2.6c21.4 0 41.4 8.4 56.6 23.6 15 15.2 23.4 35.4 23.2 56.8 0 43.8-35.8 79.6-79.8 79.6zM356.8 143.4c-53.8 0-97.8 43.6-98 97.6 0 26.2 10 50.8 28.4 69.4 18.4 18.6 43 28.8 69.2 29l353.2 1.2h0.2c31.2 0 56.6-25.2 56.6-56.4 0-15.2-5.8-29.4-16.4-40.2-10.6-10.8-24.8-16.6-40-16.8-3.2 0-6.6 0.2-10 0.8-3.2 0.6-6.2-0.2-8.8-2-2.6-1.8-4.2-4.6-4.8-7.8-5.6-35.4-23.4-67.8-50.6-91.4C608.4 103.2 573.2 90 536.8 90h-0.6c-48 0-92.2 22-121.2 60.2-3.4 4.4-9.6 6-14.6 3.4-13.6-6.8-28-10.2-43.2-10.2h-0.4zM978 527.2l-176.8-0.6c-17.8 0-34.4-7-47-19.6-12.6-12.6-19.4-29.4-19.4-47.2 0-17.8 7-34.4 19.6-47 12.6-12.4 29.2-19.4 47-19.4h0.2c7.2 0 14 1.2 20.8 3.4 17.8-19.4 42.4-30.2 69.2-30.2 42.8 0.2 79 28.6 90 68.8 23.8 1.8 42.6 21.8 42.4 46 0 25.4-20.6 45.8-46 45.8z m-176.8-24.2l176.8 0.6c12.4 0 22.4-10 22.4-22.4 0-12.4-10-22.6-22.4-22.6-1.4 0-2.6 0.2-4 0.4-3 0.6-6.2-0.2-8.8-2-2.6-1.8-4.2-4.6-4.8-7.8-5.4-34.2-34.4-59.2-69.2-59.4h-0.2c-22.2 0-42.6 10.2-56 27.8-3.4 4.4-9.6 6-14.6 3.4-6-3-12.4-4.4-19-4.6h-0.2c-11.4 0-22.2 4.4-30.4 12.6s-12.8 19-12.8 30.4c0 11.6 4.4 22.4 12.6 30.6 8.4 8.6 19.2 13 30.6 13zM243.2 524.4l-176.8-0.6c-17.8 0-34.4-7-47-19.6-12.6-12.6-19.4-29.4-19.4-47.2 0-17.8 7-34.4 19.6-47 12.6-12.6 29.4-19.4 47.2-19.4 7.2 0 14 1.2 20.8 3.4 17.8-19.4 42.4-30.2 69.2-30.2 42.8 0.2 79 28.6 90 68.8 23.8 1.8 42.6 21.8 42.4 46-0.2 25.4-20.8 45.8-46 45.8z m-176.8-24l176.8 0.6c12.4 0 22.4-10 22.4-22.4 0-12.4-10-22.6-22.4-22.6-1.2 0-2.6 0.2-3.8 0.4-3.2 0.6-6.2-0.2-8.8-2-2.6-1.8-4.2-4.6-4.8-7.8-5.4-34.2-34.4-59.2-69.2-59.4h-0.2c-22.2 0-42.6 10.2-56 27.8-3.4 4.4-9.6 6-14.6 3.4-6-3-12.4-4.4-19-4.6h-0.2c-11.4 0-22.2 4.4-30.4 12.6s-12.8 19-12.8 30.4c0 11.6 4.4 22.4 12.6 30.6 8 8.4 19 13 30.4 13z" fill="#4C4372" /><path d="MNaN NaNaNaN NaN NaN 1 0 NaN NaN NaN NaN NaN 1 0 NaN NaNZ" fill="#A4CFF2" /><path d="M510.6 861.8c-2 0-4-0.6-6-1.6-67.2-39.2-108.8-111.8-108.4-189.4 0.2-77.6 42.4-150 109.8-188.6 3.6-2 8.2-2 11.8 0 67.2 39.2 108.8 111.8 108.4 189.4-0.2 77.6-42.4 150-109.8 188.6-1.8 1-3.8 1.6-5.8 1.6z m-91-191c-0.2 67 34.4 129.8 91 165.6 56.8-35.4 92-97.8 92.2-164.8 0.2-67-34.4-129.8-91-165.6-56.8 35.2-91.8 97.8-92.2 164.8z" fill="#4C4372" /><path d="M510.6 861.8c-6.6 0-11.8-5.2-11.8-11.8l0.6-177.8c0-6.4 5.2-11.6 11.8-11.6 6.4 0 11.8 5.2 11.6 11.8l-0.6 177.8c0 6.4-5.2 11.6-11.6 11.6z" fill="#4C4372" /><path d="M310.668646 884.278517a178.8 103.2 45.211 1 0 146.483319-145.408381 178.8 103.2 45.211 1 0-146.483319 145.408381Z" fill="#D3E6F8" /><path d="M457.6 957.2c-57.6 0-113.8-22.8-155.2-64.4-54.6-55.2-76-136-55.8-211 1-4 4.2-7.2 8.4-8.2 75.2-19.8 156 2.2 210.6 57.2 54.6 55.2 76 136 55.8 211-1 4-4.2 7.2-8.4 8.2-18.4 4.8-37 7.2-55.4 7.2z m52.4-18.6zM267.6 694.4c-15.2 65.2 4.2 134.2 51.4 181.8 47.2 47.6 116.2 67.4 181.4 52.8 15.2-65.2-4.2-134.2-51.4-181.8-47.2-47.6-116.2-67.4-181.4-52.8z" fill="#4C4372" /><path d="M510.665433 938.529267a103.2 178.8 45.211 1 0 253.790867-251.928474 103.2 178.8 45.211 1 0-253.790867 251.928474Z" fill="#7BABF1" /><path d="M564.4 957.6c-19 0-38.2-2.4-57-7.6-4-1-7.2-4.2-8.2-8.4-19.8-75.2 2.2-156 57.2-210.6 55-54.6 136-76 211-55.8 4 1 7.2 4.2 8.2 8.4 19.8 75.2-2.2 156-57.2 210.6-41.2 41-97 63.4-154 63.4z m-44-28.6c65.2 15.2 134.2-4.2 181.8-51.4 47.6-47.2 67.4-116.2 52.8-181.4-65.2-15.2-134.2 4.2-181.8 51.4-47.8 47.2-67.6 116.2-52.8 181.4z m44.4-189.6z" fill="#4C4372" /><path d="M510.2 949.4c-4 0-7.8-2-10-5.4-34-53.4-111.8-117-112.6-117.6-5-4-5.8-11.4-1.8-16.4 4-5 11.4-5.8 16.4-1.8 3 2.4 69 56.4 107.8 109 18.6-26 62.2-81.6 120.4-124 5.2-3.8 12.6-2.6 16.4 2.6 3.8 5.2 2.6 12.6-2.6 16.4-73 53.4-123.8 131.2-124.4 132-1.8 3.2-5.6 5.2-9.6 5.2z" fill="#4C4372" /><path d="M887 258.2c-4.4 0-8.2-2.4-10.4-6.2l-15.6-28.6-28.6-15.8c-3.8-2-6-6-6-10.4 0-4.2 2.4-8.2 6.2-10.2l28.6-15.6 15.8-28.6c2-3.8 6-6 10.4-6 4.2 0 8.2 2.4 10.2 6.2l15.6 28.6 28.6 15.8c3.8 2 6 6 6 10.4 0 4.2-2.4 8.2-6.2 10.2l-28.6 15.6-15.8 28.6c-2 3.6-5.8 6-10.2 6z m-24.2-60.8l12.8 7c2 1 3.6 2.8 4.6 4.6l7 12.8 7-12.8c1-2 2.8-3.6 4.6-4.6l12.8-7-12.8-7c-2-1-3.6-2.8-4.6-4.6l-7-12.8-7 12.8c-1 2-2.8 3.6-4.6 4.6l-12.8 7z" fill="#4C4372" /><path d="M902.4 786.2l31.4 17.4-31.6 17.2-17.4 31.4-17.2-31.6-31.4-17.4 31.6-17.2 17.4-31.4z" fill="#FD919E" /><path d="M884.8 864c-4.4 0-8.2-2.4-10.4-6.2l-15.6-28.6-28.6-15.8c-3.8-2-6-6-6-10.4 0-4.2 2.4-8.2 6.2-10.2l28.6-15.6 15.8-28.6c2-3.8 6-6 10.4-6 4.2 0 8.2 2.4 10.2 6.2l15.6 28.6 28.6 15.8c3.8 2 6 6 6 10.4 0 4.2-2.4 8.2-6.2 10.2l-28.6 15.6-15.8 28.6c-2 3.6-5.8 6-10.2 6z m-24.2-60.6l12.8 7c2 1 3.6 2.8 4.6 4.6l7 12.8 7-12.8c1-2 2.8-3.6 4.6-4.6l12.8-7-12.8-7c-2-1-3.6-2.8-4.6-4.6l-7-12.8-7 12.8c-1 2-2.8 3.6-4.6 4.6l-12.8 7z" fill="#4C4372" /><path d="M142.8 689.2c-4.4 0-8.2-2.4-10.4-6.2l-15.6-28.6-28.6-15.8c-3.8-2-6-6-6-10.4 0-4.2 2.4-8.2 6.2-10.2l28.6-15.6 15.8-28.6c2-3.8 6-6 10.2-6 4.2 0 8.2 2.4 10.2 6.2l15.6 28.6 28.6 15.8c3.8 2 6 6 6 10.4 0 4.2-2.4 8.2-6.2 10.2l-28.6 15.6-15.8 28.6c-1.8 3.8-5.6 6-10 6z m-24.2-60.6l12.8 7c2 1 3.6 2.8 4.6 4.6l7 12.8 7-12.8c1-2 2.8-3.6 4.6-4.6l12.8-7-12.8-7c-2-1-3.6-2.8-4.6-4.6l-7-12.8-7 12.8c-1 2-2.8 3.6-4.6 4.6l-12.8 7z" fill="#4C4372" /></svg>