<?xml version="1.0" standalone="no"?><!DOCTYPE svg PUBLIC "-//W3C//DTD SVG 1.1//EN" "http://www.w3.org/Graphics/SVG/1.1/DTD/svg11.dtd"><svg class="icon" width="200px" height="200.00px" viewBox="0 0 1024 1024" version="1.1" xmlns="http://www.w3.org/2000/svg"><path d="M880.747155 70.920993l0.016-0.02L777.537951 11.373452l-0.008 0.008c-20.477842-13.397897-47.875631-16.053876-72.093443-2.077984L597.671339 71.460989 523.919908 28.907317l-0.032 0.085999c-24.62381-16.015876-57.05356-17.951862-84.115351-2.327982L341.181318 83.586895a238.214162 238.214162 0 0 0-111.983136 148.498854l-15.179883 60.687532-22.759825 13.131899A166.388716 166.388716 0 0 0 108.003117 450.038068v442.536586c0 27.099791 15.039884 48.981622 35.859723 60.349534l-0.016 0.024 106.623178 61.599525 0.391997 0.227998 0.239998 0.139999v-0.008c19.993846 11.359912 45.571648 12.9139 68.329473-0.219998l514.184033-296.597712a166.404716 166.404716 0 0 0 83.249358-144.138888V131.420526c0-27.21979-15.163883-49.163621-36.117722-60.499533z m0 0" fill="#DCA700" /><path d="M813.717672 71.844986l-136.03095 78.459394-21.047838-33.881738c-22.919823-36.881715-70.975452-48.929623-108.585162-27.21979l-98.58524 56.929561a238.152163 238.152163 0 0 0-111.983136 148.490854l-15.179883 60.687532-22.763824 13.133899a166.400716 166.400716 0 0 0-83.259358 144.138887v442.528586c0 52.935592 57.299558 86.029336 103.157205 59.577541l514.176033-296.599712a166.404716 166.404716 0 0 0 83.249358-144.138888V131.420526c0-52.937592-57.297558-86.031336-103.149205-59.57954z m0 0" fill="#FFD800" /></svg>