<?xml version="1.0" standalone="no"?><!DOCTYPE svg PUBLIC "-//W3C//DTD SVG 1.1//EN" "http://www.w3.org/Graphics/SVG/1.1/DTD/svg11.dtd"><svg class="icon" width="200px" height="200.00px" viewBox="0 0 1024 1024" version="1.1" xmlns="http://www.w3.org/2000/svg"><path d="M512 955.0848A443.0848 443.0848 0 1 1 955.0848 512 443.5968 443.5968 0 0 1 512 955.0848z m0-814.4896A371.4048 371.4048 0 1 0 883.4048 512 371.8144 371.8144 0 0 0 512 140.5952z" fill="#5A5E65" /><path d="M435.8144 715.6224A67.328 67.328 0 0 1 368.64 648.4992V390.8608A67.0208 67.0208 0 0 1 469.2992 332.8l223.1296 128.8192a66.9696 66.9696 0 0 1 0 116.0192L469.2992 706.56a66.56 66.56 0 0 1-33.4848 9.0624zM440.32 398.9504v241.4592l209.1008-120.7296z m216.1152 124.7744z" fill="#5A5E65" /></svg>