<?xml version="1.0" standalone="no"?><!DOCTYPE svg PUBLIC "-//W3C//DTD SVG 1.1//EN" "http://www.w3.org/Graphics/SVG/1.1/DTD/svg11.dtd"><svg class="icon" width="200px" height="200.00px" viewBox="0 0 1024 1024" version="1.1" xmlns="http://www.w3.org/2000/svg"><path d="M865.6896 235.52h-716.8a35.84 35.84 0 0 1 0-71.68h716.8a35.84 35.84 0 1 1 0 71.68zM577.9456 449.3824h-429.056a35.84 35.84 0 0 1 0-71.68h429.056a35.84 35.84 0 0 1 0 71.68zM577.9456 663.3472h-429.056a35.84 35.84 0 1 1 0-71.68h429.056a35.84 35.84 0 0 1 0 71.68zM865.6896 877.312h-716.8a35.84 35.84 0 0 1 0-71.68h716.8a35.84 35.84 0 0 1 0 71.68zM875.1104 680.2432a35.84 35.84 0 0 1-22.4256-7.8848l-154.4704-123.8528a35.84 35.84 0 0 1 0-55.9104L852.6848 368.64a35.84 35.84 0 0 1 58.2656 27.9552v247.7568a35.84 35.84 0 0 1-35.84 35.84z m-97.28-159.6928l61.44 49.152V471.3472z" fill="#5A5E65" /></svg>