<?xml version="1.0" standalone="no"?><!DOCTYPE svg PUBLIC "-//W3C//DTD SVG 1.1//EN" "http://www.w3.org/Graphics/SVG/1.1/DTD/svg11.dtd"><svg class="icon" width="200px" height="200.00px" viewBox="0 0 1024 1024" version="1.1" xmlns="http://www.w3.org/2000/svg"><path d="M890.2656 392.704a35.84 35.84 0 0 1-35.84-35.84V215.7056a53.0432 53.0432 0 0 0-52.992-52.992H660.48a35.84 35.84 0 0 1 0-71.68h141.1584a124.7744 124.7744 0 0 1 124.672 124.672V356.864a35.84 35.84 0 0 1-36.0448 35.84zM133.7344 392.704a35.84 35.84 0 0 1-35.84-35.84V215.7056a124.7744 124.7744 0 0 1 124.672-124.672H363.52a35.84 35.84 0 0 1 0 71.68H222.5664a53.0432 53.0432 0 0 0-52.992 52.992V356.864a35.84 35.84 0 0 1-35.84 35.84zM801.4336 919.2448H660.48a35.84 35.84 0 0 1 0-71.68h141.1584a53.0432 53.0432 0 0 0 52.992-52.992v-141.1584a35.84 35.84 0 0 1 71.68 0v141.1584a124.7744 124.7744 0 0 1-124.8768 124.672zM363.52 919.2448H222.5664a124.7744 124.7744 0 0 1-124.672-124.672v-141.1584a35.84 35.84 0 1 1 71.68 0v141.1584a53.0432 53.0432 0 0 0 52.992 52.992H363.52a35.84 35.84 0 0 1 0 71.68z" fill="#5A5E65" /></svg>