<?xml version="1.0" standalone="no"?><!DOCTYPE svg PUBLIC "-//W3C//DTD SVG 1.1//EN" "http://www.w3.org/Graphics/SVG/1.1/DTD/svg11.dtd"><svg class="icon" width="200px" height="200.00px" viewBox="0 0 1024 1024" version="1.1" xmlns="http://www.w3.org/2000/svg"><path d="M499.712 899.2768a35.84 35.84 0 0 1-26.6752-11.8784L198.4 581.632a86.1696 86.1696 0 0 1 0-115.456l274.6368-305.7664a35.84 35.84 0 1 1 53.2992 47.872L251.6992 514.048a14.7456 14.7456 0 0 0 0 19.6608L526.336 839.68a35.84 35.84 0 0 1-26.624 59.8016z" fill="#5A5E65" /><path d="M817.152 899.2768a35.84 35.84 0 0 1-26.6752-11.8784l-274.6368-305.7664a86.272 86.272 0 0 1 0-115.456l274.6368-305.7664a35.84 35.84 0 0 1 53.3504 47.872l-274.6368 305.7664a14.592 14.592 0 0 0 0 19.6608L843.8272 839.68a35.84 35.84 0 0 1-26.6752 59.8016z" fill="#5A5E65" /></svg>