<?xml version="1.0" standalone="no"?><!DOCTYPE svg PUBLIC "-//W3C//DTD SVG 1.1//EN" "http://www.w3.org/Graphics/SVG/1.1/DTD/svg11.dtd"><svg class="icon" width="200px" height="200.00px" viewBox="0 0 1024 1024" version="1.1" xmlns="http://www.w3.org/2000/svg"><path d="M490.0352 899.2768a35.84 35.84 0 0 1-26.624-59.5968l274.6368-305.7664a14.7456 14.7456 0 0 0 0-19.6608L463.4112 208.2816a35.84 35.84 0 0 1 53.2992-47.872l274.6368 305.7664a86.1696 86.1696 0 0 1 0 115.456l-274.6368 305.7664a35.84 35.84 0 0 1-26.6752 11.8784z" fill="#5A5E65" /><path d="M172.5952 899.2768A35.84 35.84 0 0 1 145.92 839.68l274.688-305.7664a14.7456 14.7456 0 0 0 0-19.6608L145.92 208.2816a35.84 35.84 0 0 1 53.3504-47.872l274.6368 305.7664a86.1696 86.1696 0 0 1 0 115.456l-274.6368 305.7664a35.84 35.84 0 0 1-26.6752 11.8784z" fill="#5A5E65" /></svg>