<?xml version="1.0" standalone="no"?><!DOCTYPE svg PUBLIC "-//W3C//DTD SVG 1.1//EN" "http://www.w3.org/Graphics/SVG/1.1/DTD/svg11.dtd"><svg class="icon" width="200px" height="200.00px" viewBox="0 0 1024 1024" version="1.1" xmlns="http://www.w3.org/2000/svg"><path d="M885.76 220.16H302.7456a35.84 35.84 0 1 1 0-71.68H885.76a35.84 35.84 0 0 1 0 71.68zM885.76 549.7344H302.7456a35.84 35.84 0 1 1 0-71.68H885.76a35.84 35.84 0 1 1 0 71.68zM885.76 879.4112H302.7456a35.84 35.84 0 1 1 0-71.68H885.76a35.84 35.84 0 1 1 0 71.68z" fill="#5A5E65" /><path d="M150.3232 184.1664m-42.4448 0a42.4448 42.4448 0 1 0 84.8896 0 42.4448 42.4448 0 1 0-84.8896 0Z" fill="#5A5E65" /><path d="M150.3232 513.8944m-42.4448 0a42.4448 42.4448 0 1 0 84.8896 0 42.4448 42.4448 0 1 0-84.8896 0Z" fill="#5A5E65" /><path d="M150.3232 843.5712m-42.4448 0a42.4448 42.4448 0 1 0 84.8896 0 42.4448 42.4448 0 1 0-84.8896 0Z" fill="#5A5E65" /></svg>