<?xml version="1.0" standalone="no"?><!DOCTYPE svg PUBLIC "-//W3C//DTD SVG 1.1//EN" "http://www.w3.org/Graphics/SVG/1.1/DTD/svg11.dtd"><svg class="icon" width="200px" height="200.00px" viewBox="0 0 1024 1024" version="1.1" xmlns="http://www.w3.org/2000/svg"><path d="M288.5632 457.3696a35.84 35.84 0 0 0 51.2-50.2784L249.4464 315.392H860.16a35.84 35.84 0 0 0 0-71.68H249.4464l90.2144-91.6992a35.84 35.84 0 1 0-51.2-50.2784l-132.096 134.3488a62.208 62.208 0 0 0 0 87.04zM746.1376 570.5216a35.84 35.84 0 1 0-51.2 50.2784l90.2144 91.6992H174.3872a35.84 35.84 0 0 0 0 71.68h610.8672l-90.2144 91.648a35.84 35.84 0 1 0 51.2 50.3296l132.1984-134.3488a62.208 62.208 0 0 0 0-87.04z" fill="#5A5E65" /></svg>