<?xml version="1.0" standalone="no"?><!DOCTYPE svg PUBLIC "-//W3C//DTD SVG 1.1//EN" "http://www.w3.org/Graphics/SVG/1.1/DTD/svg11.dtd"><svg class="icon" width="200px" height="200.00px" viewBox="0 0 1024 1024" version="1.1" xmlns="http://www.w3.org/2000/svg"><path d="M838.3488 127.3856H654.336a35.84 35.84 0 1 0 0 71.68h136.2944l-161.1776 155.5968a35.84 35.84 0 0 0 49.7664 51.6096l156.5696-151.1424v125.3376a35.84 35.84 0 0 0 71.68 0V196.4544a69.1712 69.1712 0 0 0-69.12-69.0688zM374.2208 127.3856H190.208a69.1712 69.1712 0 0 0-69.12 69.0688v184.0128a35.84 35.84 0 0 0 71.68 0v-128l156.3136 153.6a35.84 35.84 0 0 0 50.2272-51.2L240.64 199.0656h133.632a35.84 35.84 0 0 0 0-71.68zM871.6288 624.64a35.84 35.84 0 0 0-35.84 35.84v129.4848l-156.2112-154.9312a35.84 35.84 0 1 0-50.4832 50.8928l157.2864 156.0064H654.336a35.84 35.84 0 1 0 0 71.68h184.0128a69.2224 69.2224 0 0 0 69.12-69.12V660.48a35.84 35.84 0 0 0-35.84-35.84zM399.36 635.2384a35.84 35.84 0 0 0-50.688 0l-155.904 156.416V660.48a35.84 35.84 0 1 0-71.68 0v184.32a69.2224 69.2224 0 0 0 69.12 69.12h184.0128a35.84 35.84 0 0 0 0-71.68H243.8144L399.36 686.08a35.84 35.84 0 0 0 0-50.8416z" fill="#5A5E65" /></svg>