<?xml version="1.0" standalone="no"?><!DOCTYPE svg PUBLIC "-//W3C//DTD SVG 1.1//EN" "http://www.w3.org/Graphics/SVG/1.1/DTD/svg11.dtd"><svg class="icon" width="200px" height="200.00px" viewBox="0 0 1024 1024" version="1.1" xmlns="http://www.w3.org/2000/svg"><path d="M773.8368 896a88.7296 88.7296 0 0 1-49.0496-14.7968l-442.8288-294.144a88.7808 88.7808 0 0 1 0-147.8656l442.8288-293.9392a88.6784 88.6784 0 0 1 137.7792 73.8816v587.9808A88.7808 88.7808 0 0 1 773.8368 896z m-452.1984-368.64l442.7776 293.9904a17.0496 17.0496 0 0 0 26.4704-14.1824V219.136a17.0496 17.0496 0 0 0-26.4704-14.336L321.6384 498.944a16.9984 16.9984 0 0 0 0 28.3648z" fill="#5A5E65" /><path d="M194.56 920.3712a35.84 35.84 0 0 1-35.84-35.84V141.7216a35.84 35.84 0 0 1 71.68 0v742.8096a35.84 35.84 0 0 1-35.84 35.84z" fill="#5A5E65" /></svg>