<?xml version="1.0" standalone="no"?><!DOCTYPE svg PUBLIC "-//W3C//DTD SVG 1.1//EN" "http://www.w3.org/Graphics/SVG/1.1/DTD/svg11.dtd"><svg class="icon" width="200px" height="200.00px" viewBox="0 0 1024 1024" version="1.1" xmlns="http://www.w3.org/2000/svg"><path d="M363.52 944.128a35.84 35.84 0 0 1-35.84-35.84v-149.0432A58.0608 58.0608 0 0 0 269.824 701.44H120.7808a35.84 35.84 0 1 1 0-71.68H269.824A129.792 129.792 0 0 1 399.36 759.2448v149.0432a35.84 35.84 0 0 1-35.84 35.84zM919.6032 394.8544h-149.0944a129.792 129.792 0 0 1-129.6384-129.6384V116.1728a35.84 35.84 0 0 1 71.68 0V265.216a58.0608 58.0608 0 0 0 57.9584 57.9584h149.0944a35.84 35.84 0 0 1 0 71.68zM676.7104 944.128a35.84 35.84 0 0 1-35.84-35.84v-149.0432A129.792 129.792 0 0 1 770.5088 629.76h149.0944a35.84 35.84 0 0 1 0 71.68h-149.0944a58.0608 58.0608 0 0 0-57.9584 58.0096v148.8384a35.84 35.84 0 0 1-35.84 35.84zM269.824 394.8544H120.7808a35.84 35.84 0 1 1 0-71.68H269.824A58.0608 58.0608 0 0 0 327.68 265.216V116.1728a35.84 35.84 0 1 1 71.68 0V265.216a129.792 129.792 0 0 1-129.536 129.6384z" fill="#5A5E65" /></svg>