<?xml version="1.0" standalone="no"?><!DOCTYPE svg PUBLIC "-//W3C//DTD SVG 1.1//EN" "http://www.w3.org/Graphics/SVG/1.1/DTD/svg11.dtd"><svg class="icon" width="200px" height="200.00px" viewBox="0 0 1024 1024" version="1.1" xmlns="http://www.w3.org/2000/svg"><path d="M369.2544 116.2752a35.84 35.84 0 0 0-35.84 35.84v129.8944L184.6272 135.936a35.84 35.84 0 1 0-50.176 51.2l149.1456 146.432H151.9616a35.84 35.84 0 0 0 0 71.68h184.064a69.0688 69.0688 0 0 0 38.6048-11.8272 35.84 35.84 0 0 0 21.4528-23.2448 69.0688 69.0688 0 0 0 9.0112-34.048V152.1152a35.84 35.84 0 0 0-35.84-35.84zM894.4128 840.3456L728.6784 675.84h130.4064a35.84 35.84 0 0 0 0-71.68h-184.0128a69.1712 69.1712 0 0 0-69.0688 69.12v184.0128a35.84 35.84 0 0 0 71.68 0v-131.072l166.2464 164.9152a35.84 35.84 0 0 0 50.4832-50.8928zM335.872 604.16H151.8592a35.84 35.84 0 1 0 0 71.68h130.4064l-165.7344 164.5056a35.84 35.84 0 1 0 50.432 50.8928l166.2976-164.9152v131.072a35.84 35.84 0 0 0 71.68 0v-184.0128A69.1712 69.1712 0 0 0 335.872 604.16zM623.6672 385.0752a35.84 35.84 0 0 0 12.6464 8.3456 68.9152 68.9152 0 0 0 38.6048 11.8272h184.0128a35.84 35.84 0 0 0 0-71.68h-131.584l149.1456-146.4832a35.84 35.84 0 0 0-50.176-51.2l-148.7872 146.1248V152.1152a35.84 35.84 0 0 0-71.68 0v184.0128a68.5568 68.5568 0 0 0 9.0112 34.048 35.84 35.84 0 0 0 8.8064 14.8992z" fill="#5A5E65" /></svg>