<?xml version="1.0" standalone="no"?><!DOCTYPE svg PUBLIC "-//W3C//DTD SVG 1.1//EN" "http://www.w3.org/Graphics/SVG/1.1/DTD/svg11.dtd"><svg class="icon" width="200px" height="200.00px" viewBox="0 0 1024 1024" version="1.1" xmlns="http://www.w3.org/2000/svg"><path d="M799.232 98.7136H224.768a144.0256 144.0256 0 0 0-143.872 143.9232v374.1696a144.0256 144.0256 0 0 0 143.872 143.9232H476.16v92.8768H296.2944a35.84 35.84 0 0 0 0 71.68h431.4112a35.84 35.84 0 0 0 0-71.68H547.84v-92.8768h251.392a144.0256 144.0256 0 0 0 143.872-143.9232V242.6368a144.0256 144.0256 0 0 0-143.872-143.9232z m72.192 518.0928a72.2944 72.2944 0 0 1-72.192 72.2432H224.768a72.2944 72.2944 0 0 1-72.192-72.2432V242.6368a72.2944 72.2944 0 0 1 72.192-72.2432h574.464a72.2944 72.2944 0 0 1 72.192 72.2432z" fill="#5A5E65" /></svg>