<?xml version="1.0" standalone="no"?><!DOCTYPE svg PUBLIC "-//W3C//DTD SVG 1.1//EN" "http://www.w3.org/Graphics/SVG/1.1/DTD/svg11.dtd"><svg class="icon" width="200px" height="200.00px" viewBox="0 0 1024 1024" version="1.1" xmlns="http://www.w3.org/2000/svg"><path d="M252.0064 896a88.7808 88.7808 0 0 1-88.7296-88.7296V219.136a88.7296 88.7296 0 0 1 137.8304-73.8816l442.7776 293.9392a88.7296 88.7296 0 0 1 0 147.8656l-442.7776 293.9904a88.8832 88.8832 0 0 1-49.1008 14.9504z m0-693.8112a17.7152 17.7152 0 0 0-8.192 2.0992 16.5888 16.5888 0 0 0-9.0112 15.0016v587.8272a17.0496 17.0496 0 0 0 26.4704 14.1824L704.256 527.36a16.9984 16.9984 0 0 0 0-28.3648L261.4272 204.8a16.4352 16.4352 0 0 0-9.2672-2.7648z" fill="#5A5E65" /><path d="M831.3856 920.3712a35.84 35.84 0 0 1-35.84-35.84V141.7216a35.84 35.84 0 0 1 71.68 0v742.8096a35.84 35.84 0 0 1-35.84 35.84z" fill="#5A5E65" /></svg>