<?xml version="1.0" standalone="no"?><!DOCTYPE svg PUBLIC "-//W3C//DTD SVG 1.1//EN" "http://www.w3.org/Graphics/SVG/1.1/DTD/svg11.dtd"><svg class="icon" width="200px" height="200.00px" viewBox="0 0 1024 1024" version="1.1" xmlns="http://www.w3.org/2000/svg"><path d="M843.36 120.48h60.16v60.16h-60.16zM783.04 120.48h60.32v60.16h-60.32zM722.88 180.64h60.16v60.32h-60.16zM662.56 240.96h60.32v60.16h-60.32z" fill="#FC6054" /><path d="M662.56 120.48h60.32v60.16h-60.32z" fill="#F9BD91" /><path d="M602.4 301.12h60.16v60.32h-60.16z" fill="#FC6054" /><path d="M602.4 120.48h60.16v60.16h-60.16z" fill="#F9BD91" /><path d="M542.08 120.48h60.32v60.16h-60.32zM481.92 180.64h60.16v60.32h-60.16zM421.6 240.96h60.32v60.16h-60.32zM361.44 301.12h60.16v60.32h-60.16z" fill="#F9BD91" /><path d="M783.04 180.64v60.32h-60.16v60.16h-60.32v60.32H542.08v60.16h-60.16v60.32h-60.32v60.16h-60.16v60.32h-60.32v60.16h-60.16v60.32h-60.32v60.16H120.48V903.52H240.96v-60.16h60.16v-60.32h60.32v-60.16h60.16v-60.32h60.32v-60.16h60.16v-60.32h60.32v-60.16h60.16v-60.32h60.32v-60.16h60.16v-60.32h60.32v-60.16h60.16v-60.32h-60.16z" fill="#F04B37" /><path d="M903.52 180.64v60.32h60.32V120.48h-60.32zM843.36 240.96h60.16v60.16h-60.16zM903.52 120.48V60.16H783.04v60.32h60.32zM783.04 301.12h60.32v60.32h-60.32zM722.88 361.44h60.16v60.16h-60.16zM722.88 120.48h60.16v60.16h-60.16zM662.56 421.6h60.32v60.32h-60.32zM662.56 180.64h60.32v60.32h-60.32zM602.4 481.92h60.16v60.16h-60.16zM602.4 240.96h60.16v60.16h-60.16zM542.08 542.08h60.32v60.32h-60.32zM542.08 301.12h60.32v60.32h-60.32zM481.92 602.4h60.16v60.16h-60.16zM481.92 361.44h60.16v60.16h-60.16zM421.6 662.56h60.32v60.32h-60.32zM421.6 421.6h60.32v60.32h-60.32zM361.44 722.88h60.16v60.16h-60.16zM361.44 481.92h60.16v60.16h-60.16zM301.12 783.04h60.32v60.32h-60.32zM301.12 542.08h60.32v60.32h-60.32zM240.96 843.36h60.16v60.16h-60.16zM240.96 602.4h60.16v60.16h-60.16zM180.64 662.56h60.32v60.32h-60.32zM120.48 903.52v60.32H240.96v-60.32h-60.32zM120.48 722.88h60.16v60.16H120.48zM120.48 783.04H60.16V903.52h60.32v-60.16z" fill="#D7322D" /><path d="M843.36 361.44h-60.32v60.16h-60.16v60.32h-60.32v60.16h-60.16v60.32h-60.32v60.16h-60.16v60.32h-60.32v60.16h-60.16v60.32h-60.32v60.16H481.92v-60.16h60.16v-60.32h60.32v-60.16h60.16v-60.32h60.32v-60.16h60.16v-60.32h60.32v-60.16h60.16V301.12h-60.16zM301.12 542.08h60.32v-60.16h60.16v-60.32h60.32v-60.16h60.16v-60.32h60.32v-60.16h60.16v-60.32H542.08v60.32h-60.16v60.16h-60.32v60.32H301.12v60.16h-60.16v60.32h-60.32v60.16H120.48V722.88h60.16v-60.32h60.32v-60.16h60.16z" fill="#FF9B48" /><path d="M903.52 361.44V481.92h60.32V301.12h-60.32zM843.36 481.92h60.16v60.16h-60.16zM783.04 542.08h60.32v60.32h-60.32zM722.88 602.4h60.16v60.16h-60.16zM662.56 662.56h60.32v60.32h-60.32zM602.4 722.88h60.16v60.16h-60.16zM662.56 120.48h60.32V60.16H542.08v60.32h60.32zM542.08 783.04h60.32v60.32h-60.32zM481.92 843.36h60.16v60.16h-60.16zM481.92 120.48h60.16v60.16h-60.16zM421.6 180.64h60.32v60.32h-60.32zM361.44 903.52h-60.32v60.32H481.92v-60.32h-60.32zM361.44 240.96h60.16v60.16h-60.16zM301.12 301.12h60.32v60.32h-60.32zM240.96 361.44h60.16v60.16h-60.16zM180.64 421.6h60.32v60.32h-60.32zM120.48 481.92h60.16v60.16H120.48zM60.16 602.4V722.88h60.32V542.08H60.16z" fill="#F5871E" /></svg>