<?xml version="1.0" standalone="no"?><!DOCTYPE svg PUBLIC "-//W3C//DTD SVG 1.1//EN" "http://www.w3.org/Graphics/SVG/1.1/DTD/svg11.dtd"><svg class="icon" width="200px" height="200.00px" viewBox="0 0 1024 1024" version="1.1" xmlns="http://www.w3.org/2000/svg"><path d="M1024 542.12v301.18h-60.24v60.22H60.24v-60.22H0V542.12h60.24v-120.48h60.24v-60.22h60.22v-60.24h60.24v-60.24h60.24V180.7h120.46V120.48h180.72v60.22h120.46v60.24h60.24v60.24h60.24v60.24h60.22v60.22h60.24v120.48z"  /><path d="M963.76 602.36l-30.12 30.12 30.12 30.1v120.48L512 828.24 60.24 783.06v-120.48l30.12-30.1-30.12-30.12v-60.24h60.24v-120.48h60.22v-60.22h60.24v-60.24h60.24l120.46-60.24L512 210.82l90.36 30.12 120.46 60.24h60.24v60.24h60.24v60.22h60.22v120.48h60.24z" fill="#B2D7F3" /><path d="M722.82 662.58l30.12-30.12-30.12-30.1h-60.24v-60.24h-60.22v-60.24h-60.24L512 451.76l-30.12 30.12h-60.24v60.24h-60.22v60.24h-60.24l-30.12 30.1 30.12 30.12v120.48l-30.12 30.12 30.12 30.12h60.24l30.12-15.06 30.1 15.06h60.24l30.12-15.06 30.12 15.06h60.24l30.12-15.06 30.1 15.06h60.24l30.12-30.12-30.12-30.12z m-301.18 120.48l-30.1 15.06-30.12-15.06v-120.48l30.12-30.1 30.1 30.1z m120.48 0L512 798.12l-30.12-15.06v-120.48h60.24z m120.46 0l-30.1 15.06-30.12-15.06v-120.48l30.1-30.1 30.12 30.1z" fill="#145382" /><path d="M481.88 421.64h60.24v60.24h-60.24zM240.94 361.42h240.94v60.22H240.94zM180.7 421.64h60.24v180.72H180.7zM240.94 602.36h60.24v60.22h-60.24zM60.24 602.36h120.46v60.22H60.24z" fill="#3D99E1" /><path d="M301.18 783.06v60.24H60.24v-60.24h120.46v-120.48h60.24v120.48zM361.42 783.06h60.22v60.24h-60.22zM481.88 662.58h60.24v180.72h-60.24zM602.36 783.06h60.22v60.24h-60.22zM963.76 783.06v60.24H722.82v-60.24h60.24v-120.48h60.24v120.48z" fill="#3D99E1" /><path d="M843.3 602.36h120.46v60.22h-120.46zM722.82 602.36h60.24v60.22h-60.24zM783.06 421.64h60.24v180.72h-60.24zM542.12 361.42h240.94v60.22H542.12zM542.12 240.94l30.12-30.12-30.12-30.12h-60.24l-30.12 30.12 30.12 30.12v120.48h60.24z" fill="#3D99E1" /><path d="M421.64 542.12h180.72v60.24h-180.72zM542.12 180.7h60.24v60.24h-60.24zM602.36 240.94h120.46v60.24h-120.46zM602.36 602.36h60.22v60.22h-60.22zM421.64 180.7h60.24v60.24h-60.24zM361.42 602.36h60.22v60.22h-60.22zM301.18 240.94h120.46v60.24h-120.46z" fill="#E9F3FB" /></svg>