<?xml version="1.0" standalone="no"?><!DOCTYPE svg PUBLIC "-//W3C//DTD SVG 1.1//EN" "http://www.w3.org/Graphics/SVG/1.1/DTD/svg11.dtd"><svg class="icon" width="200px" height="200.00px" viewBox="0 0 1024 1024" version="1.1" xmlns="http://www.w3.org/2000/svg"><path d="M843.3 421.64h60.22v120.48h-60.22z"  /><path d="M843.3 542.12v60.24h60.22v180.7h-120.46v-60.24H542.12v60.24h60.24v60.24h120.46v60.22h60.24V1024H120.48v-120.48h60.22v-60.22h120.48v-60.24h60.24v-120.48h-60.24v-60.22h-60.24v-60.24H180.7v-60.24H120.48V180.7h60.22V120.48h60.24V60.24h60.24V0h301.18v60.24h60.22v60.24h60.24v60.22h60.24v301.18h-60.24v60.24z"  /><path d="M602.36 903.52l30.11 30.128-30.11 30.112H301.18l-30.118-30.112 30.118-30.128 30.12-30.11h240.94zM722.82 602.36l30.12 30.11-30.12 30.11h-120.46v-60.22zM301.18 542.12L271.062 512l30.118-30.12h301.18L632.47 512l-30.118 30.118-60.232 60.242-60.24 60.22-30.12 30.12-30.112-30.112-60.228-60.228z" fill="#B8B8BD" /><path d="M481.88 722.82v60.24h60.24v60.24L512 873.41h-120.47L361.42 843.3v-60.24h60.22v-60.24l30.12-30.12z" fill="#B8B8BD" /><path d="M662.58 180.7l30.126 30.13v120.47l-30.126 30.12-30.11 30.11H271.06l-30.12-30.11-30.116-30.126v-120.464L240.94 180.7l60.24-60.22 30.12-30.128h240.936l30.116 30.118z" fill="#FFDD55" /><path d="M663.55 421.64h60.24v60.24h-60.24zM181.67 421.64h60.24v60.24h-60.24z" fill="#F7F9FA" /><path d="M602.36 481.88h60.22v60.24h-60.22zM843.3 602.36v120.46h-60.24v-60.24h-60.24v-60.22zM180.7 903.52h120.48v60.24H180.7zM481.88 602.36h60.24v60.22h-60.24zM361.42 602.36h60.22v60.22h-60.22zM542.12 542.12h60.24v60.24h-60.24zM602.36 903.52h120.46v60.24h-120.46zM301.18 843.3h60.24l30.11 30.11-30.11 30.11h-60.24zM602.36 843.3v60.22h-60.24L512 873.41l30.12-30.11zM240.94 481.88h60.24v60.24h-60.24zM301.18 542.12h60.24v60.24h-60.24z" fill="#F7F9FA" /><path d="M692.706 331.3l-30.126 30.12-30.11 30.11-30.118-30.118 0.008-60.232h60.228zM602.36 240.94h-60.24v60.24h-60.24v-60.24h-60.24V180.7h60.24l0.002-60.23L512 90.36l30.12 30.12v60.22h60.24zM301.18 301.18h60.24v60.24l-30.12 30.11-30.124-30.118zM331.3 90.352l30.12 30.128v60.22h-60.24l-30.118-30.112L301.18 120.48z" fill="#BA8F02" /><path d="M361.42 240.94h60.22v60.24h-60.22zM481.88 180.7h60.24v60.24h-60.24zM240.94 361.42h421.64v60.22H240.94zM180.7 180.7h60.24v180.72H180.7zM240.94 120.48h60.24v60.22h-60.24zM662.58 180.7h60.24v180.72h-60.24zM602.36 120.48h60.22v60.22h-60.22zM301.18 60.24h301.18v60.24H301.18z" fill="#FFF8E1" /><path d="M421.64 662.58h60.24v60.24h-60.24zM361.42 843.3h180.7v60.22h-180.7z" fill="#696E73" /></svg>