<?xml version="1.0" standalone="no"?><!DOCTYPE svg PUBLIC "-//W3C//DTD SVG 1.1//EN" "http://www.w3.org/Graphics/SVG/1.1/DTD/svg11.dtd"><svg class="icon" width="200px" height="200.00px" viewBox="0 0 1024 1024" version="1.1" xmlns="http://www.w3.org/2000/svg"><path d="M843.3 180.7V120.48h-120.48v60.22h-60.24v60.24H361.42V180.7h-60.24v60.24H180.7v60.24H120.48v60.24h60.22v60.22h60.24v60.24h60.24v60.24h60.24v60.24h60.22v361.4h-120.46V1024h301.18v-60.24h-120.48v-361.4h60.24v-60.24h60.24v-60.24h60.22v-60.24h60.24v-60.22h120.48v-60.24h60.22V180.7zM240.94 120.48h60.24v60.22h-60.24zM180.7 60.24h60.24v60.24H180.7zM120.48 0h60.22v60.24H120.48z"  /><path d="M722.82 180.7h120.48v120.48h-120.48z" fill="#EB7199" /><path d="M301.18 421.64v60.24h60.24v60.24h60.22v60.24h60.24v-60.24h60.24v-60.24h60.24v-60.24z" fill="#FFC906" /><path d="M180.7 301.18h542.12v60.24H180.7z" fill="#E7F2FF" /><path d="M542.12 301.18h180.7v60.24h-180.7z" fill="#B5B8DC" /><path d="M542.12 421.64h60.24v60.24h-60.24zM481.88 481.88h60.24v60.24h-60.24zM421.64 542.12h60.24v60.24h-60.24z" fill="#F5851F" /><path d="M481.88 421.64h60.24v60.24h-60.24zM421.64 301.18h60.24v60.24h-60.24z" fill="#54469C" /></svg>