<?xml version="1.0" standalone="no"?><!DOCTYPE svg PUBLIC "-//W3C//DTD SVG 1.1//EN" "http://www.w3.org/Graphics/SVG/1.1/DTD/svg11.dtd"><svg class="icon" width="200px" height="200.00px" viewBox="0 0 1024 1024" version="1.1" xmlns="http://www.w3.org/2000/svg"><path d="M832.57 313.76h59.56v59.56h-59.56zM773.01 790.24h59.55v59.56h-59.55zM773.01 730.68h59.55v59.55h-59.55z" fill="#333333" /><path d="M773.01 671.12h59.55v59.56h-59.55zM773.01 611.57h59.55v59.55h-59.55zM773.01 552h59.55v59.56h-59.55zM773.01 492.45h59.55V552h-59.55zM773.01 432.88h59.55v59.56h-59.55z" fill="#333333" /><path d="M773.01 313.76h59.55v59.56h-59.55z" fill="#999999" /><path d="M773.01 254.21h59.55v59.55h-59.55zM713.45 849.8h59.56v59.56h-59.56z" fill="#333333" /><path d="M713.45 790.24h59.56v59.56h-59.56zM713.45 730.68h59.56v59.55h-59.56z" fill="#999999" /><path d="M713.45 671.12h59.56v59.56h-59.56zM713.45 611.57h59.56v59.55h-59.56zM713.45 552h59.56v59.56h-59.56zM713.45 492.45h59.56V552h-59.56z" fill="#999999" /><path d="M713.45 432.88h59.56v59.56h-59.56z" fill="#CCCCCC" /><path d="M713.45 313.76h59.56v59.56h-59.56z" fill="#999999" /><path d="M713.45 254.21h59.56v59.55h-59.56zM653.89 849.8h59.55v59.56h-59.55z" fill="#333333" /><path d="M653.89 790.24h59.55v59.56h-59.55zM653.89 730.68h59.55v59.55h-59.55z" fill="#999999" /><path d="M653.89 671.12h59.55v59.56h-59.55zM653.89 611.57h59.55v59.55h-59.55zM653.89 552h59.55v59.56h-59.55zM653.89 492.45h59.55V552h-59.55zM653.89 432.88h59.55v59.56h-59.55z" fill="#CCCCCC" /><path d="M653.89 313.76h59.55v59.56h-59.55z" fill="#999999" /><path d="M653.89 254.21h59.55v59.55h-59.55zM594.33 849.8h59.56v59.56h-59.56z" fill="#333333" /><path d="M594.33 790.24h59.56v59.56h-59.56z" fill="#999999" /><path d="M594.33 730.68h59.56v59.55h-59.56z" fill="#CCCCCC" /><path d="M594.33 671.12h59.56v59.56h-59.56z" fill="#CCCCCC" /><path d="M594.33 611.57h59.56v59.55h-59.56zM594.33 552h59.56v59.56h-59.56zM594.33 492.45h59.56V552h-59.56z" fill="#333333" /><path d="M594.33 432.88h59.56v59.56h-59.56zM594.33 313.76h59.56v59.56h-59.56z" fill="#CCCCCC" /><path d="M594.33 254.21h59.56v59.55h-59.56zM594.33 194.64h59.56v59.56h-59.56zM534.77 849.8h59.55v59.56h-59.55z" fill="#333333" /><path d="M534.77 790.24h59.55v59.56h-59.55z" fill="#999999" /><path d="M534.77 730.68h59.55v59.55h-59.55z" fill="#CCCCCC" /><path d="M534.77 671.12h59.55v59.56h-59.55zM534.77 611.57h59.55v59.55h-59.55zM534.77 552h59.55v59.56h-59.55zM534.77 492.45h59.55V552h-59.55zM534.77 432.88h59.55v59.56h-59.55zM534.77 313.76h59.55v59.56h-59.55z" fill="#CCCCCC" /><path d="M534.77 254.21h59.55v59.55h-59.55zM534.77 194.64h59.55v59.56h-59.55zM534.77 135.09h59.55v59.55h-59.55zM475.21 849.8h59.56v59.56h-59.56z" fill="#333333" /><path d="M475.21 790.24h59.56v59.56h-59.56z" fill="#999999" /><path d="M475.21 730.68h59.56v59.55h-59.56z" fill="#CCCCCC" /><path d="M475.21 671.12h59.56v59.56h-59.56zM475.21 611.57h59.56v59.55h-59.56zM475.21 552h59.56v59.56h-59.56zM475.21 492.45h59.56V552h-59.56zM475.21 432.88h59.56v59.56h-59.56zM475.21 313.76h59.56v59.56h-59.56z" fill="#CCCCCC" /><path d="M475.21 254.21h59.56v59.55h-59.56z" fill="#333333" /><path d="M475.21 194.64h59.56v59.56h-59.56z" fill="#CCCCCC" /><path d="M475.21 135.09h59.56v59.55h-59.56zM415.65 849.8h59.55v59.56h-59.55z" fill="#333333" /><path d="M415.65 790.24h59.55v59.56h-59.55z" fill="#999999" /><path d="M415.65 730.68h59.55v59.55h-59.55z" fill="#CCCCCC" /><path d="M415.65 671.12h59.55v59.56h-59.55zM415.65 611.57h59.55v59.55h-59.55zM415.65 552h59.55v59.56h-59.55zM415.65 492.45h59.55V552h-59.55zM415.65 432.88h59.55v59.56h-59.55zM415.65 313.76h59.55v59.56h-59.55z" fill="#CCCCCC" /><path d="M415.65 254.21h59.55v59.55h-59.55z" fill="#333333" /><path d="M415.65 194.64h59.55v59.56h-59.55z" fill="#CCCCCC" /><path d="M415.65 135.09h59.55v59.55h-59.55zM356.09 849.8h59.56v59.56h-59.56z" fill="#333333" /><path d="M356.09 790.24h59.56v59.56h-59.56z" fill="#E5E5E5" /><path d="M356.09 730.68h59.56v59.55h-59.56z" fill="#CCCCCC" /><path d="M356.09 671.12h59.56v59.56h-59.56z" fill="#CCCCCC" /><path d="M356.09 611.57h59.56v59.55h-59.56zM356.09 552h59.56v59.56h-59.56zM356.09 492.45h59.56V552h-59.56z" fill="#333333" /><path d="M356.09 432.88h59.56v59.56h-59.56zM356.09 313.76h59.56v59.56h-59.56z" fill="#CCCCCC" /><path d="M356.09 254.21h59.56v59.55h-59.56zM356.09 194.64h59.56v59.56h-59.56zM296.54 849.8h59.55v59.56h-59.55z" fill="#333333" /><path d="M296.54 790.24h59.55v59.56h-59.55zM296.54 730.68h59.55v59.55h-59.55z" fill="#E5E5E5" /><path d="M296.54 671.12h59.55v59.56h-59.55zM296.54 611.57h59.55v59.55h-59.55zM296.54 552h59.55v59.56h-59.55zM296.54 492.45h59.55V552h-59.55zM296.54 432.88h59.55v59.56h-59.55zM296.54 313.76h59.55v59.56h-59.55z" fill="#CCCCCC" /><path d="M296.54 254.21h59.55v59.55h-59.55zM236.97 849.8h59.56v59.56h-59.56z" fill="#333333" /><path d="M236.97 790.24h59.56v59.56h-59.56zM236.97 730.68h59.56v59.55h-59.56z" fill="#E5E5E5" /><path d="M236.97 671.12h59.56v59.56h-59.56zM236.97 611.57h59.56v59.55h-59.56zM236.97 552h59.56v59.56h-59.56zM236.97 492.45h59.56V552h-59.56zM236.97 432.88h59.56v59.56h-59.56zM236.97 313.76h59.56v59.56h-59.56z" fill="#E5E5E5" /><path d="M236.97 254.21h59.56v59.55h-59.56zM177.41 790.24h59.56v59.56h-59.56zM177.41 730.68h59.56v59.55h-59.56z" fill="#333333" /><path d="M177.41 671.12h59.56v59.56h-59.56zM177.41 611.57h59.56v59.55h-59.56zM177.41 552h59.56v59.56h-59.56zM177.41 492.45h59.56V552h-59.56zM177.41 432.88h59.56v59.56h-59.56z" fill="#333333" /><path d="M177.41 313.76h59.56v59.56h-59.56z" fill="#E5E5E5" /><path d="M177.41 254.21h59.56v59.55h-59.56zM117.85 313.76h59.55v59.56h-59.55z" fill="#333333" /></svg>