<?xml version="1.0" standalone="no"?><!DOCTYPE svg PUBLIC "-//W3C//DTD SVG 1.1//EN" "http://www.w3.org/Graphics/SVG/1.1/DTD/svg11.dtd"><svg class="icon" width="200px" height="200.00px" viewBox="0 0 1024 1024" version="1.1" xmlns="http://www.w3.org/2000/svg"><path d="M896 512h64v64h-64zM896 384h64v64h-64zM832 704h64v64h-64zM832 576h64v64h-64z" fill="#333333" /><path d="M832 512h64v64h-64z" fill="#A6E4F7" /><path d="M832 448h64v64h-64z" fill="#333333" /><path d="M832 384h64v64h-64z" fill="#A6E4F7" /><path d="M832 320h64v64h-64zM832 256h64v64h-64zM768 768h64v64h-64z" fill="#333333" /><path d="M768 704h64v64h-64z" fill="#A6E4F7" /><path d="M768 640h64v64h-64zM768 512h64v64h-64z" fill="#333333" /><path d="M768 448h64v64h-64z" fill="#73C5E5" /><path d="M768 384h64v64h-64zM768 320h64v64h-64z" fill="#333333" /><path d="M768 256h64v64h-64z" fill="#A6E4F7" /><path d="M768 192h64v64h-64zM704 832h64v64h-64z" fill="#333333" /><path d="M704 768h64v64h-64z" fill="#A6E4F7" /><path d="M704 704h64v64h-64z" fill="#73C5E5" /><path d="M704 640h64v64h-64zM704 512h64v64h-64z" fill="#333333" /><path d="M704 448h64v64h-64z" fill="#469FCC" /><path d="M704 384h64v64h-64zM704 320h64v64h-64z" fill="#333333" /><path d="M704 256h64v64h-64z" fill="#73C5E5" /><path d="M704 192h64v64h-64z" fill="#A6E4F7" /><path d="M704 128h64v64h-64zM640 832h64v64h-64zM640 768h64v64h-64zM640 704h64v64h-64z" fill="#333333" /><path d="M640 640h64v64h-64z" fill="#469FCC" /><path d="M640 576h64v64h-64z" fill="#333333" /><path d="M640 512h64v64h-64zM640 448h64v64h-64z" fill="#469FCC" /><path d="M640 384h64v64h-64z" fill="#333333" /><path d="M640 320h64v64h-64z" fill="#469FCC" /><path d="M640 256h64v64h-64zM640 192h64v64h-64zM576 896h64v64h-64z" fill="#333333" /><path d="M576 832h64v64h-64z" fill="#A6E4F7" /><path d="M576 768h64v64h-64zM576 704h64v64h-64zM576 640h64v64h-64z" fill="#333333" /><path d="M576 576h64v64h-64zM576 384h64v64h-64z" fill="#469FCC" /><path d="M576 320h64v64h-64zM576 128h64v64h-64zM512 832h64v64h-64z" fill="#333333" /><path d="M512 768h64v64h-64z" fill="#73C5E5" /><path d="M512 704h64v64h-64zM512 640h64v64h-64zM512 512h64v64h-64zM512 448h64v64h-64zM512 320h64v64h-64z" fill="#469FCC" /><path d="M512 256h64v64h-64zM512 192h64v64h-64z" fill="#333333" /><path d="M512 128h64v64h-64z" fill="#A6E4F7" /><path d="M512 64h64v64h-64zM448 896h64v64h-64z" fill="#333333" /><path d="M448 832h64v64h-64z" fill="#A6E4F7" /><path d="M448 768h64v64h-64zM448 704h64v64h-64z" fill="#333333" /><path d="M448 640h64v64h-64zM448 512h64v64h-64zM448 448h64v64h-64zM448 320h64v64h-64zM448 256h64v64h-64z" fill="#469FCC" /><path d="M448 192h64v64h-64z" fill="#73C5E5" /><path d="M448 128h64v64h-64zM384 832h64v64h-64zM384 640h64v64h-64z" fill="#333333" /><path d="M384 576h64v64h-64zM384 384h64v64h-64z" fill="#469FCC" /><path d="M384 320h64v64h-64zM384 256h64v64h-64zM384 192h64v64h-64z" fill="#333333" /><path d="M384 128h64v64h-64z" fill="#A6E4F7" /><path d="M384 64h64v64h-64zM320 768h64v64h-64zM320 704h64v64h-64z" fill="#333333" /><path d="M320 640h64v64h-64z" fill="#469FCC" /><path d="M320 576h64v64h-64z" fill="#333333" /><path d="M320 512h64v64h-64zM320 448h64v64h-64z" fill="#469FCC" /><path d="M320 384h64v64h-64z" fill="#333333" /><path d="M320 320h64v64h-64z" fill="#469FCC" /><path d="M320 256h64v64h-64zM320 192h64v64h-64zM320 128h64v64h-64zM256 832h64v64h-64z" fill="#333333" /><path d="M256 768h64v64h-64z" fill="#A6E4F7" /><path d="M256 704h64v64h-64z" fill="#73C5E5" /><path d="M256 640h64v64h-64zM256 576h64v64h-64z" fill="#333333" /><path d="M256 512h64v64h-64z" fill="#469FCC" /><path d="M256 448h64v64h-64zM256 320h64v64h-64z" fill="#333333" /><path d="M256 256h64v64h-64z" fill="#73C5E5" /><path d="M256 192h64v64h-64z" fill="#A6E4F7" /><path d="M256 128h64v64h-64zM192 768h64v64h-64z" fill="#333333" /><path d="M192 704h64v64h-64z" fill="#A6E4F7" /><path d="M192 640h64v64h-64zM192 576h64v64h-64z" fill="#333333" /><path d="M192 512h64v64h-64z" fill="#73C5E5" /><path d="M192 448h64v64h-64zM192 320h64v64h-64z" fill="#333333" /><path d="M192 256h64v64h-64z" fill="#A6E4F7" /><path d="M192 192h64v64h-64zM128 704h64v64h-64zM128 640h64v64h-64z" fill="#333333" /><path d="M128 576h64v64h-64z" fill="#A6E4F7" /><path d="M128 512h64v64h-64z" fill="#333333" /><path d="M128 448h64v64h-64z" fill="#A6E4F7" /><path d="M128 384h64v64h-64zM128 256h64v64h-64zM64 576h64v64H64zM64 448h64v64H64z" fill="#333333" /></svg>