<?xml version="1.0" standalone="no"?><!DOCTYPE svg PUBLIC "-//W3C//DTD SVG 1.1//EN" "http://www.w3.org/Graphics/SVG/1.1/DTD/svg11.dtd"><svg class="icon" width="200px" height="200.00px" viewBox="0 0 1024 1024" version="1.1" xmlns="http://www.w3.org/2000/svg"><path d="M896 576h64v64h-64zM896 512h64v64h-64zM896 448h64v64h-64zM832 704h64v64h-64zM832 640h64v64h-64zM832 576h64v64h-64z" fill="#333333" /><path d="M832 512h64v64h-64zM832 448h64v64h-64z" fill="#F42525" /><path d="M832 384h64v64h-64zM832 320h64v64h-64zM768 768h64v64h-64z" fill="#333333" /><path d="M768 704h64v64h-64zM768 640h64v64h-64zM768 576h64v64h-64z" fill="#F42525" /><path d="M768 512h64v64h-64z" fill="#FF4D4D" /><path d="M768 448h64v64h-64zM768 384h64v64h-64zM768 320h64v64h-64z" fill="#F42525" /><path d="M768 256h64v64h-64z" fill="#333333" /><path d="M704 832h64v64h-64z" fill="#FFFFFF" /><path d="M704 768h64v64h-64z" fill="#333333" /><path d="M704 704h64v64h-64z" fill="#F42525" /><path d="M704 640h64v64h-64zM704 576h64v64h-64zM704 512h64v64h-64zM704 448h64v64h-64zM704 384h64v64h-64z" fill="#FF4D4D" /><path d="M704 320h64v64h-64z" fill="#F42525" /><path d="M704 256h64v64h-64zM640 832h64v64h-64zM640 768h64v64h-64z" fill="#333333" /><path d="M640 704h64v64h-64z" fill="#F42525" /><path d="M640 640h64v64h-64zM640 576h64v64h-64z" fill="#FF4D4D" /><path d="M640 512h64v64h-64zM640 448h64v64h-64z" fill="#333333" /><path d="M640 384h64v64h-64zM640 320h64v64h-64z" fill="#FF4D4D" /><path d="M640 256h64v64h-64z" fill="#ED981D" /><path d="M640 192h64v64h-64z" fill="#333333" /><path d="M576 896h64v64h-64zM576 832h64v64h-64z" fill="#ED981D" /><path d="M576 768h64v64h-64zM576 704h64v64h-64z" fill="#F42525" /><path d="M576 640h64v64h-64zM576 576h64v64h-64zM576 512h64v64h-64zM576 448h64v64h-64zM576 384h64v64h-64zM576 320h64v64h-64z" fill="#FF4D4D" /><path d="M576 256h64v64h-64z" fill="#333333" /><path d="M576 192h64v64h-64z" fill="#ED981D" /><path d="M576 128h64v64h-64z" fill="#333333" /><path d="M512 896h64v64h-64zM512 832h64v64h-64z" fill="#FFCD50" /><path d="M512 768h64v64h-64zM512 704h64v64h-64zM512 640h64v64h-64zM512 576h64v64h-64zM512 512h64v64h-64zM512 448h64v64h-64zM512 384h64v64h-64zM512 320h64v64h-64z" fill="#FF4D4D" /><path d="M512 256h64v64h-64z" fill="#333333" /><path d="M512 192h64v64h-64z" fill="#ED981D" /><path d="M512 128h64v64h-64z" fill="#333333" /><path d="M512 64h64v64h-64z" fill="#ED981D" /><path d="M448 896h64v64h-64zM448 832h64v64h-64z" fill="#FFCD50" /><path d="M448 768h64v64h-64zM448 704h64v64h-64zM448 640h64v64h-64zM448 576h64v64h-64zM448 512h64v64h-64zM448 448h64v64h-64zM448 384h64v64h-64zM448 320h64v64h-64z" fill="#FF4D4D" /><path d="M448 256h64v64h-64z" fill="#333333" /><path d="M448 192h64v64h-64z" fill="#FFCD50" /><path d="M448 128h64v64h-64z" fill="#333333" /><path d="M448 64h64v64h-64z" fill="#FFCD50" /><path d="M384 896h64v64h-64zM384 832h64v64h-64z" fill="#FFCD8A" /><path d="M384 768h64v64h-64zM384 704h64v64h-64z" fill="#FF9494" /><path d="M384 640h64v64h-64zM384 576h64v64h-64z" fill="#FF4D4D" /><path d="M384 512h64v64h-64zM384 448h64v64h-64z" fill="#333333" /><path d="M384 384h64v64h-64zM384 320h64v64h-64z" fill="#FF4D4D" /><path d="M384 256h64v64h-64z" fill="#333333" /><path d="M384 192h64v64h-64z" fill="#FFCD50" /><path d="M384 128h64v64h-64zM320 832h64v64h-64zM320 768h64v64h-64z" fill="#333333" /><path d="M320 704h64v64h-64z" fill="#FF9494" /><path d="M320 640h64v64h-64zM320 576h64v64h-64zM320 512h64v64h-64zM320 448h64v64h-64zM320 384h64v64h-64zM320 320h64v64h-64z" fill="#FF4D4D" /><path d="M320 256h64v64h-64z" fill="#FFCD8A" /><path d="M320 192h64v64h-64z" fill="#333333" /><path d="M256 832h64v64h-64z" fill="#FFFFFF" /><path d="M256 768h64v64h-64z" fill="#333333" /><path d="M256 704h64v64h-64z" fill="#FF9494" /><path d="M256 640h64v64h-64zM256 576h64v64h-64zM256 512h64v64h-64zM256 448h64v64h-64zM256 384h64v64h-64z" fill="#FF4D4D" /><path d="M256 320h64v64h-64z" fill="#FF9494" /><path d="M256 256h64v64h-64zM192 768h64v64h-64z" fill="#333333" /><path d="M192 704h64v64h-64zM192 640h64v64h-64z" fill="#FF9494" /><path d="M192 576h64v64h-64zM192 512h64v64h-64zM192 448h64v64h-64z" fill="#FF4D4D" /><path d="M192 384h64v64h-64zM192 320h64v64h-64z" fill="#FF9494" /><path d="M192 256h64v64h-64zM128 704h64v64h-64zM128 640h64v64h-64z" fill="#333333" /><path d="M128 576h64v64h-64zM128 512h64v64h-64zM128 448h64v64h-64z" fill="#FF9494" /><path d="M128 384h64v64h-64zM128 320h64v64h-64zM64 576h64v64H64zM64 512h64v64H64zM64 448h64v64H64z" fill="#333333" /></svg>