<?xml version="1.0" standalone="no"?><!DOCTYPE svg PUBLIC "-//W3C//DTD SVG 1.1//EN" "http://www.w3.org/Graphics/SVG/1.1/DTD/svg11.dtd"><svg class="icon" width="200px" height="200.00px" viewBox="0 0 1024 1024" version="1.1" xmlns="http://www.w3.org/2000/svg"><path d="M837.17 307.38h59.15v59.14h-59.15zM837.17 248.23h59.15v59.15h-59.15zM778.03 307.38h59.14v59.14h-59.14z" fill="#333333" /><path d="M778.03 248.23h59.14v59.15h-59.14z" fill="#15BA83" /><path d="M778.03 189.07h59.14v59.15h-59.14zM718.87 484.82h59.15v59.15h-59.15zM718.87 425.67h59.15v59.14h-59.15zM718.87 366.52h59.15v59.15h-59.15z" fill="#333333" /><path d="M718.87 307.38h59.15v59.14h-59.15z" fill="#15BA83" /><path d="M718.87 248.23h59.15v59.15h-59.15zM718.87 189.07h59.15v59.15h-59.15z" fill="#24D38C" /><path d="M718.87 129.93h59.15v59.14h-59.15zM659.73 543.97h59.14v59.14h-59.14z" fill="#333333" /><path d="M659.73 484.82h59.14v59.15h-59.14z" fill="#15BA83" /><path d="M659.73 425.67h59.14v59.14h-59.14zM659.73 366.52h59.14v59.15h-59.14z" fill="#5B2089" /><path d="M659.73 307.38h59.14v59.14h-59.14z" fill="#333333" /><path d="M659.73 248.23h59.14v59.15h-59.14z" fill="#24D38C" /><path d="M659.73 189.07h59.14v59.15h-59.14z" fill="#5DE2B2" /><path d="M659.73 129.93h59.14v59.14h-59.14zM600.58 603.11h59.15v59.15h-59.15z" fill="#333333" /><path d="M600.58 543.97h59.15v59.14h-59.15zM600.58 484.82h59.15v59.15h-59.15z" fill="#5B2089" /><path d="M600.58 425.67h59.15v59.14h-59.15z" fill="#15BA83" /><path d="M600.58 366.52h59.15v59.15h-59.15z" fill="#7E3AA5" /><path d="M600.58 307.38h59.15v59.14h-59.15z" fill="#B06EDB" /><path d="M600.58 248.23h59.15v59.15h-59.15zM600.58 189.07h59.15v59.15h-59.15zM600.58 129.93h59.15v59.14h-59.15zM541.44 662.26h59.14v59.14h-59.14z" fill="#333333" /><path d="M541.44 603.11h59.14v59.15h-59.14zM541.44 543.97h59.14v59.14h-59.14z" fill="#5B2089" /><path d="M541.44 484.82h59.14v59.15h-59.14zM541.44 425.67h59.14v59.14h-59.14z" fill="#7E3AA5" /><path d="M541.44 366.52h59.14v59.15h-59.14z" fill="#24D38C" /><path d="M541.44 307.38h59.14v59.14h-59.14z" fill="#B06EDB" /><path d="M541.44 248.23h59.14v59.15h-59.14zM482.28 721.41h59.15v59.15h-59.15z" fill="#333333" /><path d="M482.28 662.26h59.15v59.14h-59.15z" fill="#15BA83" /><path d="M482.28 603.11h59.15v59.15h-59.15z" fill="#5B2089" /><path d="M482.28 543.97h59.15v59.14h-59.15zM482.28 484.82h59.15v59.15h-59.15zM482.28 425.67h59.15v59.14h-59.15zM482.28 366.52h59.15v59.15h-59.15z" fill="#7E3AA5" /><path d="M482.28 307.38h59.15v59.14h-59.15z" fill="#5DE2B2" /><path d="M482.28 248.23h59.15v59.15h-59.15zM423.14 721.41h59.14v59.15h-59.14z" fill="#333333" /><path d="M423.14 662.26h59.14v59.14h-59.14z" fill="#5B2089" /><path d="M423.14 603.11h59.14v59.15h-59.14z" fill="#24D38C" /><path d="M423.14 543.97h59.14v59.14h-59.14zM423.14 484.82h59.14v59.15h-59.14zM423.14 425.67h59.14v59.14h-59.14z" fill="#7E3AA5" /><path d="M423.14 366.52h59.14v59.15h-59.14z" fill="#B06EDB" /><path d="M423.14 307.38h59.14v59.14h-59.14zM363.99 721.41h59.15v59.15h-59.15z" fill="#333333" /><path d="M363.99 662.26h59.15v59.14h-59.15z" fill="#5B2089" /><path d="M363.99 603.11h59.15v59.15h-59.15z" fill="#7E3AA5" /><path d="M363.99 543.97h59.15v59.14h-59.15z" fill="#24D38C" /><path d="M363.99 484.82h59.15v59.15h-59.15z" fill="#7E3AA5" /><path d="M363.99 425.67h59.15v59.14h-59.15z" fill="#B06EDB" /><path d="M363.99 366.52h59.15v59.15h-59.15zM304.84 839.7h59.14v59.15h-59.14zM304.84 780.56h59.14v59.14h-59.14z" fill="#333333" /><path d="M304.84 721.41h59.14v59.15h-59.14z" fill="#15BA83" /><path d="M304.84 662.26h59.14v59.14h-59.14z" fill="#333333" /><path d="M304.84 603.11h59.14v59.15h-59.14zM304.84 543.97h59.14v59.14h-59.14z" fill="#B06EDB" /><path d="M304.84 484.82h59.14v59.15h-59.14z" fill="#5DE2B2" /><path d="M304.84 425.67h59.14v59.14h-59.14zM245.69 839.7h59.15v59.15h-59.15z" fill="#333333" /><path d="M245.69 780.56h59.15v59.14h-59.15z" fill="#15BA83" /><path d="M245.69 721.41h59.15v59.15h-59.15z" fill="#24D38C" /><path d="M245.69 662.26h59.15v59.14h-59.15z" fill="#5DE2B2" /><path d="M245.69 603.11h59.15v59.15h-59.15zM245.69 543.97h59.15v59.14h-59.15zM245.69 484.82h59.15v59.15h-59.15zM186.55 780.56h59.14v59.14h-59.14z" fill="#333333" /><path d="M186.55 721.41h59.14v59.15h-59.14z" fill="#24D38C" /><path d="M186.55 662.26h59.14v59.14h-59.14zM127.4 721.41h59.15v59.15H127.4zM127.4 662.26h59.15v59.14H127.4z" fill="#333333" /></svg>