<?xml version="1.0" standalone="no"?><!DOCTYPE svg PUBLIC "-//W3C//DTD SVG 1.1//EN" "http://www.w3.org/Graphics/SVG/1.1/DTD/svg11.dtd"><svg class="icon" width="200px" height="200.00px" viewBox="0 0 1024 1024" version="1.1" xmlns="http://www.w3.org/2000/svg"><path d="M448 576h64v64h-64z" fill="#19C3CC" /><path d="M576 512h64v64h-64z" fill="#EFEFEF" /><path d="M448 512h64v64h-64zM576 576h64v64h-64zM512 576h64v64h-64zM512 512h64v64h-64zM384 576h64v64h-64zM384 512h64v64h-64z" fill="#19C3CC" /><path d="M576 384h64v64h-64zM576 448h64v64h-64z" fill="#EFEFEF" /><path d="M448 448h64v64h-64z" fill="#19C3CC" /><path d="M640 448h64v64h-64zM512 448h64v64h-64z" fill="#EFEFEF" /><path d="M320 448h64v64h-64zM384 448h64v64h-64zM512 384h64v64h-64zM448 384h64v64h-64zM320 384h64v64h-64zM384 384h64v64h-64z" fill="#19C3CC" /><path d="M256 384h64v64h-64zM256 448h64v64h-64zM256 512h64v64h-64z" fill="#76E5E2" /><path d="M320 512h64v64h-64z" fill="#19C3CC" /><path d="M320 576h64v64h-64z" fill="#76E5E2" /><path d="M448 640h64v64h-64zM512 640h64v64h-64zM640 512h64v64h-64z" fill="#19C3CC" /><path d="M640 576h64v64h-64z" fill="#00ADAD" /><path d="M896 576h64v64h-64zM896 512h64v64h-64zM896 448h64v64h-64zM896 384h64v64h-64zM832 640h64v64h-64zM832 320h64v64h-64zM768 640h64v64h-64zM768 512h64v64h-64zM768 448h64v64h-64zM768 384h64v64h-64zM704 640h64v64h-64zM704 576h64v64h-64z" fill="#333333" /><path d="M704 512h64v64h-64zM704 448h64v64h-64zM704 384h64v64h-64z" fill="#00ADAD" /><path d="M704 320h64v64h-64zM640 704h64v64h-64z" fill="#333333" /><path d="M640 640h64v64h-64zM640 384h64v64h-64z" fill="#00ADAD" /><path d="M640 320h64v64h-64zM576 704h64v64h-64z" fill="#333333" /><path d="M576 640h64v64h-64zM576 320h64v64h-64z" fill="#00ADAD" /><path d="M576 256h64v64h-64zM512 768h64v64h-64z" fill="#333333" /><path d="M512 704h64v64h-64z" fill="#00ADAD" /><path d="M512 320h64v64h-64z" fill="#19C3CC" /><path d="M512 256h64v64h-64zM448 768h64v64h-64z" fill="#333333" /><path d="M448 704h64v64h-64z" fill="#76E5E2" /><path d="M448 320h64v64h-64z" fill="#19C3CC" /><path d="M448 256h64v64h-64zM384 704h64v64h-64z" fill="#333333" /><path d="M384 640h64v64h-64zM384 320h64v64h-64z" fill="#76E5E2" /><path d="M384 256h64v64h-64zM320 704h64v64h-64z" fill="#333333" /><path d="M320 640h64v64h-64z" fill="#76E5E2" /><path d="M320 320h64v64h-64zM256 640h64v64h-64zM256 576h64v64h-64zM256 320h64v64h-64zM192 640h64v64h-64zM192 512h64v64h-64zM192 448h64v64h-64zM192 384h64v64h-64zM128 640h64v64h-64zM128 320h64v64h-64zM64 576h64v64H64zM64 512h64v64H64zM64 448h64v64H64zM64 384h64v64H64z" fill="#333333" /></svg>