<?xml version="1.0" standalone="no"?><!DOCTYPE svg PUBLIC "-//W3C//DTD SVG 1.1//EN" "http://www.w3.org/Graphics/SVG/1.1/DTD/svg11.dtd"><svg class="icon" width="200px" height="200.00px" viewBox="0 0 1024 1024" version="1.1" xmlns="http://www.w3.org/2000/svg"><path d="M704 640h64v64h-64zM704 576h64v64h-64zM704 512h64v64h-64zM704 448h64v64h-64zM704 256h64v64h-64zM640 768h64v64h-64zM640 704h64v64h-64zM640 640h64v64h-64z" fill="#333333" /><path d="M640 576h64v64h-64zM640 512h64v64h-64z" fill="#C98F5F" /><path d="M640 448h64v64h-64zM640 384h64v64h-64zM640 320h64v64h-64zM640 256h64v64h-64zM576 832h64v64h-64z" fill="#333333" /><path d="M576 768h64v64h-64zM576 704h64v64h-64z" fill="#914C13" /><path d="M576 640h64v64h-64z" fill="#333333" /><path d="M576 576h64v64h-64zM576 512h64v64h-64z" fill="#C98F5F" /><path d="M576 448h64v64h-64z" fill="#333333" /><path d="M576 384h64v64h-64zM576 320h64v64h-64z" fill="#914C13" /><path d="M576 256h64v64h-64z" fill="#333333" /><path d="M576 64h64v64h-64z" fill="#1D962E" /><path d="M512 832h64v64h-64z" fill="#333333" /><path d="M512 768h64v64h-64z" fill="#914C13" /><path d="M512 704h64v64h-64z" fill="#B57A40" /><path d="M512 640h64v64h-64z" fill="#333333" /><path d="M512 576h64v64h-64zM512 512h64v64h-64z" fill="#D1A175" /><path d="M512 448h64v64h-64z" fill="#333333" /><path d="M512 384h64v64h-64zM512 320h64v64h-64z" fill="#B57A40" /><path d="M512 256h64v64h-64z" fill="#333333" /><path d="M512 64h64v64h-64z" fill="#1D962E" /><path d="M448 832h64v64h-64z" fill="#333333" /><path d="M448 768h64v64h-64z" fill="#F4CFB0" /><path d="M448 704h64v64h-64z" fill="#B57A40" /><path d="M448 640h64v64h-64z" fill="#333333" /><path d="M448 576h64v64h-64zM448 512h64v64h-64z" fill="#D1A175" /><path d="M448 448h64v64h-64z" fill="#333333" /><path d="M448 384h64v64h-64zM448 320h64v64h-64z" fill="#B57A40" /><path d="M448 256h64v64h-64z" fill="#333333" /><path d="M448 192h64v64h-64zM448 128h64v64h-64zM448 64h64v64h-64z" fill="#1D962E" /><path d="M384 832h64v64h-64z" fill="#333333" /><path d="M384 768h64v64h-64zM384 704h64v64h-64z" fill="#F4CFB0" /><path d="M384 640h64v64h-64z" fill="#333333" /><path d="M384 576h64v64h-64zM384 512h64v64h-64z" fill="#D1A175" /><path d="M384 448h64v64h-64z" fill="#333333" /><path d="M384 384h64v64h-64zM384 320h64v64h-64z" fill="#F4CFB0" /><path d="M384 256h64v64h-64zM320 768h64v64h-64zM320 704h64v64h-64zM320 640h64v64h-64z" fill="#333333" /><path d="M320 576h64v64h-64zM320 512h64v64h-64z" fill="#DDB79B" /><path d="M320 448h64v64h-64zM320 384h64v64h-64zM320 320h64v64h-64zM320 256h64v64h-64zM256 640h64v64h-64zM256 576h64v64h-64zM256 512h64v64h-64zM256 448h64v64h-64zM256 256h64v64h-64z" fill="#333333" /></svg>