<?xml version="1.0" standalone="no"?><!DOCTYPE svg PUBLIC "-//W3C//DTD SVG 1.1//EN" "http://www.w3.org/Graphics/SVG/1.1/DTD/svg11.dtd"><svg class="icon" width="200px" height="189.98px" viewBox="0 0 1078 1024" version="1.1" xmlns="http://www.w3.org/2000/svg"><path d="M377.258165 0h53.894023v53.894024h-53.894023z" fill="#3A2802" /><path d="M269.470118 916.211953h53.894023v53.894023h-53.894023zM323.364141 862.314918h53.894024v53.894023h-53.894024z" fill="#C4C4C4" /><path d="M377.258165 808.420894h53.894023v53.894024h-53.894023zM377.258165 754.526871h53.894023v53.894023h-53.894023z" fill="#FFFFFF" /><path d="M323.364141 754.526871h53.894024v53.894023h-53.894024z" fill="#FFFFFF" /><path d="M269.470118 754.526871h53.894023v53.894023h-53.894023z" fill="#C4C4C4" /><path d="M377.258165 700.632847h53.894023v53.894024h-53.894023z" fill="#FFFFFF" /><path d="M323.364141 700.632847h53.894024v53.894024h-53.894024zM269.470118 700.632847h53.894023v53.894024h-53.894023z" fill="#FFFFFF" /><path d="M215.576094 700.632847h53.894024v53.894024h-53.894024z" fill="#E9E9E9" /><path d="M161.682071 700.632847h53.894023v53.894024h-53.894023z" fill="#C4C4C4" /><path d="M377.258165 646.738824h53.894023v53.894023h-53.894023z" fill="#FFFFFF" /><path d="M323.364141 646.738824h53.894024v53.894023h-53.894024zM269.470118 646.738824h53.894023v53.894023h-53.894023zM215.576094 646.738824h53.894024v53.894023h-53.894024zM161.682071 646.738824h53.894023v53.894023h-53.894023z" fill="#FFFFFF" /><path d="M107.788047 646.738824h53.894024v53.894023H107.788047z" fill="#E9E9E9" /><path d="M377.258165 592.841788h53.894023v53.894024h-53.894023z" fill="#FFFFFF" /><path d="M323.364141 592.841788h53.894024v53.894024h-53.894024zM269.470118 592.841788h53.894023v53.894024h-53.894023zM215.576094 592.841788h53.894024v53.894024h-53.894024zM161.682071 592.841788h53.894023v53.894024h-53.894023zM107.788047 592.841788h53.894024v53.894024H107.788047z" fill="#FFFFFF" /><path d="M377.258165 538.947765h53.894023v53.894023h-53.894023z" fill="#A80000" /><path d="M323.364141 538.947765h53.894024v53.894023h-53.894024zM269.470118 538.947765h53.894023v53.894023h-53.894023zM215.576094 538.947765h53.894024v53.894023h-53.894024zM161.682071 538.947765h53.894023v53.894023h-53.894023zM107.788047 538.947765h53.894024v53.894023H107.788047zM53.894024 538.947765h53.894023v53.894023H53.894024z" fill="#FFFFFF" /><path d="M377.258165 485.052235h53.894023v53.894024h-53.894023z" fill="#FE0000" /><path d="M323.364141 485.052235h53.894024v53.894024h-53.894024z" fill="#FE0000" /><path d="M269.470118 485.052235h53.894023v53.894024h-53.894023zM215.576094 485.052235h53.894024v53.894024h-53.894024zM161.682071 485.052235h53.894023v53.894024h-53.894023zM107.788047 485.052235h53.894024v53.894024H107.788047zM53.894024 485.052235h53.894023v53.894024H53.894024z" fill="#FFFFFF" /><path d="M377.258165 431.158212h53.894023v53.894023h-53.894023z" fill="#FFDE00" /><path d="M323.364141 431.158212h53.894024v53.894023h-53.894024zM269.470118 431.158212h53.894023v53.894023h-53.894023z" fill="#FE0000" /><path d="M215.576094 431.158212h53.894024v53.894023h-53.894024zM161.682071 431.158212h53.894023v53.894023h-53.894023zM107.788047 431.158212h53.894024v53.894023H107.788047zM53.894024 431.158212h53.894023v53.894023H53.894024z" fill="#FFFFFF" /><path d="M377.258165 377.261176h53.894023v53.894024h-53.894023z" fill="#FFDE00" /><path d="M323.364141 377.261176h53.894024v53.894024h-53.894024z" fill="#FE0000" /><path d="M269.470118 377.261176h53.894023v53.894024h-53.894023z" fill="#FF4545" /><path d="M215.576094 377.261176h53.894024v53.894024h-53.894024zM161.682071 377.261176h53.894023v53.894024h-53.894023zM107.788047 377.261176h53.894024v53.894024H107.788047z" fill="#FFFFFF" /><path d="M53.894024 377.261176h53.894023v53.894024H53.894024z" fill="#E9E9E9" /><path d="M377.258165 323.367153h53.894023v53.894023h-53.894023z" fill="#FE0000" /><path d="M323.364141 323.367153h53.894024v53.894023h-53.894024z" fill="#FF4545" /><path d="M269.470118 323.367153h53.894023v53.894023h-53.894023zM215.576094 323.367153h53.894024v53.894023h-53.894024zM161.682071 323.367153h53.894023v53.894023h-53.894023zM107.788047 323.367153h53.894024v53.894023H107.788047z" fill="#FFFFFF" /><path d="M53.894024 323.367153h53.894023v53.894023H53.894024z" fill="#E9E9E9" /><path d="M377.258165 269.473129h53.894023v53.894024h-53.894023z" fill="#FF4545" /><path d="M323.364141 269.473129h53.894024v53.894024h-53.894024zM269.470118 269.473129h53.894023v53.894024h-53.894023zM215.576094 269.473129h53.894024v53.894024h-53.894024zM161.682071 269.473129h53.894023v53.894024h-53.894023z" fill="#FFFFFF" /><path d="M107.788047 269.473129h53.894024v53.894024H107.788047z" fill="#E9E9E9" /><path d="M377.258165 215.579106h53.894023v53.894023h-53.894023z" fill="#FFFFFF" /><path d="M323.364141 215.579106h53.894024v53.894023h-53.894024zM269.470118 215.579106h53.894023v53.894023h-53.894023zM215.576094 215.579106h53.894024v53.894023h-53.894024zM161.682071 215.579106h53.894023v53.894023h-53.894023z" fill="#FFFFFF" /><path d="M107.788047 215.579106h53.894024v53.894023H107.788047z" fill="#E9E9E9" /><path d="M377.258165 161.685082h53.894023v53.894024h-53.894023z" fill="#FFFFFF" /><path d="M323.364141 161.685082h53.894024v53.894024h-53.894024zM269.470118 161.685082h53.894023v53.894024h-53.894023zM215.576094 161.685082h53.894024v53.894024h-53.894024z" fill="#FFFFFF" /><path d="M161.682071 161.685082h53.894023v53.894024h-53.894023z" fill="#E9E9E9" /><path d="M377.258165 107.788047h53.894023v53.894024h-53.894023z" fill="#FFFFFF" /><path d="M377.258165 53.894024h53.894023v53.894023h-53.894023z" fill="#E9E9E9" /><path d="M323.364141 107.788047h53.894024v53.894024h-53.894024z" fill="#FFFFFF" /><path d="M269.470118 107.788047h53.894023v53.894024h-53.894023z" fill="#E9E9E9" /><path d="M269.470118 53.894024h53.894023v53.894023h-53.894023zM161.682071 107.788047h53.894023v53.894024h-53.894023zM161.682071 754.526871h53.894023v53.894023h-53.894023zM269.470118 808.420894h53.894023v53.894024h-53.894023zM269.470118 862.314918h53.894023v53.894023h-53.894023zM107.788047 161.685082h53.894024v53.894024H107.788047zM53.894024 215.579106h53.894023v53.894023H53.894024zM0 323.367153h53.894024v53.894023H0zM0 431.158212h53.894024v53.894023H0zM53.894024 269.473129h53.894023v53.894024H53.894024zM0 377.261176h53.894024v53.894024H0zM0 485.052235h53.894024v53.894024H0zM53.894024 592.841788h53.894023v53.894024H53.894024zM0 538.947765h53.894024v53.894023H0zM53.894024 646.738824h53.894023v53.894023H53.894024zM107.788047 700.632847h53.894024v53.894024H107.788047zM485.047718 0h53.894023v53.894024h-53.894023z" fill="#3A2802" /><path d="M377.258165 916.211953h53.894023v53.894023h-53.894023zM431.152188 862.314918h53.894024v53.894023h-53.894024zM485.047718 808.420894h53.894023v53.894024h-53.894023z" fill="#E9E9E9" /><path d="M485.047718 754.526871h53.894023v53.894023h-53.894023zM485.047718 700.632847h53.894023v53.894024h-53.894023z" fill="#FFFFFF" /><path d="M485.047718 646.738824h53.894023v53.894023h-53.894023z" fill="#A80000" /><path d="M485.047718 592.841788h53.894023v53.894024h-53.894023zM485.047718 538.947765h53.894023v53.894023h-53.894023zM485.047718 485.052235h53.894023v53.894024h-53.894023zM485.047718 431.158212h53.894023v53.894023h-53.894023z" fill="#FE0000" /><path d="M485.047718 377.261176h53.894023v53.894024h-53.894023z" fill="#FF4545" /><path d="M485.047718 323.367153h53.894023v53.894023h-53.894023zM485.047718 269.473129h53.894023v53.894024h-53.894023zM485.047718 215.579106h53.894023v53.894023h-53.894023z" fill="#FFFFFF" /><path d="M485.047718 161.685082h53.894023v53.894024h-53.894023zM485.047718 107.788047h53.894023v53.894024h-53.894023z" fill="#FFFFFF" /><path d="M485.047718 53.894024h53.894023v53.894023h-53.894023z" fill="#E9E9E9" /><path d="M592.847812 0h53.894023v53.894024h-53.894023z" fill="#3A2802" /><path d="M485.047718 916.211953h53.894023v53.894023h-53.894023zM538.952282 862.314918h53.894024v53.894023h-53.894024z" fill="#C4C4C4" /><path d="M592.847812 808.420894h53.894023v53.894024h-53.894023zM592.847812 754.526871h53.894023v53.894023h-53.894023z" fill="#E9E9E9" /><path d="M592.847812 700.632847h53.894023v53.894024h-53.894023zM592.847812 646.738824h53.894023v53.894023h-53.894023z" fill="#FFFFFF" /><path d="M592.847812 592.841788h53.894023v53.894024h-53.894023z" fill="#A80000" /><path d="M592.847812 538.947765h53.894023v53.894023h-53.894023zM592.847812 485.052235h53.894023v53.894024h-53.894023zM592.847812 431.158212h53.894023v53.894023h-53.894023zM592.847812 377.261176h53.894023v53.894024h-53.894023zM592.847812 323.367153h53.894023v53.894023h-53.894023z" fill="#FE0000" /><path d="M592.847812 269.473129h53.894023v53.894024h-53.894023zM592.847812 215.579106h53.894023v53.894023h-53.894023z" fill="#FFFFFF" /><path d="M592.847812 161.685082h53.894023v53.894024h-53.894023zM592.847812 107.788047h53.894023v53.894024h-53.894023zM592.847812 53.894024h53.894023v53.894023h-53.894023z" fill="#FFFFFF" /><path d="M700.635859 808.420894h53.894023v53.894024h-53.894023z" fill="#C4C4C4" /><path d="M700.635859 754.526871h53.894023v53.894023h-53.894023zM700.635859 700.632847h53.894023v53.894024h-53.894023z" fill="#E9E9E9" /><path d="M700.635859 646.738824h53.894023v53.894023h-53.894023zM700.635859 592.841788h53.894023v53.894024h-53.894023zM700.635859 538.947765h53.894023v53.894023h-53.894023z" fill="#FFFFFF" /><path d="M700.635859 485.052235h53.894023v53.894024h-53.894023z" fill="#A80000" /><path d="M700.635859 431.158212h53.894023v53.894023h-53.894023zM700.635859 377.261176h53.894023v53.894024h-53.894023z" fill="#FE0000" /><path d="M700.635859 323.367153h53.894023v53.894023h-53.894023z" fill="#A80000" /><path d="M700.635859 269.473129h53.894023v53.894024h-53.894023zM700.635859 215.579106h53.894023v53.894023h-53.894023z" fill="#FFFFFF" /><path d="M700.635859 161.685082h53.894023v53.894024h-53.894023zM700.635859 107.788047h53.894023v53.894024h-53.894023z" fill="#FFFFFF" /><path d="M700.635859 53.894024h53.894023v53.894023h-53.894023zM808.423906 107.788047h53.894023v53.894024h-53.894023zM700.635859 862.314918h53.894023v53.894023h-53.894023zM592.847812 916.211953h53.894023v53.894023h-53.894023zM431.152188 970.105976h53.894024V1024h-53.894024zM269.470118 970.105976h53.894023V1024h-53.894023zM646.741835 862.314918h53.894024v53.894023h-53.894024zM538.952282 916.211953h53.894024v53.894023h-53.894024zM377.258165 970.105976h53.894023V1024h-53.894023zM215.576094 970.105976h53.894024V1024h-53.894024zM215.576094 916.211953h53.894024v53.894023h-53.894024zM431.152188 0h53.894024v53.894024h-53.894024z" fill="#3A2802" /><path d="M323.364141 916.211953h53.894024v53.894023h-53.894024zM377.258165 862.314918h53.894023v53.894023h-53.894023z" fill="#E9E9E9" /><path d="M431.152188 808.420894h53.894024v53.894024h-53.894024zM431.152188 754.526871h53.894024v53.894023h-53.894024zM431.152188 700.632847h53.894024v53.894024h-53.894024zM431.152188 646.738824h53.894024v53.894023h-53.894024z" fill="#FFFFFF" /><path d="M431.152188 592.841788h53.894024v53.894024h-53.894024z" fill="#A80000" /><path d="M431.152188 538.947765h53.894024v53.894023h-53.894024zM431.152188 485.052235h53.894024v53.894024h-53.894024zM431.152188 431.158212h53.894024v53.894023h-53.894024z" fill="#FE0000" /><path d="M431.152188 377.261176h53.894024v53.894024h-53.894024z" fill="#FFDE00" /><path d="M431.152188 323.367153h53.894024v53.894023h-53.894024z" fill="#FF4545" /><path d="M431.152188 269.473129h53.894024v53.894024h-53.894024zM431.152188 215.579106h53.894024v53.894023h-53.894024z" fill="#FFFFFF" /><path d="M431.152188 161.685082h53.894024v53.894024h-53.894024zM431.152188 107.788047h53.894024v53.894024h-53.894024z" fill="#FFFFFF" /><path d="M431.152188 53.894024h53.894024v53.894023h-53.894024z" fill="#E9E9E9" /><path d="M323.364141 53.894024h53.894024v53.894023h-53.894024zM215.576094 107.788047h53.894024v53.894024h-53.894024zM215.576094 754.526871h53.894024v53.894023h-53.894024zM323.364141 808.420894h53.894024v53.894024h-53.894024zM538.952282 0h53.894024v53.894024h-53.894024z" fill="#3A2802" /><path d="M431.152188 916.211953h53.894024v53.894023h-53.894024z" fill="#C4C4C4" /><path d="M485.047718 862.314918h53.894023v53.894023h-53.894023zM538.952282 808.420894h53.894024v53.894024h-53.894024z" fill="#E9E9E9" /><path d="M538.952282 754.526871h53.894024v53.894023h-53.894024zM538.952282 700.632847h53.894024v53.894024h-53.894024z" fill="#FFFFFF" /><path d="M538.952282 646.738824h53.894024v53.894023h-53.894024z" fill="#A80000" /><path d="M538.952282 592.841788h53.894024v53.894024h-53.894024zM538.952282 538.947765h53.894024v53.894023h-53.894024zM538.952282 485.052235h53.894024v53.894024h-53.894024zM538.952282 431.158212h53.894024v53.894023h-53.894024z" fill="#FE0000" /><path d="M538.952282 377.261176h53.894024v53.894024h-53.894024z" fill="#FF4545" /><path d="M538.952282 323.367153h53.894024v53.894023h-53.894024zM538.952282 269.473129h53.894024v53.894024h-53.894024zM538.952282 215.579106h53.894024v53.894023h-53.894024z" fill="#FFFFFF" /><path d="M538.952282 161.685082h53.894024v53.894024h-53.894024zM538.952282 107.788047h53.894024v53.894024h-53.894024zM538.952282 53.894024h53.894024v53.894023h-53.894024z" fill="#FFFFFF" /><path d="M646.741835 0h53.894024v53.894024h-53.894024z" fill="#3A2802" /><path d="M592.847812 862.314918h53.894023v53.894023h-53.894023zM646.741835 808.420894h53.894024v53.894024h-53.894024z" fill="#C4C4C4" /><path d="M646.741835 754.526871h53.894024v53.894023h-53.894024zM646.741835 700.632847h53.894024v53.894024h-53.894024z" fill="#E9E9E9" /><path d="M646.741835 646.738824h53.894024v53.894023h-53.894024zM646.741835 592.841788h53.894024v53.894024h-53.894024z" fill="#FFFFFF" /><path d="M646.741835 538.947765h53.894024v53.894023h-53.894024z" fill="#A80000" /><path d="M646.741835 485.052235h53.894024v53.894024h-53.894024zM646.741835 431.158212h53.894024v53.894023h-53.894024zM646.741835 377.261176h53.894024v53.894024h-53.894024zM646.741835 323.367153h53.894024v53.894023h-53.894024zM646.741835 269.473129h53.894024v53.894024h-53.894024z" fill="#FE0000" /><path d="M646.741835 215.579106h53.894024v53.894023h-53.894024z" fill="#FFFFFF" /><path d="M646.741835 161.685082h53.894024v53.894024h-53.894024zM646.741835 107.788047h53.894024v53.894024h-53.894024z" fill="#FFFFFF" /><path d="M646.741835 53.894024h53.894024v53.894023h-53.894024z" fill="#E9E9E9" /><path d="M754.529882 808.420894h53.894024v53.894024h-53.894024zM754.529882 754.526871h53.894024v53.894023h-53.894024zM808.423906 754.526871h53.894023v53.894023h-53.894023z" fill="#C4C4C4" /><path d="M754.529882 700.632847h53.894024v53.894024h-53.894024z" fill="#E9E9E9" /><path d="M808.423906 700.632847h53.894023v53.894024h-53.894023zM862.317929 700.632847h53.894024v53.894024h-53.894024z" fill="#C4C4C4" /><path d="M754.529882 646.738824h53.894024v53.894023h-53.894024zM808.423906 646.738824h53.894023v53.894023h-53.894023z" fill="#E9E9E9" /><path d="M862.317929 646.738824h53.894024v53.894023h-53.894024zM916.211953 646.738824h53.894023v53.894023h-53.894023z" fill="#C4C4C4" /><path d="M754.529882 592.841788h53.894024v53.894024h-53.894024z" fill="#FFFFFF" /><path d="M808.423906 592.841788h53.894023v53.894024h-53.894023zM862.317929 592.841788h53.894024v53.894024h-53.894024z" fill="#E9E9E9" /><path d="M916.211953 592.841788h53.894023v53.894024h-53.894023z" fill="#C4C4C4" /><path d="M754.529882 538.947765h53.894024v53.894023h-53.894024zM808.423906 538.947765h53.894023v53.894023h-53.894023z" fill="#FFFFFF" /><path d="M862.317929 538.947765h53.894024v53.894023h-53.894024zM916.211953 538.947765h53.894023v53.894023h-53.894023z" fill="#E9E9E9" /><path d="M970.105976 538.947765H1024v53.894023h-53.894024z" fill="#C4C4C4" /><path d="M754.529882 485.052235h53.894024v53.894024h-53.894024zM808.423906 485.052235h53.894023v53.894024h-53.894023zM862.317929 485.052235h53.894024v53.894024h-53.894024zM916.211953 485.052235h53.894023v53.894024h-53.894023z" fill="#FFFFFF" /><path d="M970.105976 485.052235H1024v53.894024h-53.894024z" fill="#C4C4C4" /><path d="M754.529882 431.158212h53.894024v53.894023h-53.894024z" fill="#A80000" /><path d="M808.423906 431.158212h53.894023v53.894023h-53.894023zM862.317929 431.158212h53.894024v53.894023h-53.894024zM916.211953 431.158212h53.894023v53.894023h-53.894023z" fill="#FFFFFF" /><path d="M970.105976 431.158212H1024v53.894023h-53.894024z" fill="#E9E9E9" /><path d="M754.529882 377.261176h53.894024v53.894024h-53.894024z" fill="#A80000" /><path d="M808.423906 377.261176h53.894023v53.894024h-53.894023zM862.317929 377.261176h53.894024v53.894024h-53.894024zM916.211953 377.261176h53.894023v53.894024h-53.894023z" fill="#FFFFFF" /><path d="M970.105976 377.261176H1024v53.894024h-53.894024z" fill="#E9E9E9" /><path d="M754.529882 323.367153h53.894024v53.894023h-53.894024zM808.423906 323.367153h53.894023v53.894023h-53.894023zM862.317929 323.367153h53.894024v53.894023h-53.894024zM916.211953 323.367153h53.894023v53.894023h-53.894023zM970.105976 323.367153H1024v53.894023h-53.894024zM754.529882 269.473129h53.894024v53.894024h-53.894024zM808.423906 269.473129h53.894023v53.894024h-53.894023zM862.317929 269.473129h53.894024v53.894024h-53.894024zM916.211953 269.473129h53.894023v53.894024h-53.894023zM754.529882 215.579106h53.894024v53.894023h-53.894024zM808.423906 215.579106h53.894023v53.894023h-53.894023zM862.317929 215.579106h53.894024v53.894023h-53.894024zM916.211953 215.579106h53.894023v53.894023h-53.894023z" fill="#FFFFFF" /><path d="M754.529882 161.685082h53.894024v53.894024h-53.894024zM808.423906 161.685082h53.894023v53.894024h-53.894023zM862.317929 161.685082h53.894024v53.894024h-53.894024zM754.529882 107.788047h53.894024v53.894024h-53.894024z" fill="#FFFFFF" /><path d="M754.529882 53.894024h53.894024v53.894023h-53.894024zM862.317929 107.788047h53.894024v53.894024h-53.894024zM754.529882 862.314918h53.894024v53.894023h-53.894024zM646.741835 916.211953h53.894024v53.894023h-53.894024zM485.047718 970.105976h53.894023V1024h-53.894023zM323.364141 970.105976h53.894024V1024h-53.894024zM916.211953 161.685082h53.894023v53.894024h-53.894023zM970.105976 215.579106H1024v53.894023h-53.894024zM1024 323.367153h53.894024v53.894023H1024zM1024 431.158212h53.894024v53.894023H1024zM970.105976 269.473129H1024v53.894024h-53.894024zM1024 377.261176h53.894024v53.894024H1024zM1024 485.052235h53.894024v53.894024H1024zM970.105976 592.841788H1024v53.894024h-53.894024zM1024 538.947765h53.894024v53.894023H1024zM970.105976 646.738824H1024v53.894023h-53.894024zM916.211953 700.632847h53.894023v53.894024h-53.894023zM862.317929 754.526871h53.894024v53.894023h-53.894024zM808.423906 808.420894h53.894023v53.894024h-53.894023z" fill="#3A2802" /></svg>