<?xml version="1.0" standalone="no"?><!DOCTYPE svg PUBLIC "-//W3C//DTD SVG 1.1//EN" "http://www.w3.org/Graphics/SVG/1.1/DTD/svg11.dtd"><svg class="icon" width="200px" height="200.00px" viewBox="0 0 1024 1024" version="1.1" xmlns="http://www.w3.org/2000/svg"><path d="M832 512h64v64h-64zM832 448h64v64h-64zM832 384h64v64h-64zM832 320h64v64h-64zM832 256h64v64h-64zM768 576h64v64h-64z" fill="#333333" /><path d="M768 512h64v64h-64zM768 448h64v64h-64zM768 384h64v64h-64zM768 320h64v64h-64zM768 256h64v64h-64z" fill="#E0AA24" /><path d="M768 192h64v64h-64zM704 832h64v64h-64zM704 704h64v64h-64zM704 640h64v64h-64z" fill="#333333" /><path d="M704 576h64v64h-64zM704 512h64v64h-64zM704 448h64v64h-64zM704 384h64v64h-64z" fill="#E0AA24" /><path d="M704 320h64v64h-64z" fill="#EA8D28" /><path d="M704 256h64v64h-64zM704 192h64v64h-64z" fill="#E0AA24" /><path d="M704 128h64v64h-64zM640 896h64v64h-64z" fill="#333333" /><path d="M640 832h64v64h-64z" fill="#EA8D28" /><path d="M640 768h64v64h-64z" fill="#333333" /><path d="M640 704h64v64h-64zM640 640h64v64h-64zM640 576h64v64h-64z" fill="#E0AA24" /><path d="M640 512h64v64h-64zM640 448h64v64h-64z" fill="#BC8304" /><path d="M640 384h64v64h-64z" fill="#E0AA24" /><path d="M640 320h64v64h-64z" fill="#EA8D28" /><path d="M640 256h64v64h-64z" fill="#EDBF56" /><path d="M640 192h64v64h-64z" fill="#E0AA24" /><path d="M640 128h64v64h-64z" fill="#EDBF56" /><path d="M640 64h64v64h-64zM576 896h64v64h-64z" fill="#333333" /><path d="M576 832h64v64h-64z" fill="#EA8D28" /><path d="M576 768h64v64h-64zM576 704h64v64h-64z" fill="#E0AA24" /><path d="M576 640h64v64h-64zM576 576h64v64h-64z" fill="#BC8304" /><path d="M576 512h64v64h-64zM576 448h64v64h-64z" fill="#333333" /><path d="M576 384h64v64h-64zM576 320h64v64h-64z" fill="#EA8D28" /><path d="M576 256h64v64h-64zM576 192h64v64h-64zM576 128h64v64h-64z" fill="#EDBF56" /><path d="M576 64h64v64h-64zM512 896h64v64h-64z" fill="#333333" /><path d="M512 832h64v64h-64z" fill="#EA8D28" /><path d="M512 768h64v64h-64z" fill="#E0AA24" /><path d="M512 704h64v64h-64zM512 576h64v64h-64z" fill="#333333" /><path d="M512 512h64v64h-64zM512 448h64v64h-64z" fill="#E0AA24" /><path d="M512 384h64v64h-64z" fill="#EA8D28" /><path d="M512 320h64v64h-64zM512 256h64v64h-64zM512 192h64v64h-64zM512 128h64v64h-64z" fill="#EDBF56" /><path d="M512 64h64v64h-64zM448 832h64v64h-64z" fill="#333333" /><path d="M448 768h64v64h-64z" fill="#EA8D28" /><path d="M448 704h64v64h-64zM448 640h64v64h-64z" fill="#333333" /><path d="M448 576h64v64h-64zM448 512h64v64h-64z" fill="#E0AA24" /><path d="M448 448h64v64h-64z" fill="#EA8D28" /><path d="M448 384h64v64h-64zM448 320h64v64h-64z" fill="#FF3B3B" /><path d="M448 256h64v64h-64z" fill="#EDBF56" /><path d="M448 192h64v64h-64z" fill="#E0AA24" /><path d="M448 128h64v64h-64z" fill="#EDBF56" /><path d="M448 64h64v64h-64zM384 832h64v64h-64zM384 768h64v64h-64zM384 640h64v64h-64z" fill="#333333" /><path d="M384 576h64v64h-64z" fill="#E0AA24" /><path d="M384 512h64v64h-64z" fill="#FF3B3B" /><path d="M384 448h64v64h-64zM384 384h64v64h-64zM384 320h64v64h-64zM384 256h64v64h-64zM384 192h64v64h-64z" fill="#FF4D4D" /><path d="M384 128h64v64h-64zM320 704h64v64h-64z" fill="#333333" /><path d="M320 640h64v64h-64z" fill="#E0AA24" /><path d="M320 576h64v64h-64z" fill="#EA8D28" /><path d="M320 512h64v64h-64z" fill="#EDBF56" /><path d="M320 448h64v64h-64z" fill="#FF3B3B" /><path d="M320 384h64v64h-64zM320 320h64v64h-64zM320 256h64v64h-64z" fill="#FF4D4D" /><path d="M320 192h64v64h-64z" fill="#FF9C9C" /><path d="M320 128h64v64h-64zM256 704h64v64h-64z" fill="#333333" /><path d="M256 640h64v64h-64z" fill="#E0AA24" /><path d="M256 576h64v64h-64zM256 512h64v64h-64z" fill="#EA8D28" /><path d="M256 448h64v64h-64z" fill="#EDBF56" /><path d="M256 384h64v64h-64zM256 320h64v64h-64z" fill="#FF3B3B" /><path d="M256 256h64v64h-64z" fill="#FFFFFF" /><path d="M256 192h64v64h-64z" fill="#FF4D4D" /><path d="M256 128h64v64h-64z" fill="#FF9C9C" /><path d="M192 640h64v64h-64z" fill="#333333" /><path d="M192 576h64v64h-64z" fill="#E0AA24" /><path d="M192 512h64v64h-64z" fill="#EDBF56" /><path d="M192 448h64v64h-64z" fill="#EA8D28" /><path d="M192 384h64v64h-64z" fill="#EDBF56" /><path d="M192 320h64v64h-64z" fill="#FF3B3B" /><path d="M192 256h64v64h-64z" fill="#FF4D4D" /><path d="M192 192h64v64h-64z" fill="#FFFFFF" /><path d="M192 128h64v64h-64z" fill="#FF9C9C" /><path d="M128 576h64v64h-64z" fill="#333333" /><path d="M128 512h64v64h-64zM128 448h64v64h-64zM128 384h64v64h-64z" fill="#EDBF56" /><path d="M128 320h64v64h-64z" fill="#333333" /><path d="M128 256h64v64h-64zM128 192h64v64h-64z" fill="#FF4D4D" /><path d="M128 128h64v64h-64z" fill="#FF9C9C" /><path d="M64 512h64v64H64zM64 448h64v64H64zM64 384h64v64H64z" fill="#333333" /><path d="M64 256h64v64H64zM64 192h64v64H64z" fill="#FF9C9C" /></svg>