<?xml version="1.0" standalone="no"?><!DOCTYPE svg PUBLIC "-//W3C//DTD SVG 1.1//EN" "http://www.w3.org/Graphics/SVG/1.1/DTD/svg11.dtd"><svg class="icon" width="200px" height="198.64px" viewBox="0 0 1031 1024" version="1.1" xmlns="http://www.w3.org/2000/svg"><path d="M546.035953 175.7184h60.592188v60.592188h-60.592188zM606.635671 236.306071h60.592188v60.592188h-60.592188zM243.094588 175.7184h60.592188v60.592188H243.094588zM121.893647 60.593694h60.592188v60.592188H121.893647zM0.718306 405.9648h60.592188v60.592188H0.718306zM848.999906 963.406306h60.592188v60.592188h-60.592188z" fill="#000000" /><path d="M848.999906 902.817129h60.592188v60.592189h-60.592188zM848.999906 842.223435h60.592188v60.592189h-60.592188z" fill="#A60000" /><path d="M848.999906 781.632753h60.592188v60.592188h-60.592188z" fill="#FFD800" /><path d="M848.999906 721.040565h60.592188v60.592188h-60.592188z" fill="#A60000" /><path d="M848.999906 660.449882h60.592188v60.592189h-60.592188z" fill="#A60000" /><path d="M485.446776 963.406306h60.592189v60.592188h-60.592189z" fill="#000000" /><path d="M485.446776 902.817129h60.592189v60.592189h-60.592189z" fill="#A60000" /><path d="M485.446776 842.223435h60.592189v60.592189h-60.592189z" fill="#FF0302" /><path d="M485.446776 781.632753h60.592189v60.592188h-60.592189zM485.446776 721.040565h60.592189v60.592188h-60.592189z" fill="#FFD800" /><path d="M485.446776 660.449882h60.592189v60.592189h-60.592189z" fill="#FFFFFF" /><path d="M485.446776 539.267012h60.592189v60.592188h-60.592189z" fill="#FF0302" /><path d="M485.446776 599.856188h60.592189v60.592188h-60.592189zM485.446776 478.673318h60.592189v60.592188h-60.592189z" fill="#FF0302" /><path d="M485.446776 418.082635h60.592189v60.592189h-60.592189z" fill="#FF0302" /><path d="M727.823059 963.406306h60.592188v60.592188H727.823059z" fill="#000000" /><path d="M727.823059 902.817129h60.592188v60.592189H727.823059z" fill="#A60000" /><path d="M727.823059 842.223435h60.592188v60.592189H727.823059z" fill="#FF0302" /><path d="M727.823059 781.632753h60.592188v60.592188H727.823059zM727.823059 721.040565h60.592188v60.592188H727.823059z" fill="#FFD800" /><path d="M727.823059 660.449882h60.592188v60.592189H727.823059z" fill="#FFFFFF" /><path d="M727.823059 599.856188h60.592188v60.592188H727.823059z" fill="#FF0302" /><path d="M364.269929 963.406306h60.592189v60.592188h-60.592189z" fill="#000000" /><path d="M364.269929 902.817129h60.592189v60.592189h-60.592189z" fill="#A60000" /><path d="M364.269929 842.223435h60.592189v60.592189h-60.592189z" fill="#FF0302" /><path d="M364.269929 781.632753h60.592189v60.592188h-60.592189z" fill="#FFD800" /><path d="M364.269929 721.040565h60.592189v60.592188h-60.592189z" fill="#FF0302" /><path d="M364.269929 660.449882h60.592189v60.592189h-60.592189z" fill="#FF0302" /><path d="M364.269929 599.856188h60.592189v60.592188h-60.592189z" fill="#A60000" /><path d="M606.635671 963.406306h60.592188v60.592188h-60.592188z" fill="#000000" /><path d="M606.635671 902.817129h60.592188v60.592189h-60.592188z" fill="#A60000" /><path d="M606.635671 842.223435h60.592188v60.592189h-60.592188z" fill="#FF0302" /><path d="M606.635671 781.632753h60.592188v60.592188h-60.592188z" fill="#FFD800" /><path d="M606.635671 721.040565h60.592188v60.592188h-60.592188z" fill="#FF0302" /><path d="M606.635671 660.449882h60.592188v60.592189h-60.592188z" fill="#FF0302" /><path d="M606.635671 599.856188h60.592188v60.592188h-60.592188z" fill="#A60000" /><path d="M243.094588 963.406306h60.592188v60.592188H243.094588z" fill="#000000" /><path d="M243.094588 902.817129h60.592188v60.592189H243.094588z" fill="#A60000" /><path d="M243.094588 842.223435h60.592188v60.592189H243.094588z" fill="#FF0302" /><path d="M243.094588 781.632753h60.592188v60.592188H243.094588zM243.094588 721.040565h60.592188v60.592188H243.094588z" fill="#FFD800" /><path d="M243.094588 660.449882h60.592188v60.592189H243.094588z" fill="#FFFFFF" /><path d="M243.094588 599.856188h60.592188v60.592188H243.094588z" fill="#A60000" /><path d="M667.223341 357.490447h60.592188v60.592188h-60.592188zM848.999906 539.267012h60.592188v60.592188h-60.592188zM848.999906 296.899765h60.592188v60.592188h-60.592188zM848.999906 60.593694h60.592188v60.592188h-60.592188zM606.635671 0h60.592188v60.592188h-60.592188zM909.587576 660.449882h60.592189v60.592189h-60.592189zM970.1888 781.632753h60.592188v60.592188h-60.592188zM606.635671 478.673318h60.592188v60.592188h-60.592188z" fill="#000000" /><path d="M606.635671 418.082635h60.592188v60.592189h-60.592188z" fill="#A60000" /><path d="M606.635671 357.490447h60.592188v60.592188h-60.592188z" fill="#FF0302" /><path d="M606.635671 296.899765h60.592188v60.592188h-60.592188zM243.094588 236.306071h60.592188v60.592188H243.094588zM667.223341 418.082635h60.592188v60.592189h-60.592188zM848.999906 599.856188h60.592188v60.592188h-60.592188zM848.999906 357.490447h60.592188v60.592188h-60.592188zM970.1888 478.673318h60.592188v60.592188h-60.592188zM909.587576 721.040565h60.592189v60.592188h-60.592189zM970.1888 842.223435h60.592188v60.592189h-60.592188zM909.587576 902.817129h60.592189v60.592189h-60.592189z" fill="#000000" /><path d="M909.587576 842.223435h60.592189v60.592189h-60.592189z" fill="#FFD800" /><path d="M909.587576 781.632753h60.592189v60.592188h-60.592189z" fill="#A60000" /><path d="M606.635671 539.267012h60.592188v60.592188h-60.592188z" fill="#000000" /><path d="M667.223341 599.856188h60.592188v60.592188h-60.592188zM727.823059 539.267012h60.592188v60.592188H727.823059zM788.412235 478.673318h60.592189v60.592188h-60.592189z" fill="#000000" /><path d="M546.035953 236.306071h60.592188v60.592188h-60.592188z" fill="#FF0302" /><path d="M485.446776 236.306071h60.592189v60.592188h-60.592189zM788.412235 963.406306h60.592189v60.592188h-60.592189z" fill="#000000" /><path d="M788.412235 902.817129h60.592189v60.592189h-60.592189z" fill="#A60000" /><path d="M788.412235 842.223435h60.592189v60.592189h-60.592189z" fill="#FF0302" /><path d="M788.412235 781.632753h60.592189v60.592188h-60.592189zM788.412235 721.040565h60.592189v60.592188h-60.592189z" fill="#FFD800" /><path d="M788.412235 660.449882h60.592189v60.592189h-60.592189zM788.412235 599.856188h60.592189v60.592188h-60.592189z" fill="#FF0302" /><path d="M788.412235 539.267012h60.592189v60.592188h-60.592189z" fill="#A60000" /><path d="M424.859106 963.406306h60.592188v60.592188h-60.592188z" fill="#000000" /><path d="M424.859106 902.817129h60.592188v60.592189h-60.592188z" fill="#A60000" /><path d="M424.859106 842.223435h60.592188v60.592189h-60.592188z" fill="#FFD800" /><path d="M424.859106 781.632753h60.592188v60.592188h-60.592188z" fill="#FFD800" /><path d="M424.859106 721.040565h60.592188v60.592188h-60.592188z" fill="#FFFFFF" /><path d="M424.859106 660.449882h60.592188v60.592189h-60.592188z" fill="#FF0302" /><path d="M424.859106 539.267012h60.592188v60.592188h-60.592188z" fill="#FFD800" /><path d="M424.859106 599.856188h60.592188v60.592188h-60.592188zM424.859106 478.673318h60.592188v60.592188h-60.592188z" fill="#FF0302" /><path d="M667.223341 963.406306h60.592188v60.592188h-60.592188z" fill="#000000" /><path d="M667.223341 902.817129h60.592188v60.592189h-60.592188z" fill="#A60000" /><path d="M667.223341 842.223435h60.592188v60.592189h-60.592188z" fill="#FFD800" /><path d="M667.223341 781.632753h60.592188v60.592188h-60.592188z" fill="#FFD800" /><path d="M667.223341 721.040565h60.592188v60.592188h-60.592188z" fill="#FFFFFF" /><path d="M667.223341 660.449882h60.592188v60.592189h-60.592188z" fill="#A60000" /><path d="M303.682259 963.406306h60.592188v60.592188h-60.592188z" fill="#000000" /><path d="M303.682259 902.817129h60.592188v60.592189h-60.592188z" fill="#A60000" /><path d="M303.682259 842.223435h60.592188v60.592189h-60.592188z" fill="#FF0302" /><path d="M303.682259 781.632753h60.592188v60.592188h-60.592188zM303.682259 721.040565h60.592188v60.592188h-60.592188z" fill="#FFD800" /><path d="M303.682259 660.449882h60.592188v60.592189h-60.592188z" fill="#FF0302" /><path d="M546.035953 963.406306h60.592188v60.592188h-60.592188z" fill="#000000" /><path d="M546.035953 902.817129h60.592188v60.592189h-60.592188z" fill="#A60000" /><path d="M546.035953 842.223435h60.592188v60.592189h-60.592188z" fill="#FF0302" /><path d="M546.035953 781.632753h60.592188v60.592188h-60.592188zM546.035953 721.040565h60.592188v60.592188h-60.592188z" fill="#FFD800" /><path d="M546.035953 660.449882h60.592188v60.592189h-60.592188zM546.035953 539.267012h60.592188v60.592188h-60.592188z" fill="#FF0302" /><path d="M546.035953 599.856188h60.592188v60.592188h-60.592188z" fill="#FFFFFF" /><path d="M546.035953 478.673318h60.592188v60.592188h-60.592188z" fill="#FF0302" /><path d="M546.035953 418.082635h60.592188v60.592189h-60.592188z" fill="#FFD800" /><path d="M182.482824 963.406306h60.592188v60.592188H182.482824z" fill="#000000" /><path d="M182.482824 902.817129h60.592188v60.592189H182.482824z" fill="#A60000" /><path d="M182.482824 842.223435h60.592188v60.592189H182.482824z" fill="#FFD800" /><path d="M182.482824 781.632753h60.592188v60.592188H182.482824z" fill="#FFD800" /><path d="M182.482824 721.040565h60.592188v60.592188H182.482824z" fill="#FFFFFF" /><path d="M182.482824 660.449882h60.592188v60.592189H182.482824zM182.482824 599.856188h60.592188v60.592188H182.482824zM546.035953 296.899765h60.592188v60.592188h-60.592188z" fill="#FF0302" /><path d="M485.446776 296.899765h60.592189v60.592188h-60.592189z" fill="#000000" /><path d="M546.035953 357.490447h60.592188v60.592188h-60.592188z" fill="#FF0302" /><path d="M485.446776 357.490447h60.592189v60.592188h-60.592189zM424.859106 418.082635h60.592188v60.592189h-60.592188z" fill="#000000" /><path d="M364.269929 478.673318h60.592189v60.592188h-60.592189zM243.094588 478.673318h60.592188v60.592188H243.094588z" fill="#000000" /><path d="M182.482824 478.673318h60.592188v60.592188H182.482824z" fill="#FF0302" /><path d="M182.482824 418.082635h60.592188v60.592189H182.482824zM364.269929 539.267012h60.592189v60.592188h-60.592189zM243.094588 539.267012h60.592188v60.592188H243.094588z" fill="#000000" /><path d="M182.482824 539.267012h60.592188v60.592188H182.482824z" fill="#FFD800" /><path d="M121.893647 478.673318h60.592188v60.592188H121.893647zM61.305976 599.856188h60.592189v60.592188H61.305976zM0.718306 721.040565h60.592188v60.592188H0.718306z" fill="#000000" /><path d="M121.893647 539.267012h60.592188v60.592188H121.893647zM61.305976 660.449882h60.592189v60.592189H61.305976zM0.718306 781.632753h60.592188v60.592188H0.718306z" fill="#000000" /><path d="M0.718306 842.223435h60.592188v60.592189H0.718306zM61.305976 902.817129h60.592189v60.592189H61.305976z" fill="#000000" /><path d="M61.305976 842.223435h60.592189v60.592189H61.305976z" fill="#FFD800" /><path d="M61.305976 781.632753h60.592189v60.592188H61.305976zM61.305976 721.040565h60.592189v60.592188H61.305976z" fill="#FF0302" /><path d="M121.893647 963.406306h60.592188v60.592188H121.893647z" fill="#000000" /><path d="M121.893647 902.817129h60.592188v60.592189H121.893647z" fill="#A60000" /><path d="M121.893647 842.223435h60.592188v60.592189H121.893647z" fill="#FF0302" /><path d="M121.893647 781.632753h60.592188v60.592188H121.893647z" fill="#FFD800" /><path d="M121.893647 721.040565h60.592188v60.592188H121.893647z" fill="#FF0302" /><path d="M121.893647 660.449882h60.592188v60.592189H121.893647zM121.893647 599.856188h60.592188v60.592188H121.893647z" fill="#FF0302" /><path d="M303.682259 599.856188h60.592188v60.592188h-60.592188z" fill="#000000" /></svg>