<?xml version="1.0" standalone="no"?><!DOCTYPE svg PUBLIC "-//W3C//DTD SVG 1.1//EN" "http://www.w3.org/Graphics/SVG/1.1/DTD/svg11.dtd"><svg class="icon" width="200px" height="200.00px" viewBox="0 0 1024 1024" version="1.1" xmlns="http://www.w3.org/2000/svg"><path d="M746.79 657.24h59.95v59.96h-59.95z" fill="#333333" /><path d="M746.79 357.49h59.95v59.95h-59.95z" fill="#F2A825" /><path d="M686.84 777.15h59.96v59.95h-59.96z" fill="#333333" /><path d="M686.84 717.19h59.96v59.96h-59.96z" fill="#333333" /><path d="M686.84 657.24h59.96v59.96h-59.96zM686.84 597.29h59.96v59.95h-59.96z" fill="#333333" /><path d="M686.84 477.39h59.96v59.95h-59.96z" fill="#15BA83" /><path d="M686.84 417.44h59.96v59.96h-59.96zM686.84 357.49h59.96v59.95h-59.96z" fill="#F2A825" /><path d="M686.84 297.53h59.96v59.96h-59.96z" fill="#FFCD50" /><path d="M626.89 837.1h59.95v59.96h-59.95z" fill="#333333" /><path d="M626.89 777.15h59.95v59.95h-59.95z" fill="#724422" /><path d="M626.89 717.19h59.95v59.96h-59.95z" fill="#724422" /><path d="M626.89 657.24h59.95v59.96h-59.95zM626.89 597.29h59.95v59.95h-59.95z" fill="#724422" /><path d="M626.89 537.34h59.95v59.96h-59.95zM626.89 477.39h59.95v59.95h-59.95z" fill="#15BA83" /><path d="M626.89 417.44h59.95v59.96h-59.95z" fill="#F2A825" /><path d="M626.89 357.49h59.95v59.95h-59.95z" fill="#FFCD50" /><path d="M626.89 297.53h59.95v59.96h-59.95z" fill="#FFFFFF" /><path d="M566.94 897.05h59.96V957h-59.96z" fill="#333333" /><path d="M566.94 837.1h59.96v59.96h-59.96z" fill="#724422" /><path d="M566.94 777.15h59.96v59.95h-59.96z" fill="#935F3B" /><path d="M566.94 717.19h59.96v59.96h-59.96z" fill="#935F3B" /><path d="M566.94 657.24h59.96v59.96h-59.96z" fill="#935F3B" /><path d="M566.94 597.29h59.96v59.95h-59.96z" fill="#724422" /><path d="M566.94 537.34h59.96v59.96h-59.96z" fill="#15BA83" /><path d="M566.94 477.39h59.96v59.95h-59.96z" fill="#F2A825" /><path d="M566.94 417.44h59.96v59.96h-59.96z" fill="#FFCD50" /><path d="M566.94 357.49h59.96v59.95h-59.96z" fill="#996725" /><path d="M566.94 297.53h59.96v59.96h-59.96z" fill="#FFCD50" /><path d="M566.94 237.59h59.96v59.95h-59.96zM566.94 177.63h59.96v59.96h-59.96z" fill="#F2A825" /><path d="M506.99 897.05h59.95V957h-59.95z" fill="#333333" /><path d="M506.99 837.1h59.95v59.96h-59.95z" fill="#724422" /><path d="M506.99 777.15h59.95v59.95h-59.95z" fill="#935F3B" /><path d="M506.99 717.19h59.95v59.96h-59.95z" fill="#935F3B" /><path d="M506.99 657.24h59.95v59.96h-59.95z" fill="#935F3B" /><path d="M506.99 597.29h59.95v59.95h-59.95z" fill="#724422" /><path d="M506.99 537.34h59.95v59.96h-59.95z" fill="#008253" /><path d="M506.99 477.39h59.95v59.95h-59.95z" fill="#FFCD50" /><path d="M506.99 417.44h59.95v59.96h-59.95z" fill="#996725" /><path d="M506.99 357.49h59.95v59.95h-59.95zM506.99 297.53h59.95v59.96h-59.95z" fill="#AA7D35" /><path d="M506.99 237.59h59.95v59.95h-59.95zM506.99 177.63h59.95v59.96h-59.95z" fill="#FFCD50" /><path d="M506.99 117.69h59.95v59.95h-59.95z" fill="#FFCD50" /><path d="M447.03 897.05h59.96V957h-59.96z" fill="#333333" /><path d="M447.03 837.1h59.96v59.96h-59.96z" fill="#724422" /><path d="M447.03 777.15h59.96v59.95h-59.96z" fill="#935F3B" /><path d="M447.03 717.19h59.96v59.96h-59.96z" fill="#935F3B" /><path d="M447.03 657.24h59.96v59.96h-59.96z" fill="#935F3B" /><path d="M447.03 597.29h59.96v59.95h-59.96z" fill="#724422" /><path d="M447.03 537.34h59.96v59.96h-59.96z" fill="#008253" /><path d="M447.03 477.39h59.96v59.95h-59.96z" fill="#FFCD50" /><path d="M447.03 417.44h59.96v59.96h-59.96zM447.03 357.49h59.96v59.95h-59.96z" fill="#AA7D35" /><path d="M447.03 297.53h59.96v59.96h-59.96z" fill="#BC9864" /><path d="M447.03 237.59h59.96v59.95h-59.96zM447.03 177.63h59.96v59.96h-59.96z" fill="#FFCD50" /><path d="M447.03 117.69h59.96v59.95h-59.96z" fill="#FFD578" /><path d="M387.08 897.05h59.96V957h-59.96z" fill="#333333" /><path d="M387.08 837.1h59.96v59.96h-59.96z" fill="#724422" /><path d="M387.08 777.15h59.96v59.95h-59.96z" fill="#935F3B" /><path d="M387.08 717.19h59.96v59.96h-59.96z" fill="#F4CAAE" /><path d="M387.08 657.24h59.96v59.96h-59.96z" fill="#F4CAAE" /><path d="M387.08 597.29h59.96v59.95h-59.96z" fill="#724422" /><path d="M387.08 537.34h59.96v59.96h-59.96z" fill="#15BA83" /><path d="M387.08 477.39h59.96v59.95h-59.96z" fill="#FFCD50" /><path d="M387.08 417.44h59.96v59.96h-59.96z" fill="#FFCD50" /><path d="M387.08 357.49h59.96v59.95h-59.96z" fill="#BC9864" /><path d="M387.08 297.53h59.96v59.96h-59.96z" fill="#FFCD50" /><path d="M387.08 237.59h59.96v59.95h-59.96z" fill="#FFFFFF" /><path d="M387.08 177.63h59.96v59.96h-59.96z" fill="#FFD578" /><path d="M327.13 837.1h59.95v59.96h-59.95z" fill="#333333" /><path d="M327.13 777.15h59.95v59.95h-59.95z" fill="#BF835A" /><path d="M327.13 717.19h59.95v59.96h-59.95z" fill="#BF835A" /><path d="M327.13 657.24h59.95v59.96h-59.95z" fill="#BF835A" /><path d="M327.13 597.29h59.95v59.95h-59.95z" fill="#724422" /><path d="M327.13 537.34h59.95v59.96h-59.95zM327.13 477.39h59.95v59.95h-59.95z" fill="#15BA83" /><path d="M327.13 417.44h59.95v59.96h-59.95z" fill="#FFFFFF" /><path d="M327.13 357.49h59.95v59.95h-59.95zM327.13 297.53h59.95v59.96h-59.95z" fill="#FFCD50" /><path d="M267.18 777.15h59.96v59.95h-59.96z" fill="#333333" /><path d="M267.18 717.19h59.96v59.96h-59.96z" fill="#333333" /><path d="M267.18 657.24h59.96v59.96h-59.96zM267.18 597.29h59.96v59.95h-59.96z" fill="#333333" /><path d="M267.18 477.39h59.96v59.95h-59.96z" fill="#3DE2A7" /><path d="M267.18 417.44h59.96v59.96h-59.96zM267.18 357.49h59.96v59.95h-59.96z" fill="#FFCD50" /><path d="M267.18 297.53h59.96v59.96h-59.96z" fill="#FFD578" /><path d="M207.23 657.24h59.95v59.96h-59.95z" fill="#333333" /><path d="M207.23 357.49h59.95v59.95h-59.95z" fill="#FFD578" /></svg>