<?xml version="1.0" standalone="no"?><!DOCTYPE svg PUBLIC "-//W3C//DTD SVG 1.1//EN" "http://www.w3.org/Graphics/SVG/1.1/DTD/svg11.dtd"><svg class="icon" width="200px" height="200.00px" viewBox="0 0 1024 1024" version="1.1" xmlns="http://www.w3.org/2000/svg"><path d="M384 768h64v64h-64zM384 704h64v64h-64z" fill="#F46D22" /><path d="M320 512h64v64h-64zM384 512h64v64h-64zM384 448h64v64h-64zM448 512h64v64h-64z" fill="#F7C963" /><path d="M512 448h64v64h-64zM512 512h64v64h-64zM512 576h64v64h-64zM512 768h64v64h-64zM512 640h64v64h-64zM512 704h64v64h-64z" fill="#E5A423" /><path d="M384 576h64v64h-64zM448 576h64v64h-64zM320 576h64v64h-64z" fill="#F7C963" /><path d="M256 704h64v64h-64zM256 640h64v64h-64zM256 576h64v64h-64zM256 512h64v64h-64zM256 448h64v64h-64zM256 768h64v64h-64z" fill="#F2D197" /><path d="M384 320h64v64h-64z" fill="#F7C963" /><path d="M256 320h64v64h-64zM256 384h64v64h-64zM256 256h64v64h-64z" fill="#F2D197" /><path d="M512 384h64v64h-64zM512 320h64v64h-64zM512 256h64v64h-64z" fill="#E5A423" /><path d="M384 256h64v64h-64zM448 256h64v64h-64zM320 256h64v64h-64zM384 384h64v64h-64zM320 384h64v64h-64zM448 384h64v64h-64z" fill="#F7C963" /><path d="M448 448h64v64h-64zM448 320h64v64h-64zM320 448h64v64h-64zM320 320h64v64h-64z" fill="#F46D22" /><path d="M448 640h64v64h-64zM448 768h64v64h-64zM320 640h64v64h-64zM448 704h64v64h-64zM320 704h64v64h-64zM384 640h64v64h-64zM320 768h64v64h-64zM192 832h64v64h-64zM128 832h64v64h-64zM640 832h64v64h-64zM576 832h64v64h-64zM512 832h64v64h-64zM384 832h64v64h-64zM320 832h64v64h-64zM448 832h64v64h-64zM256 832h64v64h-64zM576 704h64v64h-64zM576 768h64v64h-64zM576 320h64v64h-64zM576 640h64v64h-64zM576 576h64v64h-64zM576 512h64v64h-64zM576 448h64v64h-64zM576 384h64v64h-64zM576 256h64v64h-64zM192 512h64v64h-64zM192 320h64v64h-64zM192 448h64v64h-64zM192 256h64v64h-64zM192 576h64v64h-64zM192 384h64v64h-64zM192 768h64v64h-64zM192 704h64v64h-64zM192 640h64v64h-64zM640 192h64v64h-64zM640 128h64v64h-64z" fill="#333333" /><path d="M192 192h64v64h-64zM256 192h64v64h-64z" fill="#F2D197" /><path d="M128 192h64v64h-64z" fill="#333333" /><path d="M576 192h64v64h-64z" fill="#E5A423" /><path d="M448 192h64v64h-64zM320 192h64v64h-64z" fill="#F7C963" /><path d="M512 192h64v64h-64z" fill="#E5A423" /><path d="M384 192h64v64h-64z" fill="#F7C963" /><path d="M768 640h64v64h-64zM768 576h64v64h-64z" fill="#00C16E" /><path d="M832 640h64v64h-64zM832 576h64v64h-64zM768 512h64v64h-64zM704 576h64v64h-64zM704 640h64v64h-64zM768 704h64v64h-64zM768 832h64v64h-64zM768 768h64v64h-64zM576 128h64v64h-64zM512 128h64v64h-64zM448 128h64v64h-64zM384 128h64v64h-64zM320 128h64v64h-64zM256 128h64v64h-64zM192 128h64v64h-64zM128 128h64v64h-64z" fill="#333333" /></svg>