<?xml version="1.0" standalone="no"?><!DOCTYPE svg PUBLIC "-//W3C//DTD SVG 1.1//EN" "http://www.w3.org/Graphics/SVG/1.1/DTD/svg11.dtd"><svg class="icon" width="200px" height="200.00px" viewBox="0 0 1024 1024" version="1.1" xmlns="http://www.w3.org/2000/svg"><path d="M384 704h64v64h-64zM384 768h64v64h-64zM320 832h64v64h-64zM256 832h64v64h-64zM192 768h64v64h-64zM192 704h64v64h-64zM192 640h64v64h-64z" fill="#333333" /><path d="M320 768h64v64h-64z" fill="#CDD6E8" /><path d="M256 704h64v64h-64z" fill="#F5F9FF" /><path d="M512 448h64v64h-64zM576 384h64v64h-64zM640 384h64v64h-64zM704 384h64v64h-64zM768 448h64v64h-64zM832 512h64v64h-64zM768 896h64v64h-64z" fill="#333333" /><path d="M832 896h64v64h-64z" fill="#FFFFFF" /><path d="M832 832h64v64h-64zM832 768h64v64h-64zM832 704h64v64h-64zM832 640h64v64h-64zM832 576h64v64h-64z" fill="#333333" /><path d="M768 832h64v64h-64zM768 768h64v64h-64zM768 704h64v64h-64zM768 640h64v64h-64zM768 576h64v64h-64zM768 512h64v64h-64z" fill="#AFC2E0" /><path d="M704 832h64v64h-64zM704 768h64v64h-64zM704 704h64v64h-64z" fill="#333333" /><path d="M704 640h64v64h-64zM704 576h64v64h-64zM704 512h64v64h-64zM704 448h64v64h-64z" fill="#CDD6E8" /><path d="M640 768h64v64h-64z" fill="#333333" /><path d="M640 704h64v64h-64zM640 640h64v64h-64zM640 576h64v64h-64zM640 512h64v64h-64z" fill="#CDD6E8" /><path d="M640 448h64v64h-64z" fill="#F5F9FF" /><path d="M576 768h64v64h-64z" fill="#333333" /><path d="M576 704h64v64h-64z" fill="#CDD6E8" /><path d="M576 640h64v64h-64zM576 576h64v64h-64z" fill="#798CAA" /><path d="M576 512h64v64h-64z" fill="#CDD6E8" /><path d="M576 448h64v64h-64z" fill="#F5F9FF" /><path d="M576 320h64v64h-64zM576 256h64v64h-64zM576 192h64v64h-64zM512 704h64v64h-64z" fill="#333333" /><path d="M512 640h64v64h-64zM512 576h64v64h-64zM512 512h64v64h-64z" fill="#F5F9FF" /><path d="M512 384h64v64h-64z" fill="#333333" /><path d="M512 320h64v64h-64zM512 256h64v64h-64zM512 192h64v64h-64z" fill="#AFC2E0" /><path d="M512 128h64v64h-64zM448 640h64v64h-64zM448 576h64v64h-64zM448 512h64v64h-64zM448 448h64v64h-64z" fill="#333333" /><path d="M448 384h64v64h-64z" fill="#AFC2E0" /><path d="M448 320h64v64h-64zM448 256h64v64h-64z" fill="#798CAA" /><path d="M448 192h64v64h-64z" fill="#CDD6E8" /><path d="M448 128h64v64h-64z" fill="#F5F9FF" /><path d="M448 64h64v64h-64zM384 640h64v64h-64zM384 576h64v64h-64zM384 512h64v64h-64zM384 448h64v64h-64z" fill="#333333" /><path d="M384 384h64v64h-64z" fill="#AFC2E0" /><path d="M384 320h64v64h-64zM384 256h64v64h-64zM384 192h64v64h-64z" fill="#CDD6E8" /><path d="M384 128h64v64h-64z" fill="#F5F9FF" /><path d="M384 64h64v64h-64z" fill="#333333" /><path d="M320 704h64v64h-64zM320 640h64v64h-64zM320 576h64v64h-64zM320 512h64v64h-64zM320 448h64v64h-64zM320 384h64v64h-64zM320 320h64v64h-64zM320 256h64v64h-64z" fill="#CDD6E8" /><path d="M320 192h64v64h-64zM320 128h64v64h-64z" fill="#F5F9FF" /><path d="M320 64h64v64h-64z" fill="#333333" /><path d="M256 640h64v64h-64zM256 576h64v64h-64zM256 512h64v64h-64zM256 448h64v64h-64zM256 384h64v64h-64zM256 320h64v64h-64zM256 256h64v64h-64z" fill="#F5F9FF" /><path d="M256 192h64v64h-64zM256 128h64v64h-64zM192 576h64v64h-64zM192 512h64v64h-64zM192 448h64v64h-64zM192 384h64v64h-64zM192 320h64v64h-64zM192 256h64v64h-64z" fill="#333333" /></svg>