<?xml version="1.0" standalone="no"?><!DOCTYPE svg PUBLIC "-//W3C//DTD SVG 1.1//EN" "http://www.w3.org/Graphics/SVG/1.1/DTD/svg11.dtd"><svg class="icon" width="200px" height="200.00px" viewBox="0 0 1024 1024" version="1.1" xmlns="http://www.w3.org/2000/svg"><path d="M51.2 51.2h51.2v51.2H51.2zM51.2 102.4h51.2v51.2H51.2zM51.2 153.6h51.2v51.2H51.2zM102.4 204.8h51.2v51.2H102.4zM51.2 256h51.2v51.2H51.2z" fill="#3A2802" /><path d="M51.2 307.2h51.2v51.2H51.2zM51.2 614.4h51.2v51.2H51.2zM51.2 358.4h51.2v51.2H51.2zM51.2 665.6h51.2v51.2H51.2z" fill="#FFFFFF" /><path d="M51.2 409.6h51.2v51.2H51.2zM51.2 563.2h51.2v51.2H51.2zM51.2 716.8h51.2v51.2H51.2zM51.2 819.2h51.2v51.2H51.2zM51.2 870.4h51.2v51.2H51.2zM51.2 921.6h51.2v51.2H51.2zM0 307.2h51.2v51.2H0zM0 614.4h51.2v51.2H0zM0 358.4h51.2v51.2H0zM0 665.6h51.2v51.2H0zM102.4 51.2h51.2v51.2H102.4z" fill="#3A2802" /><path d="M102.4 102.4h51.2v51.2H102.4zM102.4 153.6h51.2v51.2H102.4z" fill="#00C300" /><path d="M153.6 204.8h51.2v51.2h-51.2z" fill="#3A2802" /><path d="M102.4 256h51.2v51.2H102.4z" fill="#FFFFFF" /><path d="M102.4 307.2h51.2v51.2H102.4zM102.4 614.4h51.2v51.2H102.4zM102.4 358.4h51.2v51.2H102.4zM102.4 665.6h51.2v51.2H102.4z" fill="#7859FF" /><path d="M102.4 409.6h51.2v51.2H102.4zM102.4 563.2h51.2v51.2H102.4zM102.4 716.8h51.2v51.2H102.4z" fill="#FFFFFF" /><path d="M102.4 819.2h51.2v51.2H102.4zM102.4 870.4h51.2v51.2H102.4z" fill="#00C300" /><path d="M102.4 921.6h51.2v51.2H102.4zM102.4 460.8h51.2v51.2H102.4zM102.4 512h51.2v51.2H102.4zM102.4 768h51.2v51.2H102.4zM153.6 51.2h51.2v51.2h-51.2zM256 51.2h51.2v51.2h-51.2zM307.2 0h51.2v51.2h-51.2zM358.4 0h51.2v51.2h-51.2z" fill="#3A2802" /><path d="M358.4 51.2h51.2v51.2h-51.2z" fill="#FFFFFF" /><path d="M409.6 51.2h51.2v51.2h-51.2zM563.2 51.2h51.2v51.2h-51.2zM614.4 0h51.2v51.2h-51.2zM665.6 0h51.2v51.2h-51.2z" fill="#3A2802" /><path d="M153.6 102.4h51.2v51.2h-51.2z" fill="#00C300" /><path d="M256 102.4h51.2v51.2h-51.2zM307.2 51.2h51.2v51.2h-51.2z" fill="#FFFFFF" /><path d="M204.8 102.4h51.2v51.2h-51.2z" fill="#3A2802" /><path d="M153.6 153.6h51.2v51.2h-51.2z" fill="#008700" /><path d="M256 153.6h51.2v51.2h-51.2zM307.2 102.4h51.2v51.2h-51.2zM358.4 102.4h51.2v51.2h-51.2zM409.6 102.4h51.2v51.2h-51.2z" fill="#FFFFFF" /><path d="M460.8 102.4h51.2v51.2h-51.2zM512 102.4h51.2v51.2h-51.2z" fill="#3A2802" /><path d="M563.2 102.4h51.2v51.2h-51.2zM614.4 51.2h51.2v51.2h-51.2zM665.6 51.2h51.2v51.2h-51.2z" fill="#FFFFFF" /><path d="M716.8 51.2h51.2v51.2h-51.2zM819.2 51.2h51.2v51.2h-51.2zM870.4 51.2h51.2v51.2h-51.2zM921.6 51.2h51.2v51.2h-51.2zM204.8 204.8h51.2v51.2h-51.2z" fill="#3A2802" /><path d="M153.6 256h51.2v51.2h-51.2z" fill="#FFFFFF" /><path d="M153.6 307.2h51.2v51.2h-51.2zM153.6 614.4h51.2v51.2h-51.2zM153.6 358.4h51.2v51.2h-51.2zM153.6 665.6h51.2v51.2h-51.2zM153.6 409.6h51.2v51.2h-51.2zM153.6 563.2h51.2v51.2h-51.2z" fill="#7859FF" /><path d="M153.6 716.8h51.2v51.2h-51.2z" fill="#FFFFFF" /><path d="M153.6 819.2h51.2v51.2h-51.2z" fill="#008700" /><path d="M153.6 870.4h51.2v51.2h-51.2z" fill="#00C300" /><path d="M153.6 921.6h51.2v51.2h-51.2z" fill="#3A2802" /><path d="M153.6 460.8h51.2v51.2h-51.2zM153.6 512h51.2v51.2h-51.2z" fill="#FFFFFF" /><path d="M153.6 768h51.2v51.2h-51.2zM204.8 153.6h51.2v51.2h-51.2z" fill="#3A2802" /><path d="M256 204.8h51.2v51.2h-51.2z" fill="#FFCC00" /><path d="M307.2 204.8h51.2v51.2h-51.2zM358.4 204.8h51.2v51.2h-51.2zM409.6 204.8h51.2v51.2h-51.2zM460.8 204.8h51.2v51.2h-51.2zM512 204.8h51.2v51.2h-51.2zM563.2 204.8h51.2v51.2h-51.2zM614.4 153.6h51.2v51.2h-51.2zM665.6 153.6h51.2v51.2h-51.2z" fill="#7859FF" /><path d="M716.8 153.6h51.2v51.2h-51.2z" fill="#FFFFFF" /><path d="M819.2 153.6h51.2v51.2h-51.2z" fill="#008700" /><path d="M870.4 153.6h51.2v51.2h-51.2z" fill="#00C300" /><path d="M921.6 153.6h51.2v51.2h-51.2zM768 153.6h51.2v51.2h-51.2z" fill="#3A2802" /><path d="M256 256h51.2v51.2h-51.2z" fill="#FFFFFF" /><path d="M256 307.2h51.2v51.2h-51.2z" fill="#FFCC00" /><path d="M256 614.4h51.2v51.2h-51.2zM256 358.4h51.2v51.2h-51.2z" fill="#7859FF" /><path d="M256 665.6h51.2v51.2h-51.2z" fill="#FFCC00" /><path d="M256 409.6h51.2v51.2h-51.2zM256 563.2h51.2v51.2h-51.2z" fill="#7859FF" /><path d="M256 716.8h51.2v51.2h-51.2zM256 819.2h51.2v51.2h-51.2zM256 870.4h51.2v51.2h-51.2z" fill="#FFFFFF" /><path d="M256 921.6h51.2v51.2h-51.2z" fill="#3A2802" /><path d="M256 460.8h51.2v51.2h-51.2zM256 512h51.2v51.2h-51.2z" fill="#7859FF" /><path d="M256 768h51.2v51.2h-51.2zM307.2 256h51.2v51.2h-51.2z" fill="#FFCC00" /><path d="M307.2 307.2h51.2v51.2h-51.2z" fill="#FFFFFF" /><path d="M307.2 614.4h51.2v51.2h-51.2zM307.2 358.4h51.2v51.2h-51.2z" fill="#FFCC00" /><path d="M307.2 665.6h51.2v51.2h-51.2z" fill="#FFFFFF" /><path d="M307.2 409.6h51.2v51.2h-51.2zM307.2 563.2h51.2v51.2h-51.2z" fill="#7859FF" /><path d="M307.2 716.8h51.2v51.2h-51.2z" fill="#FFCC00" /><path d="M307.2 819.2h51.2v51.2h-51.2z" fill="#7859FF" /><path d="M307.2 870.4h51.2v51.2h-51.2zM307.2 921.6h51.2v51.2h-51.2z" fill="#FFFFFF" /><path d="M307.2 460.8h51.2v51.2h-51.2zM307.2 512h51.2v51.2h-51.2z" fill="#FFCC00" /><path d="M307.2 768h51.2v51.2h-51.2zM358.4 256h51.2v51.2h-51.2z" fill="#7859FF" /><path d="M358.4 307.2h51.2v51.2h-51.2z" fill="#FFCC00" /><path d="M358.4 614.4h51.2v51.2h-51.2zM358.4 358.4h51.2v51.2h-51.2z" fill="#FFFFFF" /><path d="M358.4 665.6h51.2v51.2h-51.2zM358.4 409.6h51.2v51.2h-51.2zM358.4 563.2h51.2v51.2h-51.2z" fill="#FFCC00" /><path d="M358.4 716.8h51.2v51.2h-51.2zM358.4 819.2h51.2v51.2h-51.2z" fill="#7859FF" /><path d="M358.4 870.4h51.2v51.2h-51.2zM358.4 921.6h51.2v51.2h-51.2z" fill="#FFFFFF" /><path d="M358.4 460.8h51.2v51.2h-51.2zM358.4 512h51.2v51.2h-51.2z" fill="#FFCC00" /><path d="M358.4 768h51.2v51.2h-51.2zM409.6 256h51.2v51.2h-51.2zM409.6 307.2h51.2v51.2h-51.2z" fill="#7859FF" /><path d="M409.6 614.4h51.2v51.2h-51.2zM409.6 358.4h51.2v51.2h-51.2z" fill="#FFCC00" /><path d="M409.6 665.6h51.2v51.2h-51.2z" fill="#7859FF" /><path d="M409.6 409.6h51.2v51.2h-51.2zM409.6 563.2h51.2v51.2h-51.2z" fill="#FFFFFF" /><path d="M409.6 716.8h51.2v51.2h-51.2zM409.6 819.2h51.2v51.2h-51.2z" fill="#7859FF" /><path d="M409.6 870.4h51.2v51.2h-51.2z" fill="#FFFFFF" /><path d="M409.6 921.6h51.2v51.2h-51.2z" fill="#3A2802" /><path d="M409.6 460.8h51.2v51.2h-51.2zM409.6 512h51.2v51.2h-51.2z" fill="#FCFC11" /><path d="M409.6 768h51.2v51.2h-51.2zM460.8 256h51.2v51.2h-51.2z" fill="#7859FF" /><path d="M460.8 307.2h51.2v51.2h-51.2zM460.8 614.4h51.2v51.2h-51.2zM460.8 358.4h51.2v51.2h-51.2zM460.8 665.6h51.2v51.2h-51.2z" fill="#FFCC00" /><path d="M460.8 409.6h51.2v51.2h-51.2zM460.8 563.2h51.2v51.2h-51.2z" fill="#FCFC11" /><path d="M460.8 716.8h51.2v51.2h-51.2z" fill="#7859FF" /><path d="M460.8 819.2h51.2v51.2h-51.2z" fill="#FFFFFF" /><path d="M460.8 870.4h51.2v51.2h-51.2zM307.2 972.8h51.2v51.2h-51.2zM614.4 972.8h51.2v51.2h-51.2z" fill="#3A2802" /><path d="M460.8 460.8h51.2v51.2h-51.2zM460.8 512h51.2v51.2h-51.2z" fill="#FCFC11" /><path d="M460.8 768h51.2v51.2h-51.2zM512 256h51.2v51.2h-51.2z" fill="#7859FF" /><path d="M512 307.2h51.2v51.2h-51.2zM512 614.4h51.2v51.2h-51.2zM512 358.4h51.2v51.2h-51.2zM512 665.6h51.2v51.2h-51.2z" fill="#FFCC00" /><path d="M512 409.6h51.2v51.2h-51.2zM512 563.2h51.2v51.2h-51.2z" fill="#FCFC11" /><path d="M512 716.8h51.2v51.2h-51.2z" fill="#7859FF" /><path d="M512 819.2h51.2v51.2h-51.2z" fill="#FFFFFF" /><path d="M512 870.4h51.2v51.2h-51.2zM358.4 972.8h51.2v51.2h-51.2zM665.6 972.8h51.2v51.2h-51.2z" fill="#3A2802" /><path d="M512 460.8h51.2v51.2h-51.2zM512 512h51.2v51.2h-51.2z" fill="#FCFC11" /><path d="M512 768h51.2v51.2h-51.2zM563.2 256h51.2v51.2h-51.2zM563.2 307.2h51.2v51.2h-51.2z" fill="#7859FF" /><path d="M563.2 614.4h51.2v51.2h-51.2zM563.2 358.4h51.2v51.2h-51.2z" fill="#FFCC00" /><path d="M563.2 665.6h51.2v51.2h-51.2z" fill="#7859FF" /><path d="M563.2 409.6h51.2v51.2h-51.2zM563.2 563.2h51.2v51.2h-51.2z" fill="#FFFFFF" /><path d="M563.2 716.8h51.2v51.2h-51.2zM563.2 819.2h51.2v51.2h-51.2z" fill="#7859FF" /><path d="M563.2 870.4h51.2v51.2h-51.2z" fill="#FFFFFF" /><path d="M563.2 921.6h51.2v51.2h-51.2z" fill="#3A2802" /><path d="M563.2 460.8h51.2v51.2h-51.2zM563.2 512h51.2v51.2h-51.2z" fill="#FCFC11" /><path d="M563.2 768h51.2v51.2h-51.2zM614.4 204.8h51.2v51.2h-51.2zM665.6 204.8h51.2v51.2h-51.2z" fill="#7859FF" /><path d="M716.8 204.8h51.2v51.2h-51.2z" fill="#FFCC00" /><path d="M819.2 204.8h51.2v51.2h-51.2zM870.4 204.8h51.2v51.2h-51.2zM768 204.8h51.2v51.2h-51.2z" fill="#3A2802" /><path d="M614.4 256h51.2v51.2h-51.2z" fill="#7859FF" /><path d="M614.4 307.2h51.2v51.2h-51.2z" fill="#FFCC00" /><path d="M614.4 614.4h51.2v51.2h-51.2zM614.4 358.4h51.2v51.2h-51.2z" fill="#FFFFFF" /><path d="M614.4 665.6h51.2v51.2h-51.2zM614.4 409.6h51.2v51.2h-51.2zM614.4 563.2h51.2v51.2h-51.2z" fill="#FFCC00" /><path d="M614.4 716.8h51.2v51.2h-51.2zM614.4 819.2h51.2v51.2h-51.2z" fill="#7859FF" /><path d="M614.4 870.4h51.2v51.2h-51.2zM614.4 921.6h51.2v51.2h-51.2z" fill="#FFFFFF" /><path d="M614.4 460.8h51.2v51.2h-51.2zM614.4 512h51.2v51.2h-51.2z" fill="#FFCC00" /><path d="M614.4 768h51.2v51.2h-51.2z" fill="#7859FF" /><path d="M665.6 256h51.2v51.2h-51.2z" fill="#FFCC00" /><path d="M665.6 307.2h51.2v51.2h-51.2z" fill="#FFFFFF" /><path d="M665.6 614.4h51.2v51.2h-51.2zM665.6 358.4h51.2v51.2h-51.2z" fill="#FFCC00" /><path d="M665.6 665.6h51.2v51.2h-51.2z" fill="#FFFFFF" /><path d="M665.6 409.6h51.2v51.2h-51.2zM665.6 563.2h51.2v51.2h-51.2z" fill="#7859FF" /><path d="M665.6 716.8h51.2v51.2h-51.2z" fill="#FFCC00" /><path d="M665.6 819.2h51.2v51.2h-51.2z" fill="#7859FF" /><path d="M665.6 870.4h51.2v51.2h-51.2zM665.6 921.6h51.2v51.2h-51.2z" fill="#FFFFFF" /><path d="M665.6 460.8h51.2v51.2h-51.2zM665.6 512h51.2v51.2h-51.2z" fill="#FFCC00" /><path d="M665.6 768h51.2v51.2h-51.2z" fill="#7859FF" /><path d="M716.8 256h51.2v51.2h-51.2z" fill="#FFFFFF" /><path d="M716.8 307.2h51.2v51.2h-51.2z" fill="#FFCC00" /><path d="M716.8 614.4h51.2v51.2h-51.2zM716.8 358.4h51.2v51.2h-51.2z" fill="#7859FF" /><path d="M716.8 665.6h51.2v51.2h-51.2z" fill="#FFCC00" /><path d="M716.8 409.6h51.2v51.2h-51.2zM716.8 563.2h51.2v51.2h-51.2z" fill="#7859FF" /><path d="M716.8 716.8h51.2v51.2h-51.2zM716.8 819.2h51.2v51.2h-51.2zM716.8 870.4h51.2v51.2h-51.2z" fill="#FFFFFF" /><path d="M716.8 921.6h51.2v51.2h-51.2z" fill="#3A2802" /><path d="M716.8 460.8h51.2v51.2h-51.2zM716.8 512h51.2v51.2h-51.2z" fill="#7859FF" /><path d="M716.8 768h51.2v51.2h-51.2z" fill="#FFCC00" /><path d="M819.2 256h51.2v51.2h-51.2z" fill="#FFFFFF" /><path d="M819.2 307.2h51.2v51.2h-51.2zM819.2 614.4h51.2v51.2h-51.2zM819.2 358.4h51.2v51.2h-51.2zM819.2 665.6h51.2v51.2h-51.2zM819.2 409.6h51.2v51.2h-51.2zM819.2 563.2h51.2v51.2h-51.2z" fill="#7859FF" /><path d="M819.2 716.8h51.2v51.2h-51.2z" fill="#FFFFFF" /><path d="M819.2 819.2h51.2v51.2h-51.2z" fill="#008700" /><path d="M819.2 870.4h51.2v51.2h-51.2z" fill="#00C300" /><path d="M819.2 921.6h51.2v51.2h-51.2z" fill="#3A2802" /><path d="M819.2 460.8h51.2v51.2h-51.2zM819.2 512h51.2v51.2h-51.2z" fill="#FFFFFF" /><path d="M819.2 768h51.2v51.2h-51.2z" fill="#3A2802" /><path d="M870.4 256h51.2v51.2h-51.2z" fill="#FFFFFF" /><path d="M870.4 307.2h51.2v51.2h-51.2zM870.4 614.4h51.2v51.2h-51.2zM870.4 358.4h51.2v51.2h-51.2zM870.4 665.6h51.2v51.2h-51.2z" fill="#7859FF" /><path d="M870.4 409.6h51.2v51.2h-51.2zM870.4 563.2h51.2v51.2h-51.2zM870.4 716.8h51.2v51.2h-51.2z" fill="#FFFFFF" /><path d="M870.4 819.2h51.2v51.2h-51.2zM870.4 870.4h51.2v51.2h-51.2z" fill="#00C300" /><path d="M870.4 921.6h51.2v51.2h-51.2zM870.4 460.8h51.2v51.2h-51.2zM870.4 512h51.2v51.2h-51.2zM870.4 768h51.2v51.2h-51.2zM921.6 256h51.2v51.2h-51.2z" fill="#3A2802" /><path d="M921.6 307.2h51.2v51.2h-51.2zM921.6 614.4h51.2v51.2h-51.2zM921.6 358.4h51.2v51.2h-51.2zM921.6 665.6h51.2v51.2h-51.2z" fill="#FFFFFF" /><path d="M921.6 409.6h51.2v51.2h-51.2zM921.6 563.2h51.2v51.2h-51.2zM921.6 716.8h51.2v51.2h-51.2zM921.6 819.2h51.2v51.2h-51.2zM921.6 870.4h51.2v51.2h-51.2zM921.6 921.6h51.2v51.2h-51.2zM972.8 307.2h51.2v51.2h-51.2zM972.8 614.4h51.2v51.2h-51.2zM972.8 358.4h51.2v51.2h-51.2zM972.8 665.6h51.2v51.2h-51.2z" fill="#3A2802" /><path d="M768 256h51.2v51.2h-51.2z" fill="#FFCC00" /><path d="M768 307.2h51.2v51.2h-51.2zM768 614.4h51.2v51.2h-51.2zM768 358.4h51.2v51.2h-51.2zM768 665.6h51.2v51.2h-51.2zM768 409.6h51.2v51.2h-51.2zM768 563.2h51.2v51.2h-51.2z" fill="#7859FF" /><path d="M768 716.8h51.2v51.2h-51.2z" fill="#FFCC00" /><path d="M768 819.2h51.2v51.2h-51.2zM768 870.4h51.2v51.2h-51.2z" fill="#3A2802" /><path d="M768 460.8h51.2v51.2h-51.2zM768 512h51.2v51.2h-51.2z" fill="#7859FF" /><path d="M768 768h51.2v51.2h-51.2z" fill="#3A2802" /><path d="M307.2 153.6h51.2v51.2h-51.2zM358.4 153.6h51.2v51.2h-51.2zM409.6 153.6h51.2v51.2h-51.2z" fill="#7859FF" /><path d="M460.8 153.6h51.2v51.2h-51.2zM512 153.6h51.2v51.2h-51.2z" fill="#FFFFFF" /><path d="M563.2 153.6h51.2v51.2h-51.2z" fill="#7859FF" /><path d="M614.4 102.4h51.2v51.2h-51.2zM665.6 102.4h51.2v51.2h-51.2zM716.8 102.4h51.2v51.2h-51.2z" fill="#FFFFFF" /><path d="M819.2 102.4h51.2v51.2h-51.2zM870.4 102.4h51.2v51.2h-51.2z" fill="#00C300" /><path d="M921.6 102.4h51.2v51.2h-51.2zM768 102.4h51.2v51.2h-51.2z" fill="#3A2802" /><path d="M204.8 256h51.2v51.2h-51.2z" fill="#FFCC00" /><path d="M204.8 307.2h51.2v51.2h-51.2zM204.8 614.4h51.2v51.2h-51.2zM204.8 358.4h51.2v51.2h-51.2zM204.8 665.6h51.2v51.2h-51.2zM204.8 409.6h51.2v51.2h-51.2zM204.8 563.2h51.2v51.2h-51.2z" fill="#7859FF" /><path d="M204.8 716.8h51.2v51.2h-51.2z" fill="#FFCC00" /><path d="M204.8 819.2h51.2v51.2h-51.2zM204.8 870.4h51.2v51.2h-51.2z" fill="#3A2802" /><path d="M204.8 460.8h51.2v51.2h-51.2zM204.8 512h51.2v51.2h-51.2z" fill="#7859FF" /><path d="M204.8 768h51.2v51.2h-51.2z" fill="#3A2802" /></svg>