<?xml version="1.0" standalone="no"?><!DOCTYPE svg PUBLIC "-//W3C//DTD SVG 1.1//EN" "http://www.w3.org/Graphics/SVG/1.1/DTD/svg11.dtd"><svg class="icon" width="200px" height="200.00px" viewBox="0 0 1024 1024" version="1.1" xmlns="http://www.w3.org/2000/svg"><path d="M768 704h64v64h-64zM768 640h64v64h-64zM768 576h64v64h-64zM768 512h64v64h-64zM768 448h64v64h-64zM768 384h64v64h-64zM768 320h64v64h-64zM768 256h64v64h-64zM704 768h64v64h-64z" fill="#333333" /><path d="M704 704h64v64h-64zM704 640h64v64h-64zM704 576h64v64h-64zM704 512h64v64h-64zM704 448h64v64h-64zM704 384h64v64h-64zM704 320h64v64h-64zM704 256h64v64h-64z" fill="#0C33AF" /><path d="M704 192h64v64h-64zM640 832h64v64h-64z" fill="#333333" /><path d="M640 768h64v64h-64z" fill="#D3D9ED" /><path d="M640 704h64v64h-64zM640 640h64v64h-64zM640 576h64v64h-64z" fill="#2B49C9" /><path d="M640 512h64v64h-64zM640 448h64v64h-64z" fill="#FF4D4D" /><path d="M640 384h64v64h-64zM640 320h64v64h-64zM640 256h64v64h-64z" fill="#2B49C9" /><path d="M640 192h64v64h-64z" fill="#D3D9ED" /><path d="M640 128h64v64h-64zM576 832h64v64h-64z" fill="#333333" /><path d="M576 768h64v64h-64z" fill="#E4E8F2" /><path d="M576 704h64v64h-64zM576 640h64v64h-64z" fill="#2B49C9" /><path d="M576 576h64v64h-64zM576 512h64v64h-64zM576 448h64v64h-64zM576 384h64v64h-64z" fill="#FF4D4D" /><path d="M576 320h64v64h-64zM576 256h64v64h-64z" fill="#2B49C9" /><path d="M576 192h64v64h-64z" fill="#E4E8F2" /><path d="M576 128h64v64h-64zM512 832h64v64h-64z" fill="#333333" /><path d="M512 768h64v64h-64z" fill="#E4E8F2" /><path d="M512 704h64v64h-64zM512 640h64v64h-64z" fill="#2B49C9" /><path d="M512 576h64v64h-64z" fill="#FF4D4D" /><path d="M512 512h64v64h-64zM512 448h64v64h-64z" fill="#F3F7FF" /><path d="M512 384h64v64h-64z" fill="#FF4D4D" /><path d="M512 320h64v64h-64zM512 256h64v64h-64z" fill="#2B49C9" /><path d="M512 192h64v64h-64z" fill="#E4E8F2" /><path d="M512 128h64v64h-64zM448 832h64v64h-64z" fill="#333333" /><path d="M448 768h64v64h-64z" fill="#E4E8F2" /><path d="M448 704h64v64h-64zM448 640h64v64h-64z" fill="#2B49C9" /><path d="M448 576h64v64h-64zM448 512h64v64h-64z" fill="#4D6ED6" /><path d="M448 448h64v64h-64zM448 384h64v64h-64z" fill="#F3F7FF" /><path d="M448 320h64v64h-64zM448 256h64v64h-64z" fill="#2B49C9" /><path d="M448 192h64v64h-64z" fill="#E4E8F2" /><path d="M448 128h64v64h-64zM384 832h64v64h-64z" fill="#333333" /><path d="M384 768h64v64h-64z" fill="#F3F7FF" /><path d="M384 704h64v64h-64zM384 640h64v64h-64zM384 576h64v64h-64z" fill="#2B49C9" /><path d="M384 512h64v64h-64zM384 448h64v64h-64z" fill="#4D6ED6" /><path d="M384 384h64v64h-64zM384 320h64v64h-64zM384 256h64v64h-64z" fill="#2B49C9" /><path d="M384 192h64v64h-64z" fill="#F3F7FF" /><path d="M384 128h64v64h-64zM320 832h64v64h-64z" fill="#333333" /><path d="M320 768h64v64h-64z" fill="#F3F7FF" /><path d="M320 704h64v64h-64zM320 640h64v64h-64zM320 576h64v64h-64zM320 512h64v64h-64zM320 448h64v64h-64zM320 384h64v64h-64zM320 320h64v64h-64zM320 256h64v64h-64z" fill="#2B49C9" /><path d="M320 192h64v64h-64z" fill="#F3F7FF" /><path d="M320 128h64v64h-64zM256 768h64v64h-64z" fill="#333333" /><path d="M256 704h64v64h-64zM256 640h64v64h-64zM256 576h64v64h-64zM256 512h64v64h-64zM256 448h64v64h-64zM256 384h64v64h-64zM256 320h64v64h-64zM256 256h64v64h-64z" fill="#547BDD" /><path d="M256 192h64v64h-64zM192 704h64v64h-64zM192 640h64v64h-64zM192 576h64v64h-64zM192 512h64v64h-64zM192 448h64v64h-64zM192 384h64v64h-64zM192 320h64v64h-64zM192 256h64v64h-64z" fill="#333333" /></svg>