<?xml version="1.0" standalone="no"?><!DOCTYPE svg PUBLIC "-//W3C//DTD SVG 1.1//EN" "http://www.w3.org/Graphics/SVG/1.1/DTD/svg11.dtd"><svg class="icon" width="200px" height="200.00px" viewBox="0 0 1024 1024" version="1.1" xmlns="http://www.w3.org/2000/svg"><path d="M694.211765 0h51.2v51.2h-51.2zM537.6 51.2h51.2v51.2h-51.2zM486.4 102.4h51.2v51.2h-51.2z" fill="#3A2802" /><path d="M435.2 153.6h51.2v51.2h-51.2z" fill="#FF7C5B" /><path d="M486.4 204.8h51.2v51.2h-51.2z" fill="#FF3400" /><path d="M435.2 256h51.2v51.2h-51.2zM435.2 307.2h51.2v51.2h-51.2zM435.2 358.4h51.2v51.2h-51.2zM435.2 409.6h51.2v51.2h-51.2z" fill="#FFFFFF" /><path d="M435.2 460.8h51.2v51.2h-51.2z" fill="#FFFFA5" /><path d="M435.2 512h51.2v51.2h-51.2zM435.2 563.2h51.2v51.2h-51.2z" fill="#FF3400" /><path d="M435.2 614.4h51.2v51.2h-51.2z" fill="#FFDE00" /><path d="M435.2 665.6h51.2v51.2h-51.2z" fill="#71ACFD" /><path d="M435.2 716.8h51.2v51.2h-51.2z" fill="#FF3400" /><path d="M435.2 768h51.2v51.2h-51.2z" fill="#71ACFD" /><path d="M486.4 870.4h51.2v51.2h-51.2z" fill="#3A2802" /><path d="M486.4 921.6h51.2v51.2h-51.2z" fill="#B5751C" /><path d="M486.4 972.8h51.2v51.2h-51.2z" fill="#3A2802" /><path d="M435.2 819.2h51.2v51.2h-51.2z" fill="#9F1EC3" /><path d="M384 204.8h51.2v51.2h-51.2zM332.8 256h51.2v51.2h-51.2z" fill="#FF7C5B" /><path d="M332.8 307.2h51.2v51.2h-51.2z" fill="#FFFFA5" /><path d="M332.8 358.4h51.2v51.2h-51.2z" fill="#FFDE00" /><path d="M332.8 409.6h51.2v51.2h-51.2z" fill="#CD2A00" /><path d="M332.8 460.8h51.2v51.2h-51.2zM332.8 512h51.2v51.2h-51.2zM332.8 563.2h51.2v51.2h-51.2zM332.8 614.4h51.2v51.2h-51.2z" fill="#FF3400" /><path d="M332.8 665.6h51.2v51.2h-51.2z" fill="#FFDE00" /><path d="M332.8 716.8h51.2v51.2h-51.2z" fill="#71ACFD" /><path d="M332.8 768h51.2v51.2h-51.2z" fill="#FF3400" /><path d="M384 870.4h51.2v51.2h-51.2z" fill="#3A2802" /><path d="M384 921.6h51.2v51.2h-51.2z" fill="#B5751C" /><path d="M384 972.8h51.2v51.2h-51.2z" fill="#3A2802" /><path d="M332.8 819.2h51.2v51.2h-51.2z" fill="#9F1EC3" /><path d="M537.6 256h51.2v51.2h-51.2zM537.6 307.2h51.2v51.2h-51.2z" fill="#FFFFFF" /><path d="M537.6 358.4h51.2v51.2h-51.2zM537.6 409.6h51.2v51.2h-51.2z" fill="#FE9494" /><path d="M537.6 460.8h51.2v51.2h-51.2z" fill="#FFFFA5" /><path d="M537.6 512h51.2v51.2h-51.2zM537.6 563.2h51.2v51.2h-51.2zM537.6 614.4h51.2v51.2h-51.2z" fill="#FF3400" /><path d="M537.6 665.6h51.2v51.2h-51.2z" fill="#FFDE00" /><path d="M537.6 716.8h51.2v51.2h-51.2z" fill="#47D147" /><path d="M537.6 768h51.2v51.2h-51.2z" fill="#71ACFD" /><path d="M588.8 870.4h51.2v51.2h-51.2z" fill="#3A2802" /><path d="M588.8 921.6h51.2v51.2h-51.2z" fill="#7D4900" /><path d="M588.8 972.8h51.2v51.2h-51.2z" fill="#3A2802" /><path d="M537.6 819.2h51.2v51.2h-51.2z" fill="#85299F" /><path d="M435.2 102.4h51.2v51.2h-51.2zM384 153.6h51.2v51.2h-51.2z" fill="#3A2802" /><path d="M435.2 204.8h51.2v51.2h-51.2z" fill="#FF3400" /><path d="M384 256h51.2v51.2h-51.2zM384 307.2h51.2v51.2h-51.2zM384 358.4h51.2v51.2h-51.2z" fill="#FFDE00" /><path d="M384 409.6h51.2v51.2h-51.2zM384 460.8h51.2v51.2h-51.2zM384 512h51.2v51.2h-51.2zM384 563.2h51.2v51.2h-51.2zM384 614.4h51.2v51.2h-51.2z" fill="#FF3400" /><path d="M384 665.6h51.2v51.2h-51.2z" fill="#FFDE00" /><path d="M384 716.8h51.2v51.2h-51.2z" fill="#71ACFD" /><path d="M384 768h51.2v51.2h-51.2z" fill="#FF3400" /><path d="M435.2 870.4h51.2v51.2h-51.2z" fill="#7D4900" /><path d="M435.2 921.6h51.2v51.2h-51.2z" fill="#716262" /><path d="M435.2 972.8h51.2v51.2h-51.2z" fill="#3A2802" /><path d="M384 819.2h51.2v51.2h-51.2z" fill="#7D4900" /><path d="M332.8 204.8h51.2v51.2h-51.2zM281.6 256h51.2v51.2h-51.2z" fill="#3A2802" /><path d="M281.6 307.2h51.2v51.2h-51.2z" fill="#FF7C5B" /><path d="M281.6 358.4h51.2v51.2h-51.2z" fill="#FFFFA5" /><path d="M281.6 409.6h51.2v51.2h-51.2z" fill="#FFDE00" /><path d="M281.6 460.8h51.2v51.2h-51.2zM281.6 512h51.2v51.2h-51.2z" fill="#3A2802" /><path d="M281.6 563.2h51.2v51.2h-51.2z" fill="#FF3400" /><path d="M230.4 563.2h51.2v51.2H230.4z" fill="#3A2802" /><path d="M281.6 614.4h51.2v51.2h-51.2zM230.4 614.4h51.2v51.2H230.4z" fill="#FF3400" /><path d="M179.2 614.4h51.2v51.2H179.2z" fill="#3A2802" /><path d="M281.6 665.6h51.2v51.2h-51.2z" fill="#FF3400" /><path d="M281.6 716.8h51.2v51.2h-51.2z" fill="#FFDE00" /><path d="M281.6 768h51.2v51.2h-51.2z" fill="#FF3400" /><path d="M332.8 870.4h51.2v51.2h-51.2z" fill="#3A2802" /><path d="M332.8 921.6h51.2v51.2h-51.2z" fill="#B5751C" /><path d="M332.8 972.8h51.2v51.2h-51.2zM281.6 819.2h51.2v51.2h-51.2z" fill="#3A2802" /><path d="M230.4 665.6h51.2v51.2H230.4z" fill="#FF3400" /><path d="M230.4 716.8h51.2v51.2H230.4z" fill="#FFDE00" /><path d="M230.4 768h51.2v51.2H230.4z" fill="#FF3400" /><path d="M281.6 870.4h51.2v51.2h-51.2z" fill="#3A2802" /><path d="M281.6 921.6h51.2v51.2h-51.2z" fill="#B5751C" /><path d="M281.6 972.8h51.2v51.2h-51.2zM230.4 819.2h51.2v51.2H230.4z" fill="#3A2802" /><path d="M179.2 665.6h51.2v51.2H179.2zM179.2 716.8h51.2v51.2H179.2z" fill="#FF3400" /><path d="M179.2 768h51.2v51.2H179.2zM230.4 870.4h51.2v51.2H230.4z" fill="#3A2802" /><path d="M230.4 921.6h51.2v51.2H230.4z" fill="#7D4900" /><path d="M179.2 921.6h51.2v51.2H179.2zM230.4 972.8h51.2v51.2H230.4zM179.2 972.8h51.2v51.2H179.2zM128 665.6h51.2v51.2H128zM128 716.8h51.2v51.2H128zM230.4 307.2h51.2v51.2H230.4zM230.4 358.4h51.2v51.2H230.4zM230.4 409.6h51.2v51.2H230.4z" fill="#3A2802" /><path d="M486.4 256h51.2v51.2h-51.2z" fill="#FFFFFF" /><path d="M486.4 307.2h51.2v51.2h-51.2zM486.4 358.4h51.2v51.2h-51.2z" fill="#3A2802" /><path d="M486.4 409.6h51.2v51.2h-51.2z" fill="#FE9494" /><path d="M486.4 460.8h51.2v51.2h-51.2z" fill="#FFFFA5" /><path d="M486.4 512h51.2v51.2h-51.2zM486.4 563.2h51.2v51.2h-51.2zM486.4 614.4h51.2v51.2h-51.2zM486.4 665.6h51.2v51.2h-51.2z" fill="#FF3400" /><path d="M486.4 716.8h51.2v51.2h-51.2z" fill="#47D147" /><path d="M486.4 768h51.2v51.2h-51.2z" fill="#71ACFD" /><path d="M537.6 870.4h51.2v51.2h-51.2z" fill="#3A2802" /><path d="M537.6 921.6h51.2v51.2h-51.2z" fill="#B5751C" /><path d="M537.6 972.8h51.2v51.2h-51.2z" fill="#3A2802" /><path d="M486.4 819.2h51.2v51.2h-51.2z" fill="#85299F" /><path d="M640 51.2h51.2v51.2h-51.2z" fill="#3A2802" /><path d="M588.8 102.4h51.2v51.2h-51.2z" fill="#FF7C5B" /><path d="M537.6 153.6h51.2v51.2h-51.2zM588.8 204.8h51.2v51.2h-51.2zM640 256h51.2v51.2h-51.2zM640 307.2h51.2v51.2h-51.2zM640 358.4h51.2v51.2h-51.2zM640 409.6h51.2v51.2h-51.2zM640 460.8h51.2v51.2h-51.2zM640 512h51.2v51.2h-51.2zM640 563.2h51.2v51.2h-51.2z" fill="#FF3400" /><path d="M640 614.4h51.2v51.2h-51.2zM640 665.6h51.2v51.2h-51.2z" fill="#FFDE00" /><path d="M640 716.8h51.2v51.2h-51.2z" fill="#71ACFD" /><path d="M640 768h51.2v51.2h-51.2z" fill="#85299F" /><path d="M691.2 870.4h51.2v51.2h-51.2z" fill="#3A2802" /><path d="M691.2 921.6h51.2v51.2h-51.2z" fill="#B5751C" /><path d="M691.2 972.8h51.2v51.2h-51.2zM640 819.2h51.2v51.2h-51.2z" fill="#3A2802" /><path d="M742.4 51.2h51.2v51.2h-51.2zM691.2 102.4h51.2v51.2h-51.2zM640 153.6h51.2v51.2h-51.2zM691.2 204.8h51.2v51.2h-51.2z" fill="#FF3400" /><path d="M742.4 256h51.2v51.2h-51.2z" fill="#CD2A00" /><path d="M742.4 307.2h51.2v51.2h-51.2z" fill="#FF3400" /><path d="M742.4 358.4h51.2v51.2h-51.2z" fill="#CD2A00" /><path d="M742.4 409.6h51.2v51.2h-51.2zM742.4 460.8h51.2v51.2h-51.2z" fill="#FF3400" /><path d="M742.4 512h51.2v51.2h-51.2zM742.4 563.2h51.2v51.2h-51.2z" fill="#FFDE00" /><path d="M742.4 614.4h51.2v51.2h-51.2z" fill="#47D147" /><path d="M742.4 665.6h51.2v51.2h-51.2z" fill="#71ACFD" /><path d="M742.4 716.8h51.2v51.2h-51.2z" fill="#3168B5" /><path d="M742.4 768h51.2v51.2h-51.2zM793.6 870.4h51.2v51.2h-51.2zM793.6 921.6h51.2v51.2h-51.2zM793.6 972.8h51.2v51.2h-51.2zM745.411765 0h51.2v51.2h-51.2zM588.8 51.2h51.2v51.2h-51.2z" fill="#3A2802" /><path d="M537.6 102.4h51.2v51.2h-51.2zM486.4 153.6h51.2v51.2h-51.2z" fill="#FF7C5B" /><path d="M537.6 204.8h51.2v51.2h-51.2zM588.8 256h51.2v51.2h-51.2z" fill="#FF3400" /><path d="M588.8 307.2h51.2v51.2h-51.2z" fill="#FFFFFF" /><path d="M588.8 358.4h51.2v51.2h-51.2zM588.8 409.6h51.2v51.2h-51.2z" fill="#FFFFA5" /><path d="M588.8 460.8h51.2v51.2h-51.2zM588.8 512h51.2v51.2h-51.2zM588.8 563.2h51.2v51.2h-51.2zM588.8 614.4h51.2v51.2h-51.2z" fill="#FF3400" /><path d="M588.8 665.6h51.2v51.2h-51.2z" fill="#FFDE00" /><path d="M588.8 716.8h51.2v51.2h-51.2z" fill="#47D147" /><path d="M588.8 768h51.2v51.2h-51.2z" fill="#71ACFD" /><path d="M640 870.4h51.2v51.2h-51.2z" fill="#7D4900" /><path d="M640 921.6h51.2v51.2h-51.2z" fill="#716262" /><path d="M640 972.8h51.2v51.2h-51.2z" fill="#3A2802" /><path d="M588.8 819.2h51.2v51.2h-51.2z" fill="#7D4900" /><path d="M691.2 51.2h51.2v51.2h-51.2zM640 102.4h51.2v51.2h-51.2zM588.8 153.6h51.2v51.2h-51.2zM640 204.8h51.2v51.2h-51.2zM691.2 256h51.2v51.2h-51.2zM691.2 307.2h51.2v51.2h-51.2zM691.2 358.4h51.2v51.2h-51.2zM691.2 409.6h51.2v51.2h-51.2zM691.2 460.8h51.2v51.2h-51.2zM691.2 512h51.2v51.2h-51.2z" fill="#FF3400" /><path d="M691.2 563.2h51.2v51.2h-51.2zM691.2 614.4h51.2v51.2h-51.2z" fill="#FFDE00" /><path d="M691.2 665.6h51.2v51.2h-51.2z" fill="#47D147" /><path d="M691.2 716.8h51.2v51.2h-51.2z" fill="#3168B5" /><path d="M691.2 768h51.2v51.2h-51.2z" fill="#85299F" /><path d="M742.4 870.4h51.2v51.2h-51.2z" fill="#3A2802" /><path d="M742.4 921.6h51.2v51.2h-51.2z" fill="#B5751C" /><path d="M742.4 972.8h51.2v51.2h-51.2zM691.2 819.2h51.2v51.2h-51.2zM793.6 51.2h51.2v51.2h-51.2zM742.4 102.4h51.2v51.2h-51.2zM691.2 153.6h51.2v51.2h-51.2zM742.4 204.8h51.2v51.2h-51.2zM793.6 256h51.2v51.2h-51.2zM793.6 307.2h51.2v51.2h-51.2z" fill="#3A2802" /><path d="M793.6 358.4h51.2v51.2h-51.2z" fill="#FF3400" /><path d="M844.8 358.4h51.2v51.2h-51.2z" fill="#3A2802" /><path d="M793.6 409.6h51.2v51.2h-51.2zM793.6 460.8h51.2v51.2h-51.2z" fill="#CD2A00" /><path d="M793.6 512h51.2v51.2h-51.2zM793.6 563.2h51.2v51.2h-51.2z" fill="#008300" /><path d="M793.6 614.4h51.2v51.2h-51.2zM793.6 665.6h51.2v51.2h-51.2z" fill="#3168B5" /><path d="M793.6 716.8h51.2v51.2h-51.2zM844.8 409.6h51.2v51.2h-51.2zM844.8 460.8h51.2v51.2h-51.2zM844.8 512h51.2v51.2h-51.2zM844.8 563.2h51.2v51.2h-51.2zM844.8 614.4h51.2v51.2h-51.2zM844.8 665.6h51.2v51.2h-51.2z" fill="#3A2802" /></svg>