<?xml version="1.0" standalone="no"?><!DOCTYPE svg PUBLIC "-//W3C//DTD SVG 1.1//EN" "http://www.w3.org/Graphics/SVG/1.1/DTD/svg11.dtd"><svg class="icon" width="200px" height="200.00px" viewBox="0 0 1024 1024" version="1.1" xmlns="http://www.w3.org/2000/svg"><path d="M806.74 567.31h59.96v59.96h-59.96z" fill="#333333" /><path d="M806.74 507.37h59.96v59.95h-59.96zM806.74 447.41h59.96v59.96h-59.96z" fill="#333333" /><path d="M806.74 387.47h59.96v59.95h-59.96zM746.79 687.22h59.95v59.96h-59.95zM746.79 627.27h59.95v59.95h-59.95z" fill="#333333" /><path d="M746.79 567.31h59.95v59.96h-59.95z" fill="#FF8D8D" /><path d="M746.79 507.37h59.95v59.95h-59.95zM746.79 447.41h59.95v59.96h-59.95z" fill="#E2E1B7" /><path d="M746.79 387.47h59.95v59.95h-59.95z" fill="#E2E1B7" /><path d="M746.79 327.51h59.95v59.96h-59.95zM746.79 267.56h59.95v59.95h-59.95zM686.84 747.17h59.96v59.95h-59.96z" fill="#333333" /><path d="M686.84 687.22h59.96v59.96h-59.96zM686.84 627.27h59.96v59.95h-59.96z" fill="#E2E1B7" /><path d="M686.84 567.31h59.96v59.96h-59.96z" fill="#FDFFE9" /><path d="M686.84 507.37h59.96v59.95h-59.96zM686.84 447.41h59.96v59.96h-59.96z" fill="#333333" /><path d="M686.84 387.47h59.96v59.95h-59.96z" fill="#FDFFE9" /><path d="M686.84 327.51h59.96v59.96h-59.96zM686.84 267.56h59.96v59.95h-59.96z" fill="#F2F4D3" /><path d="M686.84 207.61h59.96v59.96h-59.96zM626.89 747.17h59.95v59.95h-59.95z" fill="#333333" /><path d="M626.89 687.22h59.95v59.96h-59.95z" fill="#E2E1B7" /><path d="M626.89 627.27h59.95v59.95h-59.95z" fill="#333333" /><path d="M626.89 567.31h59.95v59.96h-59.95z" fill="#FDFFE9" /><path d="M626.89 507.37h59.95v59.95h-59.95zM626.89 447.41h59.95v59.96h-59.95z" fill="#FDFFE9" /><path d="M626.89 387.47h59.95v59.95h-59.95zM626.89 327.51h59.95v59.96h-59.95z" fill="#FDFFE9" /><path d="M626.89 267.56h59.95v59.95h-59.95z" fill="#F2F4D3" /><path d="M626.89 207.61h59.95v59.96h-59.95zM566.94 807.12h59.96v59.96h-59.96z" fill="#333333" /><path d="M566.94 747.17h59.96v59.95h-59.96z" fill="#E2E1B7" /><path d="M566.94 687.22h59.96v59.96h-59.96z" fill="#FDFFE9" /><path d="M566.94 627.27h59.96v59.95h-59.96z" fill="#333333" /><path d="M566.94 567.31h59.96v59.96h-59.96z" fill="#FDFFE9" /><path d="M566.94 507.37h59.96v59.95h-59.96zM566.94 447.41h59.96v59.96h-59.96z" fill="#FDFFE9" /><path d="M566.94 387.47h59.96v59.95h-59.96zM566.94 327.51h59.96v59.96h-59.96zM566.94 267.56h59.96v59.95h-59.96z" fill="#FDFFE9" /><path d="M566.94 207.61h59.96v59.96h-59.96z" fill="#FDFFE9" /><path d="M566.94 147.66h59.96v59.95h-59.96zM506.99 807.12h59.95v59.96h-59.95z" fill="#333333" /><path d="M506.99 747.17h59.95v59.95h-59.95z" fill="#E2E1B7" /><path d="M506.99 687.22h59.95v59.96h-59.95z" fill="#FDFFE9" /><path d="M506.99 627.27h59.95v59.95h-59.95z" fill="#333333" /><path d="M506.99 567.31h59.95v59.96h-59.95z" fill="#FDFFE9" /><path d="M506.99 507.37h59.95v59.95h-59.95zM506.99 447.41h59.95v59.96h-59.95z" fill="#FDFFE9" /><path d="M506.99 387.47h59.95v59.95h-59.95zM506.99 327.51h59.95v59.96h-59.95z" fill="#FDFFE9" /><path d="M506.99 267.56h59.95v59.95h-59.95z" fill="#333333" /><path d="M506.99 207.61h59.95v59.96h-59.95z" fill="#FDFFE9" /><path d="M506.99 147.66h59.95v59.95h-59.95zM447.03 807.12h59.96v59.96h-59.96z" fill="#333333" /><path d="M447.03 747.17h59.96v59.95h-59.96z" fill="#FFFFFA" /><path d="M447.03 687.22h59.96v59.96h-59.96zM447.03 627.27h59.96v59.95h-59.96zM447.03 567.31h59.96v59.96h-59.96z" fill="#FDFFE9" /><path d="M447.03 507.37h59.96v59.95h-59.96zM447.03 447.41h59.96v59.96h-59.96z" fill="#333333" /><path d="M447.03 387.47h59.96v59.95h-59.96z" fill="#FDFFE9" /><path d="M447.03 327.51h59.96v59.96h-59.96z" fill="#333333" /><path d="M447.03 267.56h59.96v59.95h-59.96z" fill="#070707" /><path d="M447.03 207.61h59.96v59.96h-59.96zM447.03 147.66h59.96v59.95h-59.96zM387.08 807.12h59.96v59.96h-59.96z" fill="#333333" /><path d="M387.08 747.17h59.96v59.95h-59.96z" fill="#FFFFFA" /><path d="M387.08 687.22h59.96v59.96h-59.96z" fill="#FDFFE9" /><path d="M387.08 627.27h59.96v59.95h-59.96z" fill="#FFAEAE" /><path d="M387.08 567.31h59.96v59.96h-59.96z" fill="#FF8D8D" /><path d="M387.08 507.37h59.96v59.95h-59.96zM387.08 447.41h59.96v59.96h-59.96z" fill="#FDFFE9" /><path d="M387.08 387.47h59.96v59.95h-59.96z" fill="#333333" /><path d="M387.08 327.51h59.96v59.96h-59.96zM387.08 267.56h59.96v59.95h-59.96z" fill="#070707" /><path d="M387.08 207.61h59.96v59.96h-59.96z" fill="#070707" /><path d="M387.08 147.66h59.96v59.95h-59.96zM327.13 747.17h59.95v59.95h-59.95z" fill="#333333" /><path d="M327.13 687.22h59.95v59.96h-59.95z" fill="#FFFFFA" /><path d="M327.13 627.27h59.95v59.95h-59.95z" fill="#FFD7D7" /><path d="M327.13 567.31h59.95v59.96h-59.95z" fill="#FFAEAE" /><path d="M327.13 507.37h59.95v59.95h-59.95z" fill="#FDFFE9" /><path d="M327.13 447.41h59.95v59.96h-59.95z" fill="#333333" /><path d="M327.13 387.47h59.95v59.95h-59.95z" fill="#1C1C1C" /><path d="M327.13 327.51h59.95v59.96h-59.95z" fill="#070707" /><path d="M327.13 267.56h59.95v59.95h-59.95z" fill="#1C1C1C" /><path d="M327.13 207.61h59.95v59.96h-59.95z" fill="#E5E5E5" /><path d="M267.18 747.17h59.96v59.95h-59.96z" fill="#333333" /><path d="M267.18 687.22h59.96v59.96h-59.96zM267.18 627.27h59.96v59.95h-59.96z" fill="#FFFFFA" /><path d="M267.18 567.31h59.96v59.96h-59.96z" fill="#FDFFE9" /><path d="M267.18 507.37h59.96v59.95h-59.96zM267.18 447.41h59.96v59.96h-59.96z" fill="#FFFFFA" /><path d="M267.18 387.47h59.96v59.95h-59.96z" fill="#333333" /><path d="M267.18 327.51h59.96v59.96h-59.96z" fill="#1C1C1C" /><path d="M267.18 267.56h59.96v59.95h-59.96z" fill="#E5E5E5" /><path d="M267.18 207.61h59.96v59.96h-59.96z" fill="#FFFFFA" /><path d="M207.23 687.22h59.95v59.96h-59.95zM207.23 627.27h59.95v59.95h-59.95z" fill="#333333" /><path d="M207.23 567.31h59.95v59.96h-59.95z" fill="#FFFFFA" /><path d="M207.23 507.37h59.95v59.95h-59.95zM207.23 447.41h59.95v59.96h-59.95z" fill="#333333" /><path d="M207.23 387.47h59.95v59.95h-59.95zM207.23 327.51h59.95v59.96h-59.95z" fill="#333333" /><path d="M207.23 267.56h59.95v59.95h-59.95z" fill="#FFFFFA" /><path d="M147.28 567.31h59.96v59.96h-59.96z" fill="#333333" /><path d="M147.28 507.37h59.96v59.95h-59.96zM147.28 447.41h59.96v59.96h-59.96z" fill="#333333" /><path d="M147.28 387.47h59.96v59.95h-59.96z" fill="#333333" /></svg>