<?xml version="1.0" standalone="no"?><!DOCTYPE svg PUBLIC "-//W3C//DTD SVG 1.1//EN" "http://www.w3.org/Graphics/SVG/1.1/DTD/svg11.dtd"><svg class="icon" width="200px" height="200.00px" viewBox="0 0 1024 1024" version="1.1" xmlns="http://www.w3.org/2000/svg"><path d="M578.681976 0h44.521412v44.521412h-44.521412z" fill="#3A2802" /><path d="M534.165082 44.519906h44.521412v44.521412h-44.521412zM578.681976 89.044329h44.521412v44.521412h-44.521412z" fill="#3A2802" /><path d="M578.681976 44.519906h44.521412v44.521412h-44.521412z" fill="#FFFFA5" /><path d="M534.165082 133.564235h44.521412v44.521412h-44.521412zM578.681976 178.088659h44.521412v44.521412h-44.521412z" fill="#3A2802" /><path d="M578.681976 133.564235h44.521412v44.521412h-44.521412z" fill="#FFFFA5" /><path d="M623.200376 178.088659h44.521412v44.521412h-44.521412z" fill="#3A2802" /><path d="M623.200376 133.564235h44.521412v44.521412h-44.521412z" fill="#FFFF00" /><path d="M623.200376 89.044329h44.521412v44.521412h-44.521412z" fill="#3A2802" /><path d="M623.200376 44.519906h44.521412v44.521412h-44.521412z" fill="#FFFF00" /><path d="M667.729318 222.608565h44.521411v44.521411h-44.521411z" fill="#3A2802" /><path d="M667.729318 178.088659h44.521411v44.521412h-44.521411z" fill="#FFFF00" /><path d="M667.729318 133.564235h44.521411v44.521412h-44.521411z" fill="#3A2802" /><path d="M667.729318 89.044329h44.521411v44.521412h-44.521411z" fill="#FFFF00" /><path d="M623.200376 267.132988h44.521412v44.521412h-44.521412z" fill="#3A2802" /><path d="M623.200376 311.652894h44.521412v44.521412h-44.521412zM667.729318 356.1728h44.521411v44.521412h-44.521411z" fill="#3A2802" /><path d="M667.729318 311.652894h44.521411v44.521412h-44.521411z" fill="#FFFFA5" /><path d="M667.729318 267.132988h44.521411v44.521412h-44.521411z" fill="#FFFFA5" /><path d="M623.200376 400.694212h44.521412v44.521412h-44.521412zM578.681976 445.217129h44.521412v44.521412h-44.521412zM445.117741 534.261459h44.521412v44.521412h-44.521412z" fill="#3A2802" /><path d="M534.165082 445.217129h44.521412v44.521412h-44.521412zM400.599341 534.261459h44.521412v44.521412h-44.521412zM356.0704 578.782871h44.521412v44.521411h-44.521412zM311.553506 623.305788h44.521412v44.521412h-44.521412zM311.553506 667.8272h44.521412v44.521412h-44.521412z" fill="#3A2802" /><path d="M267.035106 712.347106h44.521412v44.521412h-44.521412zM222.506165 756.867012h44.521411v44.521412h-44.521411zM177.987765 801.391435h44.521411v44.521412H177.987765z" fill="#3A2802" /><path d="M133.470871 845.911341h44.521411v44.521412H133.470871zM133.470871 934.955671h44.521411v44.521411H133.470871z" fill="#3A2802" /><path d="M133.470871 890.435765h44.521411v44.521411H133.470871z" fill="#FFFF93" /><path d="M267.035106 890.435765h44.521412v44.521411h-44.521412z" fill="#3A2802" /><path d="M267.035106 845.911341h44.521412v44.521412h-44.521412z" fill="#FFFF93" /><path d="M267.035106 801.391435h44.521412v44.521412h-44.521412z" fill="#3A2802" /><path d="M267.035106 756.867012h44.521412v44.521412h-44.521412z" fill="#FFFF93" /><path d="M222.506165 934.955671h44.521411v44.521411h-44.521411z" fill="#3A2802" /><path d="M222.506165 890.435765h44.521411v44.521411h-44.521411zM222.506165 845.911341h44.521411v44.521412h-44.521411z" fill="#FFFF93" /><path d="M222.506165 801.391435h44.521411v44.521412h-44.521411z" fill="#FFFF93" /><path d="M356.0704 890.435765h44.521412v44.521411h-44.521412z" fill="#3A2802" /><path d="M356.0704 845.911341h44.521412v44.521412h-44.521412z" fill="#FFFF93" /><path d="M356.0704 801.391435h44.521412v44.521412h-44.521412z" fill="#FFFF93" /><path d="M356.0704 756.867012h44.521412v44.521412h-44.521412z" fill="#3A2802" /><path d="M356.0704 712.347106h44.521412v44.521412h-44.521412z" fill="#FFFF93" /><path d="M356.0704 667.8272h44.521412v44.521412h-44.521412zM356.0704 623.305788h44.521412v44.521412h-44.521412z" fill="#FFFFFF" /><path d="M400.599341 934.955671h44.521412v44.521411h-44.521412z" fill="#3A2802" /><path d="M400.599341 890.435765h44.521412v44.521411h-44.521412z" fill="#FFFFFF" /><path d="M400.599341 845.911341h44.521412v44.521412h-44.521412z" fill="#3A2802" /><path d="M400.599341 801.391435h44.521412v44.521412h-44.521412z" fill="#FFFF93" /><path d="M400.599341 756.867012h44.521412v44.521412h-44.521412z" fill="#3A2802" /><path d="M400.599341 712.347106h44.521412v44.521412h-44.521412z" fill="#FFFF93" /><path d="M400.599341 667.8272h44.521412v44.521412h-44.521412zM400.599341 623.305788h44.521412v44.521412h-44.521412z" fill="#FFFFCF" /><path d="M400.599341 578.782871h44.521412v44.521411h-44.521412z" fill="#FFFFFF" /><path d="M445.117741 979.480094h44.521412v44.521412h-44.521412z" fill="#3A2802" /><path d="M445.117741 934.955671h44.521412v44.521411h-44.521412z" fill="#9D5913" /><path d="M445.117741 890.435765h44.521412v44.521411h-44.521412z" fill="#3A2802" /><path d="M445.117741 845.911341h44.521412v44.521412h-44.521412z" fill="#FFFFFF" /><path d="M445.117741 801.391435h44.521412v44.521412h-44.521412z" fill="#3A2802" /><path d="M445.117741 756.867012h44.521412v44.521412h-44.521412z" fill="#FFFF93" /><path d="M445.117741 712.347106h44.521412v44.521412h-44.521412z" fill="#3A2802" /><path d="M445.117741 667.8272h44.521412v44.521412h-44.521412z" fill="#FFFF93" /><path d="M445.117741 623.305788h44.521412v44.521412h-44.521412z" fill="#FFFFCF" /><path d="M445.117741 578.782871h44.521412v44.521411h-44.521412z" fill="#FFFFFF" /><path d="M489.646682 934.955671h44.521412v44.521411h-44.521412z" fill="#3A2802" /><path d="M489.646682 890.435765h44.521412v44.521411h-44.521412z" fill="#9D5913" /><path d="M489.646682 845.911341h44.521412v44.521412h-44.521412z" fill="#3A2802" /><path d="M489.646682 801.391435h44.521412v44.521412h-44.521412z" fill="#3A2802" /><path d="M489.646682 756.867012h44.521412v44.521412h-44.521412z" fill="#EADF67" /><path d="M489.646682 712.347106h44.521412v44.521412h-44.521412z" fill="#3A2802" /><path d="M489.646682 667.8272h44.521412v44.521412h-44.521412z" fill="#FFFF93" /><path d="M489.646682 623.305788h44.521412v44.521412h-44.521412zM489.646682 578.782871h44.521412v44.521411h-44.521412zM489.646682 534.261459h44.521412v44.521412h-44.521412z" fill="#FFFFCF" /><path d="M667.729318 890.435765h44.521411v44.521411h-44.521411z" fill="#3A2802" /><path d="M667.729318 845.911341h44.521411v44.521412h-44.521411z" fill="#CE781F" /><path d="M667.729318 801.391435h44.521411v44.521412h-44.521411zM667.729318 756.867012h44.521411v44.521412h-44.521411z" fill="#EADF67" /><path d="M667.729318 712.347106h44.521411v44.521412h-44.521411z" fill="#FFFF93" /><path d="M667.729318 667.8272h44.521411v44.521412h-44.521411z" fill="#FFFF93" /><path d="M667.729318 623.305788h44.521411v44.521412h-44.521411z" fill="#3A2802" /><path d="M667.729318 578.782871h44.521411v44.521411h-44.521411z" fill="#FFFF93" /><path d="M667.729318 534.261459h44.521411v44.521412h-44.521411zM667.729318 489.738541h44.521411v44.521412h-44.521411zM667.729318 445.217129h44.521411v44.521412h-44.521411z" fill="#FFFFCF" /><path d="M667.729318 400.694212h44.521411v44.521412h-44.521411z" fill="#FFFFFF" /><path d="M534.165082 934.955671h44.521412v44.521411h-44.521412z" fill="#3A2802" /><path d="M534.165082 890.435765h44.521412v44.521411h-44.521412z" fill="#9D5913" /><path d="M534.165082 845.911341h44.521412v44.521412h-44.521412z" fill="#3A2802" /><path d="M534.165082 801.391435h44.521412v44.521412h-44.521412z" fill="#CE781F" /><path d="M534.165082 756.867012h44.521412v44.521412h-44.521412z" fill="#EADF67" /><path d="M534.165082 712.347106h44.521412v44.521412h-44.521412z" fill="#3A2802" /><path d="M534.165082 667.8272h44.521412v44.521412h-44.521412z" fill="#FFFF93" /><path d="M534.165082 623.305788h44.521412v44.521412h-44.521412zM534.165082 578.782871h44.521412v44.521411h-44.521412zM534.165082 534.261459h44.521412v44.521412h-44.521412z" fill="#FFFFCF" /><path d="M534.165082 489.738541h44.521412v44.521412h-44.521412z" fill="#FFFFFF" /><path d="M712.247718 890.435765h44.521411v44.521411h-44.521411z" fill="#3A2802" /><path d="M712.247718 845.911341h44.521411v44.521412h-44.521411z" fill="#9D5913" /><path d="M712.247718 801.391435h44.521411v44.521412h-44.521411z" fill="#3A2802" /><path d="M712.247718 756.867012h44.521411v44.521412h-44.521411z" fill="#EADF67" /><path d="M712.247718 712.347106h44.521411v44.521412h-44.521411z" fill="#EADF67" /><path d="M712.247718 667.8272h44.521411v44.521412h-44.521411zM712.247718 623.305788h44.521411v44.521412h-44.521411z" fill="#FFFF93" /><path d="M712.247718 578.782871h44.521411v44.521411h-44.521411z" fill="#3A2802" /><path d="M712.247718 534.261459h44.521411v44.521412h-44.521411z" fill="#FFFF93" /><path d="M712.247718 489.738541h44.521411v44.521412h-44.521411zM712.247718 445.217129h44.521411v44.521412h-44.521411zM712.247718 400.694212h44.521411v44.521412h-44.521411z" fill="#FFFFCF" /><path d="M712.247718 356.1728h44.521411v44.521412h-44.521411z" fill="#FFFF00" /><path d="M712.247718 311.652894h44.521411v44.521412h-44.521411z" fill="#FF4200" /><path d="M712.247718 267.132988h44.521411v44.521412h-44.521411zM712.247718 222.608565h44.521411v44.521411h-44.521411z" fill="#FFFF00" /><path d="M712.247718 178.088659h44.521411v44.521412h-44.521411zM712.247718 133.564235h44.521411v44.521412h-44.521411z" fill="#FFFF00" /><path d="M712.247718 89.044329h44.521411v44.521412h-44.521411z" fill="#FFFF00" /><path d="M756.776659 890.435765h44.521412v44.521411h-44.521412z" fill="#3A2802" /><path d="M756.776659 845.911341h44.521412v44.521412h-44.521412z" fill="#9D5913" /><path d="M756.776659 801.391435h44.521412v44.521412h-44.521412zM578.681976 890.435765h44.521412v44.521411h-44.521412z" fill="#3A2802" /><path d="M578.681976 845.911341h44.521412v44.521412h-44.521412z" fill="#CE781F" /><path d="M578.681976 801.391435h44.521412v44.521412h-44.521412z" fill="#EADF67" /><path d="M578.681976 756.867012h44.521412v44.521412h-44.521412z" fill="#FFFF93" /><path d="M578.681976 712.347106h44.521412v44.521412h-44.521412z" fill="#FFFF93" /><path d="M578.681976 667.8272h44.521412v44.521412h-44.521412z" fill="#3A2802" /><path d="M578.681976 623.305788h44.521412v44.521412h-44.521412z" fill="#FFFF93" /><path d="M578.681976 578.782871h44.521412v44.521411h-44.521412zM578.681976 534.261459h44.521412v44.521412h-44.521412z" fill="#FFFFCF" /><path d="M578.681976 489.738541h44.521412v44.521412h-44.521412z" fill="#FFFFFF" /><path d="M623.200376 934.955671h44.521412v44.521411h-44.521412z" fill="#3A2802" /><path d="M623.200376 890.435765h44.521412v44.521411h-44.521412z" fill="#9D5913" /><path d="M623.200376 845.911341h44.521412v44.521412h-44.521412z" fill="#3A2802" /><path d="M623.200376 801.391435h44.521412v44.521412h-44.521412z" fill="#CE781F" /><path d="M623.200376 756.867012h44.521412v44.521412h-44.521412z" fill="#FFFF93" /><path d="M623.200376 712.347106h44.521412v44.521412h-44.521412z" fill="#FFFF93" /><path d="M623.200376 667.8272h44.521412v44.521412h-44.521412z" fill="#3A2802" /><path d="M623.200376 623.305788h44.521412v44.521412h-44.521412z" fill="#FFFF93" /><path d="M623.200376 578.782871h44.521412v44.521411h-44.521412zM623.200376 534.261459h44.521412v44.521412h-44.521412zM623.200376 489.738541h44.521412v44.521412h-44.521412z" fill="#FFFFCF" /><path d="M623.200376 445.217129h44.521412v44.521412h-44.521412z" fill="#FFFFFF" /><path d="M88.952471 845.911341h44.521411v44.521412H88.952471zM88.952471 934.955671h44.521411v44.521411H88.952471z" fill="#3A2802" /><path d="M88.952471 890.435765h44.521411v44.521411H88.952471z" fill="#FFFF93" /><path d="M177.987765 934.955671h44.521411v44.521411H177.987765z" fill="#3A2802" /><path d="M177.987765 890.435765h44.521411v44.521411H177.987765zM177.987765 845.911341h44.521411v44.521412H177.987765z" fill="#FFFF93" /><path d="M311.553506 890.435765h44.521412v44.521411h-44.521412z" fill="#3A2802" /><path d="M311.553506 845.911341h44.521412v44.521412h-44.521412z" fill="#FFFF93" /><path d="M311.553506 801.391435h44.521412v44.521412h-44.521412z" fill="#3A2802" /><path d="M311.553506 756.867012h44.521412v44.521412h-44.521412z" fill="#FFFF93" /><path d="M311.553506 712.347106h44.521412v44.521412h-44.521412z" fill="#FFFFFF" /><path d="M44.423529 890.435765h44.521412v44.521411H44.423529zM489.646682 489.738541h44.521412v44.521412h-44.521412zM667.729318 44.519906h44.521411v44.521412h-44.521411zM756.776659 89.044329h44.521412v44.521412h-44.521412zM623.200376 0h44.521412v44.521412h-44.521412z" fill="#3A2802" /><path d="M712.247718 44.519906h44.521411v44.521412h-44.521411zM801.293553 89.044329h44.521412v44.521412h-44.521412z" fill="#3A2802" /><path d="M845.811953 133.564235h44.521412v44.521412h-44.521412zM890.340894 178.088659h44.521412v44.521412h-44.521412z" fill="#3A2802" /><path d="M934.859294 222.608565h44.521412v44.521411h-44.521412zM934.859294 311.652894h44.521412v44.521412h-44.521412zM934.859294 489.738541h44.521412v44.521412h-44.521412zM890.340894 578.782871h44.521412v44.521411h-44.521412z" fill="#3A2802" /><path d="M890.340894 534.261459h44.521412v44.521412h-44.521412zM890.340894 489.738541h44.521412v44.521412h-44.521412z" fill="#EADF67" /><path d="M890.340894 445.217129h44.521412v44.521412h-44.521412z" fill="#F4C700" /><path d="M934.859294 267.132988h44.521412v44.521412h-44.521412zM934.859294 445.217129h44.521412v44.521412h-44.521412zM934.859294 356.1728h44.521412v44.521412h-44.521412zM934.859294 534.261459h44.521412v44.521412h-44.521412zM890.340894 623.305788h44.521412v44.521412h-44.521412zM845.811953 667.8272h44.521412v44.521412h-44.521412z" fill="#3A2802" /><path d="M845.811953 623.305788h44.521412v44.521412h-44.521412zM845.811953 578.782871h44.521412v44.521411h-44.521412z" fill="#EADF67" /><path d="M845.811953 534.261459h44.521412v44.521412h-44.521412z" fill="#FFFF93" /><path d="M845.811953 489.738541h44.521412v44.521412h-44.521412zM845.811953 445.217129h44.521412v44.521412h-44.521412z" fill="#FFFFCF" /><path d="M845.811953 400.694212h44.521412v44.521412h-44.521412zM845.811953 356.1728h44.521412v44.521412h-44.521412z" fill="#FFFF00" /><path d="M845.811953 311.652894h44.521412v44.521412h-44.521412z" fill="#3A2802" /><path d="M845.811953 267.132988h44.521412v44.521412h-44.521412zM845.811953 222.608565h44.521412v44.521411h-44.521412z" fill="#F7C4A5" /><path d="M845.811953 178.088659h44.521412v44.521412h-44.521412z" fill="#FFFFA5" /><path d="M801.293553 712.347106h44.521412v44.521412h-44.521412z" fill="#3A2802" /><path d="M801.293553 667.8272h44.521412v44.521412h-44.521412zM801.293553 623.305788h44.521412v44.521412h-44.521412z" fill="#EADF67" /><path d="M801.293553 578.782871h44.521412v44.521411h-44.521412z" fill="#FFFF93" /><path d="M801.293553 534.261459h44.521412v44.521412h-44.521412zM801.293553 489.738541h44.521412v44.521412h-44.521412zM801.293553 445.217129h44.521412v44.521412h-44.521412zM801.293553 400.694212h44.521412v44.521412h-44.521412z" fill="#FFFFCF" /><path d="M801.293553 356.1728h44.521412v44.521412h-44.521412z" fill="#FF4200" /><path d="M801.293553 311.652894h44.521412v44.521412h-44.521412z" fill="#FF4200" /><path d="M801.293553 267.132988h44.521412v44.521412h-44.521412z" fill="#FFFFA5" /><path d="M801.293553 222.608565h44.521412v44.521411h-44.521412z" fill="#3A2802" /><path d="M801.293553 178.088659h44.521412v44.521412h-44.521412zM801.293553 133.564235h44.521412v44.521412h-44.521412z" fill="#FFFF00" /><path d="M756.776659 756.867012h44.521412v44.521412h-44.521412z" fill="#3A2802" /><path d="M756.776659 712.347106h44.521412v44.521412h-44.521412z" fill="#EADF67" /><path d="M756.776659 667.8272h44.521412v44.521412h-44.521412z" fill="#EADF67" /><path d="M756.776659 623.305788h44.521412v44.521412h-44.521412zM756.776659 578.782871h44.521412v44.521411h-44.521412z" fill="#FFFF93" /><path d="M756.776659 534.261459h44.521412v44.521412h-44.521412zM756.776659 489.738541h44.521412v44.521412h-44.521412zM756.776659 445.217129h44.521412v44.521412h-44.521412zM756.776659 400.694212h44.521412v44.521412h-44.521412z" fill="#FFFFCF" /><path d="M756.776659 356.1728h44.521412v44.521412h-44.521412z" fill="#FF4200" /><path d="M756.776659 311.652894h44.521412v44.521412h-44.521412z" fill="#FF4200" /><path d="M756.776659 267.132988h44.521412v44.521412h-44.521412z" fill="#FF4200" /><path d="M756.776659 222.608565h44.521412v44.521411h-44.521412z" fill="#FFFF00" /><path d="M756.776659 178.088659h44.521412v44.521412h-44.521412z" fill="#FFFFA5" /><path d="M756.776659 133.564235h44.521412v44.521412h-44.521412z" fill="#FFFF00" /><path d="M801.293553 801.391435h44.521412v44.521412h-44.521412z" fill="#3A2802" /><path d="M801.293553 845.911341h44.521412v44.521412h-44.521412z" fill="#9D5913" /><path d="M801.293553 890.435765h44.521412v44.521411h-44.521412zM845.811953 845.911341h44.521412v44.521412h-44.521412zM890.340894 400.694212h44.521412v44.521412h-44.521412zM890.340894 356.1728h44.521412v44.521412h-44.521412z" fill="#3A2802" /><path d="M890.340894 311.652894h44.521412v44.521412h-44.521412z" fill="#E39B6F" /><path d="M890.340894 267.132988h44.521412v44.521412h-44.521412z" fill="#E39B6F" /><path d="M890.340894 222.608565h44.521412v44.521411h-44.521412z" fill="#F7C4A5" /></svg>