<?xml version="1.0" standalone="no"?><!DOCTYPE svg PUBLIC "-//W3C//DTD SVG 1.1//EN" "http://www.w3.org/Graphics/SVG/1.1/DTD/svg11.dtd"><svg class="icon" width="200px" height="200.00px" viewBox="0 0 1024 1024" version="1.1" xmlns="http://www.w3.org/2000/svg"><path d="M320 192h64v64h-64z" fill="#FFE8D9" /><path d="M704 512h64v64h-64zM704 448h64v64h-64zM704 384h64v64h-64z" fill="#333333" /><path d="M704 320h64v64h-64z" fill="#FFE8D9" /><path d="M640 576h64v64h-64z" fill="#333333" /><path d="M640 512h64v64h-64zM640 448h64v64h-64z" fill="#F4BB60" /><path d="M640 384h64v64h-64z" fill="#333333" /><path d="M640 320h64v64h-64zM640 256h64v64h-64z" fill="#FFDAC5" /><path d="M576 832h64v64h-64zM576 768h64v64h-64zM576 704h64v64h-64zM576 640h64v64h-64z" fill="#333333" /><path d="M576 576h64v64h-64zM576 512h64v64h-64z" fill="#F4BB60" /><path d="M576 448h64v64h-64z" fill="#F4D398" /><path d="M576 384h64v64h-64z" fill="#333333" /><path d="M576 320h64v64h-64z" fill="#ED4832" /><path d="M576 256h64v64h-64z" fill="#FFE8D9" /><path d="M576 192h64v64h-64z" fill="#FFDAC5" /><path d="M512 832h64v64h-64z" fill="#333333" /><path d="M512 768h64v64h-64zM512 704h64v64h-64zM512 640h64v64h-64z" fill="#F4BB60" /><path d="M512 576h64v64h-64zM512 512h64v64h-64zM512 448h64v64h-64z" fill="#F4D398" /><path d="M512 384h64v64h-64zM512 320h64v64h-64zM512 256h64v64h-64z" fill="#FFE8D9" /><path d="M512 192h64v64h-64z" fill="#FFDAC5" /><path d="M512 128h64v64h-64z" fill="#FFE8D9" /><path d="M448 832h64v64h-64z" fill="#333333" /><path d="M448 768h64v64h-64zM448 704h64v64h-64zM448 640h64v64h-64z" fill="#F9E4CA" /><path d="M448 576h64v64h-64zM448 512h64v64h-64z" fill="#F4D398" /><path d="M448 448h64v64h-64zM448 384h64v64h-64zM448 320h64v64h-64z" fill="#FFE8D9" /><path d="M448 256h64v64h-64z" fill="#FFDAC5" /><path d="M448 192h64v64h-64z" fill="#ED4832" /><path d="M448 128h64v64h-64zM448 64h64v64h-64z" fill="#FFE8D9" /><path d="M384 832h64v64h-64zM384 768h64v64h-64zM384 704h64v64h-64zM384 640h64v64h-64z" fill="#333333" /><path d="M384 576h64v64h-64z" fill="#F9E4CA" /><path d="M384 512h64v64h-64zM384 448h64v64h-64z" fill="#F4D398" /><path d="M384 384h64v64h-64z" fill="#333333" /><path d="M384 320h64v64h-64z" fill="#ED4832" /><path d="M384 256h64v64h-64zM384 192h64v64h-64z" fill="#FFE8D9" /><path d="M320 576h64v64h-64z" fill="#333333" /><path d="M320 512h64v64h-64zM320 448h64v64h-64z" fill="#F9E4CA" /><path d="M320 384h64v64h-64z" fill="#333333" /><path d="M320 320h64v64h-64zM320 256h64v64h-64z" fill="#FFE8D9" /><path d="M256 512h64v64h-64zM256 448h64v64h-64zM256 384h64v64h-64z" fill="#333333" /><path d="M256 320h64v64h-64z" fill="#FFE8D9" /></svg>